<?xml version="1.0" encoding="UTF-8" standalone="no"?>
<!-- Created with Inkscape (http://www.inkscape.org/) -->

<svg
   xmlns:dc="http://purl.org/dc/elements/1.1/"
   xmlns:cc="http://creativecommons.org/ns#"
   xmlns:rdf="http://www.w3.org/1999/02/22-rdf-syntax-ns#"
   xmlns:svg="http://www.w3.org/2000/svg"
   xmlns="http://www.w3.org/2000/svg"
   xmlns:sodipodi="http://sodipodi.sourceforge.net/DTD/sodipodi-0.dtd"
   xmlns:inkscape="http://www.inkscape.org/namespaces/inkscape"
   id="svg6214"
   height="205"
   width="205"
   version="1.1"
   inkscape:version="0.48.5 r10040"
   sodipodi:docname="casa3.svg">
  <defs
     id="defs107" />
  <sodipodi:namedview
     pagecolor="#ffffff"
     bordercolor="#666666"
     borderopacity="1"
     objecttolerance="10"
     gridtolerance="10"
     guidetolerance="10"
     inkscape:pageopacity="0"
     inkscape:pageshadow="2"
     inkscape:window-width="636"
     inkscape:window-height="1041"
     id="namedview105"
     showgrid="false"
     inkscape:zoom="4.0000001"
     inkscape:cx="109.90053"
     inkscape:cy="136.71026"
     inkscape:window-x="640"
     inkscape:window-y="18"
     inkscape:window-maximized="0"
     inkscape:current-layer="g5061"
     showguides="true"
     inkscape:guide-bbox="true">
    <sodipodi:guide
       orientation="0,1"
       position="-0.21875,59.289062"
       id="guide3295" />
    <sodipodi:guide
       orientation="1,0"
       position="102.49105,-5.4346034"
       id="guide3297" />
  </sodipodi:namedview>
  <metadata
     id="metadata6219">
    <rdf:RDF>
      <cc:Work
         rdf:about="">
        <dc:format>image/svg+xml</dc:format>
        <dc:type
           rdf:resource="http://purl.org/dc/dcmitype/StillImage" />
        <dc:title></dc:title>
      </cc:Work>
    </rdf:RDF>
  </metadata>
  <g
     id="g5061"
     transform="matrix(1.0002665,0,0,1.0002665,-13.170999,-693.66199)">
    <g
       transform="matrix(0.41677977,0,0,0.41677977,857.30355,697.18947)"
       id="g9172">
      <path
         inkscape:connector-curvature="0"
         d="m -1765.9705,152.17101 -0.105,-40.8275 80.89,-45.936251 0,37.546251 -80.785,49.2175"
         style="fill:#c1e6d5;fill-opacity:1;fill-rule:nonzero;stroke:none"
         id="path6159" />
      <path
         inkscape:connector-curvature="0"
         d="m -1765.9705,149.53351 -46.8075,-28.2725 0,-42.226251 23.6725,-2.65375 23.135,34.941251 0,38.21125"
         style="fill:#ffffff;fill-opacity:1;fill-rule:nonzero;stroke:none"
         id="path6161" />
      <path
         inkscape:connector-curvature="0"
         d="m -1765.9705,149.00351 0,3.2875 -48.7412,-28.3275 0,-2.97375 48.7412,28.01375"
         style="fill:#d95e40;fill-opacity:1;fill-rule:nonzero;stroke:none"
         id="path6163" />
      <path
         inkscape:connector-curvature="0"
         d="m -1765.9705,149.00351 0,3.2875 82.0525,-48.6225 0,-3.0275 -82.0525,48.3625"
         style="fill:#6d352f;fill-opacity:1;fill-rule:nonzero;stroke:none"
         id="path6165" />
      <path
         inkscape:connector-curvature="0"
         d="m -1685.1855,100.70601 0,-0.965001 1.2675,0.900001 -82.0525,48.3625 0,-0.75375 80.785,-47.54375"
         style="fill:#d95e40;fill-opacity:1;fill-rule:nonzero;stroke:none"
         id="path6167" />
      <path
         inkscape:connector-curvature="0"
         d="m -1812.8543,120.40976 0,0.7425 46.8838,27.0975 0,0.75375 -48.7412,-28.01375 1.8574,-0.58"
         style="fill:#6d352f;fill-opacity:1;fill-rule:nonzero;stroke:none"
         id="path6169" />
      <path
         inkscape:connector-curvature="0"
         d="m -1794.1918,101.00851 0,19.10375 -14.3312,-8.23875 0,-19.081251 14.3312,8.216251"
         style="fill:#d95e40;fill-opacity:1;fill-rule:nonzero;stroke:none"
         id="path6171" />
      <path
         inkscape:connector-curvature="0"
         d="m -1803.268,97.566009 -3.9337,3.935001 0,9.37125 0.3399,0.19625 9.8913,-9.89125 -6.2975,-3.611251"
         style="fill:#b7e7e4;fill-opacity:1;fill-rule:nonzero;stroke:none"
         id="path6173" />
      <path
         inkscape:connector-curvature="0"
         d="m -1807.2017,95.311009 0,6.190001 3.9337,-3.935001 -3.9337,-2.255"
         style="fill:#d8f2f3;fill-opacity:1;fill-rule:nonzero;stroke:none"
         id="path6175" />
      <path
         inkscape:connector-curvature="0"
         d="m -1795.5155,103.97726 -8.645,8.64375 8.645,4.9725 0,-13.61625"
         style="fill:#b7e7e4;fill-opacity:1;fill-rule:nonzero;stroke:none"
         id="path6177" />
      <path
         inkscape:connector-curvature="0"
         d="m -1795.5155,102.01101 -1.455,-0.83375 -9.8913,9.89125 2.7013,1.5525 8.645,-8.64375 0,-1.96625"
         style="fill:#d8f2f3;fill-opacity:1;fill-rule:nonzero;stroke:none"
         id="path6179" />
      <path
         inkscape:connector-curvature="0"
         d="m -1805.923,110.12976 -0.028,-14.033751 -1.2512,-0.785 0,15.561251 11.6862,6.72125 0,-1.5 -10.4075,-5.96375"
         style="fill:#6d352f;fill-opacity:1;fill-rule:nonzero;stroke:none"
         id="path6181" />
      <path
         inkscape:connector-curvature="0"
         d="m -1772.358,114.11101 0,19.10875 -14.33,-8.24375 0,-19.07625 14.33,8.21125"
         style="fill:#d95e40;fill-opacity:1;fill-rule:nonzero;stroke:none"
         id="path6183" />
      <path
         inkscape:connector-curvature="0"
         d="m -1773.678,115.11226 -5.8525,-3.35125 -5.835,5.83625 0,6.3775 2.2412,1.2875 9.4463,-9.44625 0,-0.70375"
         style="fill:#b7e7e4;fill-opacity:1;fill-rule:nonzero;stroke:none"
         id="path6185" />
      <path
         inkscape:connector-curvature="0"
         d="m -1785.3655,108.41851 0,9.17875 5.835,-5.83625 -5.835,-3.3425"
         style="fill:#d8f2f3;fill-opacity:1;fill-rule:nonzero;stroke:none"
         id="path6187" />
      <path
         inkscape:connector-curvature="0"
         d="m -1773.678,120.06976 -6.7438,6.745 6.7438,3.875 0,-10.62"
         style="fill:#b7e7e4;fill-opacity:1;fill-rule:nonzero;stroke:none"
         id="path6189" />
      <path
         inkscape:connector-curvature="0"
         d="m -1773.678,115.81601 -9.4463,9.44625 2.7025,1.5525 6.7438,-6.745 0,-4.25375"
         style="fill:#d8f2f3;fill-opacity:1;fill-rule:nonzero;stroke:none"
         id="path6191" />
      <path
         inkscape:connector-curvature="0"
         d="m -1784.088,123.23226 -0.024,-14.03375 -1.2537,-0.78 0,15.55625 11.6875,6.715 0,-1.49375 -10.41,-5.96375"
         style="fill:#6d352f;fill-opacity:1;fill-rule:nonzero;stroke:none"
         id="path6193" />
      <path
         inkscape:connector-curvature="0"
         d="m -1732.4893,103.56601 0,18.7725 14.0775,-8.0975 0,-18.751251 -14.0775,8.076251"
         style="fill:#6d352f;fill-opacity:1;fill-rule:nonzero;stroke:none"
         id="path6195" />
      <path
         inkscape:connector-curvature="0"
         d="m -1731.2893,120.05226 0,-15.57125 11.6775,-6.706251 0,15.561251 -11.6775,6.71625"
         style="fill:#6d352f;fill-opacity:1;fill-rule:nonzero;stroke:none"
         id="path6197" />
      <path
         inkscape:connector-curvature="0"
         d="m -1720.8818,112.59476 0.021,-14.040001 1.2487,-0.78 0,15.561251 -11.6775,6.71625 0,-1.495 10.4075,-5.9625"
         style="fill:#421b19;fill-opacity:1;fill-rule:nonzero;stroke:none"
         id="path6199" />
      <path
         inkscape:connector-curvature="0"
         d="m -1737.4155,35.194759 -80.63,46.7325 27.7562,-2.345 80.6763,-47.20875 -27.8025,2.82125"
         style="fill:#f14b3d;fill-opacity:1;fill-rule:nonzero;stroke:none"
         id="path6201" />
      <path
         inkscape:connector-curvature="0"
         d="m -1790.8118,79.522259 27.195,33.987501 81.175,-46.570001 -27.4425,-34.6975 -80.9275,47.28"
         style="fill:#c23323;fill-opacity:1;fill-rule:nonzero;stroke:none"
         id="path6203" />
      <path
         inkscape:connector-curvature="0"
         d="m -1818.0918,81.899759 27.3963,-2.3775 27.0787,33.846251 -2.7212,-1.67875 -25.0375,-30.786251 -23.2175,1.99375 -3.4988,-0.9975"
         style="fill:#f14b3d;fill-opacity:1;fill-rule:nonzero;stroke:none"
         id="path6205" />
      <path
         inkscape:connector-curvature="0"
         d="m -1710.2905,87.891009 0,27.568751 13.9188,-8.0975 0,-27.910001 -13.9225,8.43875"
         style="fill:#eae3e3;fill-opacity:1;fill-rule:nonzero;stroke:none"
         id="path6219" />
      <path
         inkscape:connector-curvature="0"
         d="m -1690.073,173.05101 0.1237,-40.92 -56.1912,-28.80875 0,37.22625 56.0675,32.5025"
         style="fill:#ffffff;fill-opacity:1;fill-rule:nonzero;stroke:none"
         id="path6237" />
      <path
         inkscape:connector-curvature="0"
         d="m -1690.073,171.56726 54.1875,-32.64375 -0.1525,-43.688751 -24.6463,-1.5925 -29.3887,38.451251 0,39.47375"
         style="fill:#c1e6d5;fill-opacity:1;fill-rule:nonzero;stroke:none"
         id="path6239" />
      <path
         inkscape:connector-curvature="0"
         d="m -1690.073,169.54226 0,3.645 56.2612,-32.69375 0,-3.30875 -56.2612,32.3575"
         style="fill:#6d352f;fill-opacity:1;fill-rule:nonzero;stroke:none"
         id="path6241" />
      <path
         inkscape:connector-curvature="0"
         d="m -1690.073,169.54226 0,3.645 -56.0675,-32.67125 0,-3.36375 56.0675,32.39"
         style="fill:#d95e40;fill-opacity:1;fill-rule:nonzero;stroke:none"
         id="path6243" />
      <path
         inkscape:connector-curvature="0"
         d="m -1746.1405,136.66476 0,0.63375 56.0675,32.24375 0,-0.8775 -56.0675,-32"
         style="fill:#6d352f;fill-opacity:1;fill-rule:nonzero;stroke:none"
         id="path6245" />
      <path
         inkscape:connector-curvature="0"
         d="m -1635.9455,136.51851 0,0.8775 -54.1275,31.26875 0,0.8775 56.2612,-32.3575 -2.1337,-0.66625"
         style="fill:#d95e40;fill-opacity:1;fill-rule:nonzero;stroke:none"
         id="path6247" />
      <path
         inkscape:connector-curvature="0"
         d="m -1683.3493,66.062259 54.7213,31.33875 -31.6888,-2.68 -56.6062,-32.8775 33.5737,4.21875"
         style="fill:#c23323;fill-opacity:1;fill-rule:nonzero;stroke:none"
         id="path6249" />
      <path
         inkscape:connector-curvature="0"
         d="m -1659.7155,94.649759 -31.0513,38.802501 -55.8837,-29.805 30.04,-41.955001 56.895,32.9575"
         style="fill:#f14b3d;fill-opacity:1;fill-rule:nonzero;stroke:none"
         id="path6251" />
      <path
         inkscape:connector-curvature="0"
         d="m -1628.5793,97.363509 -31.2712,-2.71375 -30.9163,38.640001 3.1063,-1.91125 28.585,-35.157501 26.5075,2.28 3.9887,-1.1375"
         style="fill:#a92322;fill-opacity:1;fill-rule:nonzero;stroke:none"
         id="path6253" />
      <path
         inkscape:connector-curvature="0"
         d="m -1653.5543,147.89226 12.7288,-7.37625 0,-30.06125 -0.3437,-0.195 -12.7426,7.69625 0,29.845 0.3575,0.0913"
         style="fill:#421b19;fill-opacity:1;fill-rule:nonzero;stroke:none"
         id="path6265" />
      <path
         inkscape:connector-curvature="0"
         d="m -1640.8255,140.52601 0,-30.0925 -12.7387,7.67 0,29.75125 12.7387,-7.32875"
         style="fill:#502420;fill-opacity:1;fill-rule:nonzero;stroke:none"
         id="path6267" />
      <path
         inkscape:connector-curvature="0"
         d="m -1641.8168,139.86601 -0.054,-27.78 -10.7462,6.37375 0,27.635 10.7999,-6.22875"
         style="fill:#6d352f;fill-opacity:1;fill-rule:nonzero;stroke:none"
         id="path6269" />
      <path
         inkscape:connector-curvature="0"
         d="m -1645.5455,116.77601 c 0.5225,0.325 0.85,0.975 0.8525,1.87375 l 0,0.0863 -5.2325,3.06125 -0.019,0.15625 0.019,0.36375 5.8425,-3.4125 0,-0.0975 c 0,-1.1975 -0.61,-1.90125 -1.4625,-2.03125"
         style="fill:#d95e40;fill-opacity:1;fill-rule:nonzero;stroke:none"
         id="path6271" />
      <path
         inkscape:connector-curvature="0"
         d="m -1644.693,118.64976 c 0,-0.89875 -0.33,-1.54875 -0.8525,-1.87375 -0.4338,-0.07 -0.9162,-0.0325 -1.465,0.265 -1.5825,0.85 -2.8438,2.94625 -2.915,4.75625 l 5.2325,-3.06125 0,-0.0863"
         style="fill:#502420;fill-opacity:1;fill-rule:nonzero;stroke:none"
         id="path6273" />
      <path
         inkscape:connector-curvature="0"
         d="m -1644.768,139.23726 -5.1763,3.055 0,0.79625 5.8525,-3.445 0,-19.7425 -0.6762,0.39 0,18.94625"
         style="fill:#d95e40;fill-opacity:1;fill-rule:nonzero;stroke:none"
         id="path6275" />
      <path
         inkscape:connector-curvature="0"
         d="m -1644.768,120.29101 -5.1763,3.055 0,18.94625 5.1763,-3.055 0,-18.94625"
         style="fill:#502420;fill-opacity:1;fill-rule:nonzero;stroke:none"
         id="path6277" />
      <path
         inkscape:connector-curvature="0"
         d="m -1642.3418,127.66226 c 0,0.2875 -0.2362,0.53625 -0.52,0.5425 -0.2987,0.01 -0.5287,-0.20625 -0.5287,-0.51 0,-0.28625 0.23,-0.53 0.5287,-0.53625 0.2838,-0.0163 0.52,0.21125 0.52,0.50375"
         style="fill:#d69b4d;fill-opacity:1;fill-rule:nonzero;stroke:none"
         id="path6279" />
      <path
         inkscape:connector-curvature="0"
         d="m -1721.7505,125.54976 0,19.09875 -14.3325,-8.23875 0,-19.08125 14.3325,8.22125"
         style="fill:#d95e40;fill-opacity:1;fill-rule:nonzero;stroke:none"
         id="path6281" />
      <path
         inkscape:connector-curvature="0"
         d="m -1723.0755,126.55226 -5.09,-2.92125 -6.595,6.59625 0,5.19125 2.9937,1.72125 8.6913,-8.69125 0,-1.89625"
         style="fill:#b7e7e4;fill-opacity:1;fill-rule:nonzero;stroke:none"
         id="path6283" />
      <path
         inkscape:connector-curvature="0"
         d="m -1734.7605,119.84726 0,10.38 6.595,-6.59625 -6.595,-3.78375"
         style="fill:#d8f2f3;fill-opacity:1;fill-rule:nonzero;stroke:none"
         id="path6285" />
      <path
         inkscape:connector-curvature="0"
         d="m -1723.0755,128.44851 -8.6913,8.69125 2.7025,1.5525 5.9888,-5.98875 0,-4.255"
         style="fill:#d8f2f3;fill-opacity:1;fill-rule:nonzero;stroke:none"
         id="path6287" />
      <path
         inkscape:connector-curvature="0"
         d="m -1723.0755,132.70351 -5.9887,5.98875 5.9887,3.4425 0,-9.43125"
         style="fill:#b7e7e4;fill-opacity:1;fill-rule:nonzero;stroke:none"
         id="path6289" />
      <path
         inkscape:connector-curvature="0"
         d="m -1733.488,134.66601 -0.021,-14.03375 -1.2512,-0.785 0,15.57125 11.685,6.71625 0,-1.505 -10.4125,-5.96375"
         style="fill:#6d352f;fill-opacity:1;fill-rule:nonzero;stroke:none"
         id="path6291" />
      <path
         inkscape:connector-curvature="0"
         d="m -1699.3118,138.67351 0,19.09875 -14.3287,-8.2325 0,-19.0825 14.3287,8.21625"
         style="fill:#d95e40;fill-opacity:1;fill-rule:nonzero;stroke:none"
         id="path6293" />
      <path
         inkscape:connector-curvature="0"
         d="m -1712.3155,132.97601 0,10.02 6.3675,-6.3675 -6.3675,-3.6525"
         style="fill:#d8f2f3;fill-opacity:1;fill-rule:nonzero;stroke:none"
         id="path6295" />
      <path
         inkscape:connector-curvature="0"
         d="m -1700.633,139.67601 -5.315,-3.0475 -6.3675,6.3675 0,5.54125 2.7725,1.59375 8.91,-8.91 0,-1.545"
         style="fill:#b7e7e4;fill-opacity:1;fill-rule:nonzero;stroke:none"
         id="path6297" />
      <path
         inkscape:connector-curvature="0"
         d="m -1700.633,141.22101 -8.91,8.91 2.7012,1.55375 6.2088,-6.21 0,-4.25375"
         style="fill:#d8f2f3;fill-opacity:1;fill-rule:nonzero;stroke:none"
         id="path6299" />
      <path
         inkscape:connector-curvature="0"
         d="m -1700.633,145.47476 -6.2088,6.21 6.2088,3.56875 0,-9.77875"
         style="fill:#b7e7e4;fill-opacity:1;fill-rule:nonzero;stroke:none"
         id="path6301" />
      <path
         inkscape:connector-curvature="0"
         d="m -1711.0455,147.78476 -0.023,-14.02375 -1.2475,-0.785 0,15.56125 11.6825,6.71625 0,-1.495 -10.4125,-5.97375"
         style="fill:#6d352f;fill-opacity:1;fill-rule:nonzero;stroke:none"
         id="path6303" />
      <path
         inkscape:connector-curvature="0"
         d="m -1679.7717,133.63101 0,18.77375 14.0799,-8.0925 0,-18.75125 -14.0799,8.07"
         style="fill:#6d352f;fill-opacity:1;fill-rule:nonzero;stroke:none"
         id="path6305" />
      <path
         inkscape:connector-curvature="0"
         d="m -1666.8868,127.84101 -5.9175,3.39625 -5.7675,5.7675 0,9.9075 11.685,-11.685 0,-7.38625"
         style="fill:#b7e7e4;fill-opacity:1;fill-rule:nonzero;stroke:none"
         id="path6307" />
      <path
         inkscape:connector-curvature="0"
         d="m -1666.8868,139.48101 -9.2199,9.22125 9.2199,-5.3 0,-3.92125"
         style="fill:#b7e7e4;fill-opacity:1;fill-rule:nonzero;stroke:none"
         id="path6309" />
      <path
         inkscape:connector-curvature="0"
         d="m -1678.5718,134.54726 0,2.4575 5.7675,-5.7675 -5.7675,3.31"
         style="fill:#d8f2f3;fill-opacity:1;fill-rule:nonzero;stroke:none"
         id="path6311" />
      <path
         inkscape:connector-curvature="0"
         d="m -1666.8868,135.22726 -11.685,11.685 0,3.20625 2.4651,-1.41625 9.2199,-9.22125 0,-4.25375"
         style="fill:#d8f2f3;fill-opacity:1;fill-rule:nonzero;stroke:none"
         id="path6313" />
      <path
         inkscape:connector-curvature="0"
         d="m -1668.1643,142.65976 0.024,-14.0325 1.2537,-0.78625 0,15.56125 -11.685,6.71625 0,-1.495 10.4075,-5.96375"
         style="fill:#d95e40;fill-opacity:1;fill-rule:nonzero;stroke:none"
         id="path6315" />
      <path
         inkscape:connector-curvature="0"
         d="m -1638.768,143.62476 -12.5113,7.3925 0,2.31875 12.5113,-7.40375 0,-2.3075"
         style="fill:#bfc6bd;fill-opacity:1;fill-rule:nonzero;stroke:none"
         id="path6317" />
      <path
         inkscape:connector-curvature="0"
         d="m -1653.5518,149.70726 2.2725,1.31 0,2.31875 -2.2725,-1.305 0,-2.32375"
         style="fill:#421b19;fill-opacity:1;fill-rule:nonzero;stroke:none"
         id="path6319" />
      <path
         inkscape:connector-curvature="0"
         d="m -1638.768,143.62476 -12.5113,7.3925 -2.2725,-1.31 12.6663,-7.355 2.1175,1.2725"
         style="fill:#dde0c4;fill-opacity:1;fill-rule:nonzero;stroke:none"
         id="path6321" />
      <path
         inkscape:connector-curvature="0"
         d="m -1636.5193,144.89226 -12.5125,7.39875 0,2.32375 12.5125,-7.39375 0,-2.32875"
         style="fill:#502420;fill-opacity:1;fill-rule:nonzero;stroke:none"
         id="path6323" />
      <path
         inkscape:connector-curvature="0"
         d="m -1651.3005,150.98601 2.2687,1.305 0,2.32375 -2.2687,-1.30625 0,-2.3225"
         style="fill:#421b19;fill-opacity:1;fill-rule:nonzero;stroke:none"
         id="path6325" />
      <path
         inkscape:connector-curvature="0"
         d="m -1636.5193,144.89226 -12.5125,7.39875 -2.2687,-1.305 12.6625,-7.36125 2.1187,1.2675"
         style="fill:#6d352f;fill-opacity:1;fill-rule:nonzero;stroke:none"
         id="path6327" />
      <path
         inkscape:connector-curvature="0"
         d="m -1638.768,141.67976 -12.5113,7.39875 0,2.0475 12.5113,-7.40375 0,-2.0425"
         style="fill:#502420;fill-opacity:1;fill-rule:nonzero;stroke:none"
         id="path6329" />
      <path
         inkscape:connector-curvature="0"
         d="m -1653.5518,147.76851 2.2725,1.31 0,2.0475 -2.2725,-1.305 0,-2.0525"
         style="fill:#421b19;fill-opacity:1;fill-rule:nonzero;stroke:none"
         id="path6331" />
      <path
         inkscape:connector-curvature="0"
         d="m -1638.768,141.67976 -12.5113,7.39875 -2.2725,-1.31 12.6663,-7.35625 2.1175,1.2675"
         style="fill:#6d352f;fill-opacity:1;fill-rule:nonzero;stroke:none"
         id="path6333" />
      <path
         inkscape:connector-curvature="0"
         d="m -1722.8668,176.13351 c 0.029,0.71125 1.2088,0.605 1.21,-0.0588 l 0.014,-12.515 c 0,-0.35875 -0.2738,-0.65125 -0.6087,-0.65 -0.335,0 -0.6063,0.295 -0.6063,0.65375 l -0.015,9.385 0.01,0.085 0,3.1"
         style="fill:#d95e40;fill-opacity:1;fill-rule:nonzero;stroke:none"
         id="path6335" />
      <path
         inkscape:connector-curvature="0"
         d="m -1720.3555,167.77351 0,2.16375 c 0.028,0.925 -0.081,1.16875 -0.7125,1.61875 l -1.1725,0.5925 0.3213,0.655 1.1962,-0.605 c 1.0163,-0.6675 1.0975,-1.39125 1.0975,-2.26625 l 0,-2.15875 -0.73,0"
         style="fill:#d95e40;fill-opacity:1;fill-rule:nonzero;stroke:none"
         id="path6337" />
      <path
         inkscape:connector-curvature="0"
         d="m -1724.4055,171.05226 0,-2.22625 -0.755,0 0,2.22625 c 0,0.9075 0.085,1.65375 1.1525,2.35625 l 1.2175,0.615 0.3325,-0.67875 -1.1888,-0.59875 c -0.6737,-0.47875 -0.7875,-0.73 -0.7587,-1.69375"
         style="fill:#d95e40;fill-opacity:1;fill-rule:nonzero;stroke:none"
         id="path6339" />
      <path
         inkscape:connector-curvature="0"
         d="m -1715.2755,162.89851 c 0,3.39625 -2.7525,6.14875 -6.15,6.14875 -3.3963,0 -6.1488,-2.7525 -6.1488,-6.14875 0,-3.39625 2.7525,-6.15125 6.1488,-6.15125 3.3975,0 6.15,2.755 6.15,6.15125"
         style="fill:#428e3a;fill-opacity:1;fill-rule:nonzero;stroke:none"
         id="path6341" />
      <path
         inkscape:connector-curvature="0"
         d="m -1714.138,161.66226 c 1.5975,-6.1575 -2.9363,-6.88125 -2.9363,-6.88125 -1.4687,-5.82875 -7.9087,-4.76 -7.9087,-4.76 -0.2,-0.0337 -0.3925,-0.09 -0.6025,-0.09 -1.6375,0 -3.0025,1.08875 -3.4563,2.575 -2.9987,0.009 -5.4262,2.44125 -5.4262,5.4425 0,1.00125 0.2737,1.93625 0.745,2.74375 -0.4763,1.0575 -0.745,2.22875 -0.745,3.46625 0,4.68375 3.7975,8.48375 8.4837,8.48375 2.2425,0 4.2788,-0.8775 5.7938,-2.3025 0.8425,0.3325 1.7575,0.5225 2.72,0.5225 1.2525,0 2.415,-0.34 3.4512,-0.8875 3.3625,-4.495 -0.1187,-8.3125 -0.1187,-8.3125"
         style="fill:#80ca31;fill-opacity:1;fill-rule:nonzero;stroke:none"
         id="path6343" />
      <path
         inkscape:connector-curvature="0"
         d="m -1710.0343,163.42476 c 0,-1.06375 -0.2287,-2.07375 -0.6312,-2.99125 0.3662,-0.75125 0.5762,-1.59125 0.5762,-2.485 0,-2.91125 -2.1849,-5.30625 -5.005,-5.64625 -0.8062,-2.35625 -3.035,-4.05375 -5.665,-4.05375 -1.6562,0 -3.1387,0.6875 -4.2237,1.7725 0,0 6.44,-1.06875 7.9087,4.76 0,0 4.5338,0.72375 2.9363,6.88125 0,0 3.4812,3.8175 0.1187,8.3125 2.3588,-1.24625 3.985,-3.69625 3.985,-6.55"
         style="fill:#70b72e;fill-opacity:1;fill-rule:nonzero;stroke:none"
         id="path6345" />
      <path
         inkscape:connector-curvature="0"
         d="m -1725.408,153.65851 c 0,0 -5.3538,0.99375 -4.36,6.64875 0,0 -2.4188,1.5975 -1.3825,4.88 0,0 -2.7,-1.835 -0.5788,-5.15125 0,0 -0.3925,-2.915 1.3388,-4.865 1.7312,-1.95125 4.9825,-1.5125 4.9825,-1.5125"
         style="fill:#ffffff;fill-opacity:1;fill-rule:nonzero;stroke:none"
         id="path6347" />
      <path
         inkscape:connector-curvature="0"
         d="m -1769.348,168.27976 c 0.027,0.71125 1.2075,0.60625 1.2088,-0.0588 l 0.014,-12.515 c 0,-0.35875 -0.2737,-0.65125 -0.6088,-0.65 -0.335,0 -0.6062,0.29625 -0.605,0.65375 l -0.016,9.385 0.01,0.0862 0,3.09875"
         style="fill:#d95e40;fill-opacity:1;fill-rule:nonzero;stroke:none"
         id="path6349" />
      <path
         inkscape:connector-curvature="0"
         d="m -1766.838,159.91976 0,2.16375 c 0.029,0.925 -0.081,1.16875 -0.7113,1.61875 l -1.1737,0.5925 0.3225,0.655 1.195,-0.605 c 1.0175,-0.6675 1.0975,-1.39125 1.0975,-2.26625 l 0,-2.15875 -0.73,0"
         style="fill:#d95e40;fill-opacity:1;fill-rule:nonzero;stroke:none"
         id="path6351" />
      <path
         inkscape:connector-curvature="0"
         d="m -1770.888,163.19851 0,-2.22625 -0.7538,0 0,2.22625 c 0,0.9075 0.084,1.65375 1.1525,2.35625 l 1.2163,0.615 0.3337,-0.67875 -1.19,-0.59875 c -0.6737,-0.47875 -0.7875,-0.73 -0.7587,-1.69375"
         style="fill:#d95e40;fill-opacity:1;fill-rule:nonzero;stroke:none"
         id="path6353" />
      <path
         inkscape:connector-curvature="0"
         d="m -1761.758,155.04476 c 0,3.39625 -2.7525,6.14875 -6.15,6.14875 -3.395,0 -6.1488,-2.7525 -6.1488,-6.14875 0,-3.39625 2.7538,-6.15125 6.1488,-6.15125 3.3975,0 6.15,2.755 6.15,6.15125"
         style="fill:#428e3a;fill-opacity:1;fill-rule:nonzero;stroke:none"
         id="path6355" />
      <path
         inkscape:connector-curvature="0"
         d="m -1760.6205,153.80851 c 1.5975,-6.1575 -2.9363,-6.88125 -2.9363,-6.88125 -1.4674,-5.82875 -7.9075,-4.76 -7.9075,-4.76 -0.2012,-0.0337 -0.3937,-0.09 -0.6037,-0.09 -1.6363,0 -3.0025,1.08875 -3.4562,2.575 -2.9975,0.009 -5.4263,2.44125 -5.4263,5.4425 0,1.00125 0.2737,1.93625 0.7462,2.74375 -0.4762,1.0575 -0.7462,2.22875 -0.7462,3.46625 0,4.68375 3.7975,8.48375 8.4837,8.48375 2.2438,0 4.28,-0.8775 5.7938,-2.3025 0.8437,0.3325 1.7587,0.5225 2.72,0.5225 1.2525,0 2.415,-0.34 3.4513,-0.8875 3.3637,-4.495 -0.1188,-8.3125 -0.1188,-8.3125"
         style="fill:#80ca31;fill-opacity:1;fill-rule:nonzero;stroke:none"
         id="path6357" />
      <path
         inkscape:connector-curvature="0"
         d="m -1756.5168,155.57101 c 0,-1.06375 -0.2287,-2.07375 -0.6312,-2.99 0.3662,-0.7525 0.5775,-1.59125 0.5775,-2.48625 0,-2.91125 -2.1863,-5.30625 -5.0063,-5.64625 -0.8062,-2.35625 -3.035,-4.05375 -5.665,-4.05375 -1.655,0 -3.1387,0.6875 -4.2225,1.7725 0,0 6.44,-1.06875 7.9075,4.76 0,0 4.5338,0.72375 2.9363,6.88125 0,0 3.4825,3.8175 0.1187,8.3125 2.3588,-1.24625 3.985,-3.695 3.985,-6.55"
         style="fill:#70b72e;fill-opacity:1;fill-rule:nonzero;stroke:none"
         id="path6359" />
      <path
         inkscape:connector-curvature="0"
         d="m -1771.8892,145.80476 c 0,0 -5.3551,0.99375 -4.3613,6.65 0,0 -2.4175,1.5975 -1.3825,4.87875 0,0 -2.6988,-1.835 -0.5775,-5.15 0,0 -0.3925,-2.91625 1.3387,-4.86625 1.7313,-1.95125 4.9826,-1.5125 4.9826,-1.5125"
         style="fill:#ffffff;fill-opacity:1;fill-rule:nonzero;stroke:none"
         id="path6361" />
      <path
         inkscape:connector-curvature="0"
         d="m -1803.1105,149.54851 c 0.029,0.71125 1.2087,0.605 1.21,-0.0588 l 0.014,-12.515 c 0,-0.35875 -0.2737,-0.65125 -0.6087,-0.65 -0.335,0 -0.6063,0.29625 -0.6063,0.65375 l -0.015,9.385 0.01,0.0863 0,3.09875"
         style="fill:#d95e40;fill-opacity:1;fill-rule:nonzero;stroke:none"
         id="path6363" />
      <path
         inkscape:connector-curvature="0"
         d="m -1800.5993,141.18851 0,2.16375 c 0.028,0.925 -0.081,1.16875 -0.7125,1.61875 l -1.1725,0.5925 0.3225,0.655 1.195,-0.605 c 1.0163,-0.6675 1.0975,-1.39125 1.0975,-2.26625 l 0,-2.15875 -0.73,0"
         style="fill:#d95e40;fill-opacity:1;fill-rule:nonzero;stroke:none"
         id="path6365" />
      <path
         inkscape:connector-curvature="0"
         d="m -1804.6492,144.46726 0,-2.22625 -0.7538,0 0,2.22625 c 0,0.9075 0.084,1.65375 1.1525,2.35625 l 1.2163,0.615 0.3325,-0.67875 -1.1888,-0.59875 c -0.6737,-0.47875 -0.7875,-0.73 -0.7587,-1.69375"
         style="fill:#d95e40;fill-opacity:1;fill-rule:nonzero;stroke:none"
         id="path6367" />
      <path
         inkscape:connector-curvature="0"
         d="m -1795.5193,136.31351 c 0,3.39625 -2.7525,6.14875 -6.1499,6.14875 -3.3951,0 -6.1488,-2.7525 -6.1488,-6.14875 0,-3.39625 2.7537,-6.15125 6.1488,-6.15125 3.3974,0 6.1499,2.755 6.1499,6.15125"
         style="fill:#428e3a;fill-opacity:1;fill-rule:nonzero;stroke:none"
         id="path6369" />
      <path
         inkscape:connector-curvature="0"
         d="m -1794.3818,135.07726 c 1.5976,-6.1575 -2.9362,-6.88125 -2.9362,-6.88125 -1.4675,-5.82875 -7.9088,-4.76 -7.9088,-4.76 -0.2,-0.0338 -0.3925,-0.09 -0.6025,-0.09 -1.6375,0 -3.0025,1.08875 -3.4562,2.575 -2.9987,0.009 -5.4262,2.44125 -5.4262,5.4425 0,1.00125 0.2737,1.93625 0.7449,2.74375 -0.475,1.0575 -0.7449,2.22875 -0.7449,3.46625 0,4.68375 3.7974,8.48375 8.4837,8.48375 2.2425,0 4.2787,-0.8775 5.7937,-2.3025 0.8438,0.3325 1.7588,0.5225 2.72,0.5225 1.2526,0 2.415,-0.34 3.4513,-0.8875 3.3638,-4.495 -0.1188,-8.3125 -0.1188,-8.3125"
         style="fill:#80ca31;fill-opacity:1;fill-rule:nonzero;stroke:none"
         id="path6371" />
      <path
         inkscape:connector-curvature="0"
         d="m -1790.278,136.83976 c 0,-1.06375 -0.2288,-2.07375 -0.6312,-2.99125 0.3662,-0.75125 0.5774,-1.59 0.5774,-2.485 0,-2.91125 -2.1862,-5.30625 -5.0062,-5.64625 -0.8063,-2.35625 -3.035,-4.05375 -5.665,-4.05375 -1.655,0 -3.1388,0.6875 -4.2238,1.7725 0,0 6.4413,-1.06875 7.9088,4.76 0,0 4.5338,0.72375 2.9362,6.88125 0,0 3.4826,3.8175 0.1188,8.3125 2.3587,-1.24625 3.985,-3.695 3.985,-6.55"
         style="fill:#70b72e;fill-opacity:1;fill-rule:nonzero;stroke:none"
         id="path6373" />
      <path
         inkscape:connector-curvature="0"
         d="m -1805.6518,127.07351 c 0,0 -5.3537,0.99375 -4.36,6.64875 0,0 -2.4187,1.59875 -1.3825,4.88 0,0 -2.6987,-1.835 -0.5774,-5.15 0,0 -0.3926,-2.91625 1.3374,-4.86625 1.7313,-1.95125 4.9825,-1.5125 4.9825,-1.5125"
         style="fill:#ffffff;fill-opacity:1;fill-rule:nonzero;stroke:none"
         id="path6375" />
    </g>
  </g>
</svg>
