<?xml version="1.0" encoding="UTF-8" standalone="no"?>
<!-- Created with Inkscape (http://www.inkscape.org/) -->

<svg
   xmlns:dc="http://purl.org/dc/elements/1.1/"
   xmlns:cc="http://creativecommons.org/ns#"
   xmlns:rdf="http://www.w3.org/1999/02/22-rdf-syntax-ns#"
   xmlns:svg="http://www.w3.org/2000/svg"
   xmlns="http://www.w3.org/2000/svg"
   xmlns:sodipodi="http://sodipodi.sourceforge.net/DTD/sodipodi-0.dtd"
   xmlns:inkscape="http://www.inkscape.org/namespaces/inkscape"
   id="svg6214"
   height="205"
   width="205"
   version="1.1"
   inkscape:version="0.48.5 r10040"
   sodipodi:docname="grass_solo.svg">
  <defs
     id="defs107" />
  <sodipodi:namedview
     pagecolor="#ffffff"
     bordercolor="#666666"
     borderopacity="1"
     objecttolerance="10"
     gridtolerance="10"
     guidetolerance="10"
     inkscape:pageopacity="0"
     inkscape:pageshadow="2"
     inkscape:window-width="636"
     inkscape:window-height="1041"
     id="namedview105"
     showgrid="false"
     inkscape:zoom="2.0000001"
     inkscape:cx="109.20604"
     inkscape:cy="112.49856"
     inkscape:window-x="640"
     inkscape:window-y="18"
     inkscape:window-maximized="0"
     inkscape:current-layer="g5061"
     showguides="true"
     inkscape:guide-bbox="true">
    <sodipodi:guide
       orientation="0,1"
       position="-0.21875,59.289062"
       id="guide3295" />
    <sodipodi:guide
       orientation="1,0"
       position="102.49105,-5.4346034"
       id="guide3297" />
  </sodipodi:namedview>
  <metadata
     id="metadata6219">
    <rdf:RDF>
      <cc:Work
         rdf:about="">
        <dc:format>image/svg+xml</dc:format>
        <dc:type
           rdf:resource="http://purl.org/dc/dcmitype/StillImage" />
        <dc:title></dc:title>
      </cc:Work>
    </rdf:RDF>
  </metadata>
  <g
     id="g5061"
     transform="matrix(1.0002665,0,0,1.0002665,-13.170999,-693.66199)">
    <g
       transform="matrix(0.36013573,0,0,0.36013573,697.60257,618.61512)"
       id="g9444">
      <g
         id="g9684"
         transform="translate(-238.29499,-91.923882)">
        <path
           inkscape:connector-curvature="0"
           id="path9678"
           d="m -1243.625,498.73718 -19.9748,-10.82299 -0.3342,7.73056 20.4399,16.29268 z"
           style="fill:#f2f2f2;fill-opacity:1;stroke:none" />
        <path
           inkscape:connector-curvature="0"
           d="m -1348.2365,549.35113 -0.1038,-42.60763 84.4063,-47.9325 0,39.1775 -84.3025,51.36263"
           style="fill:#c1e6d5;fill-opacity:1;fill-rule:nonzero;stroke:none"
           id="path9637" />
        <path
           inkscape:connector-curvature="0"
           d="m -1348.2365,549.35113 -0.1038,-42.60763 84.4063,-47.9325 0,39.1775 -84.3025,51.36263"
           style="fill:#c1e6d5;fill-opacity:1;fill-rule:nonzero;stroke:none"
           id="path9641" />
        <path
           inkscape:connector-curvature="0"
           d="m -1348.2365,546.60463 -48.8463,-29.51238 0,-44.06625 24.705,-2.76 24.1413,36.465 0,39.87363"
           style="fill:#ffffff;fill-opacity:1;fill-rule:nonzero;stroke:none"
           id="path9639" />
        <path
           inkscape:connector-curvature="0"
           d="m -1348.2365,546.60463 -48.8463,-29.51238 0,-44.06625 24.705,-2.76 24.1413,36.465 0,39.87363"
           style="fill:#ffffff;fill-opacity:1;fill-rule:nonzero;stroke:none"
           id="path9643" />
        <path
           id="path6481"
           style="fill:#6d352f;fill-opacity:1;fill-rule:nonzero;stroke:none"
           d="m -1348.2365,546.047 0,3.42138 85.6225,-50.73363 0,-3.15875 -85.6225,50.471"
           inkscape:connector-curvature="0" />
        <path
           inkscape:connector-curvature="0"
           id="path9676"
           d="m -1348.2365,545.256 21.4375,12.25 81.799,-51.14382 -18.934,-10.71743 z"
           style="fill:#e6e6e6;fill-opacity:1;stroke:none" />
        <path
           id="path6487"
           style="fill:#6d352f;fill-opacity:1;fill-rule:nonzero;stroke:none"
           d="m -1334.9702,510.54225 0,19.93875 14.9512,-8.60375 0,-19.91 -14.9512,8.575"
           inkscape:connector-curvature="0" />
        <path
           id="path6491"
           style="fill:#421b19;fill-opacity:1;fill-rule:nonzero;stroke:none"
           d="m -1322.7353,520.05725 0.031,-14.6375 1.305,-0.82125 0,16.24 -12.1925,7.00875 0,-1.56487 10.8562,-6.22513"
           inkscape:connector-curvature="0" />
        <path
           id="path6489"
           style="fill:#b7e7e4;fill-opacity:1;fill-rule:nonzero;stroke:none"
           d="m -1333.5915,527.84725 0,-16.2525 12.1925,-6.99625 0,16.24 -12.1925,7.00875"
           inkscape:connector-curvature="0" />
        <path
           id="path6483"
           style="fill:#d95e40;fill-opacity:1;fill-rule:nonzero;stroke:none"
           d="m -1263.934,495.64475 0,-1.015 1.32,0.94625 -85.6225,50.471 0,-0.791 84.3025,-49.61125"
           inkscape:connector-curvature="0" />
        <path
           sodipodi:nodetypes="ccccc"
           inkscape:connector-curvature="0"
           id="path9652"
           d="m -1348.2313,538.87008 2.9449,-1.01517 22.5548,10.5611 -4.1981,1.19325 z"
           style="fill:#a3d9c0;fill-opacity:1;stroke:none" />
        <path
           sodipodi:nodetypes="ccccc"
           inkscape:connector-curvature="0"
           id="path9662"
           d="m -1331.5795,521.12742 4.5168,1.69671 0,38.77745 -4.3293,-5.8842 z"
           style="fill:#ffffff;fill-opacity:1;stroke:none" />
        <path
           sodipodi:nodetypes="ccccc"
           inkscape:connector-curvature="0"
           id="rect9645"
           d="m -1253.0902,483.05131 4.5168,1.31477 0,30.04846 -4.3293,-4.55964 z"
           style="fill:#ffffff;fill-opacity:1;stroke:none" />
        <path
           sodipodi:nodetypes="ccccc"
           inkscape:connector-curvature="0"
           id="path9650"
           d="m -1348.2365,549.46838 21.1738,10.5707 0.133,-10.42982 -21.3016,-10.73918 z"
           style="fill:#ffffff;fill-opacity:1;stroke:none" />
        <path
           sodipodi:nodetypes="cccccc"
           id="path6485"
           style="fill:#6d352f;fill-opacity:1;fill-rule:nonzero;stroke:none"
           d="m -1397.1577,516.2035 0,0.76875 70.3587,40.53375 0,0.791 -72.2938,-41.48475 1.9351,-0.60875"
           inkscape:connector-curvature="0" />
        <path
           style="fill:#c1e6d5;fill-opacity:1;stroke:none"
           d="m -1327.0627,522.82413 4.5168,-1.69671 0.5625,37.27746 -5.0793,3.2592 z"
           id="path9664"
           inkscape:connector-curvature="0"
           sodipodi:nodetypes="ccccc" />
        <path
           style="fill:#c1e6d5;fill-opacity:1;stroke:none"
           d="m -1248.5734,484.36608 4.5168,-1.31477 0.5625,28.88612 -5.0793,2.52554 z"
           id="path9648"
           inkscape:connector-curvature="0"
           sodipodi:nodetypes="ccccc" />
        <path
           id="path6493"
           style="fill:#6d352f;fill-opacity:1;fill-rule:nonzero;stroke:none"
           d="m -1377.6828,495.95725 0,19.9375 -14.9575,-8.59375 0,-19.91375 14.9575,8.57"
           inkscape:connector-curvature="0" />
        <path
           id="path6495"
           style="fill:#b7e7e4;fill-opacity:1;fill-rule:nonzero;stroke:none"
           d="m -1379.0628,513.26725 0,-16.255 -12.1987,-6.99375 0,16.23625 12.1987,7.0125"
           inkscape:connector-curvature="0" />
        <path
           id="path6497"
           style="fill:#421b19;fill-opacity:1;fill-rule:nonzero;stroke:none"
           d="m -1389.9277,505.47725 -0.026,-14.6425 -1.3075,-0.81625 0,16.23625 12.1987,7.0125 0,-1.565 -10.8649,-6.225"
           inkscape:connector-curvature="0" />
        <path
           id="path6499"
           style="fill:#6d352f;fill-opacity:1;fill-rule:nonzero;stroke:none"
           d="m -1354.9028,509.62975 0,19.93475 -14.9487,-8.5885 0,-19.91875 14.9487,8.5725"
           inkscape:connector-curvature="0" />
        <path
           id="path6501"
           style="fill:#b7e7e4;fill-opacity:1;fill-rule:nonzero;stroke:none"
           d="m -1356.2765,526.93075 0,-16.24975 -12.2013,-6.99 0,16.24 12.2013,6.99975"
           inkscape:connector-curvature="0" />
        <path
           id="path6503"
           style="fill:#421b19;fill-opacity:1;fill-rule:nonzero;stroke:none"
           d="m -1367.1415,519.1435 -0.025,-14.64375 -1.3113,-0.80875 0,16.24 12.2013,6.99975 0,-1.55375 -10.865,-6.2335"
           inkscape:connector-curvature="0" />
        <path
           id="path6505"
           style="fill:#6d352f;fill-opacity:1;fill-rule:nonzero;stroke:none"
           d="m -1313.3003,498.63475 0,19.585 14.6938,-8.455 0,-19.56 -14.6938,8.43"
           inkscape:connector-curvature="0" />
        <path
           id="path6507"
           style="fill:#b7e7e4;fill-opacity:1;fill-rule:nonzero;stroke:none"
           d="m -1312.0515,515.83225 0,-16.25625 12.1937,-6.99 0,16.23625 -12.1937,7.01"
           inkscape:connector-curvature="0" />
        <path
           id="path6509"
           style="fill:#421b19;fill-opacity:1;fill-rule:nonzero;stroke:none"
           d="m -1301.1802,508.04725 0.019,-14.6425 1.3037,-0.81875 0,16.23625 -12.1937,7.01 0,-1.56 10.8713,-6.225"
           inkscape:connector-curvature="0" />
        <path
           id="path6511"
           style="fill:#c23323;fill-opacity:1;fill-rule:nonzero;stroke:none"
           d="m -1318.4415,427.2885 -84.135,48.77375 28.9675,-2.46375 84.1862,-49.25875 -29.0187,2.94875"
           inkscape:connector-curvature="0" />
        <path
           inkscape:connector-curvature="0"
           d="m -1374.1577,473.53225 28.375,35.46625 84.7124,-48.58125 -28.6362,-36.215 -84.4513,49.33"
           style="fill:#a92322;fill-opacity:1;fill-rule:nonzero;stroke:none"
           id="path9629" />
        <path
           inkscape:connector-curvature="0"
           d="m -1402.6203,476.02725 28.5825,-2.495 28.2551,35.31875 -2.835,-1.73625 -26.1263,-32.145 -24.2325,2.09125 -3.6438,-1.03375"
           style="fill:#f14b3d;fill-opacity:1;fill-rule:nonzero;stroke:none"
           id="path9631" />
        <path
           id="path6529"
           style="fill:#9cdabe;fill-opacity:1;fill-rule:nonzero;stroke:none"
           d="m -1290.1352,482.27475 0.01,28.75625 14.53,-8.44 0,-29.125 -14.5362,8.80875"
           inkscape:connector-curvature="0" />
        <path
           id="path6531"
           style="fill:#421b19;fill-opacity:1;fill-rule:nonzero;stroke:none"
           d="m -1276.7178,504.0535 0,-28.14875 -11.9775,7.2175 0,27.82625 11.9775,-6.895"
           inkscape:connector-curvature="0" />
        <path
           sodipodi:nodetypes="ccccc"
           inkscape:connector-curvature="0"
           id="path9666"
           d="m -1294.5795,497.50242 4.5168,1.69671 0,38.77745 -4.3293,-5.8842 z"
           style="fill:#ffffff;fill-opacity:1;stroke:none" />
        <path
           style="fill:#ffffff;fill-opacity:1;stroke:none"
           d="m -1269.4545,483.87742 4.5168,1.69671 0,38.77745 -4.3293,-5.8842 z"
           id="path9656"
           inkscape:connector-curvature="0"
           sodipodi:nodetypes="ccccc" />
        <path
           id="path6533"
           style="fill:#6d352f;fill-opacity:1;fill-rule:nonzero;stroke:none"
           d="m -1277.6478,503.581 -0.056,-26.13 -10.1038,5.9925 0,25.99375 10.16,-5.85625"
           inkscape:connector-curvature="0" />
        <path
           id="path6535"
           style="fill:#421b19;fill-opacity:1;fill-rule:nonzero;stroke:none"
           d="m -1281.1503,481.86475 c 0.485,0.30875 0.79,0.9175 0.7963,1.75875 l 0,0.0875 -4.9238,2.87375 -0.019,0.15375 0.019,0.33125 5.4951,-3.20125 0,-0.0913 c 0,-1.13375 -0.5713,-1.78875 -1.3676,-1.9125"
           inkscape:connector-curvature="0" />
        <path
           id="path6537"
           style="fill:#6d352f;fill-opacity:1;fill-rule:nonzero;stroke:none"
           d="m -1280.354,483.6235 c -0.01,-0.84125 -0.3113,-1.45 -0.7963,-1.75875 -0.4162,-0.0663 -0.8724,-0.0275 -1.39,0.25 -1.4775,0.79 -2.6712,2.77125 -2.7374,4.47 l 4.9237,-2.87375 0,-0.0875"
           inkscape:connector-curvature="0" />
        <path
           style="fill:#c1e6d5;fill-opacity:1;stroke:none"
           d="m -1290.0627,499.19913 4.5168,-1.69671 0.5625,37.27746 -5.0793,3.2592 z"
           id="path9668"
           inkscape:connector-curvature="0"
           sodipodi:nodetypes="ccccc" />
        <path
           sodipodi:nodetypes="ccccc"
           inkscape:connector-curvature="0"
           id="path9658"
           d="m -1264.9377,485.57413 4.5168,-1.69671 0.5625,37.27746 -5.0793,3.2592 z"
           style="fill:#c1e6d5;fill-opacity:1;stroke:none" />
        <g
           transform="matrix(1,0.14296103,0,1.1656856,0,108.62154)"
           id="g9633">
          <path
             inkscape:connector-curvature="0"
             d="m -1348.4391,511.58844 26.1908,10.36436 78.1917,-48.17035 -26.4319,-10.67604 -77.9507,48.48206"
             style="fill:#a92322;fill-opacity:1;fill-rule:nonzero;stroke:none"
             id="path6513" />
          <path
             inkscape:connector-curvature="0"
             d="m -1348.3285,511.55548 26.0802,10.32177 -2.6168,-0.10989 -24.1152,-9.28149"
             style="fill:#f14b3d;fill-opacity:1;fill-rule:nonzero;stroke:none"
             id="path6515"
             sodipodi:nodetypes="cccc" />
        </g>
        <path
           style="fill:#a3d9c0;fill-opacity:1;stroke:none"
           d="m -1290.625,527.61218 -3.8125,-1.84375 -27.7783,16.84288 0.059,4.26896 z"
           id="path9672"
           inkscape:connector-curvature="0"
           sodipodi:nodetypes="ccccc" />
        <path
           style="fill:#a3d9c0;fill-opacity:1;stroke:none"
           d="m -1264.7813,511.89343 -3.8125,-1.84375 -16.6533,10.40538 0.059,4.26896 z"
           id="path9674"
           inkscape:connector-curvature="0"
           sodipodi:nodetypes="ccccc" />
        <path
           sodipodi:nodetypes="ccccc"
           inkscape:connector-curvature="0"
           id="path9670"
           d="m -1248.341,501.77297 -4.608,-1.26923 -7.1074,4.12981 0.059,4.26896 z"
           style="fill:#a3d9c0;fill-opacity:1;stroke:none" />
        <path
           sodipodi:nodetypes="ccccc"
           id="path6479"
           style="fill:#d95e40;fill-opacity:1;fill-rule:nonzero;stroke:none"
           d="m -1326.799,558.297 0,3.42138 -72.2938,-41.80363 0,-3.1025 72.2938,41.48475"
           inkscape:connector-curvature="0" />
        <path
           id="path6545"
           style="fill:#428e3a;fill-opacity:1;fill-rule:nonzero;stroke:none"
           d="m -1384.1777,532.627 c -0.3001,2.78525 -2.8001,4.79888 -5.5863,4.49912 -2.785,-0.29887 -4.7988,-2.80037 -4.4987,-5.58399 0.2987,-2.78613 2.7999,-4.80225 5.5837,-4.5025 2.7862,0.30037 4.8013,2.80275 4.5013,5.58737"
           inkscape:connector-curvature="0" />
        <path
           id="path6547"
           style="fill:#80ca31;fill-opacity:1;fill-rule:nonzero;stroke:none"
           d="m -1383.1365,531.7135 c 1.8538,-4.90875 -1.8,-5.90137 -1.8,-5.90137 -0.69,-4.90988 -6.065,-4.60113 -6.065,-4.60113 -0.1613,-0.0462 -0.315,-0.10875 -0.4863,-0.1275 -1.3425,-0.145 -2.5587,0.6275 -3.0625,1.80625 -2.4587,-0.2575 -4.665,1.5225 -4.93,3.98388 -0.088,0.82224 0.054,1.61237 0.37,2.31587 -0.4837,0.82525 -0.8087,1.76125 -0.9175,2.77638 -0.4137,3.84137 2.365,7.2925 6.2075,7.70612 1.84,0.19775 3.5875,-0.34225 4.955,-1.3775 0.6625,0.34775 1.395,0.584 2.1838,0.669 1.0275,0.11125 2.0112,-0.065 2.9087,-0.42237 3.155,-3.38863 0.6363,-6.82763 0.6363,-6.82763"
           inkscape:connector-curvature="0" />
        <path
           id="path6549"
           style="fill:#70b72e;fill-opacity:1;fill-rule:nonzero;stroke:none"
           d="m -1379.9265,533.52113 c 0.094,-0.87263 0,-1.72125 -0.2537,-2.50788 0.3662,-0.58487 0.6137,-1.25337 0.6924,-1.98725 0.2563,-2.38775 -1.3237,-4.544 -3.6062,-5.0725 -0.4538,-2.0025 -2.1313,-3.59125 -4.2888,-3.82375 -1.3575,-0.14625 -2.6337,0.28625 -3.6187,1.08125 0,0 5.375,-0.30875 6.065,4.60113 0,0 3.6538,0.99262 1.8,5.90137 0,0 2.5188,3.439 -0.6363,6.82763 2.045,-0.814 3.5938,-2.67875 3.8463,-5.02"
           inkscape:connector-curvature="0" />
        <path
           id="path6551"
           style="fill:#ffffff;fill-opacity:1;fill-rule:nonzero;stroke:none"
           d="m -1391.6715,524.156 c 0,0 -4.4775,0.34113 -4.1625,5.06725 0,0 -2.1238,1.09663 -1.5638,3.87887 0,0 -2.0525,-1.74212 -0.02,-4.27337 0,0 -0.064,-2.42625 1.5275,-3.87262 1.5913,-1.44638 4.2188,-0.80013 4.2188,-0.80013"
           inkscape:connector-curvature="0" />
        <path
           id="path6553"
           style="fill:#428e3a;fill-opacity:1;fill-rule:nonzero;stroke:none"
           d="m -1360.0153,548.11825 c -0.3,2.78425 -2.8,4.79888 -5.5862,4.499 -2.7838,-0.30025 -4.7988,-2.80025 -4.4988,-5.58488 0.3,-2.78524 2.8,-4.80137 5.585,-4.50149 2.7863,0.30025 4.8,2.80125 4.5,5.58737"
           inkscape:connector-curvature="0" />
        <path
           id="path6555"
           style="fill:#80ca31;fill-opacity:1;fill-rule:nonzero;stroke:none"
           d="m -1358.974,547.20475 c 1.8537,-4.90875 -1.8,-5.90238 -1.8,-5.90238 -0.6888,-4.90874 -6.065,-4.60162 -6.065,-4.60162 -0.1613,-0.0449 -0.3138,-0.10837 -0.4862,-0.126 -1.3426,-0.145 -2.5576,0.6275 -3.0613,1.80625 -2.46,-0.25737 -4.665,1.52238 -4.93,3.98387 -0.089,0.82126 0.053,1.61225 0.3687,2.31588 -0.4837,0.82525 -0.8075,1.76125 -0.9175,2.77638 -0.4125,3.84137 2.3663,7.2925 6.2088,7.7065 1.8387,0.19737 3.5862,-0.34275 4.955,-1.37788 0.6612,0.34762 1.395,0.584 2.1837,0.669 1.0275,0.10975 2.01,-0.065 2.9075,-0.42238 3.155,-3.39012 0.6363,-6.82762 0.6363,-6.82762"
           inkscape:connector-curvature="0" />
        <path
           id="path6557"
           style="fill:#70b72e;fill-opacity:1;fill-rule:nonzero;stroke:none"
           d="m -1355.764,549.01225 c 0.094,-0.8725 0,-1.72112 -0.2538,-2.50875 0.3675,-0.584 0.6138,-1.25387 0.6926,-1.98775 0.2574,-2.38625 -1.3238,-4.5435 -3.6063,-5.07087 -0.4525,-2.00388 -2.1313,-3.59125 -4.2875,-3.82363 -1.3575,-0.1465 -2.635,0.28612 -3.62,1.0795 0,0 5.3762,-0.30712 6.065,4.60162 0,0 3.6537,0.99363 1.8,5.90238 0,0 2.5187,3.4375 -0.6363,6.82762 2.045,-0.81499 3.5938,-2.68025 3.8463,-5.02012"
           inkscape:connector-curvature="0" />
        <path
           id="path6559"
           style="fill:#ffffff;fill-opacity:1;fill-rule:nonzero;stroke:none"
           d="m -1367.5078,539.64713 c 0,0 -4.4787,0.34125 -4.1637,5.06787 0,0 -2.1237,1.09613 -1.5638,3.87838 0,0 -2.0512,-1.74225 -0.02,-4.27488 0,0 -0.064,-2.42487 1.5275,-3.87112 1.5925,-1.44775 4.22,-0.80025 4.22,-0.80025"
           inkscape:connector-curvature="0" />
        <path
           inkscape:connector-curvature="0"
           id="path9660"
           d="m -1327.0627,561.60158 83.5686,-49.66415 -0.1309,-13.20025 -83.3047,50.87208 0.1307,12.10912 z"
           style="fill:#c1e6d5;fill-opacity:1;stroke:none" />
        <path
           sodipodi:nodetypes="ccccccc"
           inkscape:connector-curvature="0"
           id="path9680"
           d="m -1280.9375,517.61218 4,1.4375 0.1875,12.75 7.7812,-4.625 0.1875,-13.03125 -3.9374,-1.78125 z"
           style="fill:#e6e6e6;fill-opacity:1;stroke:none" />
        <path
           sodipodi:nodetypes="ccccc"
           inkscape:connector-curvature="0"
           id="path9682"
           d="m -1272.4756,512.45057 -0.027,12.76635 3.5337,1.95776 0.1875,-13.03125 z"
           style="fill:#ffffff;fill-opacity:1;stroke:none" />
      </g>
    </g>
  </g>
</svg>
