<?xml version="1.0" encoding="UTF-8" standalone="no"?>
<!-- Created with Inkscape (http://www.inkscape.org/) -->

<svg
   xmlns:dc="http://purl.org/dc/elements/1.1/"
   xmlns:cc="http://creativecommons.org/ns#"
   xmlns:rdf="http://www.w3.org/1999/02/22-rdf-syntax-ns#"
   xmlns:svg="http://www.w3.org/2000/svg"
   xmlns="http://www.w3.org/2000/svg"
   xmlns:sodipodi="http://sodipodi.sourceforge.net/DTD/sodipodi-0.dtd"
   xmlns:inkscape="http://www.inkscape.org/namespaces/inkscape"
   id="svg6214"
   height="205"
   width="205"
   version="1.1"
   inkscape:version="0.48.5 r10040"
   sodipodi:docname="casa1.svg">
  <defs
     id="defs107" />
  <sodipodi:namedview
     pagecolor="#ffffff"
     bordercolor="#666666"
     borderopacity="1"
     objecttolerance="10"
     gridtolerance="10"
     guidetolerance="10"
     inkscape:pageopacity="0"
     inkscape:pageshadow="2"
     inkscape:window-width="636"
     inkscape:window-height="1041"
     id="namedview105"
     showgrid="false"
     inkscape:zoom="4.0000001"
     inkscape:cx="109.90053"
     inkscape:cy="136.71026"
     inkscape:window-x="640"
     inkscape:window-y="18"
     inkscape:window-maximized="0"
     inkscape:current-layer="g5061"
     showguides="true"
     inkscape:guide-bbox="true">
    <sodipodi:guide
       orientation="0,1"
       position="-0.21875,59.289062"
       id="guide3295" />
    <sodipodi:guide
       orientation="1,0"
       position="102.49105,-5.4346034"
       id="guide3297" />
  </sodipodi:namedview>
  <metadata
     id="metadata6219">
    <rdf:RDF>
      <cc:Work
         rdf:about="">
        <dc:format>image/svg+xml</dc:format>
        <dc:type
           rdf:resource="http://purl.org/dc/dcmitype/StillImage" />
        <dc:title></dc:title>
      </cc:Work>
    </rdf:RDF>
  </metadata>
  <g
     id="g5061"
     transform="matrix(1.0002665,0,0,1.0002665,-13.170999,-693.66199)">
    <g
       id="g9502"
       transform="matrix(0.3025005,0,0,0.3025005,595.55669,611.75799)">
      <path
         inkscape:connector-curvature="0"
         d="m -1510.194,547.42838 0.1312,-43.61488 -61.0949,-34.6775 0,42.805 60.9637,35.48738"
         style="fill:#ffffff;fill-opacity:1;fill-rule:nonzero;stroke:none"
         id="path6379" />
      <path
         inkscape:connector-curvature="0"
         d="m -1510.194,545.79213 59.5675,-35.96988 0,-48.17125 -27.1713,-1.75875 -32.3962,43.885 0,42.01488"
         style="fill:#c1e6d5;fill-opacity:1;fill-rule:nonzero;stroke:none"
         id="path6381" />
      <path
         inkscape:connector-curvature="0"
         d="m -1510.194,545.13488 0,2.44087 62.015,-36.0385 0,-2.0725 -62.015,35.67013"
         style="fill:#6d352f;fill-opacity:1;fill-rule:nonzero;stroke:none"
         id="path6383" />
      <path
         inkscape:connector-curvature="0"
         d="m -1510.194,545.13488 0,2.44087 -62.5663,-36.44725 0,-2.13 62.5663,36.13638"
         style="fill:#d95e40;fill-opacity:1;fill-rule:nonzero;stroke:none"
         id="path6385" />
      <path
         inkscape:connector-curvature="0"
         d="m -1571.1577,509.06725 0,-1.05125 -1.6026,0.9825 62.5663,36.13638 0,-0.97125 -60.9637,-35.09638"
         style="fill:#6d352f;fill-opacity:1;fill-rule:nonzero;stroke:none"
         id="path6387" />
      <path
         inkscape:connector-curvature="0"
         d="m -1450.529,508.73225 0,0.96 -59.665,34.47138 0,0.97125 62.015,-35.67013 -2.35,-0.7325"
         style="fill:#d95e40;fill-opacity:1;fill-rule:nonzero;stroke:none"
         id="path6389" />
      <path
         inkscape:connector-curvature="0"
         d="m -1504.7915,428.396 62.3287,35.64125 -34.9337,-2.95625 -62.3975,-36.24125 35.0025,3.55625"
         style="fill:#c23323;fill-opacity:1;fill-rule:nonzero;stroke:none"
         id="path6391" />
      <path
         inkscape:connector-curvature="0"
         d="m -1476.7327,460.9935 -34.2338,42.78375 -63.0213,-35.435 34.5363,-43.66875 62.7188,36.32"
         style="fill:#f14b3d;fill-opacity:1;fill-rule:nonzero;stroke:none"
         id="path6393" />
      <path
         inkscape:connector-curvature="0"
         d="m -1442.409,463.99725 -34.4713,-3.00375 -34.0862,42.6075 3.43,-2.1125 31.5075,-38.75375 29.2262,2.5125 4.3938,-1.25"
         style="fill:#a92322;fill-opacity:1;fill-rule:nonzero;stroke:none"
         id="path6395" />
      <path
         inkscape:connector-curvature="0"
         d="m -1546.7165,492.57725 0,22.69375 -17.0313,-9.785 0,-22.6725 17.0313,9.76375"
         style="fill:#6d352f;fill-opacity:1;fill-rule:nonzero;stroke:none"
         id="path6407" />
      <path
         inkscape:connector-curvature="0"
         d="m -1548.294,512.27725 0,-18.5125 -13.88,-7.96125 0,18.48625 13.88,7.9875"
         style="fill:#b7e7e4;fill-opacity:1;fill-rule:nonzero;stroke:none"
         id="path6409" />
      <path
         inkscape:connector-curvature="0"
         d="m -1560.6577,503.40975 -0.029,-16.675 -1.4875,-0.93125 0,18.48625 13.88,7.9875 0,-1.78 -12.3637,-7.0875"
         style="fill:#502420;fill-opacity:1;fill-rule:nonzero;stroke:none"
         id="path6411" />
      <path
         inkscape:connector-curvature="0"
         d="m -1520.0578,508.16475 0,22.705 -17.0212,-9.79 0,-22.675 17.0212,9.76"
         style="fill:#6d352f;fill-opacity:1;fill-rule:nonzero;stroke:none"
         id="path6413" />
      <path
         inkscape:connector-curvature="0"
         d="m -1521.629,527.87213 0,-18.50863 -13.8763,-7.95875 0,18.48 13.8763,7.98737"
         style="fill:#b7e7e4;fill-opacity:1;fill-rule:nonzero;stroke:none"
         id="path6415" />
      <path
         inkscape:connector-curvature="0"
         d="m -1533.9915,519.001 -0.026,-16.6675 -1.4875,-0.92875 0,18.48 13.8763,7.98738 0,-1.77975 -12.3625,-7.09138"
         style="fill:#502420;fill-opacity:1;fill-rule:nonzero;stroke:none"
         id="path6417" />
      <path
         inkscape:connector-curvature="0"
         d="m -1498.3503,505.19975 0,22.30137 16.7326,-9.61637 0,-22.275 -16.7326,9.59"
         style="fill:#6d352f;fill-opacity:1;fill-rule:nonzero;stroke:none"
         id="path6419" />
      <path
         inkscape:connector-curvature="0"
         d="m -1496.9277,524.78088 0,-18.50488 13.8837,-7.95375 0,18.4825 -13.8837,7.97613"
         style="fill:#b7e7e4;fill-opacity:1;fill-rule:nonzero;stroke:none"
         id="path6421" />
      <path
         inkscape:connector-curvature="0"
         d="m -1484.5565,515.921 0.021,-16.675 1.4913,-0.92375 0,18.4825 -13.8838,7.97613 0,-1.76863 12.3713,-7.09125"
         style="fill:#502420;fill-opacity:1;fill-rule:nonzero;stroke:none"
         id="path6423" />
      <path
         inkscape:connector-curvature="0"
         d="m -1471.1503,524.91225 15.1213,-8.76 0,-35.71 -0.4075,-0.23125 -15.1363,9.14625 0,35.45725 0.4225,0.0978"
         style="fill:#421b19;fill-opacity:1;fill-rule:nonzero;stroke:none"
         id="path6425" />
      <path
         inkscape:connector-curvature="0"
         d="m -1456.029,516.16975 0,-35.7525 -15.1325,9.1125 0,35.35025 15.1325,-8.71025"
         style="fill:#502420;fill-opacity:1;fill-rule:nonzero;stroke:none"
         id="path6427" />
      <path
         inkscape:connector-curvature="0"
         d="m -1457.209,515.37975 -0.057,-33.0025 -12.7688,7.57125 0,32.8325 12.8263,-7.40125"
         style="fill:#6d352f;fill-opacity:1;fill-rule:nonzero;stroke:none"
         id="path6429" />
      <path
         inkscape:connector-curvature="0"
         d="m -1461.629,487.9485 c 0.6175,0.39 1.0037,1.15875 1.0113,2.235 l 0,0.10125 -6.2138,3.62875 -0.026,0.1875 0.026,0.42625 6.9362,-4.05125 0,-0.11125 c 0,-1.42 -0.7224,-2.2575 -1.7337,-2.41625"
         style="fill:#502420;fill-opacity:1;fill-rule:nonzero;stroke:none"
         id="path6431" />
      <path
         inkscape:connector-curvature="0"
         d="m -1460.6177,490.1835 c -0.01,-1.07625 -0.3938,-1.845 -1.0113,-2.235 -0.5238,-0.0788 -1.0975,-0.0363 -1.74,0.315 -1.885,1.01 -3.3875,3.50875 -3.4625,5.65 l 6.2138,-3.62875 0,-0.10125"
         style="fill:#6d352f;fill-opacity:1;fill-rule:nonzero;stroke:none"
         id="path6433" />
      <path
         inkscape:connector-curvature="0"
         d="m -1460.7078,514.63975 -6.1499,3.62875 0,0.94625 6.9474,-4.09125 0,-23.4625 -0.7975,0.46875 0,22.51"
         style="fill:#502420;fill-opacity:1;fill-rule:nonzero;stroke:none"
         id="path6435" />
      <path
         inkscape:connector-curvature="0"
         d="m -1460.7078,492.12975 -6.1499,3.6225 0,22.51625 6.1499,-3.62875 0,-22.51"
         style="fill:#6d352f;fill-opacity:1;fill-rule:nonzero;stroke:none"
         id="path6437" />
      <path
         inkscape:connector-curvature="0"
         d="m -1457.8303,500.886 c 0,0.3425 -0.2812,0.635 -0.6212,0.64625 -0.3425,0.008 -0.6212,-0.25625 -0.6212,-0.6025 0,-0.34375 0.2787,-0.62875 0.6212,-0.64 0.34,-0.0175 0.6212,0.25 0.6212,0.59625"
         style="fill:#d69b4d;fill-opacity:1;fill-rule:nonzero;stroke:none"
         id="path6439" />
      <path
         inkscape:connector-curvature="0"
         d="m -1571.1928,526.14225 c -0.2899,2.69375 -2.7087,4.6425 -5.4037,4.3525 -2.695,-0.29 -4.6438,-2.709 -4.3537,-5.40237 0.2899,-2.69638 2.71,-4.64638 5.4037,-4.35638 2.6962,0.29 4.6437,2.71 4.3537,5.40625"
         style="fill:#428e3a;fill-opacity:1;fill-rule:nonzero;stroke:none"
         id="path6441" />
      <path
         inkscape:connector-curvature="0"
         d="m -1570.184,525.25837 c 1.7925,-4.74987 -1.7425,-5.71112 -1.7425,-5.71112 -0.6675,-4.75 -5.8675,-4.45125 -5.8675,-4.45125 -0.1562,-0.045 -0.305,-0.105 -0.4713,-0.12375 -1.2987,-0.13875 -2.475,0.6075 -2.9625,1.7475 -2.3787,-0.2475 -4.5137,1.47375 -4.77,3.855 -0.085,0.795 0.053,1.56 0.3575,2.24125 -0.4675,0.7975 -0.7812,1.70512 -0.8875,2.686 -0.4,3.71638 2.2888,7.05675 6.0075,7.45662 1.7788,0.19088 3.47,-0.33162 4.7938,-1.3325 0.64,0.33588 1.35,0.56338 2.1125,0.64601 0.9937,0.10787 1.945,-0.0625 2.8137,-0.40875 3.0525,-3.27875 0.6163,-6.60501 0.6163,-6.60501"
         style="fill:#80ca31;fill-opacity:1;fill-rule:nonzero;stroke:none"
         id="path6443" />
      <path
         inkscape:connector-curvature="0"
         d="m -1567.079,527.00738 c 0.091,-0.84513 0,-1.665 -0.245,-2.42763 0.355,-0.565 0.5937,-1.2125 0.67,-1.9225 0.2487,-2.31 -1.2813,-4.39625 -3.49,-4.9075 -0.4375,-1.9375 -2.0613,-3.475 -4.1488,-3.7 -1.3137,-0.14125 -2.5487,0.2775 -3.5012,1.04625 0,0 5.2012,-0.29875 5.8675,4.45125 0,0 3.535,0.96125 1.7425,5.71112 0,0 2.4362,3.32625 -0.6163,6.60501 1.9788,-0.78763 3.4775,-2.59226 3.7213,-4.856"
         style="fill:#70b72e;fill-opacity:1;fill-rule:nonzero;stroke:none"
         id="path6445" />
      <path
         inkscape:connector-curvature="0"
         d="m -1578.4428,517.94475 c 0,0 -4.3325,0.33125 -4.0274,4.90375 0,0 -2.0551,1.06125 -1.5125,3.75363 0,0 -1.9851,-1.686 -0.019,-4.13613 0,0 -0.062,-2.34625 1.4775,-3.74625 1.54,-1.4 4.0812,-0.775 4.0812,-0.775"
         style="fill:#ffffff;fill-opacity:1;fill-rule:nonzero;stroke:none"
         id="path6447" />
      <path
         inkscape:connector-curvature="0"
         d="m -1549.2715,539.49225 c -0.29,2.69388 -2.7088,4.64263 -5.405,4.35262 -2.6938,-0.29012 -4.6438,-2.70899 -4.3537,-5.40287 0.29,-2.69487 2.7099,-4.646 5.4037,-4.356 2.6963,0.29013 4.645,2.7115 4.355,5.40625"
         style="fill:#428e3a;fill-opacity:1;fill-rule:nonzero;stroke:none"
         id="path6449" />
      <path
         inkscape:connector-curvature="0"
         d="m -1548.264,538.6085 c 1.7925,-4.75 -1.7425,-5.71 -1.7425,-5.71 -0.6663,-4.75137 -5.8675,-4.45262 -5.8675,-4.45262 -0.1563,-0.0434 -0.305,-0.105 -0.4712,-0.1225 -1.2988,-0.13963 -2.4751,0.60637 -2.9626,1.7475 -2.3787,-0.2485 -4.5125,1.47262 -4.7687,3.855 -0.086,0.79487 0.051,1.56012 0.3563,2.24025 -0.4676,0.79887 -0.7813,1.70462 -0.8875,2.6875 -0.4001,3.71487 2.2887,7.05462 6.0074,7.45462 1.7788,0.19138 3.47,-0.33112 4.7938,-1.33212 0.64,0.336 1.35,0.565 2.1125,0.646 0.9938,0.1075 1.945,-0.0625 2.8137,-0.40863 3.0525,-3.27887 0.6163,-6.605 0.6163,-6.605"
         style="fill:#80ca31;fill-opacity:1;fill-rule:nonzero;stroke:none"
         id="path6451" />
      <path
         inkscape:connector-curvature="0"
         d="m -1545.159,540.357 c 0.091,-0.84475 0,-1.665 -0.245,-2.42725 0.355,-0.56487 0.5937,-1.21237 0.67,-1.92237 0.2487,-2.31 -1.2813,-4.39638 -3.4888,-4.90763 -0.4387,-1.9375 -2.0625,-3.47512 -4.15,-3.69875 -1.3125,-0.14112 -2.5487,0.27638 -3.5012,1.04488 0,0 5.2012,-0.29875 5.8675,4.45262 0,0 3.535,0.96 1.7425,5.71 0,0 2.4362,3.32613 -0.6163,6.605 1.9788,-0.78762 3.4775,-2.59137 3.7213,-4.8565"
         style="fill:#70b72e;fill-opacity:1;fill-rule:nonzero;stroke:none"
         id="path6453" />
      <path
         inkscape:connector-curvature="0"
         d="m -1556.5215,531.296 c 0,0 -4.3338,0.33012 -4.0288,4.90238 0,0 -2.0537,1.0615 -1.5125,3.75387 0,0 -1.985,-1.6865 -0.019,-4.13625 0,0 -0.062,-2.34613 1.4775,-3.74612 1.54,-1.40038 4.0825,-0.77388 4.0825,-0.77388"
         style="fill:#ffffff;fill-opacity:1;fill-rule:nonzero;stroke:none"
         id="path6455" />
      <path
         inkscape:connector-curvature="0"
         d="m -1521.5015,554.61975 c -0.29,2.69387 -2.7088,4.6425 -5.405,4.3525 -2.6938,-0.29 -4.6438,-2.709 -4.3537,-5.40237 0.29,-2.69625 2.7099,-4.64638 5.4037,-4.35638 2.6962,0.29 4.645,2.71138 4.355,5.40625"
         style="fill:#428e3a;fill-opacity:1;fill-rule:nonzero;stroke:none"
         id="path6457" />
      <path
         inkscape:connector-curvature="0"
         d="m -1520.494,553.736 c 1.7938,-4.75 -1.7425,-5.7115 -1.7425,-5.7115 -0.6663,-4.75 -5.8675,-4.45112 -5.8675,-4.45112 -0.1563,-0.045 -0.3037,-0.105 -0.4712,-0.12363 -1.2988,-0.14012 -2.4751,0.6075 -2.9626,1.74763 -2.3787,-0.24763 -4.5125,1.47362 -4.7687,3.85499 -0.086,0.79488 0.051,1.56001 0.3563,2.24113 -0.4676,0.79738 -0.7813,1.70513 -0.8876,2.68613 -0.4,3.71624 2.2888,7.05612 6.0075,7.4565 1.78,0.19087 3.47,-0.3315 4.7938,-1.3325 0.64,0.33587 1.35,0.56487 2.1125,0.646 0.995,0.10737 1.9462,-0.0625 2.8137,-0.40875 3.0525,-3.27875 0.6163,-6.60488 0.6163,-6.60488"
         style="fill:#80ca31;fill-opacity:1;fill-rule:nonzero;stroke:none"
         id="path6459" />
      <path
         inkscape:connector-curvature="0"
         d="m -1517.389,555.4845 c 0.091,-0.84475 0,-1.66462 -0.245,-2.42725 0.355,-0.565 0.5937,-1.21238 0.67,-1.92237 0.2487,-2.31013 -1.2813,-4.3965 -3.4888,-4.90775 -0.4387,-1.9375 -2.0625,-3.47513 -4.15,-3.69963 -1.3125,-0.14162 -2.5487,0.27725 -3.5012,1.04588 0,0 5.2012,-0.29888 5.8675,4.45112 0,0 3.5363,0.9615 1.7425,5.7115 0,0 2.4362,3.32613 -0.6163,6.60488 1.9788,-0.7875 3.4776,-2.59225 3.7213,-4.85638"
         style="fill:#70b72e;fill-opacity:1;fill-rule:nonzero;stroke:none"
         id="path6461" />
      <path
         inkscape:connector-curvature="0"
         d="m -1528.7515,546.422 c 0,0 -4.3338,0.3315 -4.0288,4.90375 0,0 -2.0537,1.0615 -1.5125,3.754 0,0 -1.985,-1.68612 -0.019,-4.13625 0,0 -0.062,-2.34625 1.4775,-3.74612 1.54,-1.40038 4.0825,-0.77538 4.0825,-0.77538"
         style="fill:#ffffff;fill-opacity:1;fill-rule:nonzero;stroke:none"
         id="path6463" />
      <path
         inkscape:connector-curvature="0"
         d="m -1477.639,544.1685 c -0.29,2.69488 -2.7088,4.64363 -5.405,4.35363 -2.6938,-0.29013 -4.6425,-2.70851 -4.3525,-5.40388 0.29,-2.69475 2.7087,-4.645 5.4038,-4.355 2.6949,0.29013 4.6437,2.71 4.3537,5.40525"
         style="fill:#428e3a;fill-opacity:1;fill-rule:nonzero;stroke:none"
         id="path6465" />
      <path
         inkscape:connector-curvature="0"
         d="m -1476.6315,543.28475 c 1.7937,-4.749 -1.7413,-5.71 -1.7413,-5.71 -0.6675,-4.75 -5.8687,-4.45262 -5.8687,-4.45262 -0.155,-0.0434 -0.3037,-0.10488 -0.47,-0.1225 -1.2987,-0.13963 -2.475,0.60737 -2.9625,1.7475 -2.38,-0.2485 -4.5138,1.47362 -4.77,3.855 -0.085,0.795 0.051,1.56012 0.3575,2.24125 -0.4687,0.79787 -0.7825,1.70412 -0.8875,2.6865 -0.4,3.71587 2.2887,7.05475 6.0063,7.45612 1.78,0.19137 3.47,-0.33262 4.7937,-1.3335 0.64,0.33588 1.35,0.56488 2.1137,0.64738 0.9938,0.10749 1.9451,-0.0625 2.8138,-0.40863 3.0525,-3.28025 0.615,-6.6065 0.615,-6.6065"
         style="fill:#80ca31;fill-opacity:1;fill-rule:nonzero;stroke:none"
         id="path6467" />
      <path
         inkscape:connector-curvature="0"
         d="m -1473.5253,545.03325 c 0.09,-0.84375 0,-1.665 -0.2462,-2.42625 0.355,-0.56487 0.5938,-1.21337 0.67,-1.92237 0.2487,-2.31 -1.28,-4.39738 -3.4888,-4.90713 -0.4387,-1.939 -2.0625,-3.47512 -4.1487,-3.70025 -1.3137,-0.14112 -2.55,0.27738 -3.5025,1.04488 0,0 5.2012,-0.29738 5.8687,4.45262 0,0 3.535,0.961 1.7413,5.71 0,0 2.4375,3.32625 -0.615,6.6065 1.9775,-0.78762 3.4775,-2.59275 3.7212,-4.858"
         style="fill:#70b72e;fill-opacity:1;fill-rule:nonzero;stroke:none"
         id="path6469" />
      <path
         inkscape:connector-curvature="0"
         d="m -1484.889,535.97225 c 0,0 -4.3325,0.33113 -4.0275,4.90387 0,0 -2.055,1.06101 -1.5137,3.75238 0,0 -1.9851,-1.685 -0.019,-4.13525 0,0 -0.062,-2.34713 1.4775,-3.74612 1.54,-1.39988 4.0825,-0.77488 4.0825,-0.77488"
         style="fill:#ffffff;fill-opacity:1;fill-rule:nonzero;stroke:none"
         id="path6471" />
      <path
         inkscape:connector-curvature="0"
         d="m -1585.649,519.276 c 0.2675,-0.6025 0.665,-1.1275 1.155,-1.54375 l 1.135,0.3925 -2.29,1.15125"
         style="fill:#7fcb32;fill-opacity:1;fill-rule:nonzero;stroke:none"
         id="path6587" />
    </g>
  </g>
</svg>
