<?xml version="1.0" encoding="UTF-8" standalone="no"?>
<!-- Created with Inkscape (http://www.inkscape.org/) -->

<svg
   xmlns:dc="http://purl.org/dc/elements/1.1/"
   xmlns:cc="http://creativecommons.org/ns#"
   xmlns:rdf="http://www.w3.org/1999/02/22-rdf-syntax-ns#"
   xmlns:svg="http://www.w3.org/2000/svg"
   xmlns="http://www.w3.org/2000/svg"
   xmlns:sodipodi="http://sodipodi.sourceforge.net/DTD/sodipodi-0.dtd"
   xmlns:inkscape="http://www.inkscape.org/namespaces/inkscape"
   id="svg6214"
   height="205"
   width="205"
   version="1.1"
   inkscape:version="0.48.5 r10040"
   sodipodi:docname="casa2.svg">
  <defs
     id="defs107" />
  <sodipodi:namedview
     pagecolor="#ffffff"
     bordercolor="#666666"
     borderopacity="1"
     objecttolerance="10"
     gridtolerance="10"
     guidetolerance="10"
     inkscape:pageopacity="0"
     inkscape:pageshadow="2"
     inkscape:window-width="636"
     inkscape:window-height="1041"
     id="namedview105"
     showgrid="false"
     inkscape:zoom="4.0000001"
     inkscape:cx="109.90053"
     inkscape:cy="136.71026"
     inkscape:window-x="640"
     inkscape:window-y="18"
     inkscape:window-maximized="0"
     inkscape:current-layer="g5061"
     showguides="true"
     inkscape:guide-bbox="true">
    <sodipodi:guide
       orientation="0,1"
       position="-0.21875,59.289062"
       id="guide3295" />
    <sodipodi:guide
       orientation="1,0"
       position="102.49105,-5.4346034"
       id="guide3297" />
  </sodipodi:namedview>
  <metadata
     id="metadata6219">
    <rdf:RDF>
      <cc:Work
         rdf:about="">
        <dc:format>image/svg+xml</dc:format>
        <dc:type
           rdf:resource="http://purl.org/dc/dcmitype/StillImage" />
        <dc:title></dc:title>
      </cc:Work>
    </rdf:RDF>
  </metadata>
  <g
     id="g5061"
     transform="matrix(1.0002665,0,0,1.0002665,-13.170999,-693.66199)">
    <g
       transform="matrix(0.40733324,0,0,0.40733324,674.69162,668.75223)"
       id="g9284">
      <path
         inkscape:connector-curvature="0"
         d="m -1286.234,155.011 -27.495,32.66375 -0.1975,65.78 53.695,-29.4525 0.094,-11.815 0,-15.7725 0.1037,-38.15125 -26.2,-3.2525"
         style="fill:#ddd8b7;fill-opacity:1;fill-rule:nonzero;stroke:none"
         id="path5715" />
      <path
         inkscape:connector-curvature="0"
         d="m -1313.729,187.67475 -58.76,-32 -0.1875,65.65625 10.6137,5.83 1.9163,-0.38375 11.9,6.545 0,1.38875 34.32,18.74375 0.1975,-65.78"
         style="fill:#ffffff;fill-opacity:1;fill-rule:nonzero;stroke:none"
         id="path5717" />
      <path
         inkscape:connector-curvature="0"
         d="m -1350.449,206.11725 -2.0525,-1.0975 -2.1137,-1.10875 -1.9063,-1.0875 -1.865,-1.05625 -3.6763,-1.90375 0,25.89875 1.8125,1.015 1.8638,1.005 1.865,1.15 1.9063,1.0025 2.1137,1.1 2.0525,1.09625 2.2025,1.19125 0,-26.0025 -2.2025,-1.2025"
         style="fill:#6d352f;fill-opacity:1;fill-rule:nonzero;stroke:none"
         id="path5719" />
      <path
         inkscape:connector-curvature="0"
         d="m -1264.2002,192.0235 c -0.1926,0.42375 -0.089,1.09625 -0.089,1.575 0,0.2375 -0.1038,1.48 0.475,1.2825 0.33,-0.18625 0.6212,-0.475 0.8987,-0.66125 l 0.725,-0.29 c 0.4763,-0.1975 0.8613,-0.33125 1.1913,-0.52875 0.3862,-0.18625 0.7675,-0.18625 0.7675,-0.57 0,-0.38375 0,-0.63125 0,-1.005 0,-0.57875 0,-1.09625 0,-1.67625 -1.295,0.86 -2.6838,1.20125 -3.9687,1.87375"
         style="fill:#d69b4d;fill-opacity:1;fill-rule:nonzero;stroke:none"
         id="path5721" />
      <path
         inkscape:connector-curvature="0"
         d="m -1263.3903,195.40975 c -0.6212,0.765 -1.4825,0.95375 -2.2874,1.28375 -1.0076,0.4775 -0.4901,1.29375 -0.3863,2.155 0.2925,-0.0937 0.1975,0.14375 0.48,0 0.2875,-0.0937 0.475,-0.28 0.6737,-0.38375 0.3288,-0.185 0.6213,-0.37375 1.0026,-0.56875 0.9924,-0.42625 2.01,-0.90125 3.0125,-1.48125 0.2825,-0.145 0.6637,-0.145 0.6637,-0.435 0,-0.28 0,-0.4775 0,-0.755 0,-0.43625 0,-0.91375 0,-1.38875 -1.0975,0.57 -2.1037,1.045 -3.1588,1.57375"
         style="fill:#d69b4d;fill-opacity:1;fill-rule:nonzero;stroke:none"
         id="path5723" />
      <path
         inkscape:connector-curvature="0"
         d="m -1264.5815,199.086 c 0,0.39375 -0.094,1.9675 0.57,1.67875 0.8187,-0.4775 1.7275,-0.90125 2.5887,-1.38875 0.1888,-0.0937 1.0976,-0.435 1.0976,-0.5275 0,-0.1875 0,-0.38375 0,-0.56875 0,-0.47875 0.094,-0.91375 0.094,-1.38875 -1.4825,0.81875 -2.9613,1.48 -4.35,2.195"
         style="fill:#d69b4d;fill-opacity:1;fill-rule:nonzero;stroke:none"
         id="path5725" />
      <path
         inkscape:connector-curvature="0"
         d="m -1264.1053,201.6235 c -0.3812,0.34125 -0.9087,0.62125 -1.3887,1.005 -0.6738,0.29 -0.2775,1.0025 -0.2775,1.58375 0,0.3325 0,0.51875 0.475,0.3325 0.3862,-0.095 0.6213,-0.2925 0.9037,-0.43625 0.1038,-0.1975 0.6726,-0.3825 0.7625,-0.4775 0.3438,-0.195 0.715,-0.38125 1.1013,-0.56875 0.725,-0.34125 1.3837,-0.6225 2.1088,-0.91125 0.2825,-0.10375 0.095,-0.38375 0.095,-0.62125 0,-0.67375 0,-1.295 0,-1.95625 -0.5701,0.38125 -1.2013,0.66125 -1.865,0.99375 -0.5263,0.28875 -1.2938,0.87 -1.915,1.05625"
         style="fill:#d69b4d;fill-opacity:1;fill-rule:nonzero;stroke:none"
         id="path5727" />
      <path
         inkscape:connector-curvature="0"
         d="m -1261.804,210.90225 c -0.725,0.3825 -1.4825,0.85875 -2.2075,1.19 -0.3813,0.29 -0.57,0.4875 -0.6638,0.9625 0,0.42625 0,0.99625 0.1888,1.38 0.2863,0.4325 1.0962,0 1.3875,-0.18875 0.6738,-0.38125 1.295,-0.765 1.9537,-1.09625 l 0.8201,-0.57 0,-0.3925 c 0,-0.6125 0,-1.285 0,-1.99875 -0.4763,0.18625 -1.0038,0.475 -1.4788,0.71375"
         style="fill:#d69b4d;fill-opacity:1;fill-rule:nonzero;stroke:none"
         id="path5729" />
      <path
         inkscape:connector-curvature="0"
         d="m -1260.4203,217.2185 c -0.8137,0.42625 -1.5812,0.90125 -2.3912,1.3775 -0.3813,0.145 -0.8188,0.42625 -1.2,0.62125 -0.3813,0.1875 -0.2775,0.81875 -0.2775,1.2025 0,0.3725 -0.2925,1.575 0.2775,1.77 0.5275,0.28 1.7275,-0.67375 2.1137,-0.85875 0.2775,-0.15625 1.5725,-0.725 1.5725,-0.91125 0,-0.38375 0,-0.725 0,-1.09875 0,-0.725 0,-1.49 0,-2.20625 l -0.095,0.10375"
         style="fill:#d69b4d;fill-opacity:1;fill-rule:nonzero;stroke:none"
         id="path5731" />
      <path
         inkscape:connector-curvature="0"
         d="m -1264.2002,222.99725 c -0.089,0.0937 -0.2863,0.29125 -0.4751,0.38375 -0.094,0.28 -0.094,0.5175 -0.094,0.91 0,0.47875 -0.1413,0.99625 0,1.575 0.094,0.38375 1.1387,-0.38375 1.285,-0.475 0.7675,-0.34125 1.4825,-0.62125 2.25,-1.005 0.235,-0.1975 0.9088,-0.29 0.9088,-0.62125 0,-0.29 0,-0.67375 0,-0.95375 0,-0.5275 0,-1.2 0,-1.73 -0.6738,0.3325 -1.2951,0.725 -1.8651,1.005 -0.6212,0.38375 -1.3887,0.62125 -2.0099,0.91125"
         style="fill:#d69b4d;fill-opacity:1;fill-rule:nonzero;stroke:none"
         id="path5733" />
      <path
         inkscape:connector-curvature="0"
         d="m -1264.8728,216.0585 c -0.5175,0.29125 -0.4237,0.87125 -0.5175,1.295 0,0.38375 -0.1937,1.57375 0.2813,1.49125 0.6225,-0.10375 1.2012,-0.52625 1.7187,-0.81875 0.6738,-0.38125 1.295,-0.7125 2.0613,-1.09625 0.1837,-0.095 1.0037,-0.4875 1.0037,-0.7675 0,-0.2375 0,-0.5275 0,-0.8175 0,-0.66375 0,-1.19 0,-1.77125 -1.4787,0.9525 -3.065,1.6775 -4.5475,2.485"
         style="fill:#d69b4d;fill-opacity:1;fill-rule:nonzero;stroke:none"
         id="path5735" />
      <path
         inkscape:connector-curvature="0"
         d="m -1264.9103,208.8935 c -0.2925,0.18625 -0.48,0.29 -0.6737,0.47625 -0.3863,0.14625 -0.2825,0.62125 -0.2825,0.91 0,0.6225 0,1.295 0,1.9075 l 0.2825,0.1025 c 0.2875,-0.1025 0.475,-0.2375 0.6737,-0.33125 0.3288,-0.29 0.7101,-0.57875 1.1901,-0.7675 0.5274,-0.38125 1.1912,-0.7125 1.7187,-1.0025 0.1975,-0.10375 1.6763,-0.81875 1.6763,-0.81875 0,-1.0575 0,-1.95875 0,-2.87 -1.4788,0.82 -3.1588,1.585 -4.5851,2.39375"
         style="fill:#d69b4d;fill-opacity:1;fill-rule:nonzero;stroke:none"
         id="path5737" />
      <path
         inkscape:connector-curvature="0"
         d="m -1263.579,204.636 c -0.235,0.095 -0.4325,0.1975 -0.71,0.38375 0,0.29 0,0.62125 0,1.005 0.089,0.29 0,1.295 0.3813,1.48125 0.2774,0.1975 0.6212,-0.095 0.8087,-0.29 0.6738,-0.28 1.295,-0.62125 1.9537,-0.99625 0.1463,-0.1025 0.8201,-0.38125 0.8201,-0.57875 0,-0.2375 0,-0.5275 0,-0.8075 0,-0.58125 0,-1.1075 0,-1.6775 -1.0975,0.475 -2.2038,0.85875 -3.2538,1.48"
         style="fill:#d69b4d;fill-opacity:1;fill-rule:nonzero;stroke:none"
         id="path5739" />
      <path
         inkscape:connector-curvature="0"
         d="m -1261.804,173.84975 c -0.725,0.4225 -1.4825,0.80625 -2.2075,1.29375 -0.3813,0.18625 -0.57,0.42375 -0.6638,0.90125 0,0.39375 0,1.005 0.1888,1.38625 0.1975,0.4875 1.0962,-0.0913 1.3875,-0.185 0.6738,-0.38375 1.295,-0.8075 1.9537,-1.20125 l 0.8201,-0.4775 c 0,-0.14375 0,-0.2375 0,-0.33 0,-0.76625 0,-1.3875 0,-2.06125 -0.5701,0.1975 -1.0038,0.475 -1.4788,0.67375"
         style="fill:#d69b4d;fill-opacity:1;fill-rule:nonzero;stroke:none"
         id="path5741" />
      <path
         inkscape:connector-curvature="0"
         d="m -1260.4203,180.11475 c -0.8137,0.475 -1.5812,1.005 -2.3912,1.37625 -0.475,0.19875 -0.8188,0.4875 -1.2,0.62125 -0.3813,0.19875 -0.2775,0.96375 -0.2775,1.20375 0,0.475 -0.2925,1.66625 0.2775,1.86375 0.5275,0.18625 1.7275,-0.62125 2.1137,-0.91375 0.2775,-0.0913 1.5725,-0.6725 1.5725,-0.95 0,-0.3325 0,-0.62125 0,-1.005 0,-0.71625 0,-1.575 0,-2.3 l -0.095,0.10375"
         style="fill:#d69b4d;fill-opacity:1;fill-rule:nonzero;stroke:none"
         id="path5743" />
      <path
         inkscape:connector-curvature="0"
         d="m -1264.2002,185.98725 c -0.089,0.10375 -0.2863,0.195 -0.4751,0.28875 -0.094,0.38375 -0.094,0.57875 -0.094,0.95375 0,0.5275 -0.1413,1.10875 0,1.5325 0.094,0.48625 1.1387,-0.23875 1.285,-0.42375 0.7675,-0.2925 1.4825,-0.66375 2.25,-1.0575 0.235,-0.0513 0.9088,-0.2375 0.9088,-0.62125 0,-0.28 0,-0.56875 0,-0.91 0,-0.57 0,-1.14 0,-1.7725 -0.6738,0.38375 -1.2951,0.725 -1.8651,1.10875 -0.6212,0.28 -1.3887,0.56875 -2.0099,0.90125"
         style="fill:#d69b4d;fill-opacity:1;fill-rule:nonzero;stroke:none"
         id="path5745" />
      <path
         inkscape:connector-curvature="0"
         d="m -1263.1928,189.051 c 0,0.28 -0.2912,1.86375 0.3813,1.86375 0.7163,0 1.6662,-0.66125 2.3025,-1.05625 0.2775,-0.13375 0.1838,-0.61 0.1838,-0.99375 0,-0.34125 0,-0.81875 0,-1.19 -1.0038,0.465 -1.9588,0.88875 -2.8675,1.37625"
         style="fill:#d69b4d;fill-opacity:1;fill-rule:nonzero;stroke:none"
         id="path5747" />
      <path
         inkscape:connector-curvature="0"
         d="m -1264.8728,179.10975 c -0.5175,0.2375 -0.4237,0.715 -0.5175,1.285 0,0.29 -0.1937,1.49 0.2813,1.38625 0.6225,-0.0913 1.2012,-0.475 1.7187,-0.765 0.6738,-0.33125 1.295,-0.715 1.9675,-1.09875 0.2775,-0.19625 1.0975,-0.47625 1.0975,-0.71375 0,-0.28875 0,-0.58125 0,-0.9525 0,-0.5275 0,-1.10875 0,-1.73 -1.4787,0.91 -3.065,1.62625 -4.5475,2.58875"
         style="fill:#d69b4d;fill-opacity:1;fill-rule:nonzero;stroke:none"
         id="path5749" />
      <path
         inkscape:connector-curvature="0"
         d="m -1261.804,159.17475 c -0.725,0.37375 -1.4825,0.80625 -2.2075,1.19 -0.3813,0.29 -0.57,0.47875 -0.6638,0.9025 0,0.3825 0,1.05625 0.1888,1.3975 0.1975,0.475 1.0962,-0.10375 1.3875,-0.1975 0.6738,-0.33 1.295,-0.71375 1.9537,-1.2 l 0.8201,-0.42375 0,-0.38375 c 0,-0.66375 0,-1.38875 0,-1.99875 -0.5701,0.135 -1.0038,0.42375 -1.4788,0.71375"
         style="fill:#d69b4d;fill-opacity:1;fill-rule:nonzero;stroke:none"
         id="path5751" />
      <path
         inkscape:connector-curvature="0"
         d="m -1260.4203,165.336 c -0.8137,0.4775 -1.5812,1.005 -2.3912,1.38875 -0.475,0.29 -0.8188,0.475 -1.2,0.765 -0.3813,0.14625 -0.2775,0.81 -0.2775,1.19125 0,0.34375 -0.2925,1.53375 0.2775,1.72 0.5275,0.29 1.7275,-0.62125 2.1137,-0.90125 0.2775,-0.0937 1.5725,-0.62125 1.5725,-0.81875 0,-0.38125 0,-0.75625 0,-1.0975 0,-0.7675 0,-1.48 0,-2.2475 l -0.095,0"
         style="fill:#d69b4d;fill-opacity:1;fill-rule:nonzero;stroke:none"
         id="path5753" />
      <path
         inkscape:connector-curvature="0"
         d="m -1264.2002,171.26975 c -0.089,0.0937 -0.2863,0.18875 -0.4751,0.33125 -0.094,0.29 -0.094,0.57 -0.094,0.86 0,0.5175 -0.1413,1.09875 0,1.6775 0.094,0.3325 1.1387,-0.38375 1.285,-0.4875 0.7675,-0.37125 1.4825,-0.755 2.25,-1.0025 0.235,-0.1875 0.9088,-0.29125 0.9088,-0.66375 0,-0.38375 0,-0.62125 0,-0.91 0,-0.67375 0,-1.19125 0,-1.7725 -0.6738,0.29125 -1.2951,0.6725 -1.8651,1.005 -0.6212,0.38375 -1.3887,0.58125 -2.0099,0.9625"
         style="fill:#d69b4d;fill-opacity:1;fill-rule:nonzero;stroke:none"
         id="path5755" />
      <path
         inkscape:connector-curvature="0"
         d="m -1264.8728,164.331 c -0.5175,0.2925 -0.4237,0.715 -0.5175,1.295 0,0.29125 -0.1937,1.4825 0.2813,1.38875 0.6225,0 1.2012,-0.47625 1.7187,-0.71625 0.6738,-0.38125 1.295,-0.765 1.9675,-1.14875 0.2775,-0.145 1.0975,-0.435 1.0975,-0.715 0,-0.29 0,-0.57875 0,-0.81625 0,-0.67375 0,-1.24375 0,-1.7725 -1.4787,0.9125 -3.065,1.66875 -4.5475,2.485"
         style="fill:#d69b4d;fill-opacity:1;fill-rule:nonzero;stroke:none"
         id="path5757" />
      <path
         inkscape:connector-curvature="0"
         d="m -1310.5278,203.53975 c -0.7162,0.37125 -1.4825,0.8075 -2.105,1.29375 -0.1875,0.18625 -1.0962,0.57 -1.0962,0.8075 0,0.67375 0,1.295 0,1.95875 1.0962,-0.57 2.1937,-1.1 3.2012,-1.76125 0.8563,-0.6325 0.7625,-1.82375 0.8563,-2.77625 -0.2775,0.1875 -0.57,0.37375 -0.8563,0.4775"
         style="fill:#d69b4d;fill-opacity:1;fill-rule:nonzero;stroke:none"
         id="path5759" />
      <path
         inkscape:connector-curvature="0"
         d="m -1314.6428,205.1135 c -0.6624,-0.56875 -1.3875,-0.90125 -2.1412,-1.29375 l -0.2912,-0.18875 c -0.2363,0.095 -0.3401,0.28 -0.5276,0.4775 0,0.8175 0.1875,1.6275 0.9126,2.11125 0.9087,0.57 1.9537,0.99625 2.9612,1.48375 l 0,-2.15625 c -0.2913,-0.14375 -0.7675,-0.34125 -0.9138,-0.43375"
         style="fill:#e6be7f;fill-opacity:1;fill-rule:nonzero;stroke:none"
         id="path5761" />
      <path
         inkscape:connector-curvature="0"
         d="m -1311.629,190.626 c -0.4237,0.48625 -1.1913,0.81875 -1.8225,1.2 -0.2775,0.1975 -0.1837,0.28 -0.1837,0.62125 0,0.7675 0,1.38875 0,2.0525 1.1912,-0.4775 2.1937,-1.285 3.3,-1.95875 0.5699,-0.2375 1.1912,-0.435 1.285,-1.09625 0.1037,-0.63375 0.1037,-1.38875 0.1037,-2.11375 -0.9087,0 -1.8213,0.9225 -2.6825,1.295"
         style="fill:#d69b4d;fill-opacity:1;fill-rule:nonzero;stroke:none"
         id="path5763" />
      <path
         inkscape:connector-curvature="0"
         d="m -1310.424,193.401 c -0.82,0.52875 -1.7325,1.2025 -2.6837,1.6775 -0.5275,0.2375 -0.6213,0.14625 -0.6213,0.62125 0,0.8075 0,1.66625 0,2.485 0.4238,-0.28875 0.9087,-0.52625 1.3887,-0.81875 0.4326,-0.29 1.1913,-0.475 1.6238,-0.95125 0.6638,-0.715 0.3813,-2.10375 0.2925,-3.01375"
         style="fill:#d69b4d;fill-opacity:1;fill-rule:nonzero;stroke:none"
         id="path5765" />
      <path
         inkscape:connector-curvature="0"
         d="m -1312.6328,201.861 c -0.1875,0.10375 -1.0962,0.47625 -1.0962,0.67375 0,0.18625 0,0.42375 0,0.62125 0,0.57 0,1.05625 0,1.48 0.805,-0.38375 1.6762,-0.81625 2.485,-1.29375 0.5275,-0.38375 1.295,-0.62125 1.5725,-1.295 0.1037,-0.38375 0.1037,-0.7125 0,-1.0875 0,-0.4875 -0.1838,-0.57875 -0.57,-0.3925 -0.715,0.48625 -1.5813,0.87 -2.3913,1.29375"
         style="fill:#d69b4d;fill-opacity:1;fill-rule:nonzero;stroke:none"
         id="path5767" />
      <path
         inkscape:connector-curvature="0"
         d="m -1309.6715,196.601 c -0.4662,0.29 -0.8563,0.57 -1.1913,0.86875 -0.1825,0.085 -0.3812,0.24 -0.5787,0.33125 -0.1875,0.095 -0.3813,0.29 -0.5688,0.38375 -0.2412,0.18625 -1.7187,0.66375 -1.7187,1.005 0,0.85875 0,1.575 0,2.43375 1.285,-0.7675 2.58,-1.48 3.8737,-2.14375 0.3813,-0.1975 0.6213,-0.1975 1.0025,-0.4875 0.3825,-0.14375 0.2788,-0.62125 0.3825,-1.09625 0,-0.42625 0,-0.82 0,-1.295 -0.2875,-0.33125 -0.8575,-0.18625 -1.2012,0"
         style="fill:#d69b4d;fill-opacity:1;fill-rule:nonzero;stroke:none"
         id="path5769" />
      <path
         inkscape:connector-curvature="0"
         d="m -1313.8228,191.91975 c -0.6737,-0.28875 -1.3887,-0.6725 -1.865,-1.10875 -0.63,-0.28 -1.3874,-0.85875 -2.1125,-1.08625 l -0.1837,0.0937 c -0.1888,0.04 -0.2825,0.13375 -0.3863,0.33125 l -0.094,0.19625 c 0.094,0.38375 0.094,0.76625 0,1.09875 0.1975,0.755 0.5687,0.85875 1.19,1.2 0.49,0.28 1.06,0.57 1.4925,0.85 0.6638,0.34125 1.285,0.81625 2.0525,1.10875 l 0,-2.58 -0.094,-0.10375"
         style="fill:#e6be7f;fill-opacity:1;fill-rule:nonzero;stroke:none"
         id="path5771" />
      <path
         inkscape:connector-curvature="0"
         d="m -1313.729,195.40975 -0.3863,-0.185 c -1.0024,-0.43625 -1.915,-1.10875 -2.8662,-1.62625 0,0.5175 -0.094,1.19 -0.094,1.81125 0,0.29 0.094,0.47625 0.1875,0.765 l 0.1974,0.42625 c 0.3725,0.39375 0.9088,0.57 1.3851,0.765 0.5687,0.18875 1.0062,0.53 1.5762,0.81875 l 0,-2.775"
         style="fill:#e6be7f;fill-opacity:1;fill-rule:nonzero;stroke:none"
         id="path5773" />
      <path
         inkscape:connector-curvature="0"
         d="m -1310.424,185.841 c -0.9138,0.53875 -1.7325,1.2025 -2.7875,1.62625 -0.5175,0.29 -0.5175,0.10375 -0.5175,0.6725 0,0.82 0,1.67875 0,2.48625 0.4238,-0.28 0.805,-0.57 1.285,-0.8075 0.5363,-0.29 1.295,-0.4875 1.6762,-0.95375 0.715,-0.725 0.3438,-2.1125 0.3438,-3.02375"
         style="fill:#d69b4d;fill-opacity:1;fill-rule:nonzero;stroke:none"
         id="path5775" />
      <path
         inkscape:connector-curvature="0"
         d="m -1313.8228,187.75725 c -0.1037,-0.0825 -0.1975,-0.0825 -0.3812,-0.18625 -1.0075,-0.43625 -1.8263,-1.0975 -2.7775,-1.67875 -0.094,0.58125 -0.1975,1.2425 -0.094,1.865 0,0.28875 0,0.48625 0.094,0.76625 l 0.2912,0.43625 c 0.3725,0.37125 0.9088,0.56875 1.3851,0.765 0.5687,0.13375 1.0062,0.52875 1.4824,0.90125 l 0,-2.86875"
         style="fill:#e6be7f;fill-opacity:1;fill-rule:nonzero;stroke:none"
         id="path5777" />
      <path
         inkscape:connector-curvature="0"
         d="m -1313.8228,202.53475 c -0.2925,-0.1975 -0.7675,-0.38375 -0.9137,-0.4875 -0.8563,-0.42375 -1.6663,-0.8075 -2.5375,-1.2825 -0.4238,-0.1975 -0.5263,-0.0937 -0.6213,0.38125 0,0.38375 -0.089,0.715 0.095,1.09875 0.2913,0.67375 1.0163,1.005 1.5863,1.295 0.805,0.475 1.6237,0.8075 2.3913,1.29375 l 0,-2.29875"
         style="fill:#e6be7f;fill-opacity:1;fill-rule:nonzero;stroke:none"
         id="path5779" />
      <path
         inkscape:connector-curvature="0"
         d="m -1313.729,201.6235 0,-2.5375 c -0.475,-0.2375 -1.285,-0.5175 -1.68,-0.715 -0.2788,-0.18625 -0.5275,-0.38375 -0.805,-0.57 -0.57,-0.33125 -0.965,-0.725 -1.4838,-1.005 -0.475,-0.195 -1.2937,-0.4325 -1.2937,0.19875 0,0.66375 0,1.19 0.094,1.76 0.1038,0.5275 0.725,0.725 1.2,0.81875 0.1888,0.0925 2.8726,1.48 3.9688,2.05"
         style="fill:#e6be7f;fill-opacity:1;fill-rule:nonzero;stroke:none"
         id="path5781" />
      <path
         inkscape:connector-curvature="0"
         d="m -1312.3403,231.50975 c -0.1975,0.0937 -1.3887,0.62125 -1.3887,0.90125 0,0.29 0,0.57875 0,0.81875 0,0.67375 -0.094,1.295 -0.094,1.95625 1.0025,-0.475 2,-0.91125 2.96,-1.575 0.7251,-0.475 1.295,-0.91 1.3888,-1.76875 0,-0.3325 0.1462,-1.6275 -0.1975,-1.71875 -0.2775,-0.10375 -0.8563,0.33 -1.045,0.42375 -0.5275,0.38375 -1.1063,0.6725 -1.6238,0.9625"
         style="fill:#d69b4d;fill-opacity:1;fill-rule:nonzero;stroke:none"
         id="path5783" />
      <path
         inkscape:connector-curvature="0"
         d="m -1313.6353,239.05975 c -0.385,0.18625 -0.1875,1.295 -0.1875,1.67875 0,0.62125 0,1.19 0,1.70875 1.19,-0.70625 2.3813,-1.19125 3.4875,-2.00125 1.3888,-0.85875 0.8613,-2.2975 0.8613,-3.5825 -1.3888,0.71625 -2.7775,1.42875 -4.1613,2.19625"
         style="fill:#d69b4d;fill-opacity:1;fill-rule:nonzero;stroke:none"
         id="path5785" />
      <path
         inkscape:connector-curvature="0"
         d="m -1308.574,241.451 c 0,-0.29 -0.09,-0.57875 0,-0.91125 0,-0.38375 -0.09,-0.38375 -0.4763,-0.185 -0.4237,0.185 -0.805,0.475 -1.285,0.80625 -1.1062,0.67375 -2.2975,1.28625 -3.3937,1.865 -0.1975,0.0937 -0.094,1.19 -0.094,1.38875 0,0.4325 0,1.0025 0,1.48875 1.0963,-0.6725 2.1938,-1.3975 3.295,-2.05875 0.5788,-0.2925 1.2,-0.53 1.77,-1.005 0.4751,-0.29 0.1838,-1.005 0.1838,-1.38875"
         style="fill:#d69b4d;fill-opacity:1;fill-rule:nonzero;stroke:none"
         id="path5787" />
      <path
         inkscape:connector-curvature="0"
         d="m -1310.9565,244.84725 c -0.8662,0.57 -1.5813,1.05625 -2.3913,1.575 -0.475,0.28875 -0.475,0.185 -0.475,0.7675 0,0.7125 0,1.38625 0,2.10125 0.8088,-0.475 1.8125,-0.90125 2.3813,-1.575 0.6737,-0.725 0.485,-1.915 0.485,-2.86875"
         style="fill:#d69b4d;fill-opacity:1;fill-rule:nonzero;stroke:none"
         id="path5789" />
      <path
         inkscape:connector-curvature="0"
         d="m -1311.719,248.38975 c -0.5325,0.5175 -1.295,0.90125 -1.8125,1.285 -0.395,0.18625 -0.2913,0.29 -0.2913,0.62125 0,0.67375 0,1.38625 0,2.06 1.19,-0.485 2.2875,-1.295 3.3988,-1.95625 0.5687,-0.29 1.0962,-0.435 1.19,-1.10875 0.09,-0.62125 0.09,-1.48 0.09,-2.10125 -0.805,0 -1.8125,0.91 -2.575,1.2"
         style="fill:#d69b4d;fill-opacity:1;fill-rule:nonzero;stroke:none"
         id="path5791" />
      <path
         inkscape:connector-curvature="0"
         d="m -1308.574,232.8985 c -0.9,0.5275 -1.7613,1.09625 -2.67,1.5225 -0.5788,0.29 -1.0963,0.67375 -1.68,0.9625 l -0.8988,0.42375 c 0,0.85875 0,1.7725 0,2.6825 1.4825,-0.81875 2.96,-1.57375 4.4438,-2.3925 0.3287,-0.19625 0.715,-0.47625 1.0025,-0.71375 0.3337,-0.28875 0.3337,-0.7675 0.3337,-1.2025 0,-0.2775 0,-0.66125 0,-0.95125 0,-0.435 -0.1362,-0.52875 -0.5312,-0.33125"
         style="fill:#d69b4d;fill-opacity:1;fill-rule:nonzero;stroke:none"
         id="path5793" />
      <path
         inkscape:connector-curvature="0"
         d="m -1309.144,226.24975 c -0.9087,0.5275 -1.9012,1.19125 -2.8662,1.7175 -0.3301,0.19875 -1.7188,0.67375 -1.7188,1.0575 0,0.8075 0,1.72 0,2.67125 1.1912,-0.95125 2.58,-1.5725 3.9637,-2.34 0.5313,-0.28875 1.4826,-0.33125 1.5863,-1.09625 0.094,-0.81875 0,-1.67875 -0.1037,-2.39375 -0.2913,0.0937 -0.5701,0.1975 -0.8613,0.38375"
         style="fill:#d69b4d;fill-opacity:1;fill-rule:nonzero;stroke:none"
         id="path5795" />
      <path
         inkscape:connector-curvature="0"
         d="m -1310.6228,224.096 c -0.715,0.38375 -1.43,0.765 -2.1037,1.19125 -0.2875,0.195 -1.0963,0.6725 -1.0963,0.9625 0,0.62125 0,1.285 0,1.91625 1.0963,-0.5275 2.1938,-1.10875 3.2,-1.8225 0.8575,-0.58125 0.7675,-1.7725 0.7675,-2.6825 -0.2825,0.10375 -0.48,0.2375 -0.7675,0.435"
         style="fill:#d69b4d;fill-opacity:1;fill-rule:nonzero;stroke:none"
         id="path5797" />
      <path
         inkscape:connector-curvature="0"
         d="m -1313.9265,232.31725 c -0.3725,-0.29 -0.7163,-0.475 -1.1912,-0.71375 -0.5701,-0.28875 -1.0963,-0.56875 -1.6663,-0.85875 -0.2912,-0.1975 -0.8188,-0.53 -1.1113,-0.53 -0.3712,0.14625 -0.1837,1.6275 -0.089,1.91625 0.2862,1.66875 2.575,2.19625 4.0575,2.96375 l 0,-2.7775"
         style="fill:#e6be7f;fill-opacity:1;fill-rule:nonzero;stroke:none"
         id="path5799" />
      <path
         inkscape:connector-curvature="0"
         d="m -1317.3115,237.391 c -0.1975,0 -0.4888,-0.10375 -0.5838,0 -0.089,0.085 -0.1837,0.18875 -0.2775,0.375 -0.094,1.005 -0.2912,2.01875 0.7575,2.77375 1.0975,0.71625 2.4013,1.295 3.4888,1.9075 l 0,-3.28375 c -1.0875,-0.67375 -2.2875,-1.2025 -3.385,-1.7725"
         style="fill:#e6be7f;fill-opacity:1;fill-rule:nonzero;stroke:none"
         id="path5801" />
      <path
         inkscape:connector-curvature="0"
         d="m -1315.014,242.44725 c -0.9225,-0.42625 -1.9675,-0.9025 -2.6837,-1.47125 -0.1976,-0.10375 -0.4751,-0.2375 -0.6726,-0.3325 l -0.1837,0 -0.24,0.095 -0.1037,0.2375 -0.1875,0.185 c -0.09,0.67375 -0.3825,1.48125 0.1875,1.865 0.7249,0.52625 1.6237,0.91 2.4949,1.38875 0.8101,0.4325 1.6663,1.0025 2.4763,1.48875 l 0,-2.8775 c -0.2775,-0.18625 -0.81,-0.38375 -1.0875,-0.57875"
         style="fill:#e6be7f;fill-opacity:1;fill-rule:nonzero;stroke:none"
         id="path5803" />
      <path
         inkscape:connector-curvature="0"
         d="m -1314.4965,246.32975 c -0.5175,-0.34375 -1.0963,-0.62125 -1.6238,-1.005 l -0.3862,0 -0.1837,0.0925 0,0.0937 c 0,0.725 -0.094,1.67875 0.4762,2.3 0.5262,0.66125 1.4775,1.005 2.1937,1.48 l 0,-2.68375 c -0.095,-0.185 -0.3825,-0.185 -0.4762,-0.2775"
         style="fill:#e6be7f;fill-opacity:1;fill-rule:nonzero;stroke:none"
         id="path5805" />
      <path
         inkscape:connector-curvature="0"
         d="m -1314.0203,249.67475 c -0.57,-0.29 -1.2849,-0.67375 -1.865,-1.2025 -0.5175,-0.2775 -1.2937,-0.85875 -2.01,-1.045 l -0.1837,0.0937 c -0.2913,0.0925 -0.385,0.0925 -0.385,0.38125 l -0.09,0.1975 c 0,0.3725 0.09,0.71625 0,1.005 0.1837,0.75625 0.475,0.90125 1.1387,1.295 0.5276,0.28 1.0125,0.475 1.5301,0.755 0.6737,0.43625 1.2424,0.82 1.9587,1.20125 l 0,-2.59 -0.094,-0.0913"
         style="fill:#e6be7f;fill-opacity:1;fill-rule:nonzero;stroke:none"
         id="path5807" />
      <path
         inkscape:connector-curvature="0"
         d="m -1313.9265,235.716 c -0.1888,-0.14625 -0.57,-0.24 -0.6638,-0.3325 -0.5274,-0.28875 -1.1912,-0.58125 -1.7275,-0.85875 -0.9562,-0.53 -1.7612,-1.005 -2.7675,-1.535 -0.7637,-0.38125 -0.57,0.62125 -0.57,1.1 -0.1037,0.33125 -0.1037,0.91 0.1875,1.2 0.2925,0.33125 0.7676,0.61125 1.0975,0.8075 1.4826,0.81875 2.9613,1.4825 4.4438,2.29875 l 0,-2.68"
         style="fill:#e6be7f;fill-opacity:1;fill-rule:nonzero;stroke:none"
         id="path5809" />
      <path
         inkscape:connector-curvature="0"
         d="m -1314.5903,228.446 c -1.3462,-0.66375 -2.6837,-1.575 -4.015,-2.19625 l -0.3862,0 -0.1838,0.2375 -0.1975,0.0937 c 0,0.47625 0,1.0575 0,1.48125 0,0.87 0.6726,1.005 1.2938,1.29375 1.3888,0.66375 2.8675,1.295 4.1525,2.2475 l 0,-2.77375 c -0.1888,-0.18875 -0.4763,-0.28125 -0.6638,-0.38375"
         style="fill:#e6be7f;fill-opacity:1;fill-rule:nonzero;stroke:none"
         id="path5811" />
      <path
         inkscape:connector-curvature="0"
         d="m -1314.7365,225.48225 c -0.6725,-0.4325 -1.3838,-0.91125 -2.1512,-1.29375 l -0.2913,-0.0925 c -0.2363,0 -0.33,0.195 -0.5188,0.38375 0,0.8075 0.1888,1.66625 0.9138,2.10125 0.8987,0.58 1.9588,1.0575 2.8575,1.48125 l 0,-1.99875 c -0.1888,-0.30125 -0.6638,-0.4875 -0.81,-0.58125"
         style="fill:#e6be7f;fill-opacity:1;fill-rule:nonzero;stroke:none"
         id="path5813" />
      <path
         inkscape:connector-curvature="0"
         d="m -1310.9565,206.78975 c -0.7625,0.53 -1.5813,1.09875 -2.3487,1.5225 -0.5175,0.29 -0.4238,0.29 -0.4238,0.7675 0,0.725 0,1.49 0,2.11125 0.715,-0.4325 1.7188,-0.91125 2.3912,-1.58375 0.6213,-0.71375 0.4751,-1.90375 0.3813,-2.8175"
         style="fill:#d69b4d;fill-opacity:1;fill-rule:nonzero;stroke:none"
         id="path5815" />
      <path
         inkscape:connector-curvature="0"
         d="m -1311.719,211.08725 c -0.4375,0.4875 -1.205,0.87125 -1.8125,1.2025 -0.2913,0.18625 -0.1975,0.29 -0.1975,0.6625 0,0.72375 0,1.3975 0,2.01875 1.1912,-0.445 2.1937,-1.295 3.305,-1.91625 0.5687,-0.28875 1.19,-0.475 1.28,-1.09625 0.094,-0.67375 0.094,-1.38875 0.094,-2.15375 -0.8987,0.0925 -1.8125,0.95375 -2.6687,1.2825"
         style="fill:#d69b4d;fill-opacity:1;fill-rule:nonzero;stroke:none"
         id="path5817" />
      <path
         inkscape:connector-curvature="0"
         d="m -1310.5278,213.95725 c -0.81,0.56875 -1.7237,1.2025 -2.6837,1.6775 -0.5175,0.29 -0.5175,0.0937 -0.5175,0.62125 0,0.85875 0,1.67875 0,2.485 0.3812,-0.2375 0.805,-0.62125 1.285,-0.80625 0.5363,-0.29 1.2,-0.4875 1.6762,-0.91125 0.6301,-0.7675 0.3438,-2.2475 0.24,-3.06625"
         style="fill:#d69b4d;fill-opacity:1;fill-rule:nonzero;stroke:none"
         id="path5819" />
      <path
         inkscape:connector-curvature="0"
         d="m -1312.6328,222.376 c -0.1875,0.0937 -1.0962,0.52875 -1.0962,0.62125 0,0.29125 0,0.4775 0,0.7675 0,0.42375 0,0.90125 0,1.42875 0.805,-0.42375 1.6762,-0.8075 2.485,-1.3775 0.4762,-0.25 1.295,-0.63125 1.5725,-1.295 0.1037,-0.33125 0,-0.715 0,-1.1075 -0.094,-0.3325 -0.1838,-0.51875 -0.57,-0.3325 -0.8037,0.435 -1.6662,0.91375 -2.3913,1.295"
         style="fill:#d69b4d;fill-opacity:1;fill-rule:nonzero;stroke:none"
         id="path5821" />
      <path
         inkscape:connector-curvature="0"
         d="m -1309.7653,217.0235 c -0.3724,0.29 -0.8575,0.62125 -1.1912,0.8075 -0.1925,0.195 -0.3813,0.28875 -0.5788,0.38375 -0.1837,0.10375 -0.2875,0.28875 -0.475,0.38125 -0.33,0.24875 -1.7187,0.62125 -1.7187,1.09875 0,0.725 0,1.5325 0,2.3 1.1912,-0.7675 2.485,-1.48375 3.78,-2.105 0.3812,-0.0913 0.715,-0.195 1.0025,-0.38125 0.3725,-0.29125 0.3725,-0.7675 0.3725,-1.19 0.1037,-0.38375 0,-0.87125 0,-1.295 -0.2788,-0.38375 -0.805,-0.18875 -1.1913,0"
         style="fill:#d69b4d;fill-opacity:1;fill-rule:nonzero;stroke:none"
         id="path5823" />
      <path
         inkscape:connector-curvature="0"
         d="m -1314.299,208.31225 c -0.5262,-0.2275 -1.11,-0.60875 -1.6375,-0.90125 l -0.3813,-0.0913 0,0.0913 -0.1887,0 0,0.095 c 0,0.72375 -0.094,1.6775 0.4762,2.29875 0.5313,0.67375 1.44,1.005 2.2075,1.48 l 0,-2.6825 c -0.1975,-0.0925 -0.3812,-0.18625 -0.4762,-0.29"
         style="fill:#e6be7f;fill-opacity:1;fill-rule:nonzero;stroke:none"
         id="path5825" />
      <path
         inkscape:connector-curvature="0"
         d="m -1313.9265,212.38225 c -0.6638,-0.33 -1.285,-0.71375 -1.855,-1.19125 -0.5363,-0.28875 -1.3975,-0.81625 -2.1138,-1.10625 l -0.089,0.10375 c -0.2825,0.0913 -0.3863,0.18625 -0.48,0.475 l 0,0.095 c 0,0.32875 0,0.7125 0,1.09625 0.094,0.725 0.48,0.91125 1.1525,1.295 0.5275,0.2375 0.9937,0.42375 1.4262,0.715 0.7675,0.38125 1.295,0.81625 2.0625,1.10625 l 0,-2.58875 -0.1037,0"
         style="fill:#e6be7f;fill-opacity:1;fill-rule:nonzero;stroke:none"
         id="path5827" />
      <path
         inkscape:connector-curvature="0"
         d="m -1313.8228,215.821 c -0.1037,0 -0.1975,-0.0925 -0.3812,-0.18625 -1.0075,-0.475 -1.9163,-1.10875 -2.8712,-1.6775 0,0.6725 -0.1038,1.29375 -0.1038,1.9675 0,0.13375 0.1038,0.425 0.1975,0.715 l 0.2912,0.38375 c 0.2875,0.33 0.805,0.5275 1.2813,0.8075 0.5838,0.195 1.0062,0.57875 1.5862,0.81625 l 0,-2.82625"
         style="fill:#e6be7f;fill-opacity:1;fill-rule:nonzero;stroke:none"
         id="path5829" />
      <path
         inkscape:connector-curvature="0"
         d="m -1313.9265,222.90475 c -0.2775,-0.1975 -0.7163,-0.38375 -0.8987,-0.435 -0.8626,-0.475 -1.6813,-0.85875 -2.4863,-1.295 -0.4888,-0.185 -0.5838,-0.0937 -0.5838,0.34125 -0.089,0.38375 -0.089,0.7675 0,1.1 0.2925,0.6725 1.1113,1.045 1.6813,1.2825 0.715,0.4875 1.5712,0.87125 2.2875,1.255 l 0,-2.24875"
         style="fill:#e6be7f;fill-opacity:1;fill-rule:nonzero;stroke:none"
         id="path5831" />
      <path
         inkscape:connector-curvature="0"
         d="m -1313.8228,221.99475 0,-2.48625 c -0.4762,-0.29125 -1.2949,-0.58125 -1.5862,-0.7675 -0.3725,-0.145 -0.6213,-0.33125 -0.9088,-0.52625 -0.5699,-0.38375 -0.9562,-0.7675 -1.4825,-0.99625 -0.4662,-0.195 -1.285,-0.4875 -1.285,0.135 0,0.6725 0,1.2425 0.094,1.77125 0.094,0.57 0.725,0.765 1.1912,0.91125 0.2913,0.0937 2.88,1.3775 3.9775,1.95875"
         style="fill:#e6be7f;fill-opacity:1;fill-rule:nonzero;stroke:none"
         id="path5833" />
      <path
         inkscape:connector-curvature="0"
         d="m -1368.4502,187.22975 c -1.2938,-0.75625 -2.6826,-1.13875 -3.9776,-1.95875 0,0.57 0,1.10875 0,1.58375 0,0.375 0,0.6125 0,1.005 0,0.47875 0.25,0.38375 0.7163,0.66375 0.9175,0.43625 1.8737,0.8075 2.7725,1.295 0.6212,0.435 0.5787,-0.4875 0.5787,-0.85875 0,-0.53 0.1463,-1.285 -0.09,-1.73"
         style="fill:#e6be7f;fill-opacity:1;fill-rule:nonzero;stroke:none"
         id="path5835" />
      <path
         inkscape:connector-curvature="0"
         d="m -1369.3115,190.531 c -1.0025,-0.57875 -2.01,-1.09625 -3.1162,-1.57125 0,0.37125 0,0.85875 0,1.19 0,0.29 0,0.58 0,0.765 0,0.2375 0.095,0.2375 0.3387,0.43625 1.05,0.56875 2.0525,1.045 3.055,1.48 0.3863,0.18625 0.82,0.38375 1.1913,0.57 0.1974,0.0937 0.3962,0.28875 0.5837,0.33125 0.1838,0 0.2875,0.10375 0.33,0.1975 0.1038,-0.0937 0.1975,-0.1975 0.3812,-0.0937 0,-0.62125 0.5838,-1.5325 -0.2774,-1.91625 -0.82,-0.475 -1.7275,-0.6725 -2.4863,-1.38875"
         style="fill:#e6be7f;fill-opacity:1;fill-rule:nonzero;stroke:none"
         id="path5837" />
      <path
         inkscape:connector-curvature="0"
         d="m -1368.1203,194.116 c -1.3887,-0.715 -2.9187,-1.3775 -4.3074,-2.19625 0,0.47625 0,0.81875 0,1.295 0,0.18625 0,0.38375 0,0.5175 0,0.1975 0.7162,0.38375 0.9087,0.4875 0.9137,0.475 1.8637,1.19 2.8712,1.48 0,0 0.4338,0.18625 0.4338,-0.1975 0,-0.42375 0.094,-0.89875 0.094,-1.38625"
         style="fill:#e6be7f;fill-opacity:1;fill-rule:nonzero;stroke:none"
         id="path5839" />
      <path
         inkscape:connector-curvature="0"
         d="m -1368.6478,196.50725 c -0.5687,-0.14375 -1.0962,-0.62125 -1.6662,-0.91125 -0.6213,-0.28 -1.4925,-0.61125 -2.1137,-0.9925 0,0.5175 0,1.19 0,1.76 0,0.14375 -0.094,0.5275 0,0.7125 0.6212,0.19875 1.3887,0.47875 2.0099,0.725 0.6738,0.38375 1.3838,0.7675 2.0575,1.14 0.24,0.145 1.3888,1.01375 1.4313,0.34125 0,-0.43375 0.3812,-1.38625 -0.043,-1.7275 -0.5788,-0.28 -1.2425,-0.56 -1.6763,-1.0475"
         style="fill:#e6be7f;fill-opacity:1;fill-rule:nonzero;stroke:none"
         id="path5841" />
      <path
         inkscape:connector-curvature="0"
         d="m -1370.9353,205.641 c -0.5837,-0.145 -1.0587,-0.435 -1.4925,-0.62125 0,0.62125 0,1.2 0,1.8125 0,0.4875 -0.094,0.4875 0.3388,0.7675 0.7675,0.485 1.4837,0.81625 2.2512,1.29375 0.225,0.0925 1.0025,0.6225 1.3876,0.47625 0.3299,-0.18625 0.3299,-1.14 0.3299,-1.38875 -0.094,-0.38125 -0.1975,-0.66125 -0.4325,-0.95125 -0.8625,-0.435 -1.6712,-0.9125 -2.3825,-1.38875"
         style="fill:#e6be7f;fill-opacity:1;fill-rule:nonzero;stroke:none"
         id="path5843" />
      <path
         inkscape:connector-curvature="0"
         d="m -1368.4502,215.4485 c 0,-0.38375 -0.1026,-0.81875 -0.1026,-1.29375 -0.095,-0.38375 -0.9562,-0.67375 -1.285,-0.82 -0.9562,-0.475 -1.77,-1.1475 -2.6837,-1.57375 0,1.09875 0,2.10375 0,3.10625 0,0.2925 0.2912,0.2925 0.5275,0.4775 0.5687,0.29 1.2,0.6225 1.77,1.005 0.3862,0.0925 1.19,0.67375 1.5762,0.38125 0.2875,-0.28875 0.1975,-0.91 0.1975,-1.2825"
         style="fill:#e6be7f;fill-opacity:1;fill-rule:nonzero;stroke:none"
         id="path5845" />
      <path
         inkscape:connector-curvature="0"
         d="m -1368.6478,217.551 c -0.5687,-0.2375 -1.19,-0.43625 -1.77,-0.71625 -0.715,-0.3925 -1.3887,-0.8675 -2.1037,-1.2 0,0.5275 0,1.09625 0,1.67875 0,0.2375 0,0.62125 0,0.90125 0,0.4325 0.5275,0.4325 0.9138,0.7125 0.3812,0.095 3.2899,1.7725 3.4874,1.58375 0.2775,-0.38125 0,-1.0025 0,-1.48875 0,-0.28125 0.094,-0.70375 0,-0.99625 -0.094,-0.195 -0.3299,-0.28875 -0.5274,-0.475"
         style="fill:#e6be7f;fill-opacity:1;fill-rule:nonzero;stroke:none"
         id="path5847" />
      <path
         inkscape:connector-curvature="0"
         d="m -1369.6553,220.606 c -0.95,-0.47625 -1.9524,-0.91125 -2.8662,-1.38875 0,0.38375 0,0.725 0,1.09875 0,0.38375 -0.1888,0.91125 0.1887,1.0975 0.3388,0.1975 0.7251,0.48625 1.2,0.58125 0.2351,0.195 0.715,0.475 1.0025,0.475 0.715,0 0.4751,-1.38875 0.4751,-1.86375"
         style="fill:#e6be7f;fill-opacity:1;fill-rule:nonzero;stroke:none"
         id="path5849" />
      <path
         inkscape:connector-curvature="0"
         d="m -1367.9315,210.80975 c -1.4838,-0.81875 -3.0038,-1.535 -4.4962,-2.4975 -0.094,0.58125 -0.094,1.0575 -0.094,1.585 0,0.29125 0,0.6725 0,0.9125 0,0.38125 0.81,0.57 1.0962,0.765 0.5275,0.38375 1.2013,0.715 1.77,1.005 0.5325,0.28 1.1026,0.66375 1.7238,0.8075 0.7625,0.18625 0.5787,-0.62125 0.5787,-1.0975 0,-0.62125 0.094,-1.2025 -0.5787,-1.48"
         style="fill:#e6be7f;fill-opacity:1;fill-rule:nonzero;stroke:none"
         id="path5851" />
      <path
         inkscape:connector-curvature="0"
         d="m -1367.8428,203.726 c -1.4687,-0.8075 -3.055,-1.575 -4.5849,-2.39125 0,0.91 0,1.82125 0,2.77375 0,0.10375 1.2949,0.6225 1.4924,0.725 0.5175,0.3725 1.0975,0.6625 1.7188,1.005 0.3813,0.18625 0.8562,0.47625 1.19,0.75625 0.2875,0.10375 0.4762,0.2375 0.6737,0.34125 0.2776,0.18625 0.2776,0 0.4238,0 0,-0.62125 0,-1.295 0,-1.8225 0,-0.28 0,-0.56875 -0.043,-0.86125 -0.1975,-0.14375 -0.475,-0.34125 -0.8713,-0.52625"
         style="fill:#e6be7f;fill-opacity:1;fill-rule:nonzero;stroke:none"
         id="path5853" />
      <path
         inkscape:connector-curvature="0"
         d="m -1369.1228,199.47975 c -1.1012,-0.53875 -2.1037,-1.015 -3.305,-1.38875 0,0.57 0,0.995 0,1.575 0,0.1975 0,0.4775 0,0.80625 0,0.2925 0.3388,0.38375 0.6213,0.4875 0.58,0.375 1.0975,0.66375 1.6762,0.90125 0.3863,0.18625 0.8188,0.57875 1.1913,0.57875 0.4887,-0.1025 0.3862,-1.0025 0.4887,-1.38625 0,-0.28875 0,-0.58125 0,-0.91 0,-0.38375 -0.385,-0.4775 -0.6725,-0.66375"
         style="fill:#e6be7f;fill-opacity:1;fill-rule:nonzero;stroke:none"
         id="path5855" />
      <path
         inkscape:connector-curvature="0"
         d="m -1370.9353,169.116 c -0.5837,-0.2375 -1.0587,-0.435 -1.4925,-0.71375 0,0.6225 0,1.28375 0,1.905 0,0.4775 -0.094,0.4775 0.3388,0.6725 0.7675,0.47875 1.4837,0.91125 2.2512,1.285 0.225,0.19625 1.0025,0.63125 1.3876,0.4875 0.3299,-0.10375 0.3299,-1.05625 0.3299,-1.38875 -0.094,-0.38375 -0.1975,-0.6725 -0.4325,-0.85875 -0.8625,-0.435 -1.6712,-0.91125 -2.3825,-1.38875"
         style="fill:#e6be7f;fill-opacity:1;fill-rule:nonzero;stroke:none"
         id="path5857" />
      <path
         inkscape:connector-curvature="0"
         d="m -1368.4502,178.91475 c 0,-0.47875 -0.1026,-0.9025 -0.1026,-1.28625 -0.095,-0.48625 -0.9562,-0.76625 -1.285,-0.91 -0.9562,-0.4775 -1.77,-1.0575 -2.6837,-1.48125 0,1.00375 0,2.1025 0,3.1075 0,0.2775 0.2912,0.2775 0.5275,0.38125 0.5687,0.38375 1.2,0.715 1.77,0.995 0.3862,0.19625 1.19,0.7775 1.5762,0.4875 0.2875,-0.29125 0.1975,-0.9125 0.1975,-1.29375"
         style="fill:#e6be7f;fill-opacity:1;fill-rule:nonzero;stroke:none"
         id="path5859" />
      <path
         inkscape:connector-curvature="0"
         d="m -1368.6478,181.016 c -0.5687,-0.28 -1.19,-0.5175 -1.77,-0.8075 -0.715,-0.38375 -1.3887,-0.7675 -2.1037,-1.09875 0,0.52875 0,1.005 0,1.575 0,0.33125 0,0.62125 0,1.005 0,0.33125 0.5275,0.4225 0.9138,0.62125 0.3812,0.195 3.2899,1.77 3.4874,1.57375 0.2775,-0.38375 0,-0.90125 0,-1.37875 0,-0.39375 0.094,-0.725 0,-1.015 -0.094,-0.28 -0.3299,-0.37125 -0.5274,-0.475"
         style="fill:#e6be7f;fill-opacity:1;fill-rule:nonzero;stroke:none"
         id="path5861" />
      <path
         inkscape:connector-curvature="0"
         d="m -1369.6553,184.081 c -0.95,-0.4875 -1.9524,-0.91125 -2.8662,-1.38625 0,0.28875 0,0.62125 0,1.0025 0,0.38375 -0.1888,1.005 0.1887,1.19 0.3388,0.19875 0.7251,0.38375 1.2,0.58125 0.2351,0.0925 0.715,0.42375 1.0025,0.42375 0.715,-0.0512 0.4751,-1.42875 0.4751,-1.81125"
         style="fill:#e6be7f;fill-opacity:1;fill-rule:nonzero;stroke:none"
         id="path5863" />
      <path
         inkscape:connector-curvature="0"
         d="m -1367.9315,174.191 c -1.4838,-0.8175 -3.0038,-1.5425 -4.59,-2.40375 0,0.4775 0,1.0575 0,1.58625 0,0.2775 0,0.57 0,0.89875 0,0.38375 0.81,0.5825 1.0962,0.7675 0.5275,0.38375 1.2013,0.62125 1.77,1.005 0.5325,0.29 1.1026,0.67375 1.7238,0.8175 0.7625,0.1875 0.5787,-0.71375 0.5787,-1.20125 0,-0.5175 0.094,-1.09625 -0.5787,-1.47"
         style="fill:#e6be7f;fill-opacity:1;fill-rule:nonzero;stroke:none"
         id="path5865" />
      <path
         inkscape:connector-curvature="0"
         d="m -1368.4502,161.846 c 0,-0.38125 -0.1026,-0.8075 -0.1026,-1.295 -0.095,-0.475 -0.9562,-0.6725 -1.285,-0.8075 -0.9562,-0.475 -1.77,-1.1475 -2.6837,-1.57375 0,1.09875 0,2.10375 0,3.0975 0,0.30125 0.2912,0.30125 0.5275,0.48625 0.5687,0.28 1.2,0.62125 1.77,1.005 0.3862,0.0925 1.19,0.66125 1.5762,0.38125 0.2875,-0.28875 0.1975,-0.91 0.1975,-1.29375"
         style="fill:#e6be7f;fill-opacity:1;fill-rule:nonzero;stroke:none"
         id="path5867" />
      <path
         inkscape:connector-curvature="0"
         d="m -1368.6478,163.94975 c -0.5687,-0.29125 -1.19,-0.435 -1.77,-0.715 -0.715,-0.38375 -1.3887,-0.86 -2.1037,-1.20125 0,0.5275 0,1.10625 0,1.625 0,0.29125 0,0.6725 0,0.965 0,0.4225 0.5275,0.4225 0.9138,0.7125 0.3812,0.0937 3.2899,1.67875 3.4874,1.575 0.2775,-0.3725 0,-0.99375 0,-1.48125 0,-0.38375 0.094,-0.715 0,-0.995 -0.094,-0.195 -0.3299,-0.29 -0.5274,-0.485"
         style="fill:#e6be7f;fill-opacity:1;fill-rule:nonzero;stroke:none"
         id="path5869" />
      <path
         inkscape:connector-curvature="0"
         d="m -1369.6553,167.01475 c -0.95,-0.47625 -1.9524,-0.91125 -2.8662,-1.38875 0,0.38375 0,0.715 0,1.09875 0,0.29 -0.1888,0.91125 0.1887,1.09625 0.3388,0.18625 0.7251,0.47875 1.2,0.58125 0.2351,0.18625 0.715,0.47625 1.0025,0.47625 0.715,-0.0937 0.4751,-1.38875 0.4751,-1.86375"
         style="fill:#e6be7f;fill-opacity:1;fill-rule:nonzero;stroke:none"
         id="path5871" />
      <path
         inkscape:connector-curvature="0"
         d="m -1360.2503,226.77725 0,-26.0125 -1.8125,-1.005 -0.1037,27.40125 2.02,-0.38375 -0.1038,0"
         style="fill:#ddd8b7;fill-opacity:1;fill-rule:nonzero;stroke:none"
         id="path5873" />
      <path
         inkscape:connector-curvature="0"
         d="m -1279.0703,174.471 0.094,16.88 -13.815,7.4975 -0.094,-16.8275 13.815,-7.55"
         style="fill:#392a2a;fill-opacity:1;fill-rule:nonzero;stroke:none"
         id="path5875" />
      <path
         inkscape:connector-curvature="0"
         d="m -1281.3578,189.72475 0,-13.96 2.2875,-1.29375 0.094,16.88 -2.485,-1.62625 0.1037,0"
         style="fill:#ffffff;fill-opacity:1;fill-rule:nonzero;stroke:none"
         id="path5877" />
      <path
         inkscape:connector-curvature="0"
         d="m -1292.7915,195.886 11.33,-6.16125 2.485,1.62625 -13.815,7.4975 0,-2.9625"
         style="fill:#d0c9a4;fill-opacity:1;fill-rule:nonzero;stroke:none"
         id="path5879" />
      <path
         inkscape:connector-curvature="0"
         d="m -1280.2703,175.23725 0,15.2025 -0.085,0 1.3788,0.91125 -0.094,-16.88 -1.2,0.76625"
         style="fill:#ffffff;fill-opacity:1;fill-rule:nonzero;stroke:none"
         id="path5881" />
      <path
         inkscape:connector-curvature="0"
         d="m -1360.8715,172.6485 0,16.78625 13.8163,7.56 0,-16.88 -13.8163,-7.46625"
         style="fill:#392a2a;fill-opacity:1;fill-rule:nonzero;stroke:none"
         id="path5883" />
      <path
         inkscape:connector-curvature="0"
         d="m -1358.4753,187.75725 0,-13.81375 -2.3962,-1.295 0,16.78625 2.3962,-1.575 0,-0.1025"
         style="fill:#d0c9a4;fill-opacity:1;fill-rule:nonzero;stroke:none"
         id="path5885" />
      <path
         inkscape:connector-curvature="0"
         d="m -1347.0552,194.02225 -11.4201,-6.1625 -2.3962,1.575 13.8163,7.56 0,-2.9725"
         style="fill:#d0c9a4;fill-opacity:1;fill-rule:nonzero;stroke:none"
         id="path5887" />
      <path
         inkscape:connector-curvature="0"
         d="m -1359.5865,173.3735 0,15.19 -1.285,0.87125 0,-16.78625 1.285,0.725"
         style="fill:#ddd8b7;fill-opacity:1;fill-rule:nonzero;stroke:none"
         id="path5889" />
      <path
         inkscape:connector-curvature="0"
         d="m -1338.159,184.796 0,16.8675 13.815,7.52 0.1037,-16.7875 -13.9187,-7.6"
         style="fill:#392a2a;fill-opacity:1;fill-rule:nonzero;stroke:none"
         id="path5891" />
      <path
         inkscape:connector-curvature="0"
         d="m -1335.7678,200.0485 0,-13.9575 -2.3912,-1.295 0,16.8675 2.485,-1.615 -0.094,0"
         style="fill:#d0c9a4;fill-opacity:1;fill-rule:nonzero;stroke:none"
         id="path5893" />
      <path
         inkscape:connector-curvature="0"
         d="m -1324.344,206.21975 -11.33,-6.17125 -2.485,1.615 13.815,7.52 0,-2.96375"
         style="fill:#d0c9a4;fill-opacity:1;fill-rule:nonzero;stroke:none"
         id="path5895" />
      <path
         inkscape:connector-curvature="0"
         d="m -1336.874,185.561 0,15.20375 0.051,0 -1.3362,0.89875 0,-16.8675 1.285,0.765"
         style="fill:#ddd8b7;fill-opacity:1;fill-rule:nonzero;stroke:none"
         id="path5897" />
      <path
         inkscape:connector-curvature="0"
         d="m -1338.159,211.471 0,16.88 13.815,7.55 0.1037,-16.87875 -13.9187,-7.55125"
         style="fill:#392a2a;fill-opacity:1;fill-rule:nonzero;stroke:none"
         id="path5899" />
      <path
         inkscape:connector-curvature="0"
         d="m -1335.7678,226.68475 0,-13.91875 -2.3912,-1.295 0,16.88 2.485,-1.66625 -0.094,0"
         style="fill:#d0c9a4;fill-opacity:1;fill-rule:nonzero;stroke:none"
         id="path5901" />
      <path
         inkscape:connector-curvature="0"
         d="m -1324.344,232.98975 -11.33,-6.305 -2.485,1.66625 13.815,7.55 0,-2.91125"
         style="fill:#d0c9a4;fill-opacity:1;fill-rule:nonzero;stroke:none"
         id="path5903" />
      <path
         inkscape:connector-curvature="0"
         d="m -1336.874,212.18725 0,15.25375 0.051,0 -1.3362,0.91 0,-16.88 1.285,0.71625"
         style="fill:#ddd8b7;fill-opacity:1;fill-rule:nonzero;stroke:none"
         id="path5905" />
      <path
         inkscape:connector-curvature="0"
         d="m -1279.0703,208.706 0.094,16.77625 -13.815,7.56 -0.094,-16.88 13.815,-7.45625"
         style="fill:#392a2a;fill-opacity:1;fill-rule:nonzero;stroke:none"
         id="path5907" />
      <path
         inkscape:connector-curvature="0"
         d="m -1281.3578,223.816 0,-13.825 2.2875,-1.285 0.094,16.77625 -2.485,-1.58375 0.1037,-0.0825"
         style="fill:#ffffff;fill-opacity:1;fill-rule:nonzero;stroke:none"
         id="path5909" />
      <path
         inkscape:connector-curvature="0"
         d="m -1292.7915,230.1235 11.33,-6.225 2.485,1.58375 -13.815,7.56 0,-2.91875"
         style="fill:#d0c9a4;fill-opacity:1;fill-rule:nonzero;stroke:none"
         id="path5911" />
      <path
         inkscape:connector-curvature="0"
         d="m -1280.2703,209.4635 0,15.1075 -0.085,0.095 1.3788,0.81625 -0.094,-16.77625 -1.2,0.7575"
         style="fill:#ffffff;fill-opacity:1;fill-rule:nonzero;stroke:none"
         id="path5913" />
      <path
         inkscape:connector-curvature="0"
         d="m -1318.464,126.32475 -3.395,-0.38125 -3.2525,-0.34375 -3.77,-0.38125 -3.5913,-0.37375 -3.8737,-0.435 -3.9687,-0.38125 -4.6788,-0.57 -3.3563,3.5825 -3.2012,3.72875 -3.0637,3.30375 -3.1501,3.5825 -3.3937,3.7275 -3.295,3.78 -3.8313,4.1125 -7.1637,6.64875 0,1.37625 61.9175,33.51 0,-62 -4.9325,-2.48625"
         style="fill:#648948;fill-opacity:1;fill-rule:nonzero;stroke:none"
         id="path5915" />
      <path
         inkscape:connector-curvature="0"
         d="m -1313.5315,128.811 0,62 3.1962,-3.58125 3.875,-4.34 3.685,-4.16375 3.4413,-3.87125 3.29,-3.68875 3.1587,-3.5825 2.965,-3.34375 3.3,-3.68875 3.055,-3.43625 5.1688,0.47625 3.8737,0.3825 3.77,0.38375 3.3938,0.23875 3.78,0.3825 3.07,0.29 3.9625,0.38375 0,-1.295 -56.985,-29.54625"
         style="fill:#29351c;fill-opacity:1;fill-rule:nonzero;stroke:none"
         id="path5917" />
      <path
         inkscape:connector-curvature="0"
         d="m -1361.159,140.08975 61.825,33.47 3.29,-3.67625 -61.7213,-33.61625 -3.3937,3.8225"
         style="fill:#415732;fill-opacity:1;fill-rule:nonzero;stroke:none"
         id="path5919" />
      <path
         inkscape:connector-curvature="0"
         d="m -1357.7653,136.26725 61.7213,33.61625 3.1588,-3.585 -61.73,-33.52 -3.1501,3.48875"
         style="fill:#354724;fill-opacity:1;fill-rule:nonzero;stroke:none"
         id="path5921" />
      <path
         inkscape:connector-curvature="0"
         d="m -1364.454,143.86975 61.6787,33.47 3.4413,-3.78 -61.825,-33.47 -3.295,3.78"
         style="fill:#354724;fill-opacity:1;fill-rule:nonzero;stroke:none"
         id="path5923" />
      <path
         inkscape:connector-curvature="0"
         d="m -1351.5515,129.4835 61.6312,33.46125 3.3,-3.67625 -61.73,-33.5225 -3.2012,3.7375"
         style="fill:#354724;fill-opacity:1;fill-rule:nonzero;stroke:none"
         id="path5925" />
      <path
         inkscape:connector-curvature="0"
         d="m -1368.2853,147.981 61.825,33.61375 3.685,-4.255 -61.6787,-33.47 -3.8313,4.11125"
         style="fill:#415732;fill-opacity:1;fill-rule:nonzero;stroke:none"
         id="path5927" />
      <path
         inkscape:connector-curvature="0"
         d="m -1375.449,156.016 61.9175,33.5125 3.1963,-3.63625 -61.8101,-33.5625 -3.3037,3.68625"
         style="fill:#415732;fill-opacity:1;fill-rule:nonzero;stroke:none"
         id="path5929" />
      <path
         inkscape:connector-curvature="0"
         d="m -1372.1453,152.32975 61.81,33.5625 3.875,-4.2975 -61.825,-33.61375 -3.86,4.34875"
         style="fill:#354724;fill-opacity:1;fill-rule:nonzero;stroke:none"
         id="path5931" />
      <path
         inkscape:connector-curvature="0"
         d="m -1354.6152,132.7785 61.73,33.52 2.965,-3.35375 -61.6313,-33.46125 -3.0637,3.295"
         style="fill:#415732;fill-opacity:1;fill-rule:nonzero;stroke:none"
         id="path5933" />
      <path
         inkscape:connector-curvature="0"
         d="m -1348.3503,125.746 61.73,33.5225 3.055,-3.4475 -61.4287,-33.65625 -3.3563,3.58125"
         style="fill:#415732;fill-opacity:1;fill-rule:nonzero;stroke:none"
         id="path5935" />
      <path
         inkscape:connector-curvature="0"
         d="m -1260.509,157.9735 -61.35,-33.32375 -3.2525,-0.3325 61.5325,33.3675 3.07,0.28875"
         style="fill:#29351c;fill-opacity:1;fill-rule:nonzero;stroke:none"
         id="path5937" />
      <path
         inkscape:connector-curvature="0"
         d="m -1256.5465,158.35725 -61.9175,-33.41875 -3.395,-0.28875 61.35,33.32375 3.9625,0.38375"
         style="fill:#354724;fill-opacity:1;fill-rule:nonzero;stroke:none"
         id="path5939" />
      <path
         inkscape:connector-curvature="0"
         d="m -1325.1115,124.31725 -3.77,-0.3825 61.5225,33.36625 3.78,0.38375 -61.5325,-33.3675"
         style="fill:#354724;fill-opacity:1;fill-rule:nonzero;stroke:none"
         id="path5941" />
      <path
         inkscape:connector-curvature="0"
         d="m -1344.994,122.16475 61.4287,33.65625 5.1688,0.475 -61.9187,-33.5525 -4.6788,-0.57875"
         style="fill:#354724;fill-opacity:1;fill-rule:nonzero;stroke:none"
         id="path5943" />
      <path
         inkscape:connector-curvature="0"
         d="m -1332.4728,123.551 61.72,33.52125 3.3938,0.22875 -61.5225,-33.36625 -3.5913,-0.38375"
         style="fill:#29351c;fill-opacity:1;fill-rule:nonzero;stroke:none"
         id="path5945" />
      <path
         inkscape:connector-curvature="0"
         d="m -1340.3153,122.7435 61.9188,33.5525 3.8737,0.3925 -61.8237,-33.57375 -3.9688,-0.37125"
         style="fill:#29351c;fill-opacity:1;fill-rule:nonzero;stroke:none"
         id="path5947" />
      <path
         inkscape:connector-curvature="0"
         d="m -1336.3465,123.11475 61.8237,33.57375 3.77,0.38375 -61.72,-33.52125 -3.8737,-0.43625"
         style="fill:#354724;fill-opacity:1;fill-rule:nonzero;stroke:none"
         id="path5949" />
      <path
         inkscape:connector-curvature="0"
         d="m -1357.849,216.38475 c 0.036,0.4425 -0.2213,0.82375 -0.5738,0.8525 -0.3537,0.0288 -0.67,-0.30625 -0.7062,-0.7475 -0.036,-0.4425 0.2212,-0.82375 0.575,-0.8525 0.3537,-0.0288 0.6687,0.30625 0.705,0.7475"
         style="fill:#d69b4d;fill-opacity:1;fill-rule:nonzero;stroke:none"
         id="path5999" />
      <path
         inkscape:connector-curvature="0"
         d="m -1291.794,263.7935 c 0.029,0.74125 1.2613,0.6325 1.2625,-0.0612 l 0.015,-13.0675 c 0,-0.37375 -0.2862,-0.67875 -0.6363,-0.67875 -0.35,0 -0.6337,0.30875 -0.6325,0.6825 l -0.016,9.8 0.01,0.0888 0,3.23625"
         style="fill:#d95e40;fill-opacity:1;fill-rule:nonzero;stroke:none"
         id="path6001" />
      <path
         inkscape:connector-curvature="0"
         d="m -1289.1728,255.06475 0,2.25875 c 0.029,0.965 -0.085,1.22 -0.7437,1.69 l -1.225,0.61875 0.3363,0.685 1.2487,-0.6325 c 1.0612,-0.6975 1.1462,-1.4525 1.1462,-2.36625 l 0,-2.25375 -0.7625,0"
         style="fill:#d95e40;fill-opacity:1;fill-rule:nonzero;stroke:none"
         id="path6003" />
      <path
         inkscape:connector-curvature="0"
         d="m -1293.4015,258.4885 0,-2.325 -0.7875,0 0,2.325 c 0,0.94625 0.088,1.72625 1.2037,2.46 l 1.27,0.64125 0.3476,-0.70875 -1.2413,-0.62375 c -0.7038,-0.50125 -0.8225,-0.76375 -0.7925,-1.76875"
         style="fill:#d95e40;fill-opacity:1;fill-rule:nonzero;stroke:none"
         id="path6005" />
      <path
         inkscape:connector-curvature="0"
         d="m -1283.869,249.97475 c 0,3.54625 -2.8737,6.42 -6.4213,6.42 -3.5449,0 -6.4187,-2.87375 -6.4187,-6.42 0,-3.54625 2.8737,-6.4225 6.4187,-6.4225 3.5476,0 6.4213,2.87625 6.4213,6.4225"
         style="fill:#428e3a;fill-opacity:1;fill-rule:nonzero;stroke:none"
         id="path6007" />
      <path
         inkscape:connector-curvature="0"
         d="m -1282.6815,248.68475 c 1.6675,-6.43 -3.0663,-7.185 -3.0663,-7.185 -1.5324,-6.08625 -8.2562,-4.97 -8.2562,-4.97 -0.2088,-0.035 -0.41,-0.0937 -0.63,-0.0937 -1.7087,0 -3.1338,1.13625 -3.6087,2.6875 -3.1301,0.01 -5.665,2.54875 -5.665,5.6825 0,1.04625 0.2862,2.0225 0.7787,2.865 -0.4975,1.10375 -0.7787,2.3275 -0.7787,3.62 0,4.89 3.965,8.8575 8.8575,8.8575 2.3424,0 4.4687,-0.9175 6.0499,-2.405 0.88,0.3475 1.835,0.545 2.8388,0.545 1.3087,0 2.5225,-0.35375 3.6037,-0.925 3.5113,-4.69375 -0.1237,-8.67875 -0.1237,-8.67875"
         style="fill:#80ca31;fill-opacity:1;fill-rule:nonzero;stroke:none"
         id="path6009" />
      <path
         inkscape:connector-curvature="0"
         d="m -1278.3965,250.52475 c 0,-1.11125 -0.2387,-2.16625 -0.66,-3.1225 0.3837,-0.785 0.6025,-1.66125 0.6025,-2.59625 0,-3.03875 -2.2813,-5.53875 -5.225,-5.89375 -0.8425,-2.46 -3.1688,-4.2325 -5.9162,-4.2325 -1.7275,0 -3.2763,0.7175 -4.4088,1.85 0,0 6.7237,-1.11625 8.2562,4.97 0,0 4.7338,0.755 3.0663,7.185 0,0 3.635,3.985 0.1237,8.67875 2.4625,-1.30125 4.1613,-3.85875 4.1613,-6.83875"
         style="fill:#70b72e;fill-opacity:1;fill-rule:nonzero;stroke:none"
         id="path6011" />
      <path
         inkscape:connector-curvature="0"
         d="m -1294.4477,240.32725 c 0,0 -5.5901,1.0375 -4.5526,6.9425 0,0 -2.525,1.66875 -1.4425,5.09375 0,0 -2.8187,-1.915 -0.605,-5.37625 0,0 -0.41,-3.045 1.3988,-5.08125 1.8062,-2.03625 5.2012,-1.57875 5.2012,-1.57875"
         style="fill:#ffffff;fill-opacity:1;fill-rule:nonzero;stroke:none"
         id="path6013" />
      <path
         inkscape:connector-curvature="0"
         d="m -1255.2453,244.40975 c 0.029,0.74125 1.2613,0.6325 1.2626,-0.0613 l 0.015,-13.0675 c 0,-0.37375 -0.2863,-0.67875 -0.6363,-0.67875 -0.35,0 -0.6337,0.30875 -0.6325,0.6825 l -0.016,9.8 0.01,0.0887 0,3.23625"
         style="fill:#d95e40;fill-opacity:1;fill-rule:nonzero;stroke:none"
         id="path6015" />
      <path
         inkscape:connector-curvature="0"
         d="m -1252.624,235.681 0,2.25875 c 0.03,0.96625 -0.084,1.22 -0.7437,1.69 l -1.2251,0.61875 0.3363,0.685 1.2487,-0.6325 c 1.0613,-0.6975 1.1463,-1.4525 1.1463,-2.36625 l 0,-2.25375 -0.7625,0"
         style="fill:#d95e40;fill-opacity:1;fill-rule:nonzero;stroke:none"
         id="path6017" />
      <path
         inkscape:connector-curvature="0"
         d="m -1256.8528,239.10475 0,-2.325 -0.7875,0 0,2.325 c 0,0.94625 0.088,1.72625 1.2038,2.46 l 1.27,0.64125 0.3475,-0.70875 -1.2413,-0.62375 c -0.7037,-0.50125 -0.8225,-0.76375 -0.7925,-1.76875"
         style="fill:#d95e40;fill-opacity:1;fill-rule:nonzero;stroke:none"
         id="path6019" />
      <path
         inkscape:connector-curvature="0"
         d="m -1247.3203,230.591 c 0,3.54625 -2.8737,6.42 -6.4212,6.42 -3.545,0 -6.4188,-2.87375 -6.4188,-6.42 0,-3.54625 2.8738,-6.4225 6.4188,-6.4225 3.5475,0 6.4212,2.87625 6.4212,6.4225"
         style="fill:#428e3a;fill-opacity:1;fill-rule:nonzero;stroke:none"
         id="path6021" />
      <path
         inkscape:connector-curvature="0"
         d="m -1246.1328,229.301 c 1.6675,-6.43 -3.065,-7.185 -3.065,-7.185 -1.5325,-6.08625 -8.2575,-4.97 -8.2575,-4.97 -0.2087,-0.035 -0.41,-0.0937 -0.6287,-0.0937 -1.71,0 -3.135,1.13625 -3.6088,2.6875 -3.1312,0.01 -5.6662,2.54875 -5.6662,5.6825 0,1.04625 0.2862,2.0225 0.7787,2.865 -0.4975,1.10375 -0.7787,2.3275 -0.7787,3.62 0,4.89 3.9662,8.8575 8.8587,8.8575 2.3413,0 4.4675,-0.9175 6.0488,-2.405 0.88,0.3475 1.835,0.54625 2.84,0.54625 1.3075,0 2.5212,-0.355 3.6025,-0.92625 3.5125,-4.69375 -0.1238,-8.67875 -0.1238,-8.67875"
         style="fill:#80ca31;fill-opacity:1;fill-rule:nonzero;stroke:none"
         id="path6023" />
      <path
         inkscape:connector-curvature="0"
         d="m -1241.8478,231.141 c 0,-1.11125 -0.2387,-2.16625 -0.6587,-3.1225 0.3825,-0.785 0.6025,-1.66125 0.6025,-2.59625 0,-3.03875 -2.2825,-5.53875 -5.2263,-5.89375 -0.8425,-2.46 -3.1687,-4.2325 -5.915,-4.2325 -1.7287,0 -3.2775,0.7175 -4.41,1.85 0,0 6.725,-1.11625 8.2575,4.97 0,0 4.7325,0.755 3.065,7.185 0,0 3.6363,3.985 0.1238,8.67875 2.4637,-1.30125 4.1612,-3.85875 4.1612,-6.83875"
         style="fill:#70b72e;fill-opacity:1;fill-rule:nonzero;stroke:none"
         id="path6025" />
      <path
         inkscape:connector-curvature="0"
         d="m -1257.899,220.9435 c 0,0 -5.59,1.0375 -4.5525,6.9425 0,0 -2.525,1.66875 -1.4425,5.09375 0,0 -2.8188,-1.915 -0.6038,-5.37625 0,0 -0.4099,-3.045 1.3975,-5.08125 1.8075,-2.03625 5.2013,-1.57875 5.2013,-1.57875"
         style="fill:#ffffff;fill-opacity:1;fill-rule:nonzero;stroke:none"
         id="path6027" />
    </g>
  </g>
</svg>
