<?xml version="1.0" encoding="UTF-8" standalone="no"?>
<!-- Created with Inkscape (http://www.inkscape.org/) -->

<svg
   xmlns:dc="http://purl.org/dc/elements/1.1/"
   xmlns:cc="http://creativecommons.org/ns#"
   xmlns:rdf="http://www.w3.org/1999/02/22-rdf-syntax-ns#"
   xmlns:svg="http://www.w3.org/2000/svg"
   xmlns="http://www.w3.org/2000/svg"
   xmlns:sodipodi="http://sodipodi.sourceforge.net/DTD/sodipodi-0.dtd"
   xmlns:inkscape="http://www.inkscape.org/namespaces/inkscape"
   id="svg6214"
   height="205"
   width="205"
   version="1.1"
   inkscape:version="0.48.5 r10040"
   sodipodi:docname="casa4.svg">
  <defs
     id="defs107" />
  <sodipodi:namedview
     pagecolor="#ffffff"
     bordercolor="#666666"
     borderopacity="1"
     objecttolerance="10"
     gridtolerance="10"
     guidetolerance="10"
     inkscape:pageopacity="0"
     inkscape:pageshadow="2"
     inkscape:window-width="636"
     inkscape:window-height="1041"
     id="namedview105"
     showgrid="false"
     inkscape:zoom="4.0000001"
     inkscape:cx="109.90053"
     inkscape:cy="136.71026"
     inkscape:window-x="640"
     inkscape:window-y="18"
     inkscape:window-maximized="0"
     inkscape:current-layer="g5061"
     showguides="true"
     inkscape:guide-bbox="true">
    <sodipodi:guide
       orientation="0,1"
       position="-0.21875,59.289062"
       id="guide3295" />
    <sodipodi:guide
       orientation="1,0"
       position="102.49105,-5.4346034"
       id="guide3297" />
  </sodipodi:namedview>
  <metadata
     id="metadata6219">
    <rdf:RDF>
      <cc:Work
         rdf:about="">
        <dc:format>image/svg+xml</dc:format>
        <dc:type
           rdf:resource="http://purl.org/dc/dcmitype/StillImage" />
        <dc:title></dc:title>
      </cc:Work>
    </rdf:RDF>
  </metadata>
  <g
     id="g5061"
     transform="matrix(1.0002665,0,0,1.0002665,-13.170999,-693.66199)">
    <g
       transform="matrix(0.34781481,0,0,0.34781481,831.56661,681.94462)"
       id="g9111">
      <path
         inkscape:connector-curvature="0"
         d="m -1938.1807,241.96651 0,-0.7375 -56.1601,-32.3625 0,3.8275 56.1601,32.36375 0.9657,-0.5575 -0.9657,-2.53375"
         style="fill:#6d352f;fill-opacity:1;fill-rule:nonzero;stroke:none"
         id="path6039" />
      <path
         inkscape:connector-curvature="0"
         d="m -1938.1807,197.23526 0,44.73125 0.9658,2.53375 55.0812,-31.80625 0,-47.765 -56.047,32.30625"
         style="fill:#c1e6d5;fill-opacity:1;fill-rule:nonzero;stroke:none"
         id="path6041" />
      <path
         inkscape:connector-curvature="0"
         d="m -1976.1606,145.07526 33.7544,53.63625 3.1474,-0.88 1.0498,-0.5675 0.028,-0.0288 0,3.8025 -5.9278,0.34125 -32.9017,-52.64625 -17.3306,11.80125 0,-2.9775 17.813,-13.04875 0.2827,0.4825 0.084,0.085"
         style="fill:#c1e6d5;fill-opacity:1;fill-rule:evenodd;stroke:none"
         id="path6043" />
      <path
         inkscape:connector-curvature="0"
         d="m -1911.4037,102.21776 -64.6154,37.24125 -27.8812,20.90375 2.0433,2.63875 7.5162,-4.31125 0,-1.13375 17.813,-13.04875 0.2827,0.4825 0.084,0.085 33.7544,53.63625 3.1474,-0.88 1.0498,-0.5675 0.028,-0.0288 63.5632,-36.58875 -36.7862,-58.42875"
         style="fill:#ffffff;fill-opacity:1;fill-rule:nonzero;stroke:none"
         id="path6045" />
      <path
         inkscape:connector-curvature="0"
         d="m -1944.1085,201.37901 -32.9017,-52.64625 -17.3306,11.80125 0,48.3325 56.1601,32.3625 0,0.7375 0,-40.92875 -1.1347,0.0563 -4.7931,0.285"
         style="fill:#ffffff;fill-opacity:1;fill-rule:nonzero;stroke:none"
         id="path6047" />
      <path
         inkscape:connector-curvature="0"
         d="m -1994.3408,158.69026 0,-1.13375 -7.5162,5.445 7.5162,-4.31125"
         style="fill:#b12522;fill-opacity:1;fill-rule:nonzero;stroke:none"
         id="path6059" />
      <path
         inkscape:connector-curvature="0"
         d="m -1975.0258,138.89151 36.8168,58.3725 -1.0498,0.5675 -36.7603,-58.3725 0.9933,-0.5675"
         style="fill:#b12522;fill-opacity:1;fill-rule:evenodd;stroke:none"
         id="path6061" />
      <path
         inkscape:connector-curvature="0"
         d="m -1911.4037,102.21776 -63.6221,36.67375 1.1063,1.75875 35.1998,55.96125 0.054,-0.0325 0.4569,0.685 0.028,-0.0288 63.5632,-36.58875 -36.7862,-58.42875"
         style="fill:#c23323;fill-opacity:1;fill-rule:evenodd;stroke:none"
         id="path6063" />
      <path
         inkscape:connector-curvature="0"
         d="m -1942.4062,198.71151 3.1474,-0.88 -36.7603,-58.3725 -27.8812,20.90375 2.0433,2.63875 25.3292,-18.49375 34.1216,54.20375"
         style="fill:#f14b3d;fill-opacity:1;fill-rule:evenodd;stroke:none"
         id="path6065" />
      <path
         inkscape:connector-curvature="0"
         d="m -1939.3154,241.37151 -55.0254,-31.7675 0,3.09 55.0254,31.74 1.1347,0.62375 0,-3.09125 -1.1347,-0.595"
         style="fill:#d95e40;fill-opacity:1;fill-rule:nonzero;stroke:none"
         id="path6067" />
      <path
         inkscape:connector-curvature="0"
         d="m -1938.1807,241.96651 0,3.09125 56.047,-32.36375 0,-3.09 -56.047,32.3625"
         style="fill:#6d352f;fill-opacity:1;fill-rule:nonzero;stroke:none"
         id="path6069" />
      <path
         inkscape:connector-curvature="0"
         d="m -1981.4927,177.89276 0.086,-0.0563 0.1411,0.14125 -0.2266,-0.085"
         style="fill:#f2a458;fill-opacity:1;fill-rule:evenodd;stroke:none"
         id="path6081" />
      <path
         inkscape:connector-curvature="0"
         d="m -1976.3017,224.80526 -4.9078,2.8375 -13.3877,-7.715 0.2847,-0.14125 13.0464,7.57375 4.6796,-2.695 0.059,0 0.2261,0.14 z m -0.2261,-2.0125 -13.1328,-7.54375 0.2821,-0.22875 13.0768,7.60125 3.5454,-2.07 0.2841,0.22625 -3.7729,2.15625 -0.2261,-0.14125 0,-0.0275 -0.057,0.0275"
         style="fill:#6d352f;fill-opacity:1;fill-rule:evenodd;stroke:none"
         id="path6083" />
      <path
         inkscape:connector-curvature="0"
         d="m -1976.2451,222.93401 -0.057,1.87125 -4.9077,2.8375 0,1.93 8.6508,-4.9075 0.086,0 0,-3.8875 -3.7729,2.15625"
         style="fill:#421b19;fill-opacity:1;fill-rule:nonzero;stroke:none"
         id="path6085" />
      <path
         inkscape:connector-curvature="0"
         d="m -1976.4712,222.79276 0,-0.0275 -0.057,0.0275 -13.1328,-7.54375 0,1.8425 13.0741,7.57375 0.059,-0.0288 0,0.0288 0.2261,0.14 0.057,-1.87125 -0.2261,-0.14125"
         style="fill:#6d352f;fill-opacity:1;fill-rule:nonzero;stroke:none"
         id="path6087" />
      <path
         inkscape:connector-curvature="0"
         d="m -1994.5972,219.92776 0,1.8725 13.3878,7.685 0,-1.8425 -13.3878,-7.715"
         style="fill:#6d352f;fill-opacity:1;fill-rule:nonzero;stroke:none"
         id="path6089" />
      <path
         inkscape:connector-curvature="0"
         d="m -1989.6606,217.09151 13.0741,7.57375 -4.6796,2.695 -13.0464,-7.57375 4.6519,-2.695 z m 13.3589,5.53 -13.0768,-7.60125 3.4888,-1.985 13.1334,7.51625 -3.5454,2.07"
         style="fill:#502420;fill-opacity:1;fill-rule:evenodd;stroke:none"
         id="path6091" />
      <path
         inkscape:connector-curvature="0"
         d="m -1922.835,221.91276 10.21,-5.89875 0,1.38875 -10.21,5.9575 z m -32.0522,-0.37 -10.2114,-5.89875 0,-1.38875 10.2114,5.8425 z m -8.6509,-29.6675 12.3374,7.1775 0,22.60625 -0.5088,0.2825 0.057,-22.6625 -12.4527,-7.1775 0.5674,-0.22625 z m 1.4756,2.5825 0,2.95 8.934,5.13375 0,0.9625 -9.7856,-5.645 0,1.56125 0.8516,0.53875 0,10.8075 -1.3628,0.965 0,-18.0125 z m 74.795,8.7925 -10.2099,5.9275 0,-1.4175 10.2099,-5.8725 z m -2.2387,-16.19625 0,-1.56 -9.76,5.6725 0,-0.9925 8.9075,-5.135 0,-2.94875 1.4175,-0.7375 0,18.01125 -1.4175,-0.965 0,-10.80625 z m -24.6775,6.60875 0.5387,0.19875 -12.4525,7.2325 0.027,22.63375 -0.4537,-0.2825 -0.029,-22.63375 12.3688,-7.14875 z m -10.41,10.69375 8.8775,-5.1625 0,-2.92125 1.3887,-0.7675 0,18.0125 -1.3887,-0.93625 0,-10.83625 0.85,-0.51 0,-1.55875 -9.7275,5.6425 z m 36.3062,-24.62125 -12.4237,7.17625 0,22.66375 -0.455,-0.285 -0.028,-22.63375 12.3675,-7.14625 0.5387,0.225 z"
         style="fill:#d95e40;fill-opacity:1;fill-rule:evenodd;stroke:none"
         id="path6093"
         sodipodi:nodetypes="cccccccccccccccccccccccccccccccccccccccccccccccccccccccccccccccccccccccc" />
      <path
         inkscape:connector-curvature="0"
         d="m -1924.565,217.68776 8.8488,-5.10625 0,-10.83625 -8.8775,5.135 0.029,10.8075"
         style="fill:#b7e7e4;fill-opacity:1;fill-rule:nonzero;stroke:none"
         id="path6095" />
      <path
         inkscape:connector-curvature="0"
         d="m -1924.5937,204.35651 8.8775,-5.1625 0,-2.92125 -8.8775,5.10625 0,2.9775"
         style="fill:#b7e7e4;fill-opacity:1;fill-rule:nonzero;stroke:none"
         id="path6097" />
      <path
         inkscape:connector-curvature="0"
         d="m -1962.0625,210.76651 8.8774,5.105 0.057,-10.80625 -8.934,-5.10625 0,10.8075"
         style="fill:#b7e7e4;fill-opacity:1;fill-rule:nonzero;stroke:none"
         id="path6099" />
      <path
         inkscape:connector-curvature="0"
         d="m -1962.0625,197.40776 8.934,5.13375 0,-2.92375 -8.934,-5.16 0,2.95"
         style="fill:#b7e7e4;fill-opacity:1;fill-rule:nonzero;stroke:none"
         id="path6101" />
      <path
         inkscape:connector-curvature="0"
         d="m -1899.2075,203.50401 8.8488,-5.105 0,-10.80625 -8.9075,5.135 0.059,10.77625"
         style="fill:#b7e7e4;fill-opacity:1;fill-rule:nonzero;stroke:none"
         id="path6103" />
      <path
         inkscape:connector-curvature="0"
         d="m -1899.2662,187.22401 0,2.95 8.9075,-5.135 0,-2.94875 -8.9075,5.13375"
         style="fill:#b7e7e4;fill-opacity:1;fill-rule:nonzero;stroke:none"
         id="path6105" />
      <path
         inkscape:connector-curvature="0"
         d="m -1951.6528,199.27901 -0.057,22.69 -0.1998,-0.14125 -1.8715,-0.9925 0.5956,-0.3675 0,-2.80875 -1.7021,2.43875 -10.2114,-5.8425 -0.085,-0.0288 1.1909,-1.645 -0.1128,-20.48 12.4527,7.1775 z m -11.2613,-1.42 9.7856,5.645 0,-3.88625 -10.2968,-5.89875 0,18.0125 10.2402,5.9275 0.057,-12.59375 -9.7856,-5.645 0,-1.56125 z m 63.7066,7.4325 0,2.78 0.6238,0.3975 -2.1275,1.135 0,-22.6925 12.4237,-7.17625 -0.085,20.48 1.1324,1.615 -0.027,0.0575 -10.2099,5.8725 -1.7301,-2.46875 z m 9.7013,-18.2375 -9.76,5.67375 0.059,12.56375 10.2663,-5.9275 0,-18.01125 -10.325,5.87125 0,3.9425 9.76,-5.6725 0,1.56 z m -35.0875,18.265 9.7275,-5.6425 0,1.55875 -9.7275,5.645 0.029,12.5375 10.2375,-5.9 0,-18.0125 -10.2662,5.87375 0,3.94 z m 10.9487,-11.4575 -0.115,20.50625 1.1625,1.6175 -0.028,0.0288 -10.21,5.89875 -1.73,-2.495 0,2.8075 0.595,0.42375 -2.1,1.135 -0.027,-22.69 12.4525,-7.2325 z"
         style="fill:#6d352f;fill-opacity:1;fill-rule:evenodd;stroke:none"
         id="path6111"
         sodipodi:nodetypes="ccccccccccccccccccccccccccccccccccccccccccccccccccccccccccccccccccc" />
      <path
         inkscape:connector-curvature="0"
         d="m -1924.565,217.68776 8.8488,-5.10625 1.3887,0.93625 -10.2375,5.9 z m -28.6201,-0.0288 -10.2402,-5.9275 1.3628,-0.965 8.8774,5.10625 z m 53.9776,-14.155 8.8488,-5.105 1.4175,0.965 -10.2663,5.9275 z"
         style="fill:#502420;fill-opacity:1;fill-rule:evenodd;stroke:none"
         id="path6113"
         sodipodi:nodetypes="ccccccccccccccc" />
      <path
         inkscape:connector-curvature="0"
         d="m -1922.835,223.30401 -1.135,-0.655 -0.595,-0.42375 0,-2.8075 1.73,2.495 z m -32.0522,-1.78875 0,-1.4175 1.7021,-2.43875 0,2.80875 z m 57.4098,-13.755 0,1.38875 -1.7301,-1.0775 0,-2.78 z"
         style="fill:#421b19;fill-opacity:1;fill-rule:evenodd;stroke:none"
         id="path6115"
         sodipodi:nodetypes="cccccccccccccccc" />
      <path
         inkscape:connector-curvature="0"
         d="m -1986.3267,213.67401 0,-33.18875 12.9336,7.53375 0,33.0625 -12.9336,-7.4075"
         style="fill:#6d352f;fill-opacity:1;fill-rule:nonzero;stroke:none"
         id="path6117" />
      <path
         inkscape:connector-curvature="0"
         d="m -1985.1323,214.33026 0,-31.4575 10.5453,6.14375 0,31.35125 -10.5453,-6.0375"
         style="fill:#6d352f;fill-opacity:1;fill-rule:nonzero;stroke:none"
         id="path6119" />
      <path
         inkscape:connector-curvature="0"
         d="m -1972.4722,187.78901 0,32.935 -0.9209,0.3575 0,-33.0625 -12.9336,-7.53375 0.7881,-0.3 13.0664,7.60375"
         style="fill:#421b19;fill-opacity:1;fill-rule:nonzero;stroke:none"
         id="path6121" />
      <path
         inkscape:connector-curvature="0"
         d="m -1985.1323,182.87276 0,31.4575 0.4613,0.0738 0,-31.1825 -0.4613,-0.34875"
         style="fill:#421b19;fill-opacity:1;fill-rule:nonzero;stroke:none"
         id="path6123" />
      <path
         inkscape:connector-curvature="0"
         d="m -1982.8862,199.62776 c 0,0.32125 -0.2607,0.54 -0.5786,0.48875 -0.3204,-0.0512 -0.5787,-0.35125 -0.5787,-0.6725 0,-0.3175 0.2583,-0.535 0.5787,-0.485 0.3179,0.0513 0.5786,0.35125 0.5786,0.66875"
         style="fill:#d69b4d;fill-opacity:1;fill-rule:nonzero;stroke:none"
         id="path6125" />
      <path
         inkscape:connector-curvature="0"
         d="m -1938.1807,241.22901 56.047,-32.3925 0,0.7675 -56.047,32.3625 0,-0.7375"
         style="fill:#d95e40;fill-opacity:1;fill-rule:nonzero;stroke:none"
         id="path6127" />
      <path
         inkscape:connector-curvature="0"
         d="m -1910.2075,253.90401 c 0.029,0.7275 1.235,0.62 1.2363,-0.06 l 0.015,-12.8 c 0,-0.36625 -0.28,-0.665 -0.6238,-0.66375 -0.3425,0 -0.62,0.3025 -0.6187,0.6675 l -0.016,9.6 0.01,0.0863 0,3.17"
         style="fill:#d95e40;fill-opacity:1;fill-rule:nonzero;stroke:none"
         id="path6129" />
      <path
         inkscape:connector-curvature="0"
         d="m -1907.64,245.35401 0,2.21375 c 0.029,0.945 -0.082,1.19375 -0.7287,1.655 l -1.1988,0.60625 0.3288,0.67 1.2225,-0.62 c 1.04,-0.6825 1.1225,-1.42125 1.1225,-2.3175 l 0,-2.2075 -0.7463,0"
         style="fill:#d95e40;fill-opacity:1;fill-rule:nonzero;stroke:none"
         id="path6131" />
      <path
         inkscape:connector-curvature="0"
         d="m -1911.7825,248.70776 0,-2.2775 -0.7712,0 0,2.2775 c 0,0.9275 0.086,1.69125 1.1787,2.41 l 1.245,0.6275 0.3401,-0.69375 -1.2163,-0.61125 c -0.6887,-0.49 -0.805,-0.7475 -0.7763,-1.7325"
         style="fill:#d95e40;fill-opacity:1;fill-rule:nonzero;stroke:none"
         id="path6133" />
      <path
         inkscape:connector-curvature="0"
         d="m -1902.4449,240.36901 c 0,3.4725 -2.8151,6.2875 -6.2888,6.2875 -3.4738,0 -6.2888,-2.815 -6.2888,-6.2875 0,-3.475 2.815,-6.2925 6.2888,-6.2925 3.4737,0 6.2888,2.8175 6.2888,6.2925"
         style="fill:#428e3a;fill-opacity:1;fill-rule:nonzero;stroke:none"
         id="path6135" />
      <path
         inkscape:connector-curvature="0"
         d="m -1901.2812,239.10401 c 1.6337,-6.2975 -3.0025,-7.0375 -3.0025,-7.0375 -1.5025,-5.96125 -8.0887,-4.86875 -8.0887,-4.86875 -0.2038,-0.0337 -0.4013,-0.0913 -0.6163,-0.0913 -1.6738,0 -3.07,1.1125 -3.535,2.6325 -3.0662,0.01 -5.55,2.49625 -5.55,5.56625 0,1.025 0.28,1.98125 0.7625,2.80625 -0.4863,1.08125 -0.7625,2.28 -0.7625,3.545 0,4.79 3.885,8.6775 8.6775,8.6775 2.2938,0 4.3762,-0.89875 5.925,-2.35625 0.8625,0.34125 1.7975,0.535 2.7812,0.535 1.2813,0 2.4713,-0.3475 3.53,-0.9075 3.44,-4.59625 -0.1212,-8.50125 -0.1212,-8.50125"
         style="fill:#80ca31;fill-opacity:1;fill-rule:nonzero;stroke:none"
         id="path6137" />
      <path
         inkscape:connector-curvature="0"
         d="m -1897.085,240.90651 c 0,-1.08875 -0.2325,-2.12125 -0.645,-3.05875 0.375,-0.76875 0.59,-1.6275 0.59,-2.5425 0,-2.97625 -2.235,-5.42625 -5.1187,-5.77375 -0.825,-2.41 -3.1037,-4.145 -5.795,-4.145 -1.6925,0 -3.21,0.7025 -4.3187,1.81125 0,0 6.5862,-1.0925 8.0887,4.86875 0,0 4.6362,0.74 3.0025,7.0375 0,0 3.5612,3.905 0.1212,8.50125 2.4126,-1.275 4.075,-3.78 4.075,-6.69875"
         style="fill:#70b72e;fill-opacity:1;fill-rule:nonzero;stroke:none"
         id="path6139" />
      <path
         inkscape:connector-curvature="0"
         d="m -1912.8062,230.91901 c 0,0 -5.4763,1.015 -4.46,6.8 0,0 -2.4738,1.63375 -1.4138,4.99 0,0 -2.7612,-1.87625 -0.5912,-5.2675 0,0 -0.4013,-2.98125 1.3688,-4.97625 1.77,-1.995 5.0962,-1.54625 5.0962,-1.54625"
         style="fill:#ffffff;fill-opacity:1;fill-rule:nonzero;stroke:none"
         id="path6141" />
      <path
         inkscape:connector-curvature="0"
         d="m -1874.4062,234.91651 c 0.029,0.7275 1.2362,0.62 1.2375,-0.06 l 0.014,-12.79875 c 0,-0.3675 -0.2799,-0.66625 -0.6224,-0.665 -0.3426,0 -0.6201,0.3025 -0.6201,0.6675 l -0.015,9.6 0.01,0.0862 0,3.17"
         style="fill:#d95e40;fill-opacity:1;fill-rule:nonzero;stroke:none"
         id="path6143" />
      <path
         inkscape:connector-curvature="0"
         d="m -1871.8387,226.36776 0,2.2125 c 0.029,0.945 -0.082,1.19375 -0.7275,1.655 l -1.2,0.60625 0.3287,0.67 1.2226,-0.61875 c 1.0412,-0.68375 1.1237,-1.4225 1.1237,-2.31875 l 0,-2.20625 -0.7475,0"
         style="fill:#d95e40;fill-opacity:1;fill-rule:nonzero;stroke:none"
         id="path6145" />
      <path
         inkscape:connector-curvature="0"
         d="m -1875.98,229.72026 0,-2.2775 -0.7712,0 0,2.2775 c 0,0.9275 0.085,1.69125 1.1787,2.41 l 1.2438,0.62875 0.34,-0.695 -1.2163,-0.61125 c -0.6887,-0.49 -0.805,-0.7475 -0.775,-1.7325"
         style="fill:#d95e40;fill-opacity:1;fill-rule:nonzero;stroke:none"
         id="path6147" />
      <path
         inkscape:connector-curvature="0"
         d="m -1866.6425,221.38151 c 0,3.4725 -2.815,6.2875 -6.29,6.2875 -3.4725,0 -6.2887,-2.815 -6.2887,-6.2875 0,-3.47375 2.8162,-6.29125 6.2887,-6.29125 3.475,0 6.29,2.8175 6.29,6.29125"
         style="fill:#428e3a;fill-opacity:1;fill-rule:nonzero;stroke:none"
         id="path6149" />
      <path
         inkscape:connector-curvature="0"
         d="m -1865.48,220.11651 c 1.6338,-6.2975 -3.0025,-7.0375 -3.0025,-7.0375 -1.5012,-5.96125 -8.0874,-4.8675 -8.0874,-4.8675 -0.2051,-0.035 -0.4026,-0.0925 -0.6176,-0.0925 -1.6737,0 -3.0699,1.1125 -3.535,2.6325 -3.0662,0.01 -5.5487,2.4975 -5.5487,5.5675 0,1.02375 0.28,1.98 0.7625,2.805 -0.4875,1.08125 -0.7625,2.28 -0.7625,3.54625 0,4.79 3.8837,8.67625 8.6762,8.67625 2.2938,0 4.3763,-0.89875 5.9263,-2.355 0.8612,0.34 1.7975,0.53375 2.7812,0.53375 1.2813,0 2.47,-0.34625 3.5288,-0.90625 3.44,-4.5975 -0.1213,-8.5025 -0.1213,-8.5025"
         style="fill:#80ca31;fill-opacity:1;fill-rule:nonzero;stroke:none"
         id="path6151" />
      <path
         inkscape:connector-curvature="0"
         d="m -1861.2825,221.91901 c 0,-1.08875 -0.2337,-2.12125 -0.6462,-3.05875 0.375,-0.76875 0.5912,-1.6275 0.5912,-2.54125 0,-2.9775 -2.2362,-5.4275 -5.12,-5.775 -0.825,-2.41 -3.1037,-4.145 -5.7937,-4.145 -1.6937,0 -3.21,0.7025 -4.3187,1.8125 0,0 6.5862,-1.09375 8.0874,4.8675 0,0 4.6363,0.74 3.0025,7.0375 0,0 3.5613,3.905 0.1213,8.5025 2.4138,-1.275 4.0762,-3.78 4.0762,-6.7"
         style="fill:#70b72e;fill-opacity:1;fill-rule:nonzero;stroke:none"
         id="path6153" />
      <path
         inkscape:connector-curvature="0"
         d="m -1877.005,211.93151 c 0,0 -5.4762,1.015 -4.4599,6.8 0,0 -2.4726,1.63375 -1.4138,4.99 0,0 -2.76,-1.87625 -0.5913,-5.2675 0,0 -0.4012,-2.98125 1.3688,-4.97625 1.7713,-1.995 5.0962,-1.54625 5.0962,-1.54625"
         style="fill:#ffffff;fill-opacity:1;fill-rule:nonzero;stroke:none"
         id="path6155" />
    </g>
  </g>
</svg>
