<?xml version="1.0" encoding="UTF-8" standalone="no"?>
<!-- Created with Inkscape (http://www.inkscape.org/) -->

<svg
   xmlns:dc="http://purl.org/dc/elements/1.1/"
   xmlns:cc="http://creativecommons.org/ns#"
   xmlns:rdf="http://www.w3.org/1999/02/22-rdf-syntax-ns#"
   xmlns:svg="http://www.w3.org/2000/svg"
   xmlns="http://www.w3.org/2000/svg"
   xmlns:sodipodi="http://sodipodi.sourceforge.net/DTD/sodipodi-0.dtd"
   xmlns:inkscape="http://www.inkscape.org/namespaces/inkscape"
   id="svg6214"
   height="205"
   width="205"
   version="1.1"
   inkscape:version="0.48.5 r10040"
   sodipodi:docname="grass_3.svg">
  <defs
     id="defs107" />
  <sodipodi:namedview
     pagecolor="#ffffff"
     bordercolor="#666666"
     borderopacity="1"
     objecttolerance="10"
     gridtolerance="10"
     guidetolerance="10"
     inkscape:pageopacity="0"
     inkscape:pageshadow="2"
     inkscape:window-width="636"
     inkscape:window-height="1041"
     id="namedview105"
     showgrid="false"
     inkscape:zoom="1.4142136"
     inkscape:cx="86.593308"
     inkscape:cy="14.760307"
     inkscape:window-x="1280"
     inkscape:window-y="18"
     inkscape:window-maximized="0"
     inkscape:current-layer="svg6214"
     showguides="true"
     inkscape:guide-bbox="true">
    <sodipodi:guide
       orientation="0,1"
       position="-0.21875,59.289062"
       id="guide3295" />
    <sodipodi:guide
       orientation="1,0"
       position="102.49105,-5.4346034"
       id="guide3297" />
  </sodipodi:namedview>
  <metadata
     id="metadata6219">
    <rdf:RDF>
      <cc:Work
         rdf:about="">
        <dc:format>image/svg+xml</dc:format>
        <dc:type
           rdf:resource="http://purl.org/dc/dcmitype/StillImage" />
        <dc:title></dc:title>
      </cc:Work>
    </rdf:RDF>
  </metadata>
  <path
     inkscape:connector-curvature="0"
     d="m 102.60596,3.42982 c 8.94453,4.98311 17.89414,9.96961 26.84274,14.95274 8.94928,4.98311 66.66516,33.09803 75.62529,38.08454 0,1.10849 -4.3e-4,2.21699 -4.3e-4,3.32546 0,1.1051 0,2.2136 0,3.32209 -8.95978,-4.98652 -66.67431,-33.10481 -75.62359,-38.08794 -8.9486,-4.98311 -17.90329,-9.96961 -26.84104,-14.94935 0,-1.1085 -0.001,-2.21697 -0.001,-3.32208 -6.4e-4,-1.10849 -0.002,-2.21699 -0.002,-3.32546 l 0,0"
     style="fill:#dce818;fill-opacity:1;fill-rule:evenodd;stroke:none"
     id="path8555-2"
     sodipodi:nodetypes="cccscccccc" />
  <g
     id="g10878"
     transform="matrix(0.21195343,0,0,0.21195343,-5.482516,-529.21347)">
    <g
       id="g10835">
      <path
         id="path10837"
         style="fill:#dce818;fill-opacity:1;fill-rule:evenodd;stroke:none"
         d="m 25.976859,2781.9018 c 13.843974,-7.7249 27.715136,-15.4657 41.615087,-23.2226 -4.023964,7.501 -8.111903,15.0019 -12.137467,22.4709 -4.023964,7.469 -8.111903,14.9699 -12.107079,22.4229 -5.823234,3.2467 -11.612881,6.4774 -17.37214,9.6921 0.0016,-5.2299 0.0016,-10.4598 0.0016,-15.6737 0,-5.2298 0,-10.4597 0,-15.6896 l 0,0"
         inkscape:connector-curvature="0" />
      <path
         id="path10839"
         style="fill:#131112;fill-opacity:1;fill-rule:evenodd;stroke:none"
         d="m 67.591946,2758.6792 c 13.912746,-7.7248 27.788706,-15.4657 41.725444,-23.2225 -4.06235,7.4849 -8.15029,15.0019 -12.174254,22.4708 -4.025564,7.469 -8.113502,14.97 -12.139066,22.4389 -13.911147,7.7409 -27.787107,15.4817 -41.65667,23.2066 3.995176,-7.453 8.083115,-14.9539 12.107079,-22.4229 4.025564,-7.469 8.113503,-14.9699 12.137467,-22.4709 l 0,0"
         inkscape:connector-curvature="0" />
      <path
         id="path10841"
         style="fill:#dce818;fill-opacity:1;fill-rule:evenodd;stroke:none"
         d="m 109.31739,2735.4567 c 13.89995,-7.7409 27.7999,-15.4817 41.71265,-23.2386 -4.06235,7.485 -8.1375,15.0019 -12.13747,22.4709 -4.01277,7.469 -8.1247,14.9699 -12.15026,22.4389 -13.93674,7.7568 -27.83669,15.4977 -41.73824,23.2385 4.025564,-7.4689 8.113502,-14.9699 12.139066,-22.4389 4.023964,-7.4689 8.111904,-14.9859 12.174254,-22.4708 l 0,0"
         inkscape:connector-curvature="0" />
      <path
         id="path10843"
         style="fill:#131112;fill-opacity:1;fill-rule:evenodd;stroke:none"
         d="m 151.03004,2712.2181 c 13.89995,-7.7408 27.81269,-15.4977 41.73663,-23.2545 -4.04955,7.4849 -8.13589,15.0179 -12.16145,22.4868 -4.02557,7.469 -8.11351,14.97 -12.13747,22.4389 -13.93834,7.7569 -27.8127,15.4977 -41.72544,23.2386 4.02556,-7.469 8.13749,-14.9699 12.15026,-22.4389 3.99997,-7.469 8.07512,-14.9859 12.13747,-22.4709 l 0,0"
         inkscape:connector-curvature="0" />
      <path
         id="path10845"
         style="fill:#dce818;fill-opacity:1;fill-rule:evenodd;stroke:none"
         d="m 192.76667,2688.9636 c 13.91275,-7.7569 27.85108,-15.4977 41.77503,-23.2706 -4.04956,7.501 -8.1247,15.0179 -12.16146,22.4869 -4.03836,7.485 -8.15029,14.9859 -12.17585,22.4709 -13.93674,7.7568 -27.83669,15.4977 -41.73664,23.2385 4.02396,-7.4689 8.1119,-14.9699 12.13747,-22.4389 4.02556,-7.4689 8.1119,-15.0019 12.16145,-22.4868 l 0,0"
         inkscape:connector-curvature="0" />
      <path
         id="path10847"
         style="fill:#131112;fill-opacity:1;fill-rule:evenodd;stroke:none"
         d="m 234.5417,2665.693 c 13.91274,-7.7568 27.85108,-15.4977 41.78781,-23.2865 -4.06235,7.5169 -8.15029,15.0339 -12.17425,22.5029 -4.02556,7.4849 -8.13749,15.0019 -12.17585,22.4708 -13.92554,7.7729 -27.83669,15.5137 -41.77502,23.2706 4.02556,-7.485 8.13749,-14.9859 12.17585,-22.4709 4.03676,-7.469 8.1119,-14.9859 12.16146,-22.4869 l 0,0"
         inkscape:connector-curvature="0" />
      <path
         id="path10849"
         style="fill:#dce818;fill-opacity:1;fill-rule:evenodd;stroke:none"
         d="m 276.32951,2642.4065 c 13.89995,-7.7409 27.83829,-15.5137 41.80061,-23.2865 -4.08793,7.5169 -8.17587,15.0338 -12.20144,22.5188 -4.02396,7.469 -8.1119,14.9859 -12.17425,22.4709 -13.92554,7.7728 -27.83669,15.5137 -41.77502,23.2705 4.03836,-7.4689 8.15029,-14.9859 12.17585,-22.4709 4.02396,-7.4689 8.1119,-14.9859 12.17425,-22.5028 l 0,0"
         inkscape:connector-curvature="0" />
      <path
         id="path10851"
         style="fill:#131112;fill-opacity:1;fill-rule:evenodd;stroke:none"
         d="m 318.13012,2619.12 c 5.82484,-3.2467 11.67526,-6.4934 17.53688,-9.7401 0,5.2459 0,10.4758 0,15.7216 0,5.2299 0,10.4598 0,15.7056 -14.00071,7.7729 -27.97583,15.5457 -41.91257,23.3026 4.06235,-7.485 8.15029,-15.0019 12.17425,-22.4709 4.02557,-7.485 8.11351,-15.0019 12.20144,-22.5188 l 0,0"
         inkscape:connector-curvature="0" />
    </g>
    <g
       transform="translate(250.66293,-139.5593)"
       id="g10825">
      <path
         inkscape:connector-curvature="0"
         d="m 67.591946,2758.6792 c 13.912746,-7.7248 27.788706,-15.4657 41.725444,-23.2225 -4.06235,7.4849 -8.15029,15.0019 -12.174254,22.4708 -4.025564,7.469 -8.113502,14.97 -12.139066,22.4389 -13.911147,7.7409 -27.787107,15.4817 -41.65667,23.2066 3.995176,-7.453 8.083115,-14.9539 12.107079,-22.4229 4.025564,-7.469 8.113503,-14.9699 12.137467,-22.4709 l 0,0"
         style="fill:#131112;fill-opacity:1;fill-rule:evenodd;stroke:none"
         id="path8541-7" />
      <path
         inkscape:connector-curvature="0"
         d="m 109.31739,2735.4567 c 13.89995,-7.7409 27.7999,-15.4817 41.71265,-23.2386 -4.06235,7.485 -8.1375,15.0019 -12.13747,22.4709 -4.01277,7.469 -8.1247,14.9699 -12.15026,22.4389 -13.93674,7.7568 -27.83669,15.4977 -41.73824,23.2385 4.025564,-7.4689 8.113502,-14.9699 12.139066,-22.4389 4.023964,-7.4689 8.111904,-14.9859 12.174254,-22.4708 l 0,0"
         style="fill:#dce818;fill-opacity:1;fill-rule:evenodd;stroke:none"
         id="path8543-0" />
      <path
         inkscape:connector-curvature="0"
         d="m 151.03004,2712.2181 c 13.89995,-7.7408 27.81269,-15.4977 41.73663,-23.2545 -4.04955,7.4849 -8.13589,15.0179 -12.16145,22.4868 -4.02557,7.469 -8.11351,14.97 -12.13747,22.4389 -13.93834,7.7569 -27.8127,15.4977 -41.72544,23.2386 4.02556,-7.469 8.13749,-14.9699 12.15026,-22.4389 3.99997,-7.469 8.07512,-14.9859 12.13747,-22.4709 l 0,0"
         style="fill:#131112;fill-opacity:1;fill-rule:evenodd;stroke:none"
         id="path8545-9" />
      <path
         inkscape:connector-curvature="0"
         d="m 192.76667,2688.9636 c 13.91275,-7.7569 27.85108,-15.4977 41.77503,-23.2706 -4.04956,7.501 -8.1247,15.0179 -12.16146,22.4869 -4.03836,7.485 -8.15029,14.9859 -12.17585,22.4709 -13.93674,7.7568 -27.83669,15.4977 -41.73664,23.2385 4.02396,-7.4689 8.1119,-14.9699 12.13747,-22.4389 4.02556,-7.4689 8.1119,-15.0019 12.16145,-22.4868 l 0,0"
         style="fill:#dce818;fill-opacity:1;fill-rule:evenodd;stroke:none"
         id="path8547-3" />
      <path
         sodipodi:nodetypes="ccccccc"
         inkscape:connector-curvature="0"
         d="m 234.5417,2665.693 c 13.91274,-7.7568 7.65207,-3.1129 24.75872,-13.1133 -0.28918,8.8434 0.18341,19.5005 -0.0228,31.1145 -13.92554,7.7729 -35.13487,19.1997 -49.0732,26.9566 4.02556,-7.485 8.13749,-14.9859 12.17585,-22.4709 4.03676,-7.469 8.1119,-14.9859 12.16146,-22.4869 l 0,0"
         style="fill:#131112;fill-opacity:1;fill-rule:evenodd;stroke:none"
         id="path8549-6" />
    </g>
  </g>
  <path
     inkscape:connector-curvature="0"
     d="m 102.45316,4.9363034 -3.4e-4,36.9078466 5.96754,-2.637611 0,-36.9051581 -5.9672,2.6349225 0,0"
     style="fill:#757c7f;fill-opacity:1;fill-rule:evenodd;stroke:none"
     id="path8521-0" />
  <path
     inkscape:connector-curvature="0"
     d="m 96.48528,2.3013809 5.96788,2.6349225 -3.4e-4,36.9078466 -5.96754,-2.637611 0,-36.9051581"
     style="fill:#a7abaa;fill-opacity:1;fill-rule:evenodd;stroke:none"
     id="path8523-6" />
  <path
     inkscape:connector-curvature="0"
     d="m 102.45316,-0.33623028 5.9672,2.63761118 -5.9672,2.6349225 -5.96788,-2.6349225 5.96788,-2.63761118 0,0"
     style="fill:#c3c2c0;fill-opacity:1;fill-rule:evenodd;stroke:none"
     id="path8525-2" />
  <g
     transform="matrix(0.99951974,0,0,0.99951974,90.209674,-1133.5543)"
     id="g5546">
    <path
       id="path5548"
       style="fill:#2b3119;fill-opacity:1;fill-rule:nonzero;stroke:none"
       d="m -34.045248,1209.0762 0,26.9838 -2.63,1.5212 0,-26.9887 2.63,-1.5163"
       inkscape:connector-curvature="0" />
    <path
       id="path5550"
       style="fill:#444c28;fill-opacity:1;fill-rule:nonzero;stroke:none"
       d="m -39.305248,1209.0762 0,26.9838 2.63,1.5212 0,-26.9887 -2.63,-1.5163"
       inkscape:connector-curvature="0" />
    <path
       id="path5552"
       style="fill:#4f5831;fill-opacity:1;fill-rule:nonzero;stroke:none"
       d="m -39.305248,1209.0762 2.63125,-1.5175 2.62875,1.5175 -2.63,1.5163 -2.63,-1.5163"
       inkscape:connector-curvature="0" />
    <path
       id="path5554"
       style="fill:#2b3119;fill-opacity:1;fill-rule:nonzero;stroke:none"
       d="m -27.620248,1227.01 0,2.9925 -2.63,1.5212 0,-2.995 2.63,-1.5187"
       inkscape:connector-curvature="0" />
    <path
       id="path5556"
       style="fill:#444c28;fill-opacity:1;fill-rule:nonzero;stroke:none"
       d="m -36.675248,1224.8187 0.001,2.9925 6.42375,3.7125 0,-2.995 -6.425,-3.71"
       inkscape:connector-curvature="0" />
    <path
       id="path5558"
       style="fill:#4f5831;fill-opacity:1;fill-rule:nonzero;stroke:none"
       d="m -36.675248,1224.8187 2.63125,-1.5162 6.42375,3.7075 -2.63,1.5187 -6.425,-3.71"
       inkscape:connector-curvature="0" />
    <path
       id="path5560"
       style="fill:#2b3119;fill-opacity:1;fill-rule:nonzero;stroke:none"
       d="m -27.620248,1219.3425 0,7.8237 -2.63,1.52 0,-7.825 2.63,-1.5187"
       inkscape:connector-curvature="0" />
    <path
       id="path5562"
       style="fill:#444c28;fill-opacity:1;fill-rule:nonzero;stroke:none"
       d="m -32.880248,1219.3425 0,7.8237 2.63,1.52 0,-7.825 -2.63,-1.5187"
       inkscape:connector-curvature="0" />
    <path
       id="path5564"
       style="fill:#4f5831;fill-opacity:1;fill-rule:nonzero;stroke:none"
       d="m -32.880248,1219.3425 2.63125,-1.5163 2.62875,1.5163 -2.63,1.5187 -2.63,-1.5187"
       inkscape:connector-curvature="0" />
    <path
       id="path5566"
       style="fill:#444c28;fill-opacity:1;fill-rule:nonzero;stroke:none"
       d="m -45.730248,1222.1075 0,2.9925 2.63,1.52 0,-2.9938 -2.63,-1.5187"
       inkscape:connector-curvature="0" />
    <path
       id="path5568"
       style="fill:#2b3119;fill-opacity:1;fill-rule:nonzero;stroke:none"
       d="m -36.675248,1219.9162 0,2.9925 -6.425,3.7113 0,-2.9938 6.425,-3.71"
       inkscape:connector-curvature="0" />
    <path
       id="path5570"
       style="fill:#4f5831;fill-opacity:1;fill-rule:nonzero;stroke:none"
       d="m -36.675248,1219.9162 -2.6325,-1.5162 -6.4225,3.7075 2.63,1.5187 6.425,-3.71"
       inkscape:connector-curvature="0" />
    <path
       id="path5572"
       style="fill:#444c28;fill-opacity:1;fill-rule:nonzero;stroke:none"
       d="m -45.730248,1216.565 0,5.6975 2.63,1.5212 0,-5.7 -2.63,-1.5187"
       inkscape:connector-curvature="0" />
    <path
       id="path5574"
       style="fill:#2b3119;fill-opacity:1;fill-rule:nonzero;stroke:none"
       d="m -40.470248,1216.565 -0.001,5.6975 -2.62875,1.5212 0,-5.7 2.63,-1.5187"
       inkscape:connector-curvature="0" />
    <path
       id="path5576"
       style="fill:#4f5831;fill-opacity:1;fill-rule:nonzero;stroke:none"
       d="m -40.470248,1216.565 -2.6325,-1.5163 -2.6275,1.5163 2.63,1.5187 2.63,-1.5187"
       inkscape:connector-curvature="0" />
    <path
       id="path5578"
       style="fill:#56a534;fill-opacity:1;fill-rule:nonzero;stroke:none"
       d="m -39.800248,1180.4012 0.001,10.0138 8.6975,5.0287 0,-10.0212 -8.69875,-5.0213"
       inkscape:connector-curvature="0" />
    <path
       id="path5580"
       style="fill:#45762d;fill-opacity:1;fill-rule:nonzero;stroke:none"
       d="m -22.405248,1180.4012 0,10.0138 -8.69625,5.0287 0,-10.0212 8.69625,-5.0213"
       inkscape:connector-curvature="0" />
    <path
       id="path5582"
       style="fill:#72c837;fill-opacity:1;fill-rule:nonzero;stroke:none"
       d="m -22.405248,1180.4012 -8.70375,-5.0187 -8.69125,5.0187 8.69875,5.0213 8.69625,-5.0213"
       inkscape:connector-curvature="0" />
    <path
       id="path5584"
       style="fill:#56a534;fill-opacity:1;fill-rule:nonzero;stroke:none"
       d="m -58.038998,1187.625 10e-4,22.4037 19.4575,11.25 0,-22.4187 -19.45875,-11.235"
       inkscape:connector-curvature="0" />
    <path
       id="path5586"
       style="fill:#45762d;fill-opacity:1;fill-rule:nonzero;stroke:none"
       d="m -19.121498,1187.625 -0.001,22.4037 -19.4575,11.25 0,-22.4187 19.45875,-11.235"
       inkscape:connector-curvature="0" />
    <path
       id="path5588"
       style="fill:#72c837;fill-opacity:1;fill-rule:nonzero;stroke:none"
       d="m -19.121498,1187.625 -19.475,-11.225 -19.4425,11.225 19.45875,11.235 19.45875,-11.235"
       inkscape:connector-curvature="0" />
    <path
       id="path5590"
       style="fill:#56a534;fill-opacity:1;fill-rule:nonzero;stroke:none"
       d="m -60.783998,1205.87 0,12.2837 10.66875,6.1688 0,-12.2925 -10.66875,-6.16"
       inkscape:connector-curvature="0" />
    <path
       id="path5592"
       style="fill:#45762d;fill-opacity:1;fill-rule:nonzero;stroke:none"
       d="m -39.445248,1205.87 -10e-4,12.2837 -10.66875,6.1688 0,-12.2925 10.67,-6.16"
       inkscape:connector-curvature="0" />
    <path
       id="path5594"
       style="fill:#72c837;fill-opacity:1;fill-rule:nonzero;stroke:none"
       d="m -39.445248,1205.87 -10.67875,-6.155 -10.66,6.155 10.66875,6.16 10.67,-6.16"
       inkscape:connector-curvature="0" />
    <path
       id="path5596"
       style="fill:#56a534;fill-opacity:1;fill-rule:nonzero;stroke:none"
       d="m -36.757748,1203.4137 0,13.9275 12.095,6.9938 0,-13.9375 -12.095,-6.9838"
       inkscape:connector-curvature="0" />
    <path
       id="path5598"
       style="fill:#45762d;fill-opacity:1;fill-rule:nonzero;stroke:none"
       d="m -12.566498,1203.4137 0,13.9275 -12.09625,6.9938 0,-13.9375 12.09625,-6.9838"
       inkscape:connector-curvature="0" />
    <path
       id="path5600"
       style="fill:#72c837;fill-opacity:1;fill-rule:nonzero;stroke:none"
       d="m -12.566498,1203.4137 -12.10625,-6.9775 -12.08625,6.9775 12.09625,6.9838 12.09625,-6.9838"
       inkscape:connector-curvature="0" />
    <path
       id="path5602"
       style="fill:#56a534;fill-opacity:1;fill-rule:nonzero;stroke:none"
       d="m -41.500248,1211.1412 0,5.46 4.7425,2.7413 0,-5.4638 -4.7425,-2.7375"
       inkscape:connector-curvature="0" />
    <path
       id="path5604"
       style="fill:#45762d;fill-opacity:1;fill-rule:nonzero;stroke:none"
       d="m -32.015248,1211.1412 0,5.46 -4.7425,2.7413 0,-5.4638 4.7425,-2.7375"
       inkscape:connector-curvature="0" />
    <path
       id="path5606"
       style="fill:#72c837;fill-opacity:1;fill-rule:nonzero;stroke:none"
       d="m -32.015248,1211.1412 -4.74625,-2.7362 -4.73875,2.7362 4.7425,2.7375 4.7425,-2.7375"
       inkscape:connector-curvature="0" />
  </g>
  <g
     id="g5608"
     transform="matrix(0.99951974,0,0,0.99951974,191.17641,-1060.8582)">
    <path
       id="path5610"
       style="fill:#2b3119;fill-opacity:1;fill-rule:nonzero;stroke:none"
       d="m -34.961498,1150.135 0,18.4412 -1.7975,1.0388 0,-18.4425 1.7975,-1.0375"
       inkscape:connector-curvature="0" />
    <path
       id="path5612"
       style="fill:#444c28;fill-opacity:1;fill-rule:nonzero;stroke:none"
       d="m -38.555248,1150.135 0,18.4412 1.79625,1.0388 0,-18.4425 -1.79625,-1.0375"
       inkscape:connector-curvature="0" />
    <path
       id="path5614"
       style="fill:#4f5831;fill-opacity:1;fill-rule:nonzero;stroke:none"
       d="m -38.555248,1150.135 1.7975,-1.0363 1.79625,1.0363 -1.7975,1.0375 -1.79625,-1.0375"
       inkscape:connector-curvature="0" />
    <path
       id="path5616"
       style="fill:#2b3119;fill-opacity:1;fill-rule:nonzero;stroke:none"
       d="m -30.571498,1162.3925 0,2.0437 -1.79625,1.04 0,-2.0462 1.79625,-1.0375"
       inkscape:connector-curvature="0" />
    <path
       id="path5618"
       style="fill:#444c28;fill-opacity:1;fill-rule:nonzero;stroke:none"
       d="m -36.758998,1160.895 0,2.0437 4.39125,2.5375 0,-2.0462 -4.39125,-2.535"
       inkscape:connector-curvature="0" />
    <path
       id="path5620"
       style="fill:#4f5831;fill-opacity:1;fill-rule:nonzero;stroke:none"
       d="m -36.758998,1160.895 1.8,-1.0363 4.3875,2.5338 -1.79625,1.0375 -4.39125,-2.535"
       inkscape:connector-curvature="0" />
    <path
       id="path5622"
       style="fill:#2b3119;fill-opacity:1;fill-rule:nonzero;stroke:none"
       d="m -30.571498,1157.1525 0,5.3462 -1.79625,1.0388 0,-5.3475 1.79625,-1.0375"
       inkscape:connector-curvature="0" />
    <path
       id="path5624"
       style="fill:#444c28;fill-opacity:1;fill-rule:nonzero;stroke:none"
       d="m -34.165248,1157.1525 0,5.3462 1.7975,1.0388 0,-5.3475 -1.7975,-1.0375"
       inkscape:connector-curvature="0" />
    <path
       id="path5626"
       style="fill:#4f5831;fill-opacity:1;fill-rule:nonzero;stroke:none"
       d="m -34.165248,1157.1525 1.79875,-1.0375 1.795,1.0375 -1.79625,1.0375 -1.7975,-1.0375"
       inkscape:connector-curvature="0" />
    <path
       id="path5628"
       style="fill:#444c28;fill-opacity:1;fill-rule:nonzero;stroke:none"
       d="m -42.946498,1159.0412 0,2.045 1.7975,1.0388 0,-2.0463 -1.7975,-1.0375"
       inkscape:connector-curvature="0" />
    <path
       id="path5630"
       style="fill:#2b3119;fill-opacity:1;fill-rule:nonzero;stroke:none"
       d="m -36.758998,1157.5437 0,2.045 -4.39,2.5363 0,-2.0463 4.39,-2.535"
       inkscape:connector-curvature="0" />
    <path
       id="path5632"
       style="fill:#4f5831;fill-opacity:1;fill-rule:nonzero;stroke:none"
       d="m -36.758998,1157.5437 -1.7975,-1.0362 -4.39,2.5337 1.7975,1.0375 4.39,-2.535"
       inkscape:connector-curvature="0" />
    <path
       id="path5634"
       style="fill:#444c28;fill-opacity:1;fill-rule:nonzero;stroke:none"
       d="m -42.946498,1155.2537 0,3.8938 1.7975,1.0387 0,-3.895 -1.7975,-1.0375"
       inkscape:connector-curvature="0" />
    <path
       id="path5636"
       style="fill:#2b3119;fill-opacity:1;fill-rule:nonzero;stroke:none"
       d="m -39.351498,1155.2537 0,3.8938 -1.7975,1.0387 0,-3.895 1.7975,-1.0375"
       inkscape:connector-curvature="0" />
    <path
       id="path5638"
       style="fill:#4f5831;fill-opacity:1;fill-rule:nonzero;stroke:none"
       d="m -39.351498,1155.2537 -1.8,-1.0362 -1.795,1.0362 1.7975,1.0375 1.7975,-1.0375"
       inkscape:connector-curvature="0" />
    <path
       id="path5640"
       style="fill:#56a534;fill-opacity:1;fill-rule:nonzero;stroke:none"
       d="m -38.893998,1130.54 0,6.8437 5.94375,3.4363 0,-6.8475 -5.94375,-3.4325"
       inkscape:connector-curvature="0" />
    <path
       id="path5642"
       style="fill:#45762d;fill-opacity:1;fill-rule:nonzero;stroke:none"
       d="m -27.006498,1130.54 -10e-4,6.8437 -5.9425,3.4363 0,-6.8475 5.94375,-3.4325"
       inkscape:connector-curvature="0" />
    <path
       id="path5644"
       style="fill:#72c837;fill-opacity:1;fill-rule:nonzero;stroke:none"
       d="m -27.006498,1130.54 -5.94875,-3.4288 -5.93875,3.4288 5.94375,3.4325 5.94375,-3.4325"
       inkscape:connector-curvature="0" />
    <path
       id="path5646"
       style="fill:#56a534;fill-opacity:1;fill-rule:nonzero;stroke:none"
       d="m -51.357748,1135.4775 10e-4,15.31 13.29625,7.6875 0,-15.3213 -13.2975,-7.6762"
       inkscape:connector-curvature="0" />
    <path
       id="path5648"
       style="fill:#45762d;fill-opacity:1;fill-rule:nonzero;stroke:none"
       d="m -24.762748,1135.4775 -0.001,15.31 -13.29625,7.6875 0,-15.3213 13.2975,-7.6762"
       inkscape:connector-curvature="0" />
    <path
       id="path5650"
       style="fill:#72c837;fill-opacity:1;fill-rule:nonzero;stroke:none"
       d="m -24.762748,1135.4775 -13.30875,-7.6713 -13.28625,7.6713 13.2975,7.6762 13.2975,-7.6762"
       inkscape:connector-curvature="0" />
    <path
       id="path5652"
       style="fill:#56a534;fill-opacity:1;fill-rule:nonzero;stroke:none"
       d="m -53.233998,1147.945 10e-4,8.395 7.29,4.215 0,-8.4013 -7.29125,-4.2087"
       inkscape:connector-curvature="0" />
    <path
       id="path5654"
       style="fill:#45762d;fill-opacity:1;fill-rule:nonzero;stroke:none"
       d="m -38.652748,1147.945 0,8.395 -7.29,4.215 0,-8.4013 7.29,-4.2087"
       inkscape:connector-curvature="0" />
    <path
       id="path5656"
       style="fill:#72c837;fill-opacity:1;fill-rule:nonzero;stroke:none"
       d="m -38.652748,1147.945 -7.29625,-4.2063 -7.285,4.2063 7.29125,4.2087 7.29,-4.2087"
       inkscape:connector-curvature="0" />
    <path
       id="path5658"
       style="fill:#56a534;fill-opacity:1;fill-rule:nonzero;stroke:none"
       d="m -36.815248,1146.2675 0,9.5162 8.26625,4.78 0,-9.5237 -8.26625,-4.7725"
       inkscape:connector-curvature="0" />
    <path
       id="path5660"
       style="fill:#45762d;fill-opacity:1;fill-rule:nonzero;stroke:none"
       d="m -20.282748,1146.2675 -10e-4,9.5162 -8.265,4.78 0,-9.5237 8.26625,-4.7725"
       inkscape:connector-curvature="0" />
    <path
       id="path5662"
       style="fill:#72c837;fill-opacity:1;fill-rule:nonzero;stroke:none"
       d="m -20.282748,1146.2675 -8.27375,-4.7688 -8.25875,4.7688 8.26625,4.7725 8.26625,-4.7725"
       inkscape:connector-curvature="0" />
    <path
       id="path5664"
       style="fill:#56a534;fill-opacity:1;fill-rule:nonzero;stroke:none"
       d="m -40.056498,1151.5475 0,3.73 3.24125,1.875 0,-3.7338 -3.24125,-1.8712"
       inkscape:connector-curvature="0" />
    <path
       id="path5666"
       style="fill:#45762d;fill-opacity:1;fill-rule:nonzero;stroke:none"
       d="m -33.573998,1151.5475 0,3.73 -3.24125,1.875 0,-3.7338 3.24125,-1.8712"
       inkscape:connector-curvature="0" />
    <path
       id="path5668"
       style="fill:#72c837;fill-opacity:1;fill-rule:nonzero;stroke:none"
       d="m -33.573998,1151.5475 -3.24375,-1.87 -3.23875,1.87 3.24125,1.8712 3.24125,-1.8712"
       inkscape:connector-curvature="0" />
  </g>
  <g
     transform="matrix(0.99951974,0,0,0.99951974,-0.43385131,-1106.9769)"
     id="g5670">
    <path
       id="path5672"
       style="fill:#2b3119;fill-opacity:1;fill-rule:nonzero;stroke:none"
       d="m 119.19936,1156.2041 0,37.4725 -3.65125,2.1125 0,-37.4775 3.65125,-2.1075"
       inkscape:connector-curvature="0" />
    <path
       id="path5674"
       style="fill:#444c28;fill-opacity:1;fill-rule:nonzero;stroke:none"
       d="m 111.89686,1156.2041 0,37.4725 3.65125,2.1125 0,-37.4775 -3.65125,-2.1075"
       inkscape:connector-curvature="0" />
    <path
       id="path5676"
       style="fill:#4f5831;fill-opacity:1;fill-rule:nonzero;stroke:none"
       d="m 111.89686,1156.2041 3.65375,-2.1075 3.64875,2.1075 -3.65125,2.1075 -3.65125,-2.1075"
       inkscape:connector-curvature="0" />
    <path
       id="path5678"
       style="fill:#2b3119;fill-opacity:1;fill-rule:nonzero;stroke:none"
       d="m 128.12186,1181.1091 0,4.155 -3.6525,2.1113 0,-4.1575 3.6525,-2.1088"
       inkscape:connector-curvature="0" />
    <path
       id="path5680"
       style="fill:#444c28;fill-opacity:1;fill-rule:nonzero;stroke:none"
       d="m 115.54811,1178.0666 0,4.1538 8.92125,5.155 0,-4.1575 -8.92125,-5.1513"
       inkscape:connector-curvature="0" />
    <path
       id="path5682"
       style="fill:#4f5831;fill-opacity:1;fill-rule:nonzero;stroke:none"
       d="m 115.54811,1178.0666 3.655,-2.1062 8.91875,5.1487 -3.6525,2.1088 -8.92125,-5.1513"
       inkscape:connector-curvature="0" />
    <path
       id="path5684"
       style="fill:#2b3119;fill-opacity:1;fill-rule:nonzero;stroke:none"
       d="m 128.12186,1170.4616 0,10.865 -3.6525,2.11 0,-10.8662 3.6525,-2.1088"
       inkscape:connector-curvature="0" />
    <path
       id="path5686"
       style="fill:#444c28;fill-opacity:1;fill-rule:nonzero;stroke:none"
       d="m 120.81811,1170.4616 0,10.865 3.65125,2.11 0,-10.8662 -3.65125,-2.1088"
       inkscape:connector-curvature="0" />
    <path
       id="path5688"
       style="fill:#4f5831;fill-opacity:1;fill-rule:nonzero;stroke:none"
       d="m 120.81811,1170.4616 3.655,-2.1062 3.64875,2.1062 -3.6525,2.1088 -3.65125,-2.1088"
       inkscape:connector-curvature="0" />
    <path
       id="path5690"
       style="fill:#444c28;fill-opacity:1;fill-rule:nonzero;stroke:none"
       d="m 102.97436,1174.3004 0,4.155 3.6525,2.1112 0,-4.1575 -3.6525,-2.1087"
       inkscape:connector-curvature="0" />
    <path
       id="path5692"
       style="fill:#2b3119;fill-opacity:1;fill-rule:nonzero;stroke:none"
       d="m 115.54811,1171.2591 -10e-4,4.1538 -8.92,5.1537 0,-4.1575 8.92125,-5.15"
       inkscape:connector-curvature="0" />
    <path
       id="path5694"
       style="fill:#4f5831;fill-opacity:1;fill-rule:nonzero;stroke:none"
       d="m 115.54811,1171.2591 -3.655,-2.1075 -8.91875,5.1488 3.6525,2.1087 8.92125,-5.15"
       inkscape:connector-curvature="0" />
    <path
       id="path5696"
       style="fill:#444c28;fill-opacity:1;fill-rule:nonzero;stroke:none"
       d="m 102.97436,1166.6041 0,7.9125 3.6525,2.1125 0,-7.9162 -3.6525,-2.1088"
       inkscape:connector-curvature="0" />
    <path
       id="path5698"
       style="fill:#2b3119;fill-opacity:1;fill-rule:nonzero;stroke:none"
       d="m 110.27811,1166.6041 0,7.9125 -3.65125,2.1125 0,-7.9162 3.65125,-2.1088"
       inkscape:connector-curvature="0" />
    <path
       id="path5700"
       style="fill:#4f5831;fill-opacity:1;fill-rule:nonzero;stroke:none"
       d="m 110.27811,1166.6041 -3.655,-2.1062 -3.64875,2.1062 3.6525,2.1088 3.65125,-2.1088"
       inkscape:connector-curvature="0" />
    <path
       id="path5702"
       style="fill:#56a534;fill-opacity:1;fill-rule:nonzero;stroke:none"
       d="m 111.20811,1116.3854 10e-4,13.9062 12.07625,6.9825 0,-13.915 -12.0775,-6.9737"
       inkscape:connector-curvature="0" />
    <path
       id="path5704"
       style="fill:#45762d;fill-opacity:1;fill-rule:nonzero;stroke:none"
       d="m 135.36436,1116.3854 -0.001,13.9062 -12.0775,6.9825 0,-13.915 12.07875,-6.9737"
       inkscape:connector-curvature="0" />
    <path
       id="path5706"
       style="fill:#72c837;fill-opacity:1;fill-rule:nonzero;stroke:none"
       d="m 135.36436,1116.3854 -12.0875,-6.9675 -12.06875,6.9675 12.0775,6.9737 12.07875,-6.9737"
       inkscape:connector-curvature="0" />
    <path
       id="path5708"
       style="fill:#56a534;fill-opacity:1;fill-rule:nonzero;stroke:none"
       d="m 85.881861,1126.4179 0.002,31.11 27.018749,15.6237 0,-31.1337 -27.021249,-15.6"
       inkscape:connector-curvature="0" />
    <path
       id="path5710"
       style="fill:#45762d;fill-opacity:1;fill-rule:nonzero;stroke:none"
       d="m 139.92311,1126.4179 -0.002,31.11 -27.0175,15.6237 0,-31.1337 27.02,-15.6"
       inkscape:connector-curvature="0" />
    <path
       id="path5712"
       style="fill:#72c837;fill-opacity:1;fill-rule:nonzero;stroke:none"
       d="m 139.92311,1126.4179 -27.0425,-15.5875 -26.998749,15.5875 27.021249,15.6 27.02,-15.6"
       inkscape:connector-curvature="0" />
    <path
       id="path5714"
       style="fill:#56a534;fill-opacity:1;fill-rule:nonzero;stroke:none"
       d="m 82.069361,1151.7529 0.001,17.0575 14.815,8.5662 0,-17.07 -14.81625,-8.5537"
       inkscape:connector-curvature="0" />
    <path
       id="path5716"
       style="fill:#45762d;fill-opacity:1;fill-rule:nonzero;stroke:none"
       d="m 111.70061,1151.7529 -10e-4,17.0575 -14.813749,8.5662 0,-17.07 14.814999,-8.5537"
       inkscape:connector-curvature="0" />
    <path
       id="path5718"
       style="fill:#72c837;fill-opacity:1;fill-rule:nonzero;stroke:none"
       d="m 111.70061,1151.7529 -14.827499,-8.5475 -14.80375,8.5475 14.81625,8.5537 14.814999,-8.5537"
       inkscape:connector-curvature="0" />
    <path
       id="path5720"
       style="fill:#56a534;fill-opacity:1;fill-rule:nonzero;stroke:none"
       d="m 115.43436,1148.3429 0,19.34 16.795,9.7112 0,-19.3537 -16.795,-9.6975"
       inkscape:connector-curvature="0" />
    <path
       id="path5722"
       style="fill:#45762d;fill-opacity:1;fill-rule:nonzero;stroke:none"
       d="m 149.02686,1148.3429 -0.002,19.34 -16.795,9.7112 0,-19.3537 16.7975,-9.6975"
       inkscape:connector-curvature="0" />
    <path
       id="path5724"
       style="fill:#72c837;fill-opacity:1;fill-rule:nonzero;stroke:none"
       d="m 149.02686,1148.3429 -16.81125,-9.69 -16.7825,9.69 16.79625,9.6975 16.7975,-9.6975"
       inkscape:connector-curvature="0" />
    <path
       id="path5726"
       style="fill:#56a534;fill-opacity:1;fill-rule:nonzero;stroke:none"
       d="m 108.84811,1159.0729 10e-4,7.5825 6.585,3.8075 0,-7.5875 -6.58625,-3.8025"
       inkscape:connector-curvature="0" />
    <path
       id="path5728"
       style="fill:#45762d;fill-opacity:1;fill-rule:nonzero;stroke:none"
       d="m 122.01936,1159.0729 0,7.5825 -6.585,3.8075 0,-7.5875 6.585,-3.8025"
       inkscape:connector-curvature="0" />
    <path
       id="path5730"
       style="fill:#72c837;fill-opacity:1;fill-rule:nonzero;stroke:none"
       d="m 122.01936,1159.0729 -6.59125,-3.7988 -6.58,3.7988 6.58625,3.8025 6.585,-3.8025"
       inkscape:connector-curvature="0" />
  </g>
  <path
     id="path10853"
     style="fill:#757c7f;fill-opacity:1;fill-rule:evenodd;stroke:none"
     d="m 102.49139,106.80988 -3.4e-4,46.53285 5.96754,-3.32547 0,-46.52946 -5.9672,3.32208 0,0"
     inkscape:connector-curvature="0" />
  <path
     id="path10855"
     style="fill:#a7abaa;fill-opacity:1;fill-rule:evenodd;stroke:none"
     d="m 96.52351,103.4878 5.96788,3.32208 -3.4e-4,46.53285 -5.96754,-3.32547 0,-46.52946"
     inkscape:connector-curvature="0" />
  <path
     id="path10857"
     style="fill:#c3c2c0;fill-opacity:1;fill-rule:evenodd;stroke:none"
     d="m 102.49139,100.16234 5.9672,3.32546 -5.9672,3.32208 -5.96788,-3.32208 5.96788,-3.32546 0,0"
     inkscape:connector-curvature="0" />
  <path
     inkscape:connector-curvature="0"
     d="m 5.875943,50.91033 -4.24e-4,46.52947 5.968216,-3.32208 0,-46.53285 -5.967877,3.32546 0,0"
     style="fill:#757c7f;fill-opacity:1;fill-rule:evenodd;stroke:none"
     id="path8527-6" />
  <path
     inkscape:connector-curvature="0"
     d="m -0.092615,47.58487 5.968558,3.32546 -4.24e-4,46.52947 -5.968219,-3.32208 0,-46.53285"
     style="fill:#a7abaa;fill-opacity:1;fill-rule:evenodd;stroke:none"
     id="path8529-1" />
  <path
     inkscape:connector-curvature="0"
     d="m 5.875943,44.2628 5.967877,3.32207 -5.967877,3.32546 -5.968558,-3.32546 5.968558,-3.32207 0,0"
     style="fill:#c3c2c0;fill-opacity:1;fill-rule:evenodd;stroke:none"
     id="path8531-8" />
  <path
     inkscape:connector-curvature="0"
     d="m 199.10656,50.91033 0,46.53286 5.96924,-3.32547 0,-46.53285 -5.96924,3.32546 0,0"
     style="fill:#757c7f;fill-opacity:1;fill-rule:evenodd;stroke:none"
     id="path8533-7" />
  <path
     inkscape:connector-curvature="0"
     d="m 193.13767,47.58487 5.96889,3.32546 0,46.53286 -5.96889,-3.32547 0,-46.53285"
     style="fill:#a7abaa;fill-opacity:1;fill-rule:evenodd;stroke:none"
     id="path8535-9" />
  <path
     inkscape:connector-curvature="0"
     d="m 199.10656,44.2628 5.96924,3.32207 -5.96924,3.32546 -5.96889,-3.32546 5.96889,-3.32207 0,0"
     style="fill:#c3c2c0;fill-opacity:1;fill-rule:evenodd;stroke:none"
     id="path8537-2" />
  <g
     transform="matrix(0.21195343,0,0,0.21195343,96.985504,-476.17619)"
     id="g10895">
    <g
       id="g10897">
      <path
         inkscape:connector-curvature="0"
         d="m 25.976859,2781.9018 c 13.843974,-7.7249 27.715136,-15.4657 41.615087,-23.2226 -4.023964,7.501 -8.111903,15.0019 -12.137467,22.4709 -4.023964,7.469 -8.111903,14.9699 -12.107079,22.4229 -5.823234,3.2467 -11.612881,6.4774 -17.37214,9.6921 0.0016,-5.2299 0.0016,-10.4598 0.0016,-15.6737 0,-5.2298 0,-10.4597 0,-15.6896 l 0,0"
         style="fill:#dce818;fill-opacity:1;fill-rule:evenodd;stroke:none"
         id="path10899" />
      <path
         inkscape:connector-curvature="0"
         d="m 67.591946,2758.6792 c 13.912746,-7.7248 27.788706,-15.4657 41.725444,-23.2225 -4.06235,7.4849 -8.15029,15.0019 -12.174254,22.4708 -4.025564,7.469 -8.113502,14.97 -12.139066,22.4389 -13.911147,7.7409 -27.787107,15.4817 -41.65667,23.2066 3.995176,-7.453 8.083115,-14.9539 12.107079,-22.4229 4.025564,-7.469 8.113503,-14.9699 12.137467,-22.4709 l 0,0"
         style="fill:#131112;fill-opacity:1;fill-rule:evenodd;stroke:none"
         id="path10901" />
      <path
         inkscape:connector-curvature="0"
         d="m 109.31739,2735.4567 c 13.89995,-7.7409 27.7999,-15.4817 41.71265,-23.2386 -4.06235,7.485 -8.1375,15.0019 -12.13747,22.4709 -4.01277,7.469 -8.1247,14.9699 -12.15026,22.4389 -13.93674,7.7568 -27.83669,15.4977 -41.73824,23.2385 4.025564,-7.4689 8.113502,-14.9699 12.139066,-22.4389 4.023964,-7.4689 8.111904,-14.9859 12.174254,-22.4708 l 0,0"
         style="fill:#dce818;fill-opacity:1;fill-rule:evenodd;stroke:none"
         id="path10903" />
      <path
         inkscape:connector-curvature="0"
         d="m 151.03004,2712.2181 c 13.89995,-7.7408 27.81269,-15.4977 41.73663,-23.2545 -4.04955,7.4849 -8.13589,15.0179 -12.16145,22.4868 -4.02557,7.469 -8.11351,14.97 -12.13747,22.4389 -13.93834,7.7569 -27.8127,15.4977 -41.72544,23.2386 4.02556,-7.469 8.13749,-14.9699 12.15026,-22.4389 3.99997,-7.469 8.07512,-14.9859 12.13747,-22.4709 l 0,0"
         style="fill:#131112;fill-opacity:1;fill-rule:evenodd;stroke:none"
         id="path10905" />
      <path
         inkscape:connector-curvature="0"
         d="m 192.76667,2688.9636 c 13.91275,-7.7569 27.85108,-15.4977 41.77503,-23.2706 -4.04956,7.501 -8.1247,15.0179 -12.16146,22.4869 -4.03836,7.485 -8.15029,14.9859 -12.17585,22.4709 -13.93674,7.7568 -27.83669,15.4977 -41.73664,23.2385 4.02396,-7.4689 8.1119,-14.9699 12.13747,-22.4389 4.02556,-7.4689 8.1119,-15.0019 12.16145,-22.4868 l 0,0"
         style="fill:#dce818;fill-opacity:1;fill-rule:evenodd;stroke:none"
         id="path10907" />
      <path
         inkscape:connector-curvature="0"
         d="m 234.5417,2665.693 c 13.91274,-7.7568 27.85108,-15.4977 41.78781,-23.2865 -4.06235,7.5169 -8.15029,15.0339 -12.17425,22.5029 -4.02556,7.4849 -8.13749,15.0019 -12.17585,22.4708 -13.92554,7.7729 -27.83669,15.5137 -41.77502,23.2706 4.02556,-7.485 8.13749,-14.9859 12.17585,-22.4709 4.03676,-7.469 8.1119,-14.9859 12.16146,-22.4869 l 0,0"
         style="fill:#131112;fill-opacity:1;fill-rule:evenodd;stroke:none"
         id="path10909" />
      <path
         inkscape:connector-curvature="0"
         d="m 276.32951,2642.4065 c 13.89995,-7.7409 27.83829,-15.5137 41.80061,-23.2865 -4.08793,7.5169 -8.17587,15.0338 -12.20144,22.5188 -4.02396,7.469 -8.1119,14.9859 -12.17425,22.4709 -13.92554,7.7728 -27.83669,15.5137 -41.77502,23.2705 4.03836,-7.4689 8.15029,-14.9859 12.17585,-22.4709 4.02396,-7.4689 8.1119,-14.9859 12.17425,-22.5028 l 0,0"
         style="fill:#dce818;fill-opacity:1;fill-rule:evenodd;stroke:none"
         id="path10911" />
      <path
         inkscape:connector-curvature="0"
         d="m 318.13012,2619.12 c 5.82484,-3.2467 11.67526,-6.4934 17.53688,-9.7401 0,5.2459 0,10.4758 0,15.7216 0,5.2299 0,10.4598 0,15.7056 -14.00071,7.7729 -27.97583,15.5457 -41.91257,23.3026 4.06235,-7.485 8.15029,-15.0019 12.17425,-22.4709 4.02557,-7.485 8.11351,-15.0019 12.20144,-22.5188 l 0,0"
         style="fill:#131112;fill-opacity:1;fill-rule:evenodd;stroke:none"
         id="path10913" />
    </g>
    <g
       id="g10915"
       transform="translate(250.66293,-139.5593)">
      <path
         id="path10917"
         style="fill:#131112;fill-opacity:1;fill-rule:evenodd;stroke:none"
         d="m 67.591946,2758.6792 c 13.912746,-7.7248 27.788706,-15.4657 41.725444,-23.2225 -4.06235,7.4849 -8.15029,15.0019 -12.174254,22.4708 -4.025564,7.469 -8.113502,14.97 -12.139066,22.4389 -13.911147,7.7409 -27.787107,15.4817 -41.65667,23.2066 3.995176,-7.453 8.083115,-14.9539 12.107079,-22.4229 4.025564,-7.469 8.113503,-14.9699 12.137467,-22.4709 l 0,0"
         inkscape:connector-curvature="0" />
      <path
         id="path10919"
         style="fill:#dce818;fill-opacity:1;fill-rule:evenodd;stroke:none"
         d="m 109.31739,2735.4567 c 13.89995,-7.7409 27.7999,-15.4817 41.71265,-23.2386 -4.06235,7.485 -8.1375,15.0019 -12.13747,22.4709 -4.01277,7.469 -8.1247,14.9699 -12.15026,22.4389 -13.93674,7.7568 -27.83669,15.4977 -41.73824,23.2385 4.025564,-7.4689 8.113502,-14.9699 12.139066,-22.4389 4.023964,-7.4689 8.111904,-14.9859 12.174254,-22.4708 l 0,0"
         inkscape:connector-curvature="0" />
      <path
         id="path10921"
         style="fill:#131112;fill-opacity:1;fill-rule:evenodd;stroke:none"
         d="m 151.03004,2712.2181 c 13.89995,-7.7408 27.81269,-15.4977 41.73663,-23.2545 -4.04955,7.4849 -8.13589,15.0179 -12.16145,22.4868 -4.02557,7.469 -8.11351,14.97 -12.13747,22.4389 -13.93834,7.7569 -27.8127,15.4977 -41.72544,23.2386 4.02556,-7.469 8.13749,-14.9699 12.15026,-22.4389 3.99997,-7.469 8.07512,-14.9859 12.13747,-22.4709 l 0,0"
         inkscape:connector-curvature="0" />
      <path
         id="path10923"
         style="fill:#dce818;fill-opacity:1;fill-rule:evenodd;stroke:none"
         d="m 192.76667,2688.9636 c 13.91275,-7.7569 27.85108,-15.4977 41.77503,-23.2706 -4.04956,7.501 -8.1247,15.0179 -12.16146,22.4869 -4.03836,7.485 -8.15029,14.9859 -12.17585,22.4709 -13.93674,7.7568 -27.83669,15.4977 -41.73664,23.2385 4.02396,-7.4689 8.1119,-14.9699 12.13747,-22.4389 4.02556,-7.4689 8.1119,-15.0019 12.16145,-22.4868 l 0,0"
         inkscape:connector-curvature="0" />
      <path
         id="path10925"
         style="fill:#131112;fill-opacity:1;fill-rule:evenodd;stroke:none"
         d="m 234.5417,2665.693 c 13.91274,-7.7568 7.65207,-3.1129 24.75872,-13.1133 -0.28918,8.8434 0.18341,19.5005 -0.0228,31.1145 -13.92554,7.7729 -35.13487,19.1997 -49.0732,26.9566 4.02556,-7.485 8.13749,-14.9859 12.17585,-22.4709 4.03676,-7.469 8.1119,-14.9859 12.16146,-22.4869 l 0,0"
         inkscape:connector-curvature="0"
         sodipodi:nodetypes="ccccccc" />
    </g>
  </g>
  <path
     sodipodi:nodetypes="cccscccccc"
     id="path10927"
     style="fill:#dce818;fill-opacity:1;fill-rule:evenodd;stroke:none"
     d="m 0.023362,60.42015 c 8.94453,4.98311 17.894144,9.96962 26.842742,14.95275 8.949276,4.98311 66.665161,33.09803 75.625286,38.08453 0,1.1085 -3.4e-4,2.217 -3.4e-4,3.32547 0,1.1051 0,2.2136 0,3.32209 C 93.531265,115.11847 35.816734,87.00017 26.86746,82.01704 17.918863,77.03393 8.964163,72.04743 0.026414,67.06769 c 0,-1.10849 -0.0011,-2.21697 -0.0011,-3.32207 -6.36e-4,-1.1085 -0.0021,-2.21699 -0.0021,-3.32547 l 0,0"
     inkscape:connector-curvature="0" />
</svg>
