<?xml version="1.0" encoding="UTF-8" standalone="no"?>
<!-- Created with Inkscape (http://www.inkscape.org/) -->

<svg
   xmlns:dc="http://purl.org/dc/elements/1.1/"
   xmlns:cc="http://creativecommons.org/ns#"
   xmlns:rdf="http://www.w3.org/1999/02/22-rdf-syntax-ns#"
   xmlns:svg="http://www.w3.org/2000/svg"
   xmlns="http://www.w3.org/2000/svg"
   xmlns:sodipodi="http://sodipodi.sourceforge.net/DTD/sodipodi-0.dtd"
   xmlns:inkscape="http://www.inkscape.org/namespaces/inkscape"
   id="svg6214"
   height="205"
   width="205"
   version="1.1"
   inkscape:version="0.48.5 r10040"
   sodipodi:docname="grass_2.svg">
  <defs
     id="defs107" />
  <sodipodi:namedview
     pagecolor="#ffffff"
     bordercolor="#666666"
     borderopacity="1"
     objecttolerance="10"
     gridtolerance="10"
     guidetolerance="10"
     inkscape:pageopacity="0"
     inkscape:pageshadow="2"
     inkscape:window-width="636"
     inkscape:window-height="1041"
     id="namedview105"
     showgrid="false"
     inkscape:zoom="1.7940591"
     inkscape:cx="89.996562"
     inkscape:cy="184.29713"
     inkscape:window-x="1280"
     inkscape:window-y="18"
     inkscape:window-maximized="0"
     inkscape:current-layer="svg6214" />
  <metadata
     id="metadata6219">
    <rdf:RDF>
      <cc:Work
         rdf:about="">
        <dc:format>image/svg+xml</dc:format>
        <dc:type
           rdf:resource="http://purl.org/dc/dcmitype/StillImage" />
        <dc:title></dc:title>
      </cc:Work>
    </rdf:RDF>
  </metadata>
  <g
     id="g10878"
     transform="matrix(0.21195343,0,0,0.21195343,-5.482516,-529.21347)">
    <g
       id="g10835">
      <path
         id="path10837"
         style="fill:#dce818;fill-opacity:1;fill-rule:evenodd;stroke:none"
         d="m 25.976859,2781.9018 c 13.843974,-7.7249 27.715136,-15.4657 41.615087,-23.2226 -4.023964,7.501 -8.111903,15.0019 -12.137467,22.4709 -4.023964,7.469 -8.111903,14.9699 -12.107079,22.4229 -5.823234,3.2467 -11.612881,6.4774 -17.37214,9.6921 0.0016,-5.2299 0.0016,-10.4598 0.0016,-15.6737 0,-5.2298 0,-10.4597 0,-15.6896 l 0,0"
         inkscape:connector-curvature="0" />
      <path
         id="path10839"
         style="fill:#131112;fill-opacity:1;fill-rule:evenodd;stroke:none"
         d="m 67.591946,2758.6792 c 13.912746,-7.7248 27.788706,-15.4657 41.725444,-23.2225 -4.06235,7.4849 -8.15029,15.0019 -12.174254,22.4708 -4.025564,7.469 -8.113502,14.97 -12.139066,22.4389 -13.911147,7.7409 -27.787107,15.4817 -41.65667,23.2066 3.995176,-7.453 8.083115,-14.9539 12.107079,-22.4229 4.025564,-7.469 8.113503,-14.9699 12.137467,-22.4709 l 0,0"
         inkscape:connector-curvature="0" />
      <path
         id="path10841"
         style="fill:#dce818;fill-opacity:1;fill-rule:evenodd;stroke:none"
         d="m 109.31739,2735.4567 c 13.89995,-7.7409 27.7999,-15.4817 41.71265,-23.2386 -4.06235,7.485 -8.1375,15.0019 -12.13747,22.4709 -4.01277,7.469 -8.1247,14.9699 -12.15026,22.4389 -13.93674,7.7568 -27.83669,15.4977 -41.73824,23.2385 4.025564,-7.4689 8.113502,-14.9699 12.139066,-22.4389 4.023964,-7.4689 8.111904,-14.9859 12.174254,-22.4708 l 0,0"
         inkscape:connector-curvature="0" />
      <path
         id="path10843"
         style="fill:#131112;fill-opacity:1;fill-rule:evenodd;stroke:none"
         d="m 151.03004,2712.2181 c 13.89995,-7.7408 27.81269,-15.4977 41.73663,-23.2545 -4.04955,7.4849 -8.13589,15.0179 -12.16145,22.4868 -4.02557,7.469 -8.11351,14.97 -12.13747,22.4389 -13.93834,7.7569 -27.8127,15.4977 -41.72544,23.2386 4.02556,-7.469 8.13749,-14.9699 12.15026,-22.4389 3.99997,-7.469 8.07512,-14.9859 12.13747,-22.4709 l 0,0"
         inkscape:connector-curvature="0" />
      <path
         id="path10845"
         style="fill:#dce818;fill-opacity:1;fill-rule:evenodd;stroke:none"
         d="m 192.76667,2688.9636 c 13.91275,-7.7569 27.85108,-15.4977 41.77503,-23.2706 -4.04956,7.501 -8.1247,15.0179 -12.16146,22.4869 -4.03836,7.485 -8.15029,14.9859 -12.17585,22.4709 -13.93674,7.7568 -27.83669,15.4977 -41.73664,23.2385 4.02396,-7.4689 8.1119,-14.9699 12.13747,-22.4389 4.02556,-7.4689 8.1119,-15.0019 12.16145,-22.4868 l 0,0"
         inkscape:connector-curvature="0" />
      <path
         id="path10847"
         style="fill:#131112;fill-opacity:1;fill-rule:evenodd;stroke:none"
         d="m 234.5417,2665.693 c 13.91274,-7.7568 27.85108,-15.4977 41.78781,-23.2865 -4.06235,7.5169 -8.15029,15.0339 -12.17425,22.5029 -4.02556,7.4849 -8.13749,15.0019 -12.17585,22.4708 -13.92554,7.7729 -27.83669,15.5137 -41.77502,23.2706 4.02556,-7.485 8.13749,-14.9859 12.17585,-22.4709 4.03676,-7.469 8.1119,-14.9859 12.16146,-22.4869 l 0,0"
         inkscape:connector-curvature="0" />
      <path
         id="path10849"
         style="fill:#dce818;fill-opacity:1;fill-rule:evenodd;stroke:none"
         d="m 276.32951,2642.4065 c 13.89995,-7.7409 27.83829,-15.5137 41.80061,-23.2865 -4.08793,7.5169 -8.17587,15.0338 -12.20144,22.5188 -4.02396,7.469 -8.1119,14.9859 -12.17425,22.4709 -13.92554,7.7728 -27.83669,15.5137 -41.77502,23.2705 4.03836,-7.4689 8.15029,-14.9859 12.17585,-22.4709 4.02396,-7.4689 8.1119,-14.9859 12.17425,-22.5028 l 0,0"
         inkscape:connector-curvature="0" />
      <path
         id="path10851"
         style="fill:#131112;fill-opacity:1;fill-rule:evenodd;stroke:none"
         d="m 318.13012,2619.12 c 5.82484,-3.2467 11.67526,-6.4934 17.53688,-9.7401 0,5.2459 0,10.4758 0,15.7216 0,5.2299 0,10.4598 0,15.7056 -14.00071,7.7729 -27.97583,15.5457 -41.91257,23.3026 4.06235,-7.485 8.15029,-15.0019 12.17425,-22.4709 4.02557,-7.485 8.11351,-15.0019 12.20144,-22.5188 l 0,0"
         inkscape:connector-curvature="0" />
    </g>
    <g
       transform="translate(250.66293,-139.5593)"
       id="g10825">
      <path
         inkscape:connector-curvature="0"
         d="m 67.591946,2758.6792 c 13.912746,-7.7248 27.788706,-15.4657 41.725444,-23.2225 -4.06235,7.4849 -8.15029,15.0019 -12.174254,22.4708 -4.025564,7.469 -8.113502,14.97 -12.139066,22.4389 -13.911147,7.7409 -27.787107,15.4817 -41.65667,23.2066 3.995176,-7.453 8.083115,-14.9539 12.107079,-22.4229 4.025564,-7.469 8.113503,-14.9699 12.137467,-22.4709 l 0,0"
         style="fill:#131112;fill-opacity:1;fill-rule:evenodd;stroke:none"
         id="path8541-7" />
      <path
         inkscape:connector-curvature="0"
         d="m 109.31739,2735.4567 c 13.89995,-7.7409 27.7999,-15.4817 41.71265,-23.2386 -4.06235,7.485 -8.1375,15.0019 -12.13747,22.4709 -4.01277,7.469 -8.1247,14.9699 -12.15026,22.4389 -13.93674,7.7568 -27.83669,15.4977 -41.73824,23.2385 4.025564,-7.4689 8.113502,-14.9699 12.139066,-22.4389 4.023964,-7.4689 8.111904,-14.9859 12.174254,-22.4708 l 0,0"
         style="fill:#dce818;fill-opacity:1;fill-rule:evenodd;stroke:none"
         id="path8543-0" />
      <path
         inkscape:connector-curvature="0"
         d="m 151.03004,2712.2181 c 13.89995,-7.7408 27.81269,-15.4977 41.73663,-23.2545 -4.04955,7.4849 -8.13589,15.0179 -12.16145,22.4868 -4.02557,7.469 -8.11351,14.97 -12.13747,22.4389 -13.93834,7.7569 -27.8127,15.4977 -41.72544,23.2386 4.02556,-7.469 8.13749,-14.9699 12.15026,-22.4389 3.99997,-7.469 8.07512,-14.9859 12.13747,-22.4709 l 0,0"
         style="fill:#131112;fill-opacity:1;fill-rule:evenodd;stroke:none"
         id="path8545-9" />
      <path
         inkscape:connector-curvature="0"
         d="m 192.76667,2688.9636 c 13.91275,-7.7569 27.85108,-15.4977 41.77503,-23.2706 -4.04956,7.501 -8.1247,15.0179 -12.16146,22.4869 -4.03836,7.485 -8.15029,14.9859 -12.17585,22.4709 -13.93674,7.7568 -27.83669,15.4977 -41.73664,23.2385 4.02396,-7.4689 8.1119,-14.9699 12.13747,-22.4389 4.02556,-7.4689 8.1119,-15.0019 12.16145,-22.4868 l 0,0"
         style="fill:#dce818;fill-opacity:1;fill-rule:evenodd;stroke:none"
         id="path8547-3" />
      <path
         sodipodi:nodetypes="ccccccc"
         inkscape:connector-curvature="0"
         d="m 234.5417,2665.693 c 13.91274,-7.7568 7.65207,-3.1129 24.75872,-13.1133 -0.28918,8.8434 0.18341,19.5005 -0.0228,31.1145 -13.92554,7.7729 -35.13487,19.1997 -49.0732,26.9566 4.02556,-7.485 8.13749,-14.9859 12.17585,-22.4709 4.03676,-7.469 8.1119,-14.9859 12.16146,-22.4869 l 0,0"
         style="fill:#131112;fill-opacity:1;fill-rule:evenodd;stroke:none"
         id="path8549-6" />
    </g>
  </g>
  <path
     inkscape:connector-curvature="0"
     d="m 102.60596,3.42982 c 8.94453,4.98311 17.89414,9.96961 26.84274,14.95274 8.94928,4.98311 66.66516,33.09803 75.62529,38.08454 0,1.10849 -4.3e-4,2.21699 -4.3e-4,3.32546 0,1.1051 0,2.2136 0,3.32209 -8.95978,-4.98652 -66.67431,-33.10481 -75.62359,-38.08794 -8.9486,-4.98311 -17.90329,-9.96961 -26.84104,-14.94935 0,-1.1085 -0.001,-2.21697 -0.001,-3.32208 -6.4e-4,-1.10849 -0.002,-2.21699 -0.002,-3.32546 l 0,0"
     style="fill:#dce818;fill-opacity:1;fill-rule:evenodd;stroke:none"
     id="path8555-2"
     sodipodi:nodetypes="cccscccccc" />
  <path
     inkscape:connector-curvature="0"
     d="m 102.45316,-4.6887 -3.4e-4,46.53285 5.96754,-3.32546 0,-46.52946 -5.9672,3.32207 0,0"
     style="fill:#757c7f;fill-opacity:1;fill-rule:evenodd;stroke:none"
     id="path8521-0" />
  <path
     inkscape:connector-curvature="0"
     d="m 96.48528,-8.01077 5.96788,3.32207 -3.4e-4,46.53285 -5.96754,-3.32546 0,-46.52946"
     style="fill:#a7abaa;fill-opacity:1;fill-rule:evenodd;stroke:none"
     id="path8523-6" />
  <path
     inkscape:connector-curvature="0"
     d="m 102.45316,-11.33623 5.9672,3.32546 -5.9672,3.32207 -5.96788,-3.32207 5.96788,-3.32546 0,0"
     style="fill:#c3c2c0;fill-opacity:1;fill-rule:evenodd;stroke:none"
     id="path8525-2" />
  <path
     id="path5312"
     d="m 114.31354,111.3683 0,26.984 -2.63,1.5212 0,-26.989 2.63,-1.5163"
     inkscape:connector-curvature="0"
     style="fill:#2b3119;fill-rule:nonzero" />
  <path
     id="path5314"
     d="m 109.05354,111.3683 0,26.984 2.63,1.5212 0,-26.989 -2.63,-1.5163"
     inkscape:connector-curvature="0"
     style="fill:#444c28;fill-rule:nonzero" />
  <path
     id="path5316"
     d="m 109.05354,111.3683 2.6312,-1.5175 2.6288,1.5175 -2.63,1.5163 -2.63,-1.5163"
     inkscape:connector-curvature="0"
     style="fill:#4f5831;fill-rule:nonzero" />
  <path
     id="path5318"
     d="m 120.73854,129.2683 0,2.9925 -2.63,1.5212 0,-2.995 2.63,-1.5187"
     inkscape:connector-curvature="0"
     style="fill:#2b3119;fill-rule:nonzero" />
  <path
     id="path5320"
     d="m 111.68354,127.0683 0.001,2.9925 6.4238,3.7125 0,-2.995 -6.425,-3.71"
     inkscape:connector-curvature="0"
     style="fill:#444c28;fill-rule:nonzero" />
  <path
     id="path5322"
     d="m 111.68354,127.0683 2.6312,-1.5162 6.4238,3.7075 -2.63,1.5187 -6.425,-3.71"
     inkscape:connector-curvature="0"
     style="fill:#4f5831;fill-rule:nonzero" />
  <path
     id="path5324"
     d="m 120.73854,121.6683 0,7.8237 -2.63,1.52 0,-7.825 2.63,-1.5187"
     inkscape:connector-curvature="0"
     style="fill:#2b3119;fill-rule:nonzero" />
  <path
     id="path5326"
     d="m 115.47854,121.6683 0,7.8237 2.63,1.52 0,-7.825 -2.63,-1.5187"
     inkscape:connector-curvature="0"
     style="fill:#444c28;fill-rule:nonzero" />
  <path
     id="path5328"
     d="m 115.47854,121.6683 2.6312,-1.5163 2.6288,1.5163 -2.63,1.5187 -2.63,-1.5187"
     inkscape:connector-curvature="0"
     style="fill:#4f5831;fill-rule:nonzero" />
  <path
     id="path5330"
     d="m 102.62854,124.3683 0,2.9925 2.63,1.52 0,-2.9938 -2.63,-1.5187"
     inkscape:connector-curvature="0"
     style="fill:#444c28;fill-rule:nonzero" />
  <path
     id="path5332"
     d="m 111.68354,122.1683 0,2.9925 -6.425,3.7113 0,-2.9938 6.425,-3.71"
     inkscape:connector-curvature="0"
     style="fill:#2b3119;fill-rule:nonzero" />
  <path
     id="path5334"
     d="m 111.68354,122.1683 -2.6325,-1.5162 -6.4225,3.7075 2.63,1.5187 6.425,-3.71"
     inkscape:connector-curvature="0"
     style="fill:#4f5831;fill-rule:nonzero" />
  <path
     id="path5336"
     d="m 102.62854,118.8683 0,5.6975 2.63,1.5212 0,-5.7 -2.63,-1.5187"
     inkscape:connector-curvature="0"
     style="fill:#444c28;fill-rule:nonzero" />
  <path
     id="path5338"
     d="m 107.88854,118.8683 -0.001,5.6975 -2.6288,1.5212 0,-5.7 2.63,-1.5187"
     inkscape:connector-curvature="0"
     style="fill:#2b3119;fill-rule:nonzero" />
  <path
     id="path5340"
     d="m 107.88854,118.8683 -2.6325,-1.5163 -2.6275,1.5163 2.63,1.5187 2.63,-1.5187"
     inkscape:connector-curvature="0"
     style="fill:#4f5831;fill-rule:nonzero" />
  <path
     id="path5342"
     d="m 108.55854,82.6683 0.001,10.014 8.6975,5.0287 0,-10.021 -8.6988,-5.0213"
     inkscape:connector-curvature="0"
     style="fill:#56a534;fill-rule:nonzero" />
  <path
     id="path5344"
     d="m 125.95354,82.6683 0,10.014 -8.6962,5.0287 0,-10.021 8.6962,-5.0213"
     inkscape:connector-curvature="0"
     style="fill:#45762d;fill-rule:nonzero" />
  <path
     id="path5346"
     d="m 125.95354,82.6683 -8.7038,-5.0187 -8.6912,5.0187 8.6988,5.0213 8.6962,-5.0213"
     inkscape:connector-curvature="0"
     style="fill:#72c837;fill-rule:nonzero" />
  <path
     id="path5348"
     d="m 90.31954,89.8683 10e-4,22.404 19.458,11.25 0,-22.419 -19.459,-11.235"
     inkscape:connector-curvature="0"
     style="fill:#56a534;fill-rule:nonzero" />
  <path
     id="path5350"
     d="m 129.23754,89.8683 -0.001,22.404 -19.458,11.25 0,-22.419 19.459,-11.235"
     inkscape:connector-curvature="0"
     style="fill:#45762d;fill-rule:nonzero" />
  <path
     id="path5352"
     d="m 129.23754,89.8683 -19.475,-11.225 -19.442,11.225 19.459,11.235 19.459,-11.235"
     inkscape:connector-curvature="0"
     style="fill:#72c837;fill-rule:nonzero" />
  <path
     id="path5354"
     d="m 87.57454,108.1683 0,12.284 10.669,6.1688 0,-12.292 -10.669,-6.16"
     inkscape:connector-curvature="0"
     style="fill:#56a534;fill-rule:nonzero" />
  <path
     id="path5356"
     d="m 108.91354,108.1683 -10e-4,12.284 -10.669,6.1688 0,-12.292 10.67,-6.16"
     inkscape:connector-curvature="0"
     style="fill:#45762d;fill-rule:nonzero" />
  <path
     id="path5358"
     d="m 108.91354,108.1683 -10.679,-6.155 -10.66,6.155 10.669,6.16 10.67,-6.16"
     inkscape:connector-curvature="0"
     style="fill:#72c837;fill-rule:nonzero" />
  <path
     id="path5360"
     d="m 111.60154,105.6683 0,13.928 12.095,6.9938 0,-13.938 -12.095,-6.9838"
     inkscape:connector-curvature="0"
     style="fill:#56a534;fill-rule:nonzero" />
  <path
     id="path5362"
     d="m 135.79254,105.6683 0,13.928 -12.096,6.9938 0,-13.938 12.096,-6.9838"
     inkscape:connector-curvature="0"
     style="fill:#45762d;fill-rule:nonzero" />
  <path
     id="path5364"
     d="m 135.79254,105.6683 -12.106,-6.9775 -12.086,6.9775 12.096,6.9838 12.096,-6.9838"
     inkscape:connector-curvature="0"
     style="fill:#72c837;fill-rule:nonzero" />
  <path
     id="path5366"
     d="m 106.85854,113.4683 0,5.46 4.7425,2.7413 0,-5.4638 -4.7425,-2.7375"
     inkscape:connector-curvature="0"
     style="fill:#56a534;fill-rule:nonzero" />
  <path
     id="path5368"
     d="m 116.34354,113.4683 0,5.46 -4.7425,2.7413 0,-5.4638 4.7425,-2.7375"
     inkscape:connector-curvature="0"
     style="fill:#45762d;fill-rule:nonzero" />
  <path
     id="path5370"
     d="m 116.34354,113.4683 -4.7462,-2.7362 -4.7388,2.7362 4.7425,2.7375 4.7425,-2.7375"
     inkscape:connector-curvature="0"
     style="fill:#72c837;fill-rule:nonzero" />
  <path
     id="path5372"
     d="m 113.39754,52.3683 0,18.441 -1.7975,1.0388 0,-18.442 1.7975,-1.0375"
     inkscape:connector-curvature="0"
     style="fill:#2b3119;fill-rule:nonzero" />
  <path
     id="path5374"
     d="m 109.80354,52.3683 0,18.441 1.7962,1.0388 0,-18.442 -1.7962,-1.0375"
     inkscape:connector-curvature="0"
     style="fill:#444c28;fill-rule:nonzero" />
  <path
     id="path5252"
     d="m 54.92104,72.1683 0,37.472 -3.6512,2.1125 0,-37.478 3.6512,-2.1075"
     inkscape:connector-curvature="0"
     style="fill:#2b3119;fill-rule:nonzero" />
  <path
     id="path5254"
     d="m 47.618577,72.1683 0,37.472 3.6512,2.1125 0,-37.478 -3.6512,-2.1075"
     inkscape:connector-curvature="0"
     style="fill:#444c28;fill-rule:nonzero" />
  <path
     id="path5256"
     d="m 47.618577,72.1683 3.6537,-2.1075 3.6488,2.1075 -3.6512,2.1075 -3.6512,-2.1075"
     inkscape:connector-curvature="0"
     style="fill:#4f5831;fill-rule:nonzero" />
  <path
     id="path5258"
     d="m 63.84354,97.0683 0,4.155 -3.6525,2.1113 0,-4.1575 3.6525,-2.1088"
     inkscape:connector-curvature="0"
     style="fill:#2b3119;fill-rule:nonzero" />
  <path
     id="path5260"
     d="m 51.26984,93.9683 0,4.1538 8.9212,5.155 0,-4.1575 -8.9212,-5.1513"
     inkscape:connector-curvature="0"
     style="fill:#444c28;fill-rule:nonzero" />
  <path
     id="path5262"
     d="m 51.26984,93.9683 3.655,-2.1062 8.9187,5.1487 -3.6525,2.1088 -8.9212,-5.1513"
     inkscape:connector-curvature="0"
     style="fill:#4f5831;fill-rule:nonzero" />
  <path
     id="path5264"
     d="m 63.84354,86.3683 0,10.865 -3.6525,2.11 0,-10.866 3.6525,-2.1088"
     inkscape:connector-curvature="0"
     style="fill:#2b3119;fill-rule:nonzero" />
  <path
     id="path5266"
     d="m 56.53984,86.3683 0,10.865 3.6512,2.11 0,-10.866 -3.6512,-2.1088"
     inkscape:connector-curvature="0"
     style="fill:#444c28;fill-rule:nonzero" />
  <path
     id="path5268"
     d="m 56.53984,86.3683 3.655,-2.1062 3.6488,2.1062 -3.6525,2.1088 -3.6512,-2.1088"
     inkscape:connector-curvature="0"
     style="fill:#4f5831;fill-rule:nonzero" />
  <path
     id="path5270"
     d="m 38.69604,90.2683 0,4.155 3.6525,2.1112 0,-4.1575 -3.6525,-2.1087"
     inkscape:connector-curvature="0"
     style="fill:#444c28;fill-rule:nonzero" />
  <path
     id="path5272"
     d="m 51.26984,87.1683 -0.001,4.1538 -8.92,5.1537 0,-4.1575 8.9212,-5.15"
     inkscape:connector-curvature="0"
     style="fill:#2b3119;fill-rule:nonzero" />
  <path
     id="path5274"
     d="m 51.26984,87.1683 -3.655,-2.1075 -8.9188,5.1488 3.6525,2.1087 8.9212,-5.15"
     inkscape:connector-curvature="0"
     style="fill:#4f5831;fill-rule:nonzero" />
  <path
     id="path5276"
     d="m 38.69604,82.5683 0,7.9125 3.6525,2.1125 0,-7.9162 -3.6525,-2.1088"
     inkscape:connector-curvature="0"
     style="fill:#444c28;fill-rule:nonzero" />
  <path
     id="path5278"
     d="m 45.99984,82.5683 0,7.9125 -3.6512,2.1125 0,-7.9162 3.6512,-2.1088"
     inkscape:connector-curvature="0"
     style="fill:#2b3119;fill-rule:nonzero" />
  <path
     id="path5280"
     d="m 45.99984,82.5683 -3.655,-2.1062 -3.6488,2.1062 3.6525,2.1088 3.6512,-2.1088"
     inkscape:connector-curvature="0"
     style="fill:#4f5831;fill-rule:nonzero" />
  <path
     id="path5282"
     d="m 46.92983,32.2683 10e-4,13.906 12.076,6.9825 0,-13.915 -12.077,-6.9737"
     inkscape:connector-curvature="0"
     style="fill:#56a534;fill-rule:nonzero" />
  <path
     id="path5284"
     d="m 71.08654,32.2683 -0.001,13.906 -12.078,6.9825 0,-13.915 12.079,-6.9737"
     inkscape:connector-curvature="0"
     style="fill:#45762d;fill-rule:nonzero" />
  <path
     id="path5286"
     d="m 71.08654,32.2683 -12.088,-6.9675 -12.069,6.9675 12.077,6.9737 12.079,-6.9737"
     inkscape:connector-curvature="0"
     style="fill:#72c837;fill-rule:nonzero" />
  <path
     id="path5288"
     d="m 21.60354,42.3683 0.002,31.11 27.019,15.624 0,-31.134 -27.021,-15.6"
     inkscape:connector-curvature="0"
     style="fill:#56a534;fill-rule:nonzero" />
  <path
     id="path5290"
     d="m 75.64454,42.3683 -0.002,31.11 -27.017,15.624 0,-31.134 27.02,-15.6"
     inkscape:connector-curvature="0"
     style="fill:#45762d;fill-rule:nonzero" />
  <path
     id="path5292"
     d="m 75.64454,42.3683 -27.042,-15.588 -26.999,15.588 27.021,15.6 27.02,-15.6"
     inkscape:connector-curvature="0"
     style="fill:#72c837;fill-rule:nonzero" />
  <path
     id="path5294"
     d="m 17.79154,67.6683 10e-4,17.058 14.815,8.5662 0,-17.07 -14.816,-8.5537"
     inkscape:connector-curvature="0"
     style="fill:#56a534;fill-rule:nonzero" />
  <path
     id="path5296"
     d="m 47.42233,67.6683 -0.001,17.058 -14.814,8.5662 0,-17.07 14.815,-8.5537"
     inkscape:connector-curvature="0"
     style="fill:#45762d;fill-rule:nonzero" />
  <path
     id="path5298"
     d="m 47.42233,67.6683 -14.828,-8.5475 -14.804,8.5475 14.816,8.5537 14.815,-8.5537"
     inkscape:connector-curvature="0"
     style="fill:#72c837;fill-rule:nonzero" />
  <path
     id="path5300"
     d="m 51.15604,64.2683 0,19.34 16.795,9.7112 0,-19.354 -16.795,-9.6975"
     inkscape:connector-curvature="0"
     style="fill:#56a534;fill-rule:nonzero" />
  <path
     id="path5302"
     d="m 84.74854,64.2683 -0.002,19.34 -16.795,9.7112 0,-19.354 16.798,-9.6975"
     inkscape:connector-curvature="0"
     style="fill:#45762d;fill-rule:nonzero" />
  <path
     id="path5304"
     d="m 84.74854,64.2683 -16.811,-9.69 -16.782,9.69 16.796,9.6975 16.798,-9.6975"
     inkscape:connector-curvature="0"
     style="fill:#72c837;fill-rule:nonzero" />
  <path
     id="path5306"
     d="m 44.56984,74.9683 10e-4,7.5825 6.585,3.8075 0,-7.5875 -6.5862,-3.8025"
     inkscape:connector-curvature="0"
     style="fill:#56a534;fill-rule:nonzero" />
  <path
     id="path5308"
     d="m 57.74154,74.9683 0,7.5825 -6.585,3.8075 0,-7.5875 6.585,-3.8025"
     inkscape:connector-curvature="0"
     style="fill:#45762d;fill-rule:nonzero" />
  <path
     id="path5310"
     d="m 57.74154,74.9683 -6.5912,-3.7988 -6.58,3.7988 6.5862,3.8025 6.585,-3.8025"
     inkscape:connector-curvature="0"
     style="fill:#72c837;fill-rule:nonzero" />
  <path
     id="path5376"
     d="m 109.80354,52.3683 1.7975,-1.0363 1.7962,1.0363 -1.7975,1.0375 -1.7962,-1.0375"
     inkscape:connector-curvature="0"
     style="fill:#4f5831;fill-rule:nonzero" />
  <path
     id="path5378"
     d="m 117.78754,64.6683 0,2.0437 -1.7962,1.04 0,-2.0462 1.7962,-1.0375"
     inkscape:connector-curvature="0"
     style="fill:#2b3119;fill-rule:nonzero" />
  <path
     id="path5380"
     d="m 111.59954,63.1683 0,2.0437 4.3912,2.5375 0,-2.0462 -4.3912,-2.535"
     inkscape:connector-curvature="0"
     style="fill:#444c28;fill-rule:nonzero" />
  <path
     id="path5382"
     d="m 111.59954,63.1683 1.8,-1.0363 4.3875,2.5338 -1.7962,1.0375 -4.3912,-2.535"
     inkscape:connector-curvature="0"
     style="fill:#4f5831;fill-rule:nonzero" />
  <path
     id="path5384"
     d="m 117.78754,59.4683 0,5.3462 -1.7962,1.0388 0,-5.3475 1.7962,-1.0375"
     inkscape:connector-curvature="0"
     style="fill:#2b3119;fill-rule:nonzero" />
  <path
     id="path5386"
     d="m 114.19354,59.4683 0,5.3462 1.7975,1.0388 0,-5.3475 -1.7975,-1.0375"
     inkscape:connector-curvature="0"
     style="fill:#444c28;fill-rule:nonzero" />
  <path
     id="path5388"
     d="m 114.19354,59.4683 1.7988,-1.0375 1.795,1.0375 -1.7962,1.0375 -1.7975,-1.0375"
     inkscape:connector-curvature="0"
     style="fill:#4f5831;fill-rule:nonzero" />
  <path
     id="path5390"
     d="m 105.41254,61.3683 0,2.045 1.7975,1.0388 0,-2.0463 -1.7975,-1.0375"
     inkscape:connector-curvature="0"
     style="fill:#444c28;fill-rule:nonzero" />
  <path
     id="path5392"
     d="m 111.59954,59.8683 0,2.045 -4.39,2.5363 0,-2.0463 4.39,-2.535"
     inkscape:connector-curvature="0"
     style="fill:#2b3119;fill-rule:nonzero" />
  <path
     id="path5394"
     d="m 111.59954,59.8683 -1.7975,-1.0362 -4.39,2.5337 1.7975,1.0375 4.39,-2.535"
     inkscape:connector-curvature="0"
     style="fill:#4f5831;fill-rule:nonzero" />
  <path
     id="path5396"
     d="m 105.41254,57.5683 0,3.8938 1.7975,1.0387 0,-3.895 -1.7975,-1.0375"
     inkscape:connector-curvature="0"
     style="fill:#444c28;fill-rule:nonzero" />
  <path
     id="path5398"
     d="m 109.00754,57.5683 0,3.8938 -1.7975,1.0387 0,-3.895 1.7975,-1.0375"
     inkscape:connector-curvature="0"
     style="fill:#2b3119;fill-rule:nonzero" />
  <path
     id="path5400"
     d="m 109.00754,57.5683 -1.8,-1.0362 -1.795,1.0362 1.7975,1.0375 1.7975,-1.0375"
     inkscape:connector-curvature="0"
     style="fill:#4f5831;fill-rule:nonzero" />
  <path
     id="path5402"
     d="m 109.46454,32.8683 0,6.8437 5.9438,3.4363 0,-6.8475 -5.9438,-3.4325"
     inkscape:connector-curvature="0"
     style="fill:#56a534;fill-rule:nonzero" />
  <path
     id="path5404"
     d="m 121.35254,32.8683 -0.001,6.8437 -5.9425,3.4363 0,-6.8475 5.9438,-3.4325"
     inkscape:connector-curvature="0"
     style="fill:#45762d;fill-rule:nonzero" />
  <path
     id="path5406"
     d="m 121.35254,32.8683 -5.9488,-3.4288 -5.9388,3.4288 5.9438,3.4325 5.9438,-3.4325"
     inkscape:connector-curvature="0"
     style="fill:#72c837;fill-rule:nonzero" />
  <path
     id="path5408"
     d="m 97.00154,37.7683 10e-4,15.31 13.296,7.6875 0,-15.321 -13.298,-7.6762"
     inkscape:connector-curvature="0"
     style="fill:#56a534;fill-rule:nonzero" />
  <path
     id="path5410"
     d="m 123.59654,37.7683 -0.001,15.31 -13.296,7.6875 0,-15.321 13.298,-7.6762"
     inkscape:connector-curvature="0"
     style="fill:#45762d;fill-rule:nonzero" />
  <path
     id="path5412"
     d="m 123.59654,37.7683 -13.309,-7.6713 -13.286,7.6713 13.298,7.6762 13.298,-7.6762"
     inkscape:connector-curvature="0"
     style="fill:#72c837;fill-rule:nonzero" />
  <path
     id="path5414"
     d="m 95.12454,50.2683 0.001,8.395 7.29,4.215 0,-8.4013 -7.2912,-4.2087"
     inkscape:connector-curvature="0"
     style="fill:#56a534;fill-rule:nonzero" />
  <path
     id="path5416"
     d="m 109.70654,50.2683 0,8.395 -7.29,4.215 0,-8.4013 7.29,-4.2087"
     inkscape:connector-curvature="0"
     style="fill:#45762d;fill-rule:nonzero" />
  <path
     id="path5418"
     d="m 109.70654,50.2683 -7.2962,-4.2063 -7.285,4.2063 7.2912,4.2087 7.29,-4.2087"
     inkscape:connector-curvature="0"
     style="fill:#72c837;fill-rule:nonzero" />
  <path
     id="path5420"
     d="m 111.54354,48.5683 0,9.5162 8.2662,4.78 0,-9.5237 -8.2662,-4.7725"
     inkscape:connector-curvature="0"
     style="fill:#56a534;fill-rule:nonzero" />
  <path
     id="path5422"
     d="m 128.07654,48.5683 -0.001,9.5162 -8.265,4.78 0,-9.5237 8.2662,-4.7725"
     inkscape:connector-curvature="0"
     style="fill:#45762d;fill-rule:nonzero" />
  <path
     id="path5424"
     d="m 128.07654,48.5683 -8.2738,-4.7688 -8.2588,4.7688 8.2662,4.7725 8.2662,-4.7725"
     inkscape:connector-curvature="0"
     style="fill:#72c837;fill-rule:nonzero" />
  <path
     id="path5426"
     d="m 108.30254,53.8683 0,3.73 3.2412,1.875 0,-3.7338 -3.2412,-1.8712"
     inkscape:connector-curvature="0"
     style="fill:#56a534;fill-rule:nonzero" />
  <path
     id="path5428"
     d="m 114.78454,53.8683 0,3.73 -3.2412,1.875 0,-3.7338 3.2412,-1.8712"
     inkscape:connector-curvature="0"
     style="fill:#45762d;fill-rule:nonzero" />
  <path
     id="path5430"
     d="m 114.78454,53.8683 -3.2438,-1.87 -3.2388,1.87 3.2412,1.8712 3.2412,-1.8712"
     inkscape:connector-curvature="0"
     style="fill:#72c837;fill-rule:nonzero" />
  <path
     id="path10853"
     style="fill:#757c7f;fill-opacity:1;fill-rule:evenodd;stroke:none"
     d="m 102.49139,106.80988 -3.4e-4,46.53285 5.96754,-3.32547 0,-46.52946 -5.9672,3.32208 0,0"
     inkscape:connector-curvature="0" />
  <path
     id="path10855"
     style="fill:#a7abaa;fill-opacity:1;fill-rule:evenodd;stroke:none"
     d="m 96.52351,103.4878 5.96788,3.32208 -3.4e-4,46.53285 -5.96754,-3.32547 0,-46.52946"
     inkscape:connector-curvature="0" />
  <path
     id="path10857"
     style="fill:#c3c2c0;fill-opacity:1;fill-rule:evenodd;stroke:none"
     d="m 102.49139,100.16234 5.9672,3.32546 -5.9672,3.32208 -5.96788,-3.32208 5.96788,-3.32546 0,0"
     inkscape:connector-curvature="0" />
  <path
     inkscape:connector-curvature="0"
     d="m 5.875943,50.91033 -4.24e-4,46.52947 5.968216,-3.32208 0,-46.53285 -5.967877,3.32546 0,0"
     style="fill:#757c7f;fill-opacity:1;fill-rule:evenodd;stroke:none"
     id="path8527-6" />
  <path
     inkscape:connector-curvature="0"
     d="m -0.092615,47.58487 5.968558,3.32546 -4.24e-4,46.52947 -5.968219,-3.32208 0,-46.53285"
     style="fill:#a7abaa;fill-opacity:1;fill-rule:evenodd;stroke:none"
     id="path8529-1" />
  <path
     inkscape:connector-curvature="0"
     d="m 5.875943,44.2628 5.967877,3.32207 -5.967877,3.32546 -5.968558,-3.32546 5.968558,-3.32207 0,0"
     style="fill:#c3c2c0;fill-opacity:1;fill-rule:evenodd;stroke:none"
     id="path8531-8" />
  <path
     inkscape:connector-curvature="0"
     d="m 199.10656,50.91033 0,46.53286 5.96924,-3.32547 0,-46.53285 -5.96924,3.32546 0,0"
     style="fill:#757c7f;fill-opacity:1;fill-rule:evenodd;stroke:none"
     id="path8533-7" />
  <path
     inkscape:connector-curvature="0"
     d="m 193.13767,47.58487 5.96889,3.32546 0,46.53286 -5.96889,-3.32547 0,-46.53285"
     style="fill:#a7abaa;fill-opacity:1;fill-rule:evenodd;stroke:none"
     id="path8535-9" />
  <path
     inkscape:connector-curvature="0"
     d="m 199.10656,44.2628 5.96924,3.32207 -5.96924,3.32546 -5.96889,-3.32546 5.96889,-3.32207 0,0"
     style="fill:#c3c2c0;fill-opacity:1;fill-rule:evenodd;stroke:none"
     id="path8537-2" />
  <g
     transform="matrix(0.21195343,0,0,0.21195343,96.985504,-476.17619)"
     id="g10895">
    <g
       id="g10897">
      <path
         inkscape:connector-curvature="0"
         d="m 25.976859,2781.9018 c 13.843974,-7.7249 27.715136,-15.4657 41.615087,-23.2226 -4.023964,7.501 -8.111903,15.0019 -12.137467,22.4709 -4.023964,7.469 -8.111903,14.9699 -12.107079,22.4229 -5.823234,3.2467 -11.612881,6.4774 -17.37214,9.6921 0.0016,-5.2299 0.0016,-10.4598 0.0016,-15.6737 0,-5.2298 0,-10.4597 0,-15.6896 l 0,0"
         style="fill:#dce818;fill-opacity:1;fill-rule:evenodd;stroke:none"
         id="path10899" />
      <path
         inkscape:connector-curvature="0"
         d="m 67.591946,2758.6792 c 13.912746,-7.7248 27.788706,-15.4657 41.725444,-23.2225 -4.06235,7.4849 -8.15029,15.0019 -12.174254,22.4708 -4.025564,7.469 -8.113502,14.97 -12.139066,22.4389 -13.911147,7.7409 -27.787107,15.4817 -41.65667,23.2066 3.995176,-7.453 8.083115,-14.9539 12.107079,-22.4229 4.025564,-7.469 8.113503,-14.9699 12.137467,-22.4709 l 0,0"
         style="fill:#131112;fill-opacity:1;fill-rule:evenodd;stroke:none"
         id="path10901" />
      <path
         inkscape:connector-curvature="0"
         d="m 109.31739,2735.4567 c 13.89995,-7.7409 27.7999,-15.4817 41.71265,-23.2386 -4.06235,7.485 -8.1375,15.0019 -12.13747,22.4709 -4.01277,7.469 -8.1247,14.9699 -12.15026,22.4389 -13.93674,7.7568 -27.83669,15.4977 -41.73824,23.2385 4.025564,-7.4689 8.113502,-14.9699 12.139066,-22.4389 4.023964,-7.4689 8.111904,-14.9859 12.174254,-22.4708 l 0,0"
         style="fill:#dce818;fill-opacity:1;fill-rule:evenodd;stroke:none"
         id="path10903" />
      <path
         inkscape:connector-curvature="0"
         d="m 151.03004,2712.2181 c 13.89995,-7.7408 27.81269,-15.4977 41.73663,-23.2545 -4.04955,7.4849 -8.13589,15.0179 -12.16145,22.4868 -4.02557,7.469 -8.11351,14.97 -12.13747,22.4389 -13.93834,7.7569 -27.8127,15.4977 -41.72544,23.2386 4.02556,-7.469 8.13749,-14.9699 12.15026,-22.4389 3.99997,-7.469 8.07512,-14.9859 12.13747,-22.4709 l 0,0"
         style="fill:#131112;fill-opacity:1;fill-rule:evenodd;stroke:none"
         id="path10905" />
      <path
         inkscape:connector-curvature="0"
         d="m 192.76667,2688.9636 c 13.91275,-7.7569 27.85108,-15.4977 41.77503,-23.2706 -4.04956,7.501 -8.1247,15.0179 -12.16146,22.4869 -4.03836,7.485 -8.15029,14.9859 -12.17585,22.4709 -13.93674,7.7568 -27.83669,15.4977 -41.73664,23.2385 4.02396,-7.4689 8.1119,-14.9699 12.13747,-22.4389 4.02556,-7.4689 8.1119,-15.0019 12.16145,-22.4868 l 0,0"
         style="fill:#dce818;fill-opacity:1;fill-rule:evenodd;stroke:none"
         id="path10907" />
      <path
         inkscape:connector-curvature="0"
         d="m 234.5417,2665.693 c 13.91274,-7.7568 27.85108,-15.4977 41.78781,-23.2865 -4.06235,7.5169 -8.15029,15.0339 -12.17425,22.5029 -4.02556,7.4849 -8.13749,15.0019 -12.17585,22.4708 -13.92554,7.7729 -27.83669,15.5137 -41.77502,23.2706 4.02556,-7.485 8.13749,-14.9859 12.17585,-22.4709 4.03676,-7.469 8.1119,-14.9859 12.16146,-22.4869 l 0,0"
         style="fill:#131112;fill-opacity:1;fill-rule:evenodd;stroke:none"
         id="path10909" />
      <path
         inkscape:connector-curvature="0"
         d="m 276.32951,2642.4065 c 13.89995,-7.7409 27.83829,-15.5137 41.80061,-23.2865 -4.08793,7.5169 -8.17587,15.0338 -12.20144,22.5188 -4.02396,7.469 -8.1119,14.9859 -12.17425,22.4709 -13.92554,7.7728 -27.83669,15.5137 -41.77502,23.2705 4.03836,-7.4689 8.15029,-14.9859 12.17585,-22.4709 4.02396,-7.4689 8.1119,-14.9859 12.17425,-22.5028 l 0,0"
         style="fill:#dce818;fill-opacity:1;fill-rule:evenodd;stroke:none"
         id="path10911" />
      <path
         inkscape:connector-curvature="0"
         d="m 318.13012,2619.12 c 5.82484,-3.2467 11.67526,-6.4934 17.53688,-9.7401 0,5.2459 0,10.4758 0,15.7216 0,5.2299 0,10.4598 0,15.7056 -14.00071,7.7729 -27.97583,15.5457 -41.91257,23.3026 4.06235,-7.485 8.15029,-15.0019 12.17425,-22.4709 4.02557,-7.485 8.11351,-15.0019 12.20144,-22.5188 l 0,0"
         style="fill:#131112;fill-opacity:1;fill-rule:evenodd;stroke:none"
         id="path10913" />
    </g>
    <g
       id="g10915"
       transform="translate(250.66293,-139.5593)">
      <path
         id="path10917"
         style="fill:#131112;fill-opacity:1;fill-rule:evenodd;stroke:none"
         d="m 67.591946,2758.6792 c 13.912746,-7.7248 27.788706,-15.4657 41.725444,-23.2225 -4.06235,7.4849 -8.15029,15.0019 -12.174254,22.4708 -4.025564,7.469 -8.113502,14.97 -12.139066,22.4389 -13.911147,7.7409 -27.787107,15.4817 -41.65667,23.2066 3.995176,-7.453 8.083115,-14.9539 12.107079,-22.4229 4.025564,-7.469 8.113503,-14.9699 12.137467,-22.4709 l 0,0"
         inkscape:connector-curvature="0" />
      <path
         id="path10919"
         style="fill:#dce818;fill-opacity:1;fill-rule:evenodd;stroke:none"
         d="m 109.31739,2735.4567 c 13.89995,-7.7409 27.7999,-15.4817 41.71265,-23.2386 -4.06235,7.485 -8.1375,15.0019 -12.13747,22.4709 -4.01277,7.469 -8.1247,14.9699 -12.15026,22.4389 -13.93674,7.7568 -27.83669,15.4977 -41.73824,23.2385 4.025564,-7.4689 8.113502,-14.9699 12.139066,-22.4389 4.023964,-7.4689 8.111904,-14.9859 12.174254,-22.4708 l 0,0"
         inkscape:connector-curvature="0" />
      <path
         id="path10921"
         style="fill:#131112;fill-opacity:1;fill-rule:evenodd;stroke:none"
         d="m 151.03004,2712.2181 c 13.89995,-7.7408 27.81269,-15.4977 41.73663,-23.2545 -4.04955,7.4849 -8.13589,15.0179 -12.16145,22.4868 -4.02557,7.469 -8.11351,14.97 -12.13747,22.4389 -13.93834,7.7569 -27.8127,15.4977 -41.72544,23.2386 4.02556,-7.469 8.13749,-14.9699 12.15026,-22.4389 3.99997,-7.469 8.07512,-14.9859 12.13747,-22.4709 l 0,0"
         inkscape:connector-curvature="0" />
      <path
         id="path10923"
         style="fill:#dce818;fill-opacity:1;fill-rule:evenodd;stroke:none"
         d="m 192.76667,2688.9636 c 13.91275,-7.7569 27.85108,-15.4977 41.77503,-23.2706 -4.04956,7.501 -8.1247,15.0179 -12.16146,22.4869 -4.03836,7.485 -8.15029,14.9859 -12.17585,22.4709 -13.93674,7.7568 -27.83669,15.4977 -41.73664,23.2385 4.02396,-7.4689 8.1119,-14.9699 12.13747,-22.4389 4.02556,-7.4689 8.1119,-15.0019 12.16145,-22.4868 l 0,0"
         inkscape:connector-curvature="0" />
      <path
         id="path10925"
         style="fill:#131112;fill-opacity:1;fill-rule:evenodd;stroke:none"
         d="m 234.5417,2665.693 c 13.91274,-7.7568 7.65207,-3.1129 24.75872,-13.1133 -0.28918,8.8434 0.18341,19.5005 -0.0228,31.1145 -13.92554,7.7729 -35.13487,19.1997 -49.0732,26.9566 4.02556,-7.485 8.13749,-14.9859 12.17585,-22.4709 4.03676,-7.469 8.1119,-14.9859 12.16146,-22.4869 l 0,0"
         inkscape:connector-curvature="0"
         sodipodi:nodetypes="ccccccc" />
    </g>
  </g>
  <path
     sodipodi:nodetypes="cccscccccc"
     id="path10927"
     style="fill:#dce818;fill-opacity:1;fill-rule:evenodd;stroke:none"
     d="m 0.023362,60.42015 c 8.94453,4.98311 17.894144,9.96962 26.842742,14.95275 8.949276,4.98311 66.665161,33.09803 75.625286,38.08453 0,1.1085 -3.4e-4,2.217 -3.4e-4,3.32547 0,1.1051 0,2.2136 0,3.32209 C 93.531265,115.11847 35.816734,87.00017 26.86746,82.01704 17.918863,77.03393 8.964163,72.04743 0.026414,67.06769 c 0,-1.10849 -0.0011,-2.21697 -0.0011,-3.32207 -6.36e-4,-1.1085 -0.0021,-2.21699 -0.0021,-3.32547 l 0,0"
     inkscape:connector-curvature="0" />
</svg>
