<?xml version="1.0" encoding="UTF-8" standalone="no"?>
<!-- Created with Inkscape (http://www.inkscape.org/) -->

<svg
   xmlns:dc="http://purl.org/dc/elements/1.1/"
   xmlns:cc="http://creativecommons.org/ns#"
   xmlns:rdf="http://www.w3.org/1999/02/22-rdf-syntax-ns#"
   xmlns:svg="http://www.w3.org/2000/svg"
   xmlns="http://www.w3.org/2000/svg"
   xmlns:sodipodi="http://sodipodi.sourceforge.net/DTD/sodipodi-0.dtd"
   xmlns:inkscape="http://www.inkscape.org/namespaces/inkscape"
   id="svg6214"
   height="205"
   width="205"
   version="1.1"
   inkscape:version="0.48.5 r10040"
   sodipodi:docname="grass_4.svg">
  <defs
     id="defs107" />
  <sodipodi:namedview
     pagecolor="#ffffff"
     bordercolor="#666666"
     borderopacity="1"
     objecttolerance="10"
     gridtolerance="10"
     guidetolerance="10"
     inkscape:pageopacity="0"
     inkscape:pageshadow="2"
     inkscape:window-width="476"
     inkscape:window-height="1041"
     id="namedview105"
     showgrid="false"
     inkscape:zoom="2"
     inkscape:cx="114.05815"
     inkscape:cy="123.83958"
     inkscape:window-x="480"
     inkscape:window-y="18"
     inkscape:window-maximized="0"
     inkscape:current-layer="g6152"
     showguides="true"
     inkscape:guide-bbox="true">
    <sodipodi:guide
       orientation="0,1"
       position="-0.21875,59.289062"
       id="guide3295" />
    <sodipodi:guide
       orientation="1,0"
       position="102.49105,-5.4346034"
       id="guide3297" />
  </sodipodi:namedview>
  <metadata
     id="metadata6219">
    <rdf:RDF>
      <cc:Work
         rdf:about="">
        <dc:format>image/svg+xml</dc:format>
        <dc:type
           rdf:resource="http://purl.org/dc/dcmitype/StillImage" />
        <dc:title></dc:title>
      </cc:Work>
    </rdf:RDF>
  </metadata>
  <g
     id="g6152"
     transform="translate(610.80237,-1262.9667)">
    <path
       inkscape:connector-curvature="0"
       d="m -478.50907,1358.5741 0,18.4412 -1.7975,1.0388 0,-18.4425 1.7975,-1.0375"
       style="fill:#2b3119;fill-opacity:1;fill-rule:nonzero;stroke:none"
       id="path3569" />
    <path
       inkscape:connector-curvature="0"
       d="m -482.10282,1358.5741 0,18.4412 1.79625,1.0388 0,-18.4425 -1.79625,-1.0375"
       style="fill:#444c28;fill-opacity:1;fill-rule:nonzero;stroke:none"
       id="path3571" />
    <path
       inkscape:connector-curvature="0"
       d="m -482.10282,1358.5741 1.7975,-1.0363 1.79625,1.0363 -1.7975,1.0375 -1.79625,-1.0375"
       style="fill:#4f5831;fill-opacity:1;fill-rule:nonzero;stroke:none"
       id="path3573" />
    <path
       inkscape:connector-curvature="0"
       d="m -474.11907,1370.8316 0,2.0437 -1.79625,1.04 0,-2.0462 1.79625,-1.0375"
       style="fill:#2b3119;fill-opacity:1;fill-rule:nonzero;stroke:none"
       id="path3575" />
    <path
       inkscape:connector-curvature="0"
       d="m -480.30657,1369.3341 0,2.0437 4.39125,2.5375 0,-2.0462 -4.39125,-2.535"
       style="fill:#444c28;fill-opacity:1;fill-rule:nonzero;stroke:none"
       id="path3577" />
    <path
       inkscape:connector-curvature="0"
       d="m -480.30657,1369.3341 1.8,-1.0363 4.3875,2.5338 -1.79625,1.0375 -4.39125,-2.535"
       style="fill:#4f5831;fill-opacity:1;fill-rule:nonzero;stroke:none"
       id="path3579" />
    <path
       inkscape:connector-curvature="0"
       d="m -474.11907,1365.5916 0,5.3462 -1.79625,1.0388 0,-5.3475 1.79625,-1.0375"
       style="fill:#2b3119;fill-opacity:1;fill-rule:nonzero;stroke:none"
       id="path3581" />
    <path
       inkscape:connector-curvature="0"
       d="m -477.71282,1365.5916 0,5.3462 1.7975,1.0388 0,-5.3475 -1.7975,-1.0375"
       style="fill:#444c28;fill-opacity:1;fill-rule:nonzero;stroke:none"
       id="path3583" />
    <path
       inkscape:connector-curvature="0"
       d="m -477.71282,1365.5916 1.79875,-1.0375 1.795,1.0375 -1.79625,1.0375 -1.7975,-1.0375"
       style="fill:#4f5831;fill-opacity:1;fill-rule:nonzero;stroke:none"
       id="path3585" />
    <path
       inkscape:connector-curvature="0"
       d="m -486.49407,1367.4803 0,2.045 1.7975,1.0388 0,-2.0463 -1.7975,-1.0375"
       style="fill:#444c28;fill-opacity:1;fill-rule:nonzero;stroke:none"
       id="path3587" />
    <path
       inkscape:connector-curvature="0"
       d="m -480.30657,1365.9828 0,2.045 -4.39,2.5363 0,-2.0463 4.39,-2.535"
       style="fill:#2b3119;fill-opacity:1;fill-rule:nonzero;stroke:none"
       id="path3589" />
    <path
       inkscape:connector-curvature="0"
       d="m -480.30657,1365.9828 -1.7975,-1.0362 -4.39,2.5337 1.7975,1.0375 4.39,-2.535"
       style="fill:#4f5831;fill-opacity:1;fill-rule:nonzero;stroke:none"
       id="path3591" />
    <path
       inkscape:connector-curvature="0"
       d="m -486.49407,1363.6928 0,3.8938 1.7975,1.0387 0,-3.895 -1.7975,-1.0375"
       style="fill:#444c28;fill-opacity:1;fill-rule:nonzero;stroke:none"
       id="path3593" />
    <path
       inkscape:connector-curvature="0"
       d="m -482.89907,1363.6928 0,3.8938 -1.7975,1.0387 0,-3.895 1.7975,-1.0375"
       style="fill:#2b3119;fill-opacity:1;fill-rule:nonzero;stroke:none"
       id="path3595" />
    <path
       inkscape:connector-curvature="0"
       d="m -482.89907,1363.6928 -1.8,-1.0362 -1.795,1.0362 1.7975,1.0375 1.7975,-1.0375"
       style="fill:#4f5831;fill-opacity:1;fill-rule:nonzero;stroke:none"
       id="path3597" />
    <path
       inkscape:connector-curvature="0"
       d="m -482.44157,1338.9791 0,6.8437 5.94375,3.4363 0,-6.8475 -5.94375,-3.4325"
       style="fill:#56a534;fill-opacity:1;fill-rule:nonzero;stroke:none"
       id="path3599" />
    <path
       inkscape:connector-curvature="0"
       d="m -470.55407,1338.9791 -10e-4,6.8437 -5.9425,3.4363 0,-6.8475 5.94375,-3.4325"
       style="fill:#45762d;fill-opacity:1;fill-rule:nonzero;stroke:none"
       id="path3601" />
    <path
       inkscape:connector-curvature="0"
       d="m -470.55407,1338.9791 -5.94875,-3.4288 -5.93875,3.4288 5.94375,3.4325 5.94375,-3.4325"
       style="fill:#72c837;fill-opacity:1;fill-rule:nonzero;stroke:none"
       id="path3603" />
    <path
       inkscape:connector-curvature="0"
       d="m -494.90532,1343.9166 0.001,15.31 13.29625,7.6875 0,-15.3213 -13.2975,-7.6762"
       style="fill:#56a534;fill-opacity:1;fill-rule:nonzero;stroke:none"
       id="path3605" />
    <path
       inkscape:connector-curvature="0"
       d="m -468.31032,1343.9166 -0.001,15.31 -13.29625,7.6875 0,-15.3213 13.2975,-7.6762"
       style="fill:#45762d;fill-opacity:1;fill-rule:nonzero;stroke:none"
       id="path3607" />
    <path
       inkscape:connector-curvature="0"
       d="m -468.31032,1343.9166 -13.30875,-7.6713 -13.28625,7.6713 13.2975,7.6762 13.2975,-7.6762"
       style="fill:#72c837;fill-opacity:1;fill-rule:nonzero;stroke:none"
       id="path3609" />
    <path
       id="path17565"
       style="fill:#56a534;fill-opacity:1;fill-rule:nonzero;stroke:none"
       d="m -541.26157,1309.3841 10e-4,8.395 7.29,4.215 0,-8.4013 -7.29125,-4.2087"
       inkscape:connector-curvature="0" />
    <path
       inkscape:connector-curvature="0"
       d="m -496.78157,1356.3841 10e-4,8.395 7.29,4.215 0,-8.4013 -7.29125,-4.2087"
       style="fill:#56a534;fill-opacity:1;fill-rule:nonzero;stroke:none"
       id="path3611" />
    <path
       inkscape:connector-curvature="0"
       d="m -482.20032,1356.3841 0,8.395 -7.29,4.215 0,-8.4013 7.29,-4.2087"
       style="fill:#45762d;fill-opacity:1;fill-rule:nonzero;stroke:none"
       id="path3613" />
    <path
       id="path17569"
       style="fill:#72c837;fill-opacity:1;fill-rule:nonzero;stroke:none"
       d="m -526.68032,1309.3841 -7.29625,-4.2063 -7.285,4.2063 7.29125,4.2087 7.29,-4.2087"
       inkscape:connector-curvature="0" />
    <path
       inkscape:connector-curvature="0"
       d="m -482.20032,1356.3841 -7.29625,-4.2063 -7.285,4.2063 7.29125,4.2087 7.29,-4.2087"
       style="fill:#72c837;fill-opacity:1;fill-rule:nonzero;stroke:none"
       id="path3615" />
    <path
       inkscape:connector-curvature="0"
       d="m -480.36282,1354.7066 0,9.5162 8.26625,4.78 0,-9.5237 -8.26625,-4.7725"
       style="fill:#56a534;fill-opacity:1;fill-rule:nonzero;stroke:none"
       id="path3617" />
    <path
       inkscape:connector-curvature="0"
       d="m -463.83032,1354.7066 -0.001,9.5162 -8.265,4.78 0,-9.5237 8.26625,-4.7725"
       style="fill:#45762d;fill-opacity:1;fill-rule:nonzero;stroke:none"
       id="path3619" />
    <path
       inkscape:connector-curvature="0"
       d="m -463.83032,1354.7066 -8.27375,-4.7688 -8.25875,4.7688 8.26625,4.7725 8.26625,-4.7725"
       style="fill:#72c837;fill-opacity:1;fill-rule:nonzero;stroke:none"
       id="path3621" />
    <path
       inkscape:connector-curvature="0"
       d="m -483.60407,1359.9866 0,3.73 3.24125,1.875 0,-3.7338 -3.24125,-1.8712"
       style="fill:#56a534;fill-opacity:1;fill-rule:nonzero;stroke:none"
       id="path3623" />
    <path
       inkscape:connector-curvature="0"
       d="m -477.12157,1359.9866 0,3.73 -3.24125,1.875 0,-3.7338 3.24125,-1.8712"
       style="fill:#45762d;fill-opacity:1;fill-rule:nonzero;stroke:none"
       id="path3625" />
    <path
       inkscape:connector-curvature="0"
       d="m -477.12157,1359.9866 -3.24375,-1.87 -3.23875,1.87 3.24125,1.8712 3.24125,-1.8712"
       style="fill:#72c837;fill-opacity:1;fill-rule:nonzero;stroke:none"
       id="path3627" />
    <g
       id="g10643"
       transform="translate(-528.10742,1134.6268)">
      <path
         sodipodi:nodetypes="cccscccccc"
         id="path8555-2"
         style="fill:#dce818;fill-opacity:1;fill-rule:evenodd;stroke:none"
         d="m 19.91101,131.76972 c 8.94453,4.98311 17.89414,9.96961 26.84274,14.95274 8.94928,4.98311 66.66516,33.09803 75.62529,38.08454 0,1.10849 -4.3e-4,2.21699 -4.3e-4,3.32546 0,1.1051 0,2.2136 0,3.32209 -8.95978,-4.98652 -66.67431,-33.10481 -75.62359,-38.08794 -8.9486,-4.98311 -17.90329,-9.96961 -26.84104,-14.94935 0,-1.1085 -10e-4,-2.21697 -10e-4,-3.32208 -6.4e-4,-1.10849 -0.002,-2.21699 -0.002,-3.32546 l 0,0"
         inkscape:connector-curvature="0" />
      <g
         transform="matrix(0.21195343,0,0,0.21195343,-88.177466,-400.87357)"
         id="g10878">
        <g
           id="g10835">
          <path
             inkscape:connector-curvature="0"
             d="m 25.976859,2781.9018 c 13.843974,-7.7249 27.715136,-15.4657 41.615087,-23.2226 -4.023964,7.501 -8.111903,15.0019 -12.137467,22.4709 -4.023964,7.469 -8.111903,14.9699 -12.107079,22.4229 -5.823234,3.2467 -11.612881,6.4774 -17.37214,9.6921 0.0016,-5.2299 0.0016,-10.4598 0.0016,-15.6737 0,-5.2298 0,-10.4597 0,-15.6896 l 0,0"
             style="fill:#dce818;fill-opacity:1;fill-rule:evenodd;stroke:none"
             id="path10837" />
          <path
             inkscape:connector-curvature="0"
             d="m 67.591946,2758.6792 c 13.912746,-7.7248 27.788706,-15.4657 41.725444,-23.2225 -4.06235,7.4849 -8.15029,15.0019 -12.174254,22.4708 -4.025564,7.469 -8.113502,14.97 -12.139066,22.4389 -13.911147,7.7409 -27.787107,15.4817 -41.65667,23.2066 3.995176,-7.453 8.083115,-14.9539 12.107079,-22.4229 4.025564,-7.469 8.113503,-14.9699 12.137467,-22.4709 l 0,0"
             style="fill:#131112;fill-opacity:1;fill-rule:evenodd;stroke:none"
             id="path10839" />
          <path
             inkscape:connector-curvature="0"
             d="m 109.31739,2735.4567 c 13.89995,-7.7409 27.7999,-15.4817 41.71265,-23.2386 -4.06235,7.485 -8.1375,15.0019 -12.13747,22.4709 -4.01277,7.469 -8.1247,14.9699 -12.15026,22.4389 -13.93674,7.7568 -27.83669,15.4977 -41.73824,23.2385 4.025564,-7.4689 8.113502,-14.9699 12.139066,-22.4389 4.023964,-7.4689 8.111904,-14.9859 12.174254,-22.4708 l 0,0"
             style="fill:#dce818;fill-opacity:1;fill-rule:evenodd;stroke:none"
             id="path10841" />
          <path
             inkscape:connector-curvature="0"
             d="m 151.03004,2712.2181 c 13.89995,-7.7408 27.81269,-15.4977 41.73663,-23.2545 -4.04955,7.4849 -8.13589,15.0179 -12.16145,22.4868 -4.02557,7.469 -8.11351,14.97 -12.13747,22.4389 -13.93834,7.7569 -27.8127,15.4977 -41.72544,23.2386 4.02556,-7.469 8.13749,-14.9699 12.15026,-22.4389 3.99997,-7.469 8.07512,-14.9859 12.13747,-22.4709 l 0,0"
             style="fill:#131112;fill-opacity:1;fill-rule:evenodd;stroke:none"
             id="path10843" />
          <path
             inkscape:connector-curvature="0"
             d="m 192.76667,2688.9636 c 13.91275,-7.7569 27.85108,-15.4977 41.77503,-23.2706 -4.04956,7.501 -8.1247,15.0179 -12.16146,22.4869 -4.03836,7.485 -8.15029,14.9859 -12.17585,22.4709 -13.93674,7.7568 -27.83669,15.4977 -41.73664,23.2385 4.02396,-7.4689 8.1119,-14.9699 12.13747,-22.4389 4.02556,-7.4689 8.1119,-15.0019 12.16145,-22.4868 l 0,0"
             style="fill:#dce818;fill-opacity:1;fill-rule:evenodd;stroke:none"
             id="path10845" />
          <path
             inkscape:connector-curvature="0"
             d="m 234.5417,2665.693 c 13.91274,-7.7568 27.85108,-15.4977 41.78781,-23.2865 -4.06235,7.5169 -8.15029,15.0339 -12.17425,22.5029 -4.02556,7.4849 -8.13749,15.0019 -12.17585,22.4708 -13.92554,7.7729 -27.83669,15.5137 -41.77502,23.2706 4.02556,-7.485 8.13749,-14.9859 12.17585,-22.4709 4.03676,-7.469 8.1119,-14.9859 12.16146,-22.4869 l 0,0"
             style="fill:#131112;fill-opacity:1;fill-rule:evenodd;stroke:none"
             id="path10847" />
          <path
             inkscape:connector-curvature="0"
             d="m 276.32951,2642.4065 c 13.89995,-7.7409 27.83829,-15.5137 41.80061,-23.2865 -4.08793,7.5169 -8.17587,15.0338 -12.20144,22.5188 -4.02396,7.469 -8.1119,14.9859 -12.17425,22.4709 -13.92554,7.7728 -27.83669,15.5137 -41.77502,23.2705 4.03836,-7.4689 8.15029,-14.9859 12.17585,-22.4709 4.02396,-7.4689 8.1119,-14.9859 12.17425,-22.5028 l 0,0"
             style="fill:#dce818;fill-opacity:1;fill-rule:evenodd;stroke:none"
             id="path10849" />
          <path
             inkscape:connector-curvature="0"
             d="m 318.13012,2619.12 c 5.82484,-3.2467 11.67526,-6.4934 17.53688,-9.7401 0,5.2459 0,10.4758 0,15.7216 0,5.2299 0,10.4598 0,15.7056 -14.00071,7.7729 -27.97583,15.5457 -41.91257,23.3026 4.06235,-7.485 8.15029,-15.0019 12.17425,-22.4709 4.02557,-7.485 8.11351,-15.0019 12.20144,-22.5188 l 0,0"
             style="fill:#131112;fill-opacity:1;fill-rule:evenodd;stroke:none"
             id="path10851" />
        </g>
        <g
           id="g10825"
           transform="translate(250.66293,-139.5593)">
          <path
             id="path8541-7"
             style="fill:#131112;fill-opacity:1;fill-rule:evenodd;stroke:none"
             d="m 67.591946,2758.6792 c 13.912746,-7.7248 27.788706,-15.4657 41.725444,-23.2225 -4.06235,7.4849 -8.15029,15.0019 -12.174254,22.4708 -4.025564,7.469 -8.113502,14.97 -12.139066,22.4389 -13.911147,7.7409 -27.787107,15.4817 -41.65667,23.2066 3.995176,-7.453 8.083115,-14.9539 12.107079,-22.4229 4.025564,-7.469 8.113503,-14.9699 12.137467,-22.4709 l 0,0"
             inkscape:connector-curvature="0" />
          <path
             id="path8543-0"
             style="fill:#dce818;fill-opacity:1;fill-rule:evenodd;stroke:none"
             d="m 109.31739,2735.4567 c 13.89995,-7.7409 27.7999,-15.4817 41.71265,-23.2386 -4.06235,7.485 -8.1375,15.0019 -12.13747,22.4709 -4.01277,7.469 -8.1247,14.9699 -12.15026,22.4389 -13.93674,7.7568 -27.83669,15.4977 -41.73824,23.2385 4.025564,-7.4689 8.113502,-14.9699 12.139066,-22.4389 4.023964,-7.4689 8.111904,-14.9859 12.174254,-22.4708 l 0,0"
             inkscape:connector-curvature="0" />
          <path
             id="path8545-9"
             style="fill:#131112;fill-opacity:1;fill-rule:evenodd;stroke:none"
             d="m 151.03004,2712.2181 c 13.89995,-7.7408 27.81269,-15.4977 41.73663,-23.2545 -4.04955,7.4849 -8.13589,15.0179 -12.16145,22.4868 -4.02557,7.469 -8.11351,14.97 -12.13747,22.4389 -13.93834,7.7569 -27.8127,15.4977 -41.72544,23.2386 4.02556,-7.469 8.13749,-14.9699 12.15026,-22.4389 3.99997,-7.469 8.07512,-14.9859 12.13747,-22.4709 l 0,0"
             inkscape:connector-curvature="0" />
          <path
             id="path8547-3"
             style="fill:#dce818;fill-opacity:1;fill-rule:evenodd;stroke:none"
             d="m 192.76667,2688.9636 c 13.91275,-7.7569 27.85108,-15.4977 41.77503,-23.2706 -4.04956,7.501 -8.1247,15.0179 -12.16146,22.4869 -4.03836,7.485 -8.15029,14.9859 -12.17585,22.4709 -13.93674,7.7568 -27.83669,15.4977 -41.73664,23.2385 4.02396,-7.4689 8.1119,-14.9699 12.13747,-22.4389 4.02556,-7.4689 8.1119,-15.0019 12.16145,-22.4868 l 0,0"
             inkscape:connector-curvature="0" />
          <path
             id="path8549-6"
             style="fill:#131112;fill-opacity:1;fill-rule:evenodd;stroke:none"
             d="m 234.5417,2665.693 c 13.91274,-7.7568 7.65207,-3.1129 24.75872,-13.1133 -0.28918,8.8434 0.18341,19.5005 -0.0228,31.1145 -13.92554,7.7729 -35.13487,19.1997 -49.0732,26.9566 4.02556,-7.485 8.13749,-14.9859 12.17585,-22.4709 4.03676,-7.469 8.1119,-14.9859 12.16146,-22.4869 l 0,0"
             inkscape:connector-curvature="0"
             sodipodi:nodetypes="ccccccc" />
        </g>
      </g>
      <path
         inkscape:connector-curvature="0"
         d="m 19.79644,235.14978 -3.4e-4,46.53285 5.96754,-3.32547 0,-46.52946 -5.9672,3.32208 0,0"
         style="fill:#757c7f;fill-opacity:1;fill-rule:evenodd;stroke:none"
         id="path10853" />
      <path
         id="path8521-0"
         style="fill:#757c7f;fill-opacity:1;fill-rule:evenodd;stroke:none"
         d="m 19.75821,123.6512 -3.4e-4,46.53285 5.96754,-3.32546 0,-46.52946 -5.9672,3.32207 0,0"
         inkscape:connector-curvature="0" />
      <path
         inkscape:connector-curvature="0"
         d="m 13.82856,231.8277 5.96788,3.32208 -3.4e-4,46.53285 -5.96754,-3.32547 0,-46.52946"
         style="fill:#a7abaa;fill-opacity:1;fill-rule:evenodd;stroke:none"
         id="path10855" />
      <path
         id="path8523-6"
         style="fill:#a7abaa;fill-opacity:1;fill-rule:evenodd;stroke:none"
         d="m 13.79033,120.32913 5.96788,3.32207 -3.4e-4,46.53285 -5.96754,-3.32546 0,-46.52946"
         inkscape:connector-curvature="0" />
      <path
         inkscape:connector-curvature="0"
         d="m 19.79644,228.50224 5.9672,3.32546 -5.9672,3.32208 -5.96788,-3.32208 5.96788,-3.32546 0,0"
         style="fill:#c3c2c0;fill-opacity:1;fill-rule:evenodd;stroke:none"
         id="path10857" />
      <path
         id="path8525-2"
         style="fill:#c3c2c0;fill-opacity:1;fill-rule:evenodd;stroke:none"
         d="m 19.75821,117.00367 5.9672,3.32546 -5.9672,3.32207 -5.96788,-3.32207 5.96788,-3.32546 0,0"
         inkscape:connector-curvature="0" />
      <path
         id="path8527-6"
         style="fill:#757c7f;fill-opacity:1;fill-rule:evenodd;stroke:none"
         d="m -76.819007,179.25023 -4.24e-4,46.52947 5.968216,-3.32208 0,-46.53285 -5.967877,3.32546 0,0"
         inkscape:connector-curvature="0" />
      <path
         id="path8529-1"
         style="fill:#a7abaa;fill-opacity:1;fill-rule:evenodd;stroke:none"
         d="m -82.787565,175.92477 5.968558,3.32546 -4.24e-4,46.52947 -5.968219,-3.32208 0,-46.53285"
         inkscape:connector-curvature="0" />
      <path
         id="path8531-8"
         style="fill:#c3c2c0;fill-opacity:1;fill-rule:evenodd;stroke:none"
         d="m -76.819007,172.6027 5.967877,3.32207 -5.967877,3.32546 -5.968558,-3.32546 5.968558,-3.32207 0,0"
         inkscape:connector-curvature="0" />
      <path
         id="path8533-7"
         style="fill:#757c7f;fill-opacity:1;fill-rule:evenodd;stroke:none"
         d="m 116.41161,179.25023 0,46.53286 5.96924,-3.32547 0,-46.53285 -5.96924,3.32546 0,0"
         inkscape:connector-curvature="0" />
      <path
         id="path8535-9"
         style="fill:#a7abaa;fill-opacity:1;fill-rule:evenodd;stroke:none"
         d="m 110.44272,175.92477 5.96889,3.32546 0,46.53286 -5.96889,-3.32547 0,-46.53285"
         inkscape:connector-curvature="0" />
      <path
         id="path8537-2"
         style="fill:#c3c2c0;fill-opacity:1;fill-rule:evenodd;stroke:none"
         d="m 116.41161,172.6027 5.96924,3.32207 -5.96924,3.32546 -5.96889,-3.32546 5.96889,-3.32207 0,0"
         inkscape:connector-curvature="0" />
      <g
         id="g10895"
         transform="matrix(0.21195343,0,0,0.21195343,14.290554,-347.83629)">
        <g
           id="g10897">
          <path
             id="path10899"
             style="fill:#dce818;fill-opacity:1;fill-rule:evenodd;stroke:none"
             d="m 25.976859,2781.9018 c 13.843974,-7.7249 27.715136,-15.4657 41.615087,-23.2226 -4.023964,7.501 -8.111903,15.0019 -12.137467,22.4709 -4.023964,7.469 -8.111903,14.9699 -12.107079,22.4229 -5.823234,3.2467 -11.612881,6.4774 -17.37214,9.6921 0.0016,-5.2299 0.0016,-10.4598 0.0016,-15.6737 0,-5.2298 0,-10.4597 0,-15.6896 l 0,0"
             inkscape:connector-curvature="0" />
          <path
             id="path10901"
             style="fill:#131112;fill-opacity:1;fill-rule:evenodd;stroke:none"
             d="m 67.591946,2758.6792 c 13.912746,-7.7248 27.788706,-15.4657 41.725444,-23.2225 -4.06235,7.4849 -8.15029,15.0019 -12.174254,22.4708 -4.025564,7.469 -8.113502,14.97 -12.139066,22.4389 -13.911147,7.7409 -27.787107,15.4817 -41.65667,23.2066 3.995176,-7.453 8.083115,-14.9539 12.107079,-22.4229 4.025564,-7.469 8.113503,-14.9699 12.137467,-22.4709 l 0,0"
             inkscape:connector-curvature="0" />
          <path
             id="path10903"
             style="fill:#dce818;fill-opacity:1;fill-rule:evenodd;stroke:none"
             d="m 109.31739,2735.4567 c 13.89995,-7.7409 27.7999,-15.4817 41.71265,-23.2386 -4.06235,7.485 -8.1375,15.0019 -12.13747,22.4709 -4.01277,7.469 -8.1247,14.9699 -12.15026,22.4389 -13.93674,7.7568 -27.83669,15.4977 -41.73824,23.2385 4.025564,-7.4689 8.113502,-14.9699 12.139066,-22.4389 4.023964,-7.4689 8.111904,-14.9859 12.174254,-22.4708 l 0,0"
             inkscape:connector-curvature="0" />
          <path
             id="path10905"
             style="fill:#131112;fill-opacity:1;fill-rule:evenodd;stroke:none"
             d="m 151.03004,2712.2181 c 13.89995,-7.7408 27.81269,-15.4977 41.73663,-23.2545 -4.04955,7.4849 -8.13589,15.0179 -12.16145,22.4868 -4.02557,7.469 -8.11351,14.97 -12.13747,22.4389 -13.93834,7.7569 -27.8127,15.4977 -41.72544,23.2386 4.02556,-7.469 8.13749,-14.9699 12.15026,-22.4389 3.99997,-7.469 8.07512,-14.9859 12.13747,-22.4709 l 0,0"
             inkscape:connector-curvature="0" />
          <path
             id="path10907"
             style="fill:#dce818;fill-opacity:1;fill-rule:evenodd;stroke:none"
             d="m 192.76667,2688.9636 c 13.91275,-7.7569 27.85108,-15.4977 41.77503,-23.2706 -4.04956,7.501 -8.1247,15.0179 -12.16146,22.4869 -4.03836,7.485 -8.15029,14.9859 -12.17585,22.4709 -13.93674,7.7568 -27.83669,15.4977 -41.73664,23.2385 4.02396,-7.4689 8.1119,-14.9699 12.13747,-22.4389 4.02556,-7.4689 8.1119,-15.0019 12.16145,-22.4868 l 0,0"
             inkscape:connector-curvature="0" />
          <path
             id="path10909"
             style="fill:#131112;fill-opacity:1;fill-rule:evenodd;stroke:none"
             d="m 234.5417,2665.693 c 13.91274,-7.7568 27.85108,-15.4977 41.78781,-23.2865 -4.06235,7.5169 -8.15029,15.0339 -12.17425,22.5029 -4.02556,7.4849 -8.13749,15.0019 -12.17585,22.4708 -13.92554,7.7729 -27.83669,15.5137 -41.77502,23.2706 4.02556,-7.485 8.13749,-14.9859 12.17585,-22.4709 4.03676,-7.469 8.1119,-14.9859 12.16146,-22.4869 l 0,0"
             inkscape:connector-curvature="0" />
          <path
             id="path10911"
             style="fill:#dce818;fill-opacity:1;fill-rule:evenodd;stroke:none"
             d="m 276.32951,2642.4065 c 13.89995,-7.7409 27.83829,-15.5137 41.80061,-23.2865 -4.08793,7.5169 -8.17587,15.0338 -12.20144,22.5188 -4.02396,7.469 -8.1119,14.9859 -12.17425,22.4709 -13.92554,7.7728 -27.83669,15.5137 -41.77502,23.2705 4.03836,-7.4689 8.15029,-14.9859 12.17585,-22.4709 4.02396,-7.4689 8.1119,-14.9859 12.17425,-22.5028 l 0,0"
             inkscape:connector-curvature="0" />
          <path
             id="path10913"
             style="fill:#131112;fill-opacity:1;fill-rule:evenodd;stroke:none"
             d="m 318.13012,2619.12 c 5.82484,-3.2467 11.67526,-6.4934 17.53688,-9.7401 0,5.2459 0,10.4758 0,15.7216 0,5.2299 0,10.4598 0,15.7056 -14.00071,7.7729 -27.97583,15.5457 -41.91257,23.3026 4.06235,-7.485 8.15029,-15.0019 12.17425,-22.4709 4.02557,-7.485 8.11351,-15.0019 12.20144,-22.5188 l 0,0"
             inkscape:connector-curvature="0" />
        </g>
        <g
           transform="translate(250.66293,-139.5593)"
           id="g10915">
          <path
             inkscape:connector-curvature="0"
             d="m 67.591946,2758.6792 c 13.912746,-7.7248 27.788706,-15.4657 41.725444,-23.2225 -4.06235,7.4849 -8.15029,15.0019 -12.174254,22.4708 -4.025564,7.469 -8.113502,14.97 -12.139066,22.4389 -13.911147,7.7409 -27.787107,15.4817 -41.65667,23.2066 3.995176,-7.453 8.083115,-14.9539 12.107079,-22.4229 4.025564,-7.469 8.113503,-14.9699 12.137467,-22.4709 l 0,0"
             style="fill:#131112;fill-opacity:1;fill-rule:evenodd;stroke:none"
             id="path10917" />
          <path
             inkscape:connector-curvature="0"
             d="m 109.31739,2735.4567 c 13.89995,-7.7409 27.7999,-15.4817 41.71265,-23.2386 -4.06235,7.485 -8.1375,15.0019 -12.13747,22.4709 -4.01277,7.469 -8.1247,14.9699 -12.15026,22.4389 -13.93674,7.7568 -27.83669,15.4977 -41.73824,23.2385 4.025564,-7.4689 8.113502,-14.9699 12.139066,-22.4389 4.023964,-7.4689 8.111904,-14.9859 12.174254,-22.4708 l 0,0"
             style="fill:#dce818;fill-opacity:1;fill-rule:evenodd;stroke:none"
             id="path10919" />
          <path
             inkscape:connector-curvature="0"
             d="m 151.03004,2712.2181 c 13.89995,-7.7408 27.81269,-15.4977 41.73663,-23.2545 -4.04955,7.4849 -8.13589,15.0179 -12.16145,22.4868 -4.02557,7.469 -8.11351,14.97 -12.13747,22.4389 -13.93834,7.7569 -27.8127,15.4977 -41.72544,23.2386 4.02556,-7.469 8.13749,-14.9699 12.15026,-22.4389 3.99997,-7.469 8.07512,-14.9859 12.13747,-22.4709 l 0,0"
             style="fill:#131112;fill-opacity:1;fill-rule:evenodd;stroke:none"
             id="path10921" />
          <path
             inkscape:connector-curvature="0"
             d="m 192.76667,2688.9636 c 13.91275,-7.7569 27.85108,-15.4977 41.77503,-23.2706 -4.04956,7.501 -8.1247,15.0179 -12.16146,22.4869 -4.03836,7.485 -8.15029,14.9859 -12.17585,22.4709 -13.93674,7.7568 -27.83669,15.4977 -41.73664,23.2385 4.02396,-7.4689 8.1119,-14.9699 12.13747,-22.4389 4.02556,-7.4689 8.1119,-15.0019 12.16145,-22.4868 l 0,0"
             style="fill:#dce818;fill-opacity:1;fill-rule:evenodd;stroke:none"
             id="path10923" />
          <path
             sodipodi:nodetypes="ccccccc"
             inkscape:connector-curvature="0"
             d="m 234.5417,2665.693 c 13.91274,-7.7568 7.65207,-3.1129 24.75872,-13.1133 -0.28918,8.8434 0.18341,19.5005 -0.0228,31.1145 -13.92554,7.7729 -35.13487,19.1997 -49.0732,26.9566 4.02556,-7.485 8.13749,-14.9859 12.17585,-22.4709 4.03676,-7.469 8.1119,-14.9859 12.16146,-22.4869 l 0,0"
             style="fill:#131112;fill-opacity:1;fill-rule:evenodd;stroke:none"
             id="path10925" />
        </g>
      </g>
      <path
         inkscape:connector-curvature="0"
         d="m -82.671588,188.76005 c 8.94453,4.98311 17.894144,9.96962 26.842742,14.95275 8.949276,4.98311 66.665161,33.09803 75.625286,38.08453 0,1.1085 -3.4e-4,2.217 -3.4e-4,3.32547 0,1.1051 0,2.2136 0,3.32209 -8.959785,-4.98652 -66.674316,-33.10482 -75.62359,-38.08795 -8.948597,-4.98311 -17.903297,-9.96961 -26.841046,-14.94935 0,-1.10849 -0.0011,-2.21697 -0.0011,-3.32207 -6.36e-4,-1.1085 -0.0021,-2.21699 -0.0021,-3.32547 l 0,0"
         style="fill:#dce818;fill-opacity:1;fill-rule:evenodd;stroke:none"
         id="path10927"
         sodipodi:nodetypes="cccscccccc" />
    </g>
    <path
       id="path17523"
       style="fill:#2b3119;fill-opacity:1;fill-rule:nonzero;stroke:none"
       d="m -522.98907,1311.5741 0,18.4412 -1.7975,1.0388 0,-18.4425 1.7975,-1.0375"
       inkscape:connector-curvature="0" />
    <path
       id="path17525"
       style="fill:#444c28;fill-opacity:1;fill-rule:nonzero;stroke:none"
       d="m -526.58282,1311.5741 0,18.4412 1.79625,1.0388 0,-18.4425 -1.79625,-1.0375"
       inkscape:connector-curvature="0" />
    <path
       id="path17527"
       style="fill:#4f5831;fill-opacity:1;fill-rule:nonzero;stroke:none"
       d="m -526.58282,1311.5741 1.7975,-1.0363 1.79625,1.0363 -1.7975,1.0375 -1.79625,-1.0375"
       inkscape:connector-curvature="0" />
    <path
       id="path17529"
       style="fill:#2b3119;fill-opacity:1;fill-rule:nonzero;stroke:none"
       d="m -518.59907,1323.8316 0,2.0437 -1.79625,1.04 0,-2.0462 1.79625,-1.0375"
       inkscape:connector-curvature="0" />
    <path
       id="path17531"
       style="fill:#444c28;fill-opacity:1;fill-rule:nonzero;stroke:none"
       d="m -524.78657,1322.3341 0,2.0437 4.39125,2.5375 0,-2.0462 -4.39125,-2.535"
       inkscape:connector-curvature="0" />
    <path
       id="path17533"
       style="fill:#4f5831;fill-opacity:1;fill-rule:nonzero;stroke:none"
       d="m -524.78657,1322.3341 1.8,-1.0363 4.3875,2.5338 -1.79625,1.0375 -4.39125,-2.535"
       inkscape:connector-curvature="0" />
    <path
       id="path17535"
       style="fill:#2b3119;fill-opacity:1;fill-rule:nonzero;stroke:none"
       d="m -518.59907,1318.5916 0,5.3462 -1.79625,1.0388 0,-5.3475 1.79625,-1.0375"
       inkscape:connector-curvature="0" />
    <path
       id="path17537"
       style="fill:#444c28;fill-opacity:1;fill-rule:nonzero;stroke:none"
       d="m -522.19282,1318.5916 0,5.3462 1.7975,1.0388 0,-5.3475 -1.7975,-1.0375"
       inkscape:connector-curvature="0" />
    <path
       id="path17539"
       style="fill:#4f5831;fill-opacity:1;fill-rule:nonzero;stroke:none"
       d="m -522.19282,1318.5916 1.79875,-1.0375 1.795,1.0375 -1.79625,1.0375 -1.7975,-1.0375"
       inkscape:connector-curvature="0" />
    <path
       id="path17541"
       style="fill:#444c28;fill-opacity:1;fill-rule:nonzero;stroke:none"
       d="m -530.97407,1320.4803 0,2.045 1.7975,1.0388 0,-2.0463 -1.7975,-1.0375"
       inkscape:connector-curvature="0" />
    <path
       id="path17543"
       style="fill:#2b3119;fill-opacity:1;fill-rule:nonzero;stroke:none"
       d="m -524.78657,1318.9828 0,2.045 -4.39,2.5363 0,-2.0463 4.39,-2.535"
       inkscape:connector-curvature="0" />
    <path
       id="path17545"
       style="fill:#4f5831;fill-opacity:1;fill-rule:nonzero;stroke:none"
       d="m -524.78657,1318.9828 -1.7975,-1.0362 -4.39,2.5337 1.7975,1.0375 4.39,-2.535"
       inkscape:connector-curvature="0" />
    <path
       id="path17547"
       style="fill:#444c28;fill-opacity:1;fill-rule:nonzero;stroke:none"
       d="m -530.97407,1316.6928 0,3.8938 1.7975,1.0387 0,-3.895 -1.7975,-1.0375"
       inkscape:connector-curvature="0" />
    <path
       id="path17549"
       style="fill:#2b3119;fill-opacity:1;fill-rule:nonzero;stroke:none"
       d="m -527.37907,1316.6928 0,3.8938 -1.7975,1.0387 0,-3.895 1.7975,-1.0375"
       inkscape:connector-curvature="0" />
    <path
       id="path17551"
       style="fill:#4f5831;fill-opacity:1;fill-rule:nonzero;stroke:none"
       d="m -527.37907,1316.6928 -1.8,-1.0362 -1.795,1.0362 1.7975,1.0375 1.7975,-1.0375"
       inkscape:connector-curvature="0" />
    <path
       id="path17553"
       style="fill:#56a534;fill-opacity:1;fill-rule:nonzero;stroke:none"
       d="m -526.92157,1291.9791 0,6.8437 5.94375,3.4363 0,-6.8475 -5.94375,-3.4325"
       inkscape:connector-curvature="0" />
    <path
       id="path17555"
       style="fill:#45762d;fill-opacity:1;fill-rule:nonzero;stroke:none"
       d="m -515.03407,1291.9791 -10e-4,6.8437 -5.9425,3.4363 0,-6.8475 5.94375,-3.4325"
       inkscape:connector-curvature="0" />
    <path
       id="path17557"
       style="fill:#72c837;fill-opacity:1;fill-rule:nonzero;stroke:none"
       d="m -515.03407,1291.9791 -5.94875,-3.4288 -5.93875,3.4288 5.94375,3.4325 5.94375,-3.4325"
       inkscape:connector-curvature="0" />
    <path
       id="path17559"
       style="fill:#56a534;fill-opacity:1;fill-rule:nonzero;stroke:none"
       d="m -539.38532,1296.9166 10e-4,15.31 13.29625,7.6875 0,-15.3213 -13.2975,-7.6762"
       inkscape:connector-curvature="0" />
    <path
       id="path17561"
       style="fill:#45762d;fill-opacity:1;fill-rule:nonzero;stroke:none"
       d="m -512.79032,1296.9166 -0.001,15.31 -13.29625,7.6875 0,-15.3213 13.2975,-7.6762"
       inkscape:connector-curvature="0" />
    <path
       id="path17563"
       style="fill:#72c837;fill-opacity:1;fill-rule:nonzero;stroke:none"
       d="m -512.79032,1296.9166 -13.30875,-7.6713 -13.28625,7.6713 13.2975,7.6762 13.2975,-7.6762"
       inkscape:connector-curvature="0" />
    <path
       id="path17567"
       style="fill:#45762d;fill-opacity:1;fill-rule:nonzero;stroke:none"
       d="m -526.68032,1309.3841 0,8.395 -7.29,4.215 0,-8.4013 7.29,-4.2087"
       inkscape:connector-curvature="0" />
    <path
       id="path17571"
       style="fill:#56a534;fill-opacity:1;fill-rule:nonzero;stroke:none"
       d="m -524.84282,1307.7066 0,9.5162 8.26625,4.78 0,-9.5237 -8.26625,-4.7725"
       inkscape:connector-curvature="0" />
    <path
       id="path17573"
       style="fill:#45762d;fill-opacity:1;fill-rule:nonzero;stroke:none"
       d="m -508.31032,1307.7066 -0.001,9.5162 -8.265,4.78 0,-9.5237 8.26625,-4.7725"
       inkscape:connector-curvature="0" />
    <path
       id="path17575"
       style="fill:#72c837;fill-opacity:1;fill-rule:nonzero;stroke:none"
       d="m -508.31032,1307.7066 -8.27375,-4.7688 -8.25875,4.7688 8.26625,4.7725 8.26625,-4.7725"
       inkscape:connector-curvature="0" />
    <path
       id="path17577"
       style="fill:#56a534;fill-opacity:1;fill-rule:nonzero;stroke:none"
       d="m -528.08407,1312.9866 0,3.73 3.24125,1.875 0,-3.7338 -3.24125,-1.8712"
       inkscape:connector-curvature="0" />
    <path
       id="path17579"
       style="fill:#45762d;fill-opacity:1;fill-rule:nonzero;stroke:none"
       d="m -521.60157,1312.9866 0,3.73 -3.24125,1.875 0,-3.7338 3.24125,-1.8712"
       inkscape:connector-curvature="0" />
    <path
       id="path17581"
       style="fill:#72c837;fill-opacity:1;fill-rule:nonzero;stroke:none"
       d="m -521.60157,1312.9866 -3.24375,-1.87 -3.23875,1.87 3.24125,1.8712 3.24125,-1.8712"
       inkscape:connector-curvature="0" />
  </g>
</svg>
