<?xml version="1.0" encoding="UTF-8" standalone="no"?>
<!-- Created with Inkscape (http://www.inkscape.org/) -->

<svg
   xmlns:dc="http://purl.org/dc/elements/1.1/"
   xmlns:cc="http://creativecommons.org/ns#"
   xmlns:rdf="http://www.w3.org/1999/02/22-rdf-syntax-ns#"
   xmlns:svg="http://www.w3.org/2000/svg"
   xmlns="http://www.w3.org/2000/svg"
   xmlns:sodipodi="http://sodipodi.sourceforge.net/DTD/sodipodi-0.dtd"
   xmlns:inkscape="http://www.inkscape.org/namespaces/inkscape"
   id="svg6214"
   height="205"
   width="205"
   version="1.1"
   inkscape:version="0.48.5 r10040"
   sodipodi:docname="grass_4.svg">
  <defs
     id="defs107" />
  <sodipodi:namedview
     pagecolor="#ffffff"
     bordercolor="#666666"
     borderopacity="1"
     objecttolerance="10"
     gridtolerance="10"
     guidetolerance="10"
     inkscape:pageopacity="0"
     inkscape:pageshadow="2"
     inkscape:window-width="476"
     inkscape:window-height="1041"
     id="namedview105"
     showgrid="false"
     inkscape:zoom="2"
     inkscape:cx="117.05815"
     inkscape:cy="119.33958"
     inkscape:window-x="480"
     inkscape:window-y="18"
     inkscape:window-maximized="0"
     inkscape:current-layer="g6152"
     showguides="true"
     inkscape:guide-bbox="true">
    <sodipodi:guide
       orientation="0,1"
       position="-0.21875,59.289062"
       id="guide3295" />
    <sodipodi:guide
       orientation="1,0"
       position="102.49105,-5.4346034"
       id="guide3297" />
  </sodipodi:namedview>
  <metadata
     id="metadata6219">
    <rdf:RDF>
      <cc:Work
         rdf:about="">
        <dc:format>image/svg+xml</dc:format>
        <dc:type
           rdf:resource="http://purl.org/dc/dcmitype/StillImage" />
        <dc:title></dc:title>
      </cc:Work>
    </rdf:RDF>
  </metadata>
  <g
     id="g6152"
     transform="translate(610.80237,-1262.9667)">
    <path
       id="path17523"
       style="fill:#2b3119;fill-opacity:1;fill-rule:nonzero;stroke:none"
       d="m -522.98907,1311.5741 0,18.4412 -1.7975,1.0388 0,-18.4425 1.7975,-1.0375"
       inkscape:connector-curvature="0" />
    <path
       inkscape:connector-curvature="0"
       d="m -478.50907,1358.5741 0,18.4412 -1.7975,1.0388 0,-18.4425 1.7975,-1.0375"
       style="fill:#2b3119;fill-opacity:1;fill-rule:nonzero;stroke:none"
       id="path3569" />
    <path
       id="path17525"
       style="fill:#444c28;fill-opacity:1;fill-rule:nonzero;stroke:none"
       d="m -526.58282,1311.5741 0,18.4412 1.79625,1.0388 0,-18.4425 -1.79625,-1.0375"
       inkscape:connector-curvature="0" />
    <path
       inkscape:connector-curvature="0"
       d="m -482.10282,1358.5741 0,18.4412 1.79625,1.0388 0,-18.4425 -1.79625,-1.0375"
       style="fill:#444c28;fill-opacity:1;fill-rule:nonzero;stroke:none"
       id="path3571" />
    <path
       id="path17527"
       style="fill:#4f5831;fill-opacity:1;fill-rule:nonzero;stroke:none"
       d="m -526.58282,1311.5741 1.7975,-1.0363 1.79625,1.0363 -1.7975,1.0375 -1.79625,-1.0375"
       inkscape:connector-curvature="0" />
    <path
       inkscape:connector-curvature="0"
       d="m -482.10282,1358.5741 1.7975,-1.0363 1.79625,1.0363 -1.7975,1.0375 -1.79625,-1.0375"
       style="fill:#4f5831;fill-opacity:1;fill-rule:nonzero;stroke:none"
       id="path3573" />
    <path
       id="path17529"
       style="fill:#2b3119;fill-opacity:1;fill-rule:nonzero;stroke:none"
       d="m -518.59907,1323.8316 0,2.0437 -1.79625,1.04 0,-2.0462 1.79625,-1.0375"
       inkscape:connector-curvature="0" />
    <path
       inkscape:connector-curvature="0"
       d="m -474.11907,1370.8316 0,2.0437 -1.79625,1.04 0,-2.0462 1.79625,-1.0375"
       style="fill:#2b3119;fill-opacity:1;fill-rule:nonzero;stroke:none"
       id="path3575" />
    <path
       id="path17531"
       style="fill:#444c28;fill-opacity:1;fill-rule:nonzero;stroke:none"
       d="m -524.78657,1322.3341 0,2.0437 4.39125,2.5375 0,-2.0462 -4.39125,-2.535"
       inkscape:connector-curvature="0" />
    <path
       inkscape:connector-curvature="0"
       d="m -480.30657,1369.3341 0,2.0437 4.39125,2.5375 0,-2.0462 -4.39125,-2.535"
       style="fill:#444c28;fill-opacity:1;fill-rule:nonzero;stroke:none"
       id="path3577" />
    <path
       id="path17533"
       style="fill:#4f5831;fill-opacity:1;fill-rule:nonzero;stroke:none"
       d="m -524.78657,1322.3341 1.8,-1.0363 4.3875,2.5338 -1.79625,1.0375 -4.39125,-2.535"
       inkscape:connector-curvature="0" />
    <path
       inkscape:connector-curvature="0"
       d="m -480.30657,1369.3341 1.8,-1.0363 4.3875,2.5338 -1.79625,1.0375 -4.39125,-2.535"
       style="fill:#4f5831;fill-opacity:1;fill-rule:nonzero;stroke:none"
       id="path3579" />
    <path
       id="path17535"
       style="fill:#2b3119;fill-opacity:1;fill-rule:nonzero;stroke:none"
       d="m -518.59907,1318.5916 0,5.3462 -1.79625,1.0388 0,-5.3475 1.79625,-1.0375"
       inkscape:connector-curvature="0" />
    <path
       inkscape:connector-curvature="0"
       d="m -474.11907,1365.5916 0,5.3462 -1.79625,1.0388 0,-5.3475 1.79625,-1.0375"
       style="fill:#2b3119;fill-opacity:1;fill-rule:nonzero;stroke:none"
       id="path3581" />
    <path
       id="path17537"
       style="fill:#444c28;fill-opacity:1;fill-rule:nonzero;stroke:none"
       d="m -522.19282,1318.5916 0,5.3462 1.7975,1.0388 0,-5.3475 -1.7975,-1.0375"
       inkscape:connector-curvature="0" />
    <path
       inkscape:connector-curvature="0"
       d="m -477.71282,1365.5916 0,5.3462 1.7975,1.0388 0,-5.3475 -1.7975,-1.0375"
       style="fill:#444c28;fill-opacity:1;fill-rule:nonzero;stroke:none"
       id="path3583" />
    <path
       id="path17539"
       style="fill:#4f5831;fill-opacity:1;fill-rule:nonzero;stroke:none"
       d="m -522.19282,1318.5916 1.79875,-1.0375 1.795,1.0375 -1.79625,1.0375 -1.7975,-1.0375"
       inkscape:connector-curvature="0" />
    <path
       inkscape:connector-curvature="0"
       d="m -477.71282,1365.5916 1.79875,-1.0375 1.795,1.0375 -1.79625,1.0375 -1.7975,-1.0375"
       style="fill:#4f5831;fill-opacity:1;fill-rule:nonzero;stroke:none"
       id="path3585" />
    <path
       id="path17541"
       style="fill:#444c28;fill-opacity:1;fill-rule:nonzero;stroke:none"
       d="m -530.97407,1320.4803 0,2.045 1.7975,1.0388 0,-2.0463 -1.7975,-1.0375"
       inkscape:connector-curvature="0" />
    <path
       inkscape:connector-curvature="0"
       d="m -486.49407,1367.4803 0,2.045 1.7975,1.0388 0,-2.0463 -1.7975,-1.0375"
       style="fill:#444c28;fill-opacity:1;fill-rule:nonzero;stroke:none"
       id="path3587" />
    <path
       id="path17543"
       style="fill:#2b3119;fill-opacity:1;fill-rule:nonzero;stroke:none"
       d="m -524.78657,1318.9828 0,2.045 -4.39,2.5363 0,-2.0463 4.39,-2.535"
       inkscape:connector-curvature="0" />
    <path
       inkscape:connector-curvature="0"
       d="m -480.30657,1365.9828 0,2.045 -4.39,2.5363 0,-2.0463 4.39,-2.535"
       style="fill:#2b3119;fill-opacity:1;fill-rule:nonzero;stroke:none"
       id="path3589" />
    <path
       id="path17545"
       style="fill:#4f5831;fill-opacity:1;fill-rule:nonzero;stroke:none"
       d="m -524.78657,1318.9828 -1.7975,-1.0362 -4.39,2.5337 1.7975,1.0375 4.39,-2.535"
       inkscape:connector-curvature="0" />
    <path
       inkscape:connector-curvature="0"
       d="m -480.30657,1365.9828 -1.7975,-1.0362 -4.39,2.5337 1.7975,1.0375 4.39,-2.535"
       style="fill:#4f5831;fill-opacity:1;fill-rule:nonzero;stroke:none"
       id="path3591" />
    <path
       id="path17547"
       style="fill:#444c28;fill-opacity:1;fill-rule:nonzero;stroke:none"
       d="m -530.97407,1316.6928 0,3.8938 1.7975,1.0387 0,-3.895 -1.7975,-1.0375"
       inkscape:connector-curvature="0" />
    <path
       inkscape:connector-curvature="0"
       d="m -486.49407,1363.6928 0,3.8938 1.7975,1.0387 0,-3.895 -1.7975,-1.0375"
       style="fill:#444c28;fill-opacity:1;fill-rule:nonzero;stroke:none"
       id="path3593" />
    <path
       id="path17549"
       style="fill:#2b3119;fill-opacity:1;fill-rule:nonzero;stroke:none"
       d="m -527.37907,1316.6928 0,3.8938 -1.7975,1.0387 0,-3.895 1.7975,-1.0375"
       inkscape:connector-curvature="0" />
    <path
       inkscape:connector-curvature="0"
       d="m -482.89907,1363.6928 0,3.8938 -1.7975,1.0387 0,-3.895 1.7975,-1.0375"
       style="fill:#2b3119;fill-opacity:1;fill-rule:nonzero;stroke:none"
       id="path3595" />
    <path
       id="path17551"
       style="fill:#4f5831;fill-opacity:1;fill-rule:nonzero;stroke:none"
       d="m -527.37907,1316.6928 -1.8,-1.0362 -1.795,1.0362 1.7975,1.0375 1.7975,-1.0375"
       inkscape:connector-curvature="0" />
    <path
       inkscape:connector-curvature="0"
       d="m -482.89907,1363.6928 -1.8,-1.0362 -1.795,1.0362 1.7975,1.0375 1.7975,-1.0375"
       style="fill:#4f5831;fill-opacity:1;fill-rule:nonzero;stroke:none"
       id="path3597" />
    <path
       id="path17553"
       style="fill:#56a534;fill-opacity:1;fill-rule:nonzero;stroke:none"
       d="m -526.92157,1291.9791 0,6.8437 5.94375,3.4363 0,-6.8475 -5.94375,-3.4325"
       inkscape:connector-curvature="0" />
    <path
       inkscape:connector-curvature="0"
       d="m -482.44157,1338.9791 0,6.8437 5.94375,3.4363 0,-6.8475 -5.94375,-3.4325"
       style="fill:#56a534;fill-opacity:1;fill-rule:nonzero;stroke:none"
       id="path3599" />
    <path
       id="path17555"
       style="fill:#45762d;fill-opacity:1;fill-rule:nonzero;stroke:none"
       d="m -515.03407,1291.9791 -10e-4,6.8437 -5.9425,3.4363 0,-6.8475 5.94375,-3.4325"
       inkscape:connector-curvature="0" />
    <path
       inkscape:connector-curvature="0"
       d="m -470.55407,1338.9791 -10e-4,6.8437 -5.9425,3.4363 0,-6.8475 5.94375,-3.4325"
       style="fill:#45762d;fill-opacity:1;fill-rule:nonzero;stroke:none"
       id="path3601" />
    <path
       id="path17557"
       style="fill:#72c837;fill-opacity:1;fill-rule:nonzero;stroke:none"
       d="m -515.03407,1291.9791 -5.94875,-3.4288 -5.93875,3.4288 5.94375,3.4325 5.94375,-3.4325"
       inkscape:connector-curvature="0" />
    <path
       inkscape:connector-curvature="0"
       d="m -470.55407,1338.9791 -5.94875,-3.4288 -5.93875,3.4288 5.94375,3.4325 5.94375,-3.4325"
       style="fill:#72c837;fill-opacity:1;fill-rule:nonzero;stroke:none"
       id="path3603" />
    <path
       id="path17559"
       style="fill:#56a534;fill-opacity:1;fill-rule:nonzero;stroke:none"
       d="m -539.38532,1296.9166 10e-4,15.31 13.29625,7.6875 0,-15.3213 -13.2975,-7.6762"
       inkscape:connector-curvature="0" />
    <path
       inkscape:connector-curvature="0"
       d="m -494.90532,1343.9166 0.001,15.31 13.29625,7.6875 0,-15.3213 -13.2975,-7.6762"
       style="fill:#56a534;fill-opacity:1;fill-rule:nonzero;stroke:none"
       id="path3605" />
    <path
       id="path17561"
       style="fill:#45762d;fill-opacity:1;fill-rule:nonzero;stroke:none"
       d="m -512.79032,1296.9166 -0.001,15.31 -13.29625,7.6875 0,-15.3213 13.2975,-7.6762"
       inkscape:connector-curvature="0" />
    <path
       inkscape:connector-curvature="0"
       d="m -468.31032,1343.9166 -0.001,15.31 -13.29625,7.6875 0,-15.3213 13.2975,-7.6762"
       style="fill:#45762d;fill-opacity:1;fill-rule:nonzero;stroke:none"
       id="path3607" />
    <path
       id="path17563"
       style="fill:#72c837;fill-opacity:1;fill-rule:nonzero;stroke:none"
       d="m -512.79032,1296.9166 -13.30875,-7.6713 -13.28625,7.6713 13.2975,7.6762 13.2975,-7.6762"
       inkscape:connector-curvature="0" />
    <path
       inkscape:connector-curvature="0"
       d="m -468.31032,1343.9166 -13.30875,-7.6713 -13.28625,7.6713 13.2975,7.6762 13.2975,-7.6762"
       style="fill:#72c837;fill-opacity:1;fill-rule:nonzero;stroke:none"
       id="path3609" />
    <path
       id="path17565"
       style="fill:#56a534;fill-opacity:1;fill-rule:nonzero;stroke:none"
       d="m -541.26157,1309.3841 10e-4,8.395 7.29,4.215 0,-8.4013 -7.29125,-4.2087"
       inkscape:connector-curvature="0" />
    <path
       inkscape:connector-curvature="0"
       d="m -496.78157,1356.3841 10e-4,8.395 7.29,4.215 0,-8.4013 -7.29125,-4.2087"
       style="fill:#56a534;fill-opacity:1;fill-rule:nonzero;stroke:none"
       id="path3611" />
    <path
       id="path17567"
       style="fill:#45762d;fill-opacity:1;fill-rule:nonzero;stroke:none"
       d="m -526.68032,1309.3841 0,8.395 -7.29,4.215 0,-8.4013 7.29,-4.2087"
       inkscape:connector-curvature="0" />
    <path
       inkscape:connector-curvature="0"
       d="m -482.20032,1356.3841 0,8.395 -7.29,4.215 0,-8.4013 7.29,-4.2087"
       style="fill:#45762d;fill-opacity:1;fill-rule:nonzero;stroke:none"
       id="path3613" />
    <path
       id="path17569"
       style="fill:#72c837;fill-opacity:1;fill-rule:nonzero;stroke:none"
       d="m -526.68032,1309.3841 -7.29625,-4.2063 -7.285,4.2063 7.29125,4.2087 7.29,-4.2087"
       inkscape:connector-curvature="0" />
    <path
       inkscape:connector-curvature="0"
       d="m -482.20032,1356.3841 -7.29625,-4.2063 -7.285,4.2063 7.29125,4.2087 7.29,-4.2087"
       style="fill:#72c837;fill-opacity:1;fill-rule:nonzero;stroke:none"
       id="path3615" />
    <path
       id="path17571"
       style="fill:#56a534;fill-opacity:1;fill-rule:nonzero;stroke:none"
       d="m -524.84282,1307.7066 0,9.5162 8.26625,4.78 0,-9.5237 -8.26625,-4.7725"
       inkscape:connector-curvature="0" />
    <path
       inkscape:connector-curvature="0"
       d="m -480.36282,1354.7066 0,9.5162 8.26625,4.78 0,-9.5237 -8.26625,-4.7725"
       style="fill:#56a534;fill-opacity:1;fill-rule:nonzero;stroke:none"
       id="path3617" />
    <path
       id="path17573"
       style="fill:#45762d;fill-opacity:1;fill-rule:nonzero;stroke:none"
       d="m -508.31032,1307.7066 -0.001,9.5162 -8.265,4.78 0,-9.5237 8.26625,-4.7725"
       inkscape:connector-curvature="0" />
    <path
       inkscape:connector-curvature="0"
       d="m -463.83032,1354.7066 -0.001,9.5162 -8.265,4.78 0,-9.5237 8.26625,-4.7725"
       style="fill:#45762d;fill-opacity:1;fill-rule:nonzero;stroke:none"
       id="path3619" />
    <path
       id="path17575"
       style="fill:#72c837;fill-opacity:1;fill-rule:nonzero;stroke:none"
       d="m -508.31032,1307.7066 -8.27375,-4.7688 -8.25875,4.7688 8.26625,4.7725 8.26625,-4.7725"
       inkscape:connector-curvature="0" />
    <path
       inkscape:connector-curvature="0"
       d="m -463.83032,1354.7066 -8.27375,-4.7688 -8.25875,4.7688 8.26625,4.7725 8.26625,-4.7725"
       style="fill:#72c837;fill-opacity:1;fill-rule:nonzero;stroke:none"
       id="path3621" />
    <path
       id="path17577"
       style="fill:#56a534;fill-opacity:1;fill-rule:nonzero;stroke:none"
       d="m -528.08407,1312.9866 0,3.73 3.24125,1.875 0,-3.7338 -3.24125,-1.8712"
       inkscape:connector-curvature="0" />
    <path
       inkscape:connector-curvature="0"
       d="m -483.60407,1359.9866 0,3.73 3.24125,1.875 0,-3.7338 -3.24125,-1.8712"
       style="fill:#56a534;fill-opacity:1;fill-rule:nonzero;stroke:none"
       id="path3623" />
    <path
       id="path17579"
       style="fill:#45762d;fill-opacity:1;fill-rule:nonzero;stroke:none"
       d="m -521.60157,1312.9866 0,3.73 -3.24125,1.875 0,-3.7338 3.24125,-1.8712"
       inkscape:connector-curvature="0" />
    <path
       inkscape:connector-curvature="0"
       d="m -477.12157,1359.9866 0,3.73 -3.24125,1.875 0,-3.7338 3.24125,-1.8712"
       style="fill:#45762d;fill-opacity:1;fill-rule:nonzero;stroke:none"
       id="path3625" />
    <path
       id="path17581"
       style="fill:#72c837;fill-opacity:1;fill-rule:nonzero;stroke:none"
       d="m -521.60157,1312.9866 -3.24375,-1.87 -3.23875,1.87 3.24125,1.8712 3.24125,-1.8712"
       inkscape:connector-curvature="0" />
    <path
       inkscape:connector-curvature="0"
       d="m -477.12157,1359.9866 -3.24375,-1.87 -3.23875,1.87 3.24125,1.8712 3.24125,-1.8712"
       style="fill:#72c837;fill-opacity:1;fill-rule:nonzero;stroke:none"
       id="path3627" />
  </g>
</svg>
