<?xml version="1.0" encoding="UTF-8" standalone="no"?>
<!-- Created with Inkscape (http://www.inkscape.org/) -->

<svg
   xmlns:dc="http://purl.org/dc/elements/1.1/"
   xmlns:cc="http://creativecommons.org/ns#"
   xmlns:rdf="http://www.w3.org/1999/02/22-rdf-syntax-ns#"
   xmlns:svg="http://www.w3.org/2000/svg"
   xmlns="http://www.w3.org/2000/svg"
   xmlns:sodipodi="http://sodipodi.sourceforge.net/DTD/sodipodi-0.dtd"
   xmlns:inkscape="http://www.inkscape.org/namespaces/inkscape"
   id="svg6214"
   height="205"
   width="205"
   version="1.1"
   inkscape:version="0.48.5 r10040"
   sodipodi:docname="terrain_grass_2.svg">
  <defs
     id="defs107" />
  <sodipodi:namedview
     pagecolor="#ffffff"
     bordercolor="#666666"
     borderopacity="1"
     objecttolerance="10"
     gridtolerance="10"
     guidetolerance="10"
     inkscape:pageopacity="0"
     inkscape:pageshadow="2"
     inkscape:window-width="995"
     inkscape:window-height="1041"
     id="namedview105"
     showgrid="false"
     inkscape:zoom="2"
     inkscape:cx="117.05815"
     inkscape:cy="119.33958"
     inkscape:window-x="921"
     inkscape:window-y="18"
     inkscape:window-maximized="0"
     inkscape:current-layer="svg6214"
     showguides="true"
     inkscape:guide-bbox="true">
    <sodipodi:guide
       orientation="0,1"
       position="-0.21875,59.289062"
       id="guide3295" />
    <sodipodi:guide
       orientation="1,0"
       position="102.49105,-5.4346034"
       id="guide3297" />
  </sodipodi:namedview>
  <metadata
     id="metadata6219">
    <rdf:RDF>
      <cc:Work
         rdf:about="">
        <dc:format>image/svg+xml</dc:format>
        <dc:type
           rdf:resource="http://purl.org/dc/dcmitype/StillImage" />
        <dc:title></dc:title>
      </cc:Work>
    </rdf:RDF>
  </metadata>
  <g
     transform="matrix(0.99951974,0,0,0.99951974,148.26555,-1096.7014)"
     id="g6048">
    <path
       id="path5528"
       style="fill:#b16229;fill-opacity:1;fill-rule:nonzero;stroke:none"
       d="m -148.38025,1230.4037 0.009,12.6088 102.575002,59.3112 0,-12.6925 L -148.38,1230.4037"
       inkscape:connector-curvature="0" />
    <path
       id="path5530"
       style="fill:#5f251f;fill-opacity:1;fill-rule:nonzero;stroke:none"
       d="m 56.788502,1230.4037 -0.01,12.6088 -102.575,59.3112 0,-12.6925 102.585,-59.2275"
       inkscape:connector-curvature="0" />
    <path
       id="path5532"
       style="fill:#b2783e;fill-opacity:1;fill-rule:nonzero;stroke:none"
       d="m 56.788502,1230.4037 -102.66875,-59.1787 -102.500002,59.1787 102.583752,59.2275 102.585,-59.2275"
       inkscape:connector-curvature="0" />
    <path
       id="path5534"
       style="fill:#e6c971;fill-opacity:1;fill-rule:nonzero;stroke:none"
       d="m -148.3815,1217.7162 0.01,12.6088 102.575002,59.3112 0,-12.6937 -102.585002,-59.2263"
       inkscape:connector-curvature="0" />
    <path
       id="path5536"
       style="fill:#bb8233;fill-opacity:1;fill-rule:nonzero;stroke:none"
       d="m 56.787252,1217.7162 -0.009,12.6088 -102.575,59.3112 0,-12.6937 102.58375,-59.2263"
       inkscape:connector-curvature="0" />
    <path
       id="path5538"
       style="fill:#a8a3d9;fill-opacity:1;fill-rule:nonzero;stroke:none"
       d="m 56.787252,1217.7162 -102.66875,-59.1787 -102.500002,59.1787 102.585002,59.2263 102.58375,-59.2263"
       inkscape:connector-curvature="0" />
    <path
       id="path5540"
       style="fill:#549f4a;fill-opacity:1;fill-rule:nonzero;stroke:none"
       d="m -148.3815,1191.32 0.01,26.305 102.575002,59.3125 0,-26.3925 -102.585002,-59.225"
       inkscape:connector-curvature="0" />
    <path
       id="path5542"
       style="fill:#32624a;fill-opacity:1;fill-rule:nonzero;stroke:none"
       d="m 56.787252,1191.32 -0.009,26.305 -102.575,59.3125 0,-26.3925 102.58375,-59.225"
       inkscape:connector-curvature="0" />
    <path
       id="path5544"
       style="fill:#9ad536;fill-opacity:1;fill-rule:nonzero;stroke:none"
       d="m 56.787252,1191.32 -102.66875,-59.1788 -102.500002,59.1788 102.585002,59.225 102.58375,-59.225"
       inkscape:connector-curvature="0" />
    <g
       id="g5546"
       transform="translate(-58.083771,-36.870568)">
      <path
         inkscape:connector-curvature="0"
         d="m -34.045248,1209.0762 0,26.9838 -2.63,1.5212 0,-26.9887 2.63,-1.5163"
         style="fill:#2b3119;fill-opacity:1;fill-rule:nonzero;stroke:none"
         id="path5548" />
      <path
         inkscape:connector-curvature="0"
         d="m -39.305248,1209.0762 0,26.9838 2.63,1.5212 0,-26.9887 -2.63,-1.5163"
         style="fill:#444c28;fill-opacity:1;fill-rule:nonzero;stroke:none"
         id="path5550" />
      <path
         inkscape:connector-curvature="0"
         d="m -39.305248,1209.0762 2.63125,-1.5175 2.62875,1.5175 -2.63,1.5163 -2.63,-1.5163"
         style="fill:#4f5831;fill-opacity:1;fill-rule:nonzero;stroke:none"
         id="path5552" />
      <path
         inkscape:connector-curvature="0"
         d="m -27.620248,1227.01 0,2.9925 -2.63,1.5212 0,-2.995 2.63,-1.5187"
         style="fill:#2b3119;fill-opacity:1;fill-rule:nonzero;stroke:none"
         id="path5554" />
      <path
         inkscape:connector-curvature="0"
         d="m -36.675248,1224.8187 0.001,2.9925 6.42375,3.7125 0,-2.995 -6.425,-3.71"
         style="fill:#444c28;fill-opacity:1;fill-rule:nonzero;stroke:none"
         id="path5556" />
      <path
         inkscape:connector-curvature="0"
         d="m -36.675248,1224.8187 2.63125,-1.5162 6.42375,3.7075 -2.63,1.5187 -6.425,-3.71"
         style="fill:#4f5831;fill-opacity:1;fill-rule:nonzero;stroke:none"
         id="path5558" />
      <path
         inkscape:connector-curvature="0"
         d="m -27.620248,1219.3425 0,7.8237 -2.63,1.52 0,-7.825 2.63,-1.5187"
         style="fill:#2b3119;fill-opacity:1;fill-rule:nonzero;stroke:none"
         id="path5560" />
      <path
         inkscape:connector-curvature="0"
         d="m -32.880248,1219.3425 0,7.8237 2.63,1.52 0,-7.825 -2.63,-1.5187"
         style="fill:#444c28;fill-opacity:1;fill-rule:nonzero;stroke:none"
         id="path5562" />
      <path
         inkscape:connector-curvature="0"
         d="m -32.880248,1219.3425 2.63125,-1.5163 2.62875,1.5163 -2.63,1.5187 -2.63,-1.5187"
         style="fill:#4f5831;fill-opacity:1;fill-rule:nonzero;stroke:none"
         id="path5564" />
      <path
         inkscape:connector-curvature="0"
         d="m -45.730248,1222.1075 0,2.9925 2.63,1.52 0,-2.9938 -2.63,-1.5187"
         style="fill:#444c28;fill-opacity:1;fill-rule:nonzero;stroke:none"
         id="path5566" />
      <path
         inkscape:connector-curvature="0"
         d="m -36.675248,1219.9162 0,2.9925 -6.425,3.7113 0,-2.9938 6.425,-3.71"
         style="fill:#2b3119;fill-opacity:1;fill-rule:nonzero;stroke:none"
         id="path5568" />
      <path
         inkscape:connector-curvature="0"
         d="m -36.675248,1219.9162 -2.6325,-1.5162 -6.4225,3.7075 2.63,1.5187 6.425,-3.71"
         style="fill:#4f5831;fill-opacity:1;fill-rule:nonzero;stroke:none"
         id="path5570" />
      <path
         inkscape:connector-curvature="0"
         d="m -45.730248,1216.565 0,5.6975 2.63,1.5212 0,-5.7 -2.63,-1.5187"
         style="fill:#444c28;fill-opacity:1;fill-rule:nonzero;stroke:none"
         id="path5572" />
      <path
         inkscape:connector-curvature="0"
         d="m -40.470248,1216.565 -0.001,5.6975 -2.62875,1.5212 0,-5.7 2.63,-1.5187"
         style="fill:#2b3119;fill-opacity:1;fill-rule:nonzero;stroke:none"
         id="path5574" />
      <path
         inkscape:connector-curvature="0"
         d="m -40.470248,1216.565 -2.6325,-1.5163 -2.6275,1.5163 2.63,1.5187 2.63,-1.5187"
         style="fill:#4f5831;fill-opacity:1;fill-rule:nonzero;stroke:none"
         id="path5576" />
      <path
         inkscape:connector-curvature="0"
         d="m -39.800248,1180.4012 0.001,10.0138 8.6975,5.0287 0,-10.0212 -8.69875,-5.0213"
         style="fill:#56a534;fill-opacity:1;fill-rule:nonzero;stroke:none"
         id="path5578" />
      <path
         inkscape:connector-curvature="0"
         d="m -22.405248,1180.4012 0,10.0138 -8.69625,5.0287 0,-10.0212 8.69625,-5.0213"
         style="fill:#45762d;fill-opacity:1;fill-rule:nonzero;stroke:none"
         id="path5580" />
      <path
         inkscape:connector-curvature="0"
         d="m -22.405248,1180.4012 -8.70375,-5.0187 -8.69125,5.0187 8.69875,5.0213 8.69625,-5.0213"
         style="fill:#72c837;fill-opacity:1;fill-rule:nonzero;stroke:none"
         id="path5582" />
      <path
         inkscape:connector-curvature="0"
         d="m -58.038998,1187.625 10e-4,22.4037 19.4575,11.25 0,-22.4187 -19.45875,-11.235"
         style="fill:#56a534;fill-opacity:1;fill-rule:nonzero;stroke:none"
         id="path5584" />
      <path
         inkscape:connector-curvature="0"
         d="m -19.121498,1187.625 -0.001,22.4037 -19.4575,11.25 0,-22.4187 19.45875,-11.235"
         style="fill:#45762d;fill-opacity:1;fill-rule:nonzero;stroke:none"
         id="path5586" />
      <path
         inkscape:connector-curvature="0"
         d="m -19.121498,1187.625 -19.475,-11.225 -19.4425,11.225 19.45875,11.235 19.45875,-11.235"
         style="fill:#72c837;fill-opacity:1;fill-rule:nonzero;stroke:none"
         id="path5588" />
      <path
         inkscape:connector-curvature="0"
         d="m -60.783998,1205.87 0,12.2837 10.66875,6.1688 0,-12.2925 -10.66875,-6.16"
         style="fill:#56a534;fill-opacity:1;fill-rule:nonzero;stroke:none"
         id="path5590" />
      <path
         inkscape:connector-curvature="0"
         d="m -39.445248,1205.87 -10e-4,12.2837 -10.66875,6.1688 0,-12.2925 10.67,-6.16"
         style="fill:#45762d;fill-opacity:1;fill-rule:nonzero;stroke:none"
         id="path5592" />
      <path
         inkscape:connector-curvature="0"
         d="m -39.445248,1205.87 -10.67875,-6.155 -10.66,6.155 10.66875,6.16 10.67,-6.16"
         style="fill:#72c837;fill-opacity:1;fill-rule:nonzero;stroke:none"
         id="path5594" />
      <path
         inkscape:connector-curvature="0"
         d="m -36.757748,1203.4137 0,13.9275 12.095,6.9938 0,-13.9375 -12.095,-6.9838"
         style="fill:#56a534;fill-opacity:1;fill-rule:nonzero;stroke:none"
         id="path5596" />
      <path
         inkscape:connector-curvature="0"
         d="m -12.566498,1203.4137 0,13.9275 -12.09625,6.9938 0,-13.9375 12.09625,-6.9838"
         style="fill:#45762d;fill-opacity:1;fill-rule:nonzero;stroke:none"
         id="path5598" />
      <path
         inkscape:connector-curvature="0"
         d="m -12.566498,1203.4137 -12.10625,-6.9775 -12.08625,6.9775 12.09625,6.9838 12.09625,-6.9838"
         style="fill:#72c837;fill-opacity:1;fill-rule:nonzero;stroke:none"
         id="path5600" />
      <path
         inkscape:connector-curvature="0"
         d="m -41.500248,1211.1412 0,5.46 4.7425,2.7413 0,-5.4638 -4.7425,-2.7375"
         style="fill:#56a534;fill-opacity:1;fill-rule:nonzero;stroke:none"
         id="path5602" />
      <path
         inkscape:connector-curvature="0"
         d="m -32.015248,1211.1412 0,5.46 -4.7425,2.7413 0,-5.4638 4.7425,-2.7375"
         style="fill:#45762d;fill-opacity:1;fill-rule:nonzero;stroke:none"
         id="path5604" />
      <path
         inkscape:connector-curvature="0"
         d="m -32.015248,1211.1412 -4.74625,-2.7362 -4.73875,2.7362 4.7425,2.7375 4.7425,-2.7375"
         style="fill:#72c837;fill-opacity:1;fill-rule:nonzero;stroke:none"
         id="path5606" />
    </g>
    <g
       transform="translate(42.931483,35.860415)"
       id="g5608">
      <path
         inkscape:connector-curvature="0"
         d="m -34.961498,1150.135 0,18.4412 -1.7975,1.0388 0,-18.4425 1.7975,-1.0375"
         style="fill:#2b3119;fill-opacity:1;fill-rule:nonzero;stroke:none"
         id="path5610" />
      <path
         inkscape:connector-curvature="0"
         d="m -38.555248,1150.135 0,18.4412 1.79625,1.0388 0,-18.4425 -1.79625,-1.0375"
         style="fill:#444c28;fill-opacity:1;fill-rule:nonzero;stroke:none"
         id="path5612" />
      <path
         inkscape:connector-curvature="0"
         d="m -38.555248,1150.135 1.7975,-1.0363 1.79625,1.0363 -1.7975,1.0375 -1.79625,-1.0375"
         style="fill:#4f5831;fill-opacity:1;fill-rule:nonzero;stroke:none"
         id="path5614" />
      <path
         inkscape:connector-curvature="0"
         d="m -30.571498,1162.3925 0,2.0437 -1.79625,1.04 0,-2.0462 1.79625,-1.0375"
         style="fill:#2b3119;fill-opacity:1;fill-rule:nonzero;stroke:none"
         id="path5616" />
      <path
         inkscape:connector-curvature="0"
         d="m -36.758998,1160.895 0,2.0437 4.39125,2.5375 0,-2.0462 -4.39125,-2.535"
         style="fill:#444c28;fill-opacity:1;fill-rule:nonzero;stroke:none"
         id="path5618" />
      <path
         inkscape:connector-curvature="0"
         d="m -36.758998,1160.895 1.8,-1.0363 4.3875,2.5338 -1.79625,1.0375 -4.39125,-2.535"
         style="fill:#4f5831;fill-opacity:1;fill-rule:nonzero;stroke:none"
         id="path5620" />
      <path
         inkscape:connector-curvature="0"
         d="m -30.571498,1157.1525 0,5.3462 -1.79625,1.0388 0,-5.3475 1.79625,-1.0375"
         style="fill:#2b3119;fill-opacity:1;fill-rule:nonzero;stroke:none"
         id="path5622" />
      <path
         inkscape:connector-curvature="0"
         d="m -34.165248,1157.1525 0,5.3462 1.7975,1.0388 0,-5.3475 -1.7975,-1.0375"
         style="fill:#444c28;fill-opacity:1;fill-rule:nonzero;stroke:none"
         id="path5624" />
      <path
         inkscape:connector-curvature="0"
         d="m -34.165248,1157.1525 1.79875,-1.0375 1.795,1.0375 -1.79625,1.0375 -1.7975,-1.0375"
         style="fill:#4f5831;fill-opacity:1;fill-rule:nonzero;stroke:none"
         id="path5626" />
      <path
         inkscape:connector-curvature="0"
         d="m -42.946498,1159.0412 0,2.045 1.7975,1.0388 0,-2.0463 -1.7975,-1.0375"
         style="fill:#444c28;fill-opacity:1;fill-rule:nonzero;stroke:none"
         id="path5628" />
      <path
         inkscape:connector-curvature="0"
         d="m -36.758998,1157.5437 0,2.045 -4.39,2.5363 0,-2.0463 4.39,-2.535"
         style="fill:#2b3119;fill-opacity:1;fill-rule:nonzero;stroke:none"
         id="path5630" />
      <path
         inkscape:connector-curvature="0"
         d="m -36.758998,1157.5437 -1.7975,-1.0362 -4.39,2.5337 1.7975,1.0375 4.39,-2.535"
         style="fill:#4f5831;fill-opacity:1;fill-rule:nonzero;stroke:none"
         id="path5632" />
      <path
         inkscape:connector-curvature="0"
         d="m -42.946498,1155.2537 0,3.8938 1.7975,1.0387 0,-3.895 -1.7975,-1.0375"
         style="fill:#444c28;fill-opacity:1;fill-rule:nonzero;stroke:none"
         id="path5634" />
      <path
         inkscape:connector-curvature="0"
         d="m -39.351498,1155.2537 0,3.8938 -1.7975,1.0387 0,-3.895 1.7975,-1.0375"
         style="fill:#2b3119;fill-opacity:1;fill-rule:nonzero;stroke:none"
         id="path5636" />
      <path
         inkscape:connector-curvature="0"
         d="m -39.351498,1155.2537 -1.8,-1.0362 -1.795,1.0362 1.7975,1.0375 1.7975,-1.0375"
         style="fill:#4f5831;fill-opacity:1;fill-rule:nonzero;stroke:none"
         id="path5638" />
      <path
         inkscape:connector-curvature="0"
         d="m -38.893998,1130.54 0,6.8437 5.94375,3.4363 0,-6.8475 -5.94375,-3.4325"
         style="fill:#56a534;fill-opacity:1;fill-rule:nonzero;stroke:none"
         id="path5640" />
      <path
         inkscape:connector-curvature="0"
         d="m -27.006498,1130.54 -10e-4,6.8437 -5.9425,3.4363 0,-6.8475 5.94375,-3.4325"
         style="fill:#45762d;fill-opacity:1;fill-rule:nonzero;stroke:none"
         id="path5642" />
      <path
         inkscape:connector-curvature="0"
         d="m -27.006498,1130.54 -5.94875,-3.4288 -5.93875,3.4288 5.94375,3.4325 5.94375,-3.4325"
         style="fill:#72c837;fill-opacity:1;fill-rule:nonzero;stroke:none"
         id="path5644" />
      <path
         inkscape:connector-curvature="0"
         d="m -51.357748,1135.4775 10e-4,15.31 13.29625,7.6875 0,-15.3213 -13.2975,-7.6762"
         style="fill:#56a534;fill-opacity:1;fill-rule:nonzero;stroke:none"
         id="path5646" />
      <path
         inkscape:connector-curvature="0"
         d="m -24.762748,1135.4775 -0.001,15.31 -13.29625,7.6875 0,-15.3213 13.2975,-7.6762"
         style="fill:#45762d;fill-opacity:1;fill-rule:nonzero;stroke:none"
         id="path5648" />
      <path
         inkscape:connector-curvature="0"
         d="m -24.762748,1135.4775 -13.30875,-7.6713 -13.28625,7.6713 13.2975,7.6762 13.2975,-7.6762"
         style="fill:#72c837;fill-opacity:1;fill-rule:nonzero;stroke:none"
         id="path5650" />
      <path
         inkscape:connector-curvature="0"
         d="m -53.233998,1147.945 10e-4,8.395 7.29,4.215 0,-8.4013 -7.29125,-4.2087"
         style="fill:#56a534;fill-opacity:1;fill-rule:nonzero;stroke:none"
         id="path5652" />
      <path
         inkscape:connector-curvature="0"
         d="m -38.652748,1147.945 0,8.395 -7.29,4.215 0,-8.4013 7.29,-4.2087"
         style="fill:#45762d;fill-opacity:1;fill-rule:nonzero;stroke:none"
         id="path5654" />
      <path
         inkscape:connector-curvature="0"
         d="m -38.652748,1147.945 -7.29625,-4.2063 -7.285,4.2063 7.29125,4.2087 7.29,-4.2087"
         style="fill:#72c837;fill-opacity:1;fill-rule:nonzero;stroke:none"
         id="path5656" />
      <path
         inkscape:connector-curvature="0"
         d="m -36.815248,1146.2675 0,9.5162 8.26625,4.78 0,-9.5237 -8.26625,-4.7725"
         style="fill:#56a534;fill-opacity:1;fill-rule:nonzero;stroke:none"
         id="path5658" />
      <path
         inkscape:connector-curvature="0"
         d="m -20.282748,1146.2675 -10e-4,9.5162 -8.265,4.78 0,-9.5237 8.26625,-4.7725"
         style="fill:#45762d;fill-opacity:1;fill-rule:nonzero;stroke:none"
         id="path5660" />
      <path
         inkscape:connector-curvature="0"
         d="m -20.282748,1146.2675 -8.27375,-4.7688 -8.25875,4.7688 8.26625,4.7725 8.26625,-4.7725"
         style="fill:#72c837;fill-opacity:1;fill-rule:nonzero;stroke:none"
         id="path5662" />
      <path
         inkscape:connector-curvature="0"
         d="m -40.056498,1151.5475 0,3.73 3.24125,1.875 0,-3.7338 -3.24125,-1.8712"
         style="fill:#56a534;fill-opacity:1;fill-rule:nonzero;stroke:none"
         id="path5664" />
      <path
         inkscape:connector-curvature="0"
         d="m -33.573998,1151.5475 0,3.73 -3.24125,1.875 0,-3.7338 3.24125,-1.8712"
         style="fill:#45762d;fill-opacity:1;fill-rule:nonzero;stroke:none"
         id="path5666" />
      <path
         inkscape:connector-curvature="0"
         d="m -33.573998,1151.5475 -3.24375,-1.87 -3.23875,1.87 3.24125,1.8712 3.24125,-1.8712"
         style="fill:#72c837;fill-opacity:1;fill-rule:nonzero;stroke:none"
         id="path5668" />
    </g>
    <g
       id="g5670"
       transform="translate(-148.77085,-10.280458)">
      <path
         inkscape:connector-curvature="0"
         d="m 119.19936,1156.2041 0,37.4725 -3.65125,2.1125 0,-37.4775 3.65125,-2.1075"
         style="fill:#2b3119;fill-opacity:1;fill-rule:nonzero;stroke:none"
         id="path5672" />
      <path
         inkscape:connector-curvature="0"
         d="m 111.89686,1156.2041 0,37.4725 3.65125,2.1125 0,-37.4775 -3.65125,-2.1075"
         style="fill:#444c28;fill-opacity:1;fill-rule:nonzero;stroke:none"
         id="path5674" />
      <path
         inkscape:connector-curvature="0"
         d="m 111.89686,1156.2041 3.65375,-2.1075 3.64875,2.1075 -3.65125,2.1075 -3.65125,-2.1075"
         style="fill:#4f5831;fill-opacity:1;fill-rule:nonzero;stroke:none"
         id="path5676" />
      <path
         inkscape:connector-curvature="0"
         d="m 128.12186,1181.1091 0,4.155 -3.6525,2.1113 0,-4.1575 3.6525,-2.1088"
         style="fill:#2b3119;fill-opacity:1;fill-rule:nonzero;stroke:none"
         id="path5678" />
      <path
         inkscape:connector-curvature="0"
         d="m 115.54811,1178.0666 0,4.1538 8.92125,5.155 0,-4.1575 -8.92125,-5.1513"
         style="fill:#444c28;fill-opacity:1;fill-rule:nonzero;stroke:none"
         id="path5680" />
      <path
         inkscape:connector-curvature="0"
         d="m 115.54811,1178.0666 3.655,-2.1062 8.91875,5.1487 -3.6525,2.1088 -8.92125,-5.1513"
         style="fill:#4f5831;fill-opacity:1;fill-rule:nonzero;stroke:none"
         id="path5682" />
      <path
         inkscape:connector-curvature="0"
         d="m 128.12186,1170.4616 0,10.865 -3.6525,2.11 0,-10.8662 3.6525,-2.1088"
         style="fill:#2b3119;fill-opacity:1;fill-rule:nonzero;stroke:none"
         id="path5684" />
      <path
         inkscape:connector-curvature="0"
         d="m 120.81811,1170.4616 0,10.865 3.65125,2.11 0,-10.8662 -3.65125,-2.1088"
         style="fill:#444c28;fill-opacity:1;fill-rule:nonzero;stroke:none"
         id="path5686" />
      <path
         inkscape:connector-curvature="0"
         d="m 120.81811,1170.4616 3.655,-2.1062 3.64875,2.1062 -3.6525,2.1088 -3.65125,-2.1088"
         style="fill:#4f5831;fill-opacity:1;fill-rule:nonzero;stroke:none"
         id="path5688" />
      <path
         inkscape:connector-curvature="0"
         d="m 102.97436,1174.3004 0,4.155 3.6525,2.1112 0,-4.1575 -3.6525,-2.1087"
         style="fill:#444c28;fill-opacity:1;fill-rule:nonzero;stroke:none"
         id="path5690" />
      <path
         inkscape:connector-curvature="0"
         d="m 115.54811,1171.2591 -10e-4,4.1538 -8.92,5.1537 0,-4.1575 8.92125,-5.15"
         style="fill:#2b3119;fill-opacity:1;fill-rule:nonzero;stroke:none"
         id="path5692" />
      <path
         inkscape:connector-curvature="0"
         d="m 115.54811,1171.2591 -3.655,-2.1075 -8.91875,5.1488 3.6525,2.1087 8.92125,-5.15"
         style="fill:#4f5831;fill-opacity:1;fill-rule:nonzero;stroke:none"
         id="path5694" />
      <path
         inkscape:connector-curvature="0"
         d="m 102.97436,1166.6041 0,7.9125 3.6525,2.1125 0,-7.9162 -3.6525,-2.1088"
         style="fill:#444c28;fill-opacity:1;fill-rule:nonzero;stroke:none"
         id="path5696" />
      <path
         inkscape:connector-curvature="0"
         d="m 110.27811,1166.6041 0,7.9125 -3.65125,2.1125 0,-7.9162 3.65125,-2.1088"
         style="fill:#2b3119;fill-opacity:1;fill-rule:nonzero;stroke:none"
         id="path5698" />
      <path
         inkscape:connector-curvature="0"
         d="m 110.27811,1166.6041 -3.655,-2.1062 -3.64875,2.1062 3.6525,2.1088 3.65125,-2.1088"
         style="fill:#4f5831;fill-opacity:1;fill-rule:nonzero;stroke:none"
         id="path5700" />
      <path
         inkscape:connector-curvature="0"
         d="m 111.20811,1116.3854 10e-4,13.9062 12.07625,6.9825 0,-13.915 -12.0775,-6.9737"
         style="fill:#56a534;fill-opacity:1;fill-rule:nonzero;stroke:none"
         id="path5702" />
      <path
         inkscape:connector-curvature="0"
         d="m 135.36436,1116.3854 -0.001,13.9062 -12.0775,6.9825 0,-13.915 12.07875,-6.9737"
         style="fill:#45762d;fill-opacity:1;fill-rule:nonzero;stroke:none"
         id="path5704" />
      <path
         inkscape:connector-curvature="0"
         d="m 135.36436,1116.3854 -12.0875,-6.9675 -12.06875,6.9675 12.0775,6.9737 12.07875,-6.9737"
         style="fill:#72c837;fill-opacity:1;fill-rule:nonzero;stroke:none"
         id="path5706" />
      <path
         inkscape:connector-curvature="0"
         d="m 85.881861,1126.4179 0.002,31.11 27.018749,15.6237 0,-31.1337 -27.021249,-15.6"
         style="fill:#56a534;fill-opacity:1;fill-rule:nonzero;stroke:none"
         id="path5708" />
      <path
         inkscape:connector-curvature="0"
         d="m 139.92311,1126.4179 -0.002,31.11 -27.0175,15.6237 0,-31.1337 27.02,-15.6"
         style="fill:#45762d;fill-opacity:1;fill-rule:nonzero;stroke:none"
         id="path5710" />
      <path
         inkscape:connector-curvature="0"
         d="m 139.92311,1126.4179 -27.0425,-15.5875 -26.998749,15.5875 27.021249,15.6 27.02,-15.6"
         style="fill:#72c837;fill-opacity:1;fill-rule:nonzero;stroke:none"
         id="path5712" />
      <path
         inkscape:connector-curvature="0"
         d="m 82.069361,1151.7529 0.001,17.0575 14.815,8.5662 0,-17.07 -14.81625,-8.5537"
         style="fill:#56a534;fill-opacity:1;fill-rule:nonzero;stroke:none"
         id="path5714" />
      <path
         inkscape:connector-curvature="0"
         d="m 111.70061,1151.7529 -10e-4,17.0575 -14.813749,8.5662 0,-17.07 14.814999,-8.5537"
         style="fill:#45762d;fill-opacity:1;fill-rule:nonzero;stroke:none"
         id="path5716" />
      <path
         inkscape:connector-curvature="0"
         d="m 111.70061,1151.7529 -14.827499,-8.5475 -14.80375,8.5475 14.81625,8.5537 14.814999,-8.5537"
         style="fill:#72c837;fill-opacity:1;fill-rule:nonzero;stroke:none"
         id="path5718" />
      <path
         inkscape:connector-curvature="0"
         d="m 115.43436,1148.3429 0,19.34 16.795,9.7112 0,-19.3537 -16.795,-9.6975"
         style="fill:#56a534;fill-opacity:1;fill-rule:nonzero;stroke:none"
         id="path5720" />
      <path
         inkscape:connector-curvature="0"
         d="m 149.02686,1148.3429 -0.002,19.34 -16.795,9.7112 0,-19.3537 16.7975,-9.6975"
         style="fill:#45762d;fill-opacity:1;fill-rule:nonzero;stroke:none"
         id="path5722" />
      <path
         inkscape:connector-curvature="0"
         d="m 149.02686,1148.3429 -16.81125,-9.69 -16.7825,9.69 16.79625,9.6975 16.7975,-9.6975"
         style="fill:#72c837;fill-opacity:1;fill-rule:nonzero;stroke:none"
         id="path5724" />
      <path
         inkscape:connector-curvature="0"
         d="m 108.84811,1159.0729 10e-4,7.5825 6.585,3.8075 0,-7.5875 -6.58625,-3.8025"
         style="fill:#56a534;fill-opacity:1;fill-rule:nonzero;stroke:none"
         id="path5726" />
      <path
         inkscape:connector-curvature="0"
         d="m 122.01936,1159.0729 0,7.5825 -6.585,3.8075 0,-7.5875 6.585,-3.8025"
         style="fill:#45762d;fill-opacity:1;fill-rule:nonzero;stroke:none"
         id="path5728" />
      <path
         inkscape:connector-curvature="0"
         d="m 122.01936,1159.0729 -6.59125,-3.7988 -6.58,3.7988 6.58625,3.8025 6.585,-3.8025"
         style="fill:#72c837;fill-opacity:1;fill-rule:nonzero;stroke:none"
         id="path5730" />
    </g>
  </g>
</svg>
