<?xml version="1.0" encoding="UTF-8" standalone="no"?>
<!-- Created with Inkscape (http://www.inkscape.org/) -->

<svg
   xmlns:dc="http://purl.org/dc/elements/1.1/"
   xmlns:cc="http://creativecommons.org/ns#"
   xmlns:rdf="http://www.w3.org/1999/02/22-rdf-syntax-ns#"
   xmlns:svg="http://www.w3.org/2000/svg"
   xmlns="http://www.w3.org/2000/svg"
   xmlns:sodipodi="http://sodipodi.sourceforge.net/DTD/sodipodi-0.dtd"
   xmlns:inkscape="http://www.inkscape.org/namespaces/inkscape"
   id="svg6214"
   height="205"
   width="205"
   version="1.1"
   inkscape:version="0.48.5 r10040"
   sodipodi:docname="terrain_grass_1.svg">
  <defs
     id="defs107" />
  <sodipodi:namedview
     pagecolor="#ffffff"
     bordercolor="#666666"
     borderopacity="1"
     objecttolerance="10"
     gridtolerance="10"
     guidetolerance="10"
     inkscape:pageopacity="0"
     inkscape:pageshadow="2"
     inkscape:window-width="995"
     inkscape:window-height="1041"
     id="namedview105"
     showgrid="false"
     inkscape:zoom="2"
     inkscape:cx="117.05815"
     inkscape:cy="119.33958"
     inkscape:window-x="921"
     inkscape:window-y="18"
     inkscape:window-maximized="0"
     inkscape:current-layer="svg6214"
     showguides="true"
     inkscape:guide-bbox="true">
    <sodipodi:guide
       orientation="0,1"
       position="-0.21875,59.289062"
       id="guide3295" />
    <sodipodi:guide
       orientation="1,0"
       position="102.49105,-5.4346034"
       id="guide3297" />
  </sodipodi:namedview>
  <metadata
     id="metadata6219">
    <rdf:RDF>
      <cc:Work
         rdf:about="">
        <dc:format>image/svg+xml</dc:format>
        <dc:type
           rdf:resource="http://purl.org/dc/dcmitype/StillImage" />
        <dc:title></dc:title>
      </cc:Work>
    </rdf:RDF>
  </metadata>
  <g
     id="g5975"
     transform="translate(321.89874,-1281.1494)">
    <path
       id="path5732"
       style="fill:#b16229;fill-opacity:1;fill-rule:nonzero;stroke:none"
       d="m -322.12649,1414.2515 0.009,12.6088 102.575,59.3112 0,-12.6925 -102.58375,-59.2275"
       inkscape:connector-curvature="0" />
    <path
       id="path5734"
       style="fill:#5f251f;fill-opacity:1;fill-rule:nonzero;stroke:none"
       d="m -116.95774,1414.2515 -0.01,12.6088 -102.575,59.3112 0,-12.6925 102.585,-59.2275"
       inkscape:connector-curvature="0" />
    <path
       id="path5736"
       style="fill:#b2783e;fill-opacity:1;fill-rule:nonzero;stroke:none"
       d="m -116.95774,1414.2515 -102.66875,-59.1787 -102.5,59.1787 102.58375,59.2275 102.585,-59.2275"
       inkscape:connector-curvature="0" />
    <path
       id="path5738"
       style="fill:#e6c971;fill-opacity:1;fill-rule:nonzero;stroke:none"
       d="m -322.12774,1401.564 0.01,12.6088 102.575,59.3112 0,-12.6937 -102.585,-59.2263"
       inkscape:connector-curvature="0" />
    <path
       id="path5740"
       style="fill:#bb8233;fill-opacity:1;fill-rule:nonzero;stroke:none"
       d="m -116.95899,1401.564 -0.009,12.6088 -102.575,59.3112 0,-12.6937 102.58375,-59.2263"
       inkscape:connector-curvature="0" />
    <path
       id="path5742"
       style="fill:#a8a3d9;fill-opacity:1;fill-rule:nonzero;stroke:none"
       d="m -116.95899,1401.564 -102.66875,-59.1787 -102.5,59.1787 102.585,59.2263 102.58375,-59.2263"
       inkscape:connector-curvature="0" />
    <path
       id="path5744"
       style="fill:#549f4a;fill-opacity:1;fill-rule:nonzero;stroke:none"
       d="m -322.12774,1375.1678 0.01,26.305 102.575,59.3125 0,-26.3925 -102.585,-59.225"
       inkscape:connector-curvature="0" />
    <path
       id="path5746"
       style="fill:#32624a;fill-opacity:1;fill-rule:nonzero;stroke:none"
       d="m -116.95899,1375.1678 -0.009,26.305 -102.575,59.3125 0,-26.3925 102.58375,-59.225"
       inkscape:connector-curvature="0" />
    <path
       id="path5748"
       style="fill:#9ad536;fill-opacity:1;fill-rule:nonzero;stroke:none"
       d="m -116.95899,1375.1678 -102.66875,-59.1788 -102.5,59.1788 102.585,59.225 102.58375,-59.225"
       inkscape:connector-curvature="0" />
    <g
       id="g5750"
       transform="translate(-196.97975,194.95944)">
      <path
         inkscape:connector-curvature="0"
         d="m -34.961498,1150.135 0,18.4412 -1.7975,1.0388 0,-18.4425 1.7975,-1.0375"
         style="fill:#2b3119;fill-opacity:1;fill-rule:nonzero;stroke:none"
         id="path5752" />
      <path
         inkscape:connector-curvature="0"
         d="m -38.555248,1150.135 0,18.4412 1.79625,1.0388 0,-18.4425 -1.79625,-1.0375"
         style="fill:#444c28;fill-opacity:1;fill-rule:nonzero;stroke:none"
         id="path5754" />
      <path
         inkscape:connector-curvature="0"
         d="m -38.555248,1150.135 1.7975,-1.0363 1.79625,1.0363 -1.7975,1.0375 -1.79625,-1.0375"
         style="fill:#4f5831;fill-opacity:1;fill-rule:nonzero;stroke:none"
         id="path5756" />
      <path
         inkscape:connector-curvature="0"
         d="m -30.571498,1162.3925 0,2.0437 -1.79625,1.04 0,-2.0462 1.79625,-1.0375"
         style="fill:#2b3119;fill-opacity:1;fill-rule:nonzero;stroke:none"
         id="path5758" />
      <path
         inkscape:connector-curvature="0"
         d="m -36.758998,1160.895 0,2.0437 4.39125,2.5375 0,-2.0462 -4.39125,-2.535"
         style="fill:#444c28;fill-opacity:1;fill-rule:nonzero;stroke:none"
         id="path5760" />
      <path
         inkscape:connector-curvature="0"
         d="m -36.758998,1160.895 1.8,-1.0363 4.3875,2.5338 -1.79625,1.0375 -4.39125,-2.535"
         style="fill:#4f5831;fill-opacity:1;fill-rule:nonzero;stroke:none"
         id="path5762" />
      <path
         inkscape:connector-curvature="0"
         d="m -30.571498,1157.1525 0,5.3462 -1.79625,1.0388 0,-5.3475 1.79625,-1.0375"
         style="fill:#2b3119;fill-opacity:1;fill-rule:nonzero;stroke:none"
         id="path5764" />
      <path
         inkscape:connector-curvature="0"
         d="m -34.165248,1157.1525 0,5.3462 1.7975,1.0388 0,-5.3475 -1.7975,-1.0375"
         style="fill:#444c28;fill-opacity:1;fill-rule:nonzero;stroke:none"
         id="path5766" />
      <path
         inkscape:connector-curvature="0"
         d="m -34.165248,1157.1525 1.79875,-1.0375 1.795,1.0375 -1.79625,1.0375 -1.7975,-1.0375"
         style="fill:#4f5831;fill-opacity:1;fill-rule:nonzero;stroke:none"
         id="path5768" />
      <path
         inkscape:connector-curvature="0"
         d="m -42.946498,1159.0412 0,2.045 1.7975,1.0388 0,-2.0463 -1.7975,-1.0375"
         style="fill:#444c28;fill-opacity:1;fill-rule:nonzero;stroke:none"
         id="path5770" />
      <path
         inkscape:connector-curvature="0"
         d="m -36.758998,1157.5437 0,2.045 -4.39,2.5363 0,-2.0463 4.39,-2.535"
         style="fill:#2b3119;fill-opacity:1;fill-rule:nonzero;stroke:none"
         id="path5772" />
      <path
         inkscape:connector-curvature="0"
         d="m -36.758998,1157.5437 -1.7975,-1.0362 -4.39,2.5337 1.7975,1.0375 4.39,-2.535"
         style="fill:#4f5831;fill-opacity:1;fill-rule:nonzero;stroke:none"
         id="path5774" />
      <path
         inkscape:connector-curvature="0"
         d="m -42.946498,1155.2537 0,3.8938 1.7975,1.0387 0,-3.895 -1.7975,-1.0375"
         style="fill:#444c28;fill-opacity:1;fill-rule:nonzero;stroke:none"
         id="path5776" />
      <path
         inkscape:connector-curvature="0"
         d="m -39.351498,1155.2537 0,3.8938 -1.7975,1.0387 0,-3.895 1.7975,-1.0375"
         style="fill:#2b3119;fill-opacity:1;fill-rule:nonzero;stroke:none"
         id="path5778" />
      <path
         inkscape:connector-curvature="0"
         d="m -39.351498,1155.2537 -1.8,-1.0362 -1.795,1.0362 1.7975,1.0375 1.7975,-1.0375"
         style="fill:#4f5831;fill-opacity:1;fill-rule:nonzero;stroke:none"
         id="path5780" />
      <path
         inkscape:connector-curvature="0"
         d="m -38.893998,1130.54 0,6.8437 5.94375,3.4363 0,-6.8475 -5.94375,-3.4325"
         style="fill:#56a534;fill-opacity:1;fill-rule:nonzero;stroke:none"
         id="path5782" />
      <path
         inkscape:connector-curvature="0"
         d="m -27.006498,1130.54 -10e-4,6.8437 -5.9425,3.4363 0,-6.8475 5.94375,-3.4325"
         style="fill:#45762d;fill-opacity:1;fill-rule:nonzero;stroke:none"
         id="path5784" />
      <path
         inkscape:connector-curvature="0"
         d="m -27.006498,1130.54 -5.94875,-3.4288 -5.93875,3.4288 5.94375,3.4325 5.94375,-3.4325"
         style="fill:#72c837;fill-opacity:1;fill-rule:nonzero;stroke:none"
         id="path5786" />
      <path
         inkscape:connector-curvature="0"
         d="m -51.357748,1135.4775 10e-4,15.31 13.29625,7.6875 0,-15.3213 -13.2975,-7.6762"
         style="fill:#56a534;fill-opacity:1;fill-rule:nonzero;stroke:none"
         id="path5788" />
      <path
         inkscape:connector-curvature="0"
         d="m -24.762748,1135.4775 -0.001,15.31 -13.29625,7.6875 0,-15.3213 13.2975,-7.6762"
         style="fill:#45762d;fill-opacity:1;fill-rule:nonzero;stroke:none"
         id="path5790" />
      <path
         inkscape:connector-curvature="0"
         d="m -24.762748,1135.4775 -13.30875,-7.6713 -13.28625,7.6713 13.2975,7.6762 13.2975,-7.6762"
         style="fill:#72c837;fill-opacity:1;fill-rule:nonzero;stroke:none"
         id="path5792" />
      <path
         inkscape:connector-curvature="0"
         d="m -53.233998,1147.945 10e-4,8.395 7.29,4.215 0,-8.4013 -7.29125,-4.2087"
         style="fill:#56a534;fill-opacity:1;fill-rule:nonzero;stroke:none"
         id="path5794" />
      <path
         inkscape:connector-curvature="0"
         d="m -38.652748,1147.945 0,8.395 -7.29,4.215 0,-8.4013 7.29,-4.2087"
         style="fill:#45762d;fill-opacity:1;fill-rule:nonzero;stroke:none"
         id="path5796" />
      <path
         inkscape:connector-curvature="0"
         d="m -38.652748,1147.945 -7.29625,-4.2063 -7.285,4.2063 7.29125,4.2087 7.29,-4.2087"
         style="fill:#72c837;fill-opacity:1;fill-rule:nonzero;stroke:none"
         id="path5798" />
      <path
         inkscape:connector-curvature="0"
         d="m -36.815248,1146.2675 0,9.5162 8.26625,4.78 0,-9.5237 -8.26625,-4.7725"
         style="fill:#56a534;fill-opacity:1;fill-rule:nonzero;stroke:none"
         id="path5800" />
      <path
         inkscape:connector-curvature="0"
         d="m -20.282748,1146.2675 -10e-4,9.5162 -8.265,4.78 0,-9.5237 8.26625,-4.7725"
         style="fill:#45762d;fill-opacity:1;fill-rule:nonzero;stroke:none"
         id="path5802" />
      <path
         inkscape:connector-curvature="0"
         d="m -20.282748,1146.2675 -8.27375,-4.7688 -8.25875,4.7688 8.26625,4.7725 8.26625,-4.7725"
         style="fill:#72c837;fill-opacity:1;fill-rule:nonzero;stroke:none"
         id="path5804" />
      <path
         inkscape:connector-curvature="0"
         d="m -40.056498,1151.5475 0,3.73 3.24125,1.875 0,-3.7338 -3.24125,-1.8712"
         style="fill:#56a534;fill-opacity:1;fill-rule:nonzero;stroke:none"
         id="path5806" />
      <path
         inkscape:connector-curvature="0"
         d="m -33.573998,1151.5475 0,3.73 -3.24125,1.875 0,-3.7338 3.24125,-1.8712"
         style="fill:#45762d;fill-opacity:1;fill-rule:nonzero;stroke:none"
         id="path5808" />
      <path
         inkscape:connector-curvature="0"
         d="m -33.573998,1151.5475 -3.24375,-1.87 -3.23875,1.87 3.24125,1.8712 3.24125,-1.8712"
         style="fill:#72c837;fill-opacity:1;fill-rule:nonzero;stroke:none"
         id="path5810" />
    </g>
    <g
       id="g5812"
       transform="translate(-153.03811,163.13964)">
      <path
         inkscape:connector-curvature="0"
         d="m -34.045248,1209.0762 0,26.9838 -2.63,1.5212 0,-26.9887 2.63,-1.5163"
         style="fill:#2b3119;fill-opacity:1;fill-rule:nonzero;stroke:none"
         id="path5814" />
      <path
         inkscape:connector-curvature="0"
         d="m -39.305248,1209.0762 0,26.9838 2.63,1.5212 0,-26.9887 -2.63,-1.5163"
         style="fill:#444c28;fill-opacity:1;fill-rule:nonzero;stroke:none"
         id="path5816" />
      <path
         inkscape:connector-curvature="0"
         d="m -39.305248,1209.0762 2.63125,-1.5175 2.62875,1.5175 -2.63,1.5163 -2.63,-1.5163"
         style="fill:#4f5831;fill-opacity:1;fill-rule:nonzero;stroke:none"
         id="path5818" />
      <path
         inkscape:connector-curvature="0"
         d="m -27.620248,1227.01 0,2.9925 -2.63,1.5212 0,-2.995 2.63,-1.5187"
         style="fill:#2b3119;fill-opacity:1;fill-rule:nonzero;stroke:none"
         id="path5820" />
      <path
         inkscape:connector-curvature="0"
         d="m -36.675248,1224.8187 0.001,2.9925 6.42375,3.7125 0,-2.995 -6.425,-3.71"
         style="fill:#444c28;fill-opacity:1;fill-rule:nonzero;stroke:none"
         id="path5822" />
      <path
         inkscape:connector-curvature="0"
         d="m -36.675248,1224.8187 2.63125,-1.5162 6.42375,3.7075 -2.63,1.5187 -6.425,-3.71"
         style="fill:#4f5831;fill-opacity:1;fill-rule:nonzero;stroke:none"
         id="path5824" />
      <path
         inkscape:connector-curvature="0"
         d="m -27.620248,1219.3425 0,7.8237 -2.63,1.52 0,-7.825 2.63,-1.5187"
         style="fill:#2b3119;fill-opacity:1;fill-rule:nonzero;stroke:none"
         id="path5826" />
      <path
         inkscape:connector-curvature="0"
         d="m -32.880248,1219.3425 0,7.8237 2.63,1.52 0,-7.825 -2.63,-1.5187"
         style="fill:#444c28;fill-opacity:1;fill-rule:nonzero;stroke:none"
         id="path5828" />
      <path
         inkscape:connector-curvature="0"
         d="m -32.880248,1219.3425 2.63125,-1.5163 2.62875,1.5163 -2.63,1.5187 -2.63,-1.5187"
         style="fill:#4f5831;fill-opacity:1;fill-rule:nonzero;stroke:none"
         id="path5830" />
      <path
         inkscape:connector-curvature="0"
         d="m -45.730248,1222.1075 0,2.9925 2.63,1.52 0,-2.9938 -2.63,-1.5187"
         style="fill:#444c28;fill-opacity:1;fill-rule:nonzero;stroke:none"
         id="path5832" />
      <path
         inkscape:connector-curvature="0"
         d="m -36.675248,1219.9162 0,2.9925 -6.425,3.7113 0,-2.9938 6.425,-3.71"
         style="fill:#2b3119;fill-opacity:1;fill-rule:nonzero;stroke:none"
         id="path5834" />
      <path
         inkscape:connector-curvature="0"
         d="m -36.675248,1219.9162 -2.6325,-1.5162 -6.4225,3.7075 2.63,1.5187 6.425,-3.71"
         style="fill:#4f5831;fill-opacity:1;fill-rule:nonzero;stroke:none"
         id="path5836" />
      <path
         inkscape:connector-curvature="0"
         d="m -45.730248,1216.565 0,5.6975 2.63,1.5212 0,-5.7 -2.63,-1.5187"
         style="fill:#444c28;fill-opacity:1;fill-rule:nonzero;stroke:none"
         id="path5838" />
      <path
         inkscape:connector-curvature="0"
         d="m -40.470248,1216.565 -0.001,5.6975 -2.62875,1.5212 0,-5.7 2.63,-1.5187"
         style="fill:#2b3119;fill-opacity:1;fill-rule:nonzero;stroke:none"
         id="path5840" />
      <path
         inkscape:connector-curvature="0"
         d="m -40.470248,1216.565 -2.6325,-1.5163 -2.6275,1.5163 2.63,1.5187 2.63,-1.5187"
         style="fill:#4f5831;fill-opacity:1;fill-rule:nonzero;stroke:none"
         id="path5842" />
      <path
         inkscape:connector-curvature="0"
         d="m -39.800248,1180.4012 0.001,10.0138 8.6975,5.0287 0,-10.0212 -8.69875,-5.0213"
         style="fill:#56a534;fill-opacity:1;fill-rule:nonzero;stroke:none"
         id="path5844" />
      <path
         inkscape:connector-curvature="0"
         d="m -22.405248,1180.4012 0,10.0138 -8.69625,5.0287 0,-10.0212 8.69625,-5.0213"
         style="fill:#45762d;fill-opacity:1;fill-rule:nonzero;stroke:none"
         id="path5846" />
      <path
         inkscape:connector-curvature="0"
         d="m -22.405248,1180.4012 -8.70375,-5.0187 -8.69125,5.0187 8.69875,5.0213 8.69625,-5.0213"
         style="fill:#72c837;fill-opacity:1;fill-rule:nonzero;stroke:none"
         id="path5848" />
      <path
         inkscape:connector-curvature="0"
         d="m -58.038998,1187.625 10e-4,22.4037 19.4575,11.25 0,-22.4187 -19.45875,-11.235"
         style="fill:#56a534;fill-opacity:1;fill-rule:nonzero;stroke:none"
         id="path5850" />
      <path
         inkscape:connector-curvature="0"
         d="m -19.121498,1187.625 -0.001,22.4037 -19.4575,11.25 0,-22.4187 19.45875,-11.235"
         style="fill:#45762d;fill-opacity:1;fill-rule:nonzero;stroke:none"
         id="path5852" />
      <path
         inkscape:connector-curvature="0"
         d="m -19.121498,1187.625 -19.475,-11.225 -19.4425,11.225 19.45875,11.235 19.45875,-11.235"
         style="fill:#72c837;fill-opacity:1;fill-rule:nonzero;stroke:none"
         id="path5854" />
      <path
         inkscape:connector-curvature="0"
         d="m -60.783998,1205.87 0,12.2837 10.66875,6.1688 0,-12.2925 -10.66875,-6.16"
         style="fill:#56a534;fill-opacity:1;fill-rule:nonzero;stroke:none"
         id="path5856" />
      <path
         inkscape:connector-curvature="0"
         d="m -39.445248,1205.87 -10e-4,12.2837 -10.66875,6.1688 0,-12.2925 10.67,-6.16"
         style="fill:#45762d;fill-opacity:1;fill-rule:nonzero;stroke:none"
         id="path5858" />
      <path
         inkscape:connector-curvature="0"
         d="m -39.445248,1205.87 -10.67875,-6.155 -10.66,6.155 10.66875,6.16 10.67,-6.16"
         style="fill:#72c837;fill-opacity:1;fill-rule:nonzero;stroke:none"
         id="path5860" />
      <path
         inkscape:connector-curvature="0"
         d="m -36.757748,1203.4137 0,13.9275 12.095,6.9938 0,-13.9375 -12.095,-6.9838"
         style="fill:#56a534;fill-opacity:1;fill-rule:nonzero;stroke:none"
         id="path5862" />
      <path
         inkscape:connector-curvature="0"
         d="m -12.566498,1203.4137 0,13.9275 -12.09625,6.9938 0,-13.9375 12.09625,-6.9838"
         style="fill:#45762d;fill-opacity:1;fill-rule:nonzero;stroke:none"
         id="path5864" />
      <path
         inkscape:connector-curvature="0"
         d="m -12.566498,1203.4137 -12.10625,-6.9775 -12.08625,6.9775 12.09625,6.9838 12.09625,-6.9838"
         style="fill:#72c837;fill-opacity:1;fill-rule:nonzero;stroke:none"
         id="path5866" />
      <path
         inkscape:connector-curvature="0"
         d="m -41.500248,1211.1412 0,5.46 4.7425,2.7413 0,-5.4638 -4.7425,-2.7375"
         style="fill:#56a534;fill-opacity:1;fill-rule:nonzero;stroke:none"
         id="path5868" />
      <path
         inkscape:connector-curvature="0"
         d="m -32.015248,1211.1412 0,5.46 -4.7425,2.7413 0,-5.4638 4.7425,-2.7375"
         style="fill:#45762d;fill-opacity:1;fill-rule:nonzero;stroke:none"
         id="path5870" />
      <path
         inkscape:connector-curvature="0"
         d="m -32.015248,1211.1412 -4.74625,-2.7362 -4.73875,2.7362 4.7425,2.7375 4.7425,-2.7375"
         style="fill:#72c837;fill-opacity:1;fill-rule:nonzero;stroke:none"
         id="path5872" />
    </g>
  </g>
</svg>
