<?xml version="1.0" encoding="UTF-8" standalone="no"?>
<!-- Created with Inkscape (http://www.inkscape.org/) -->

<svg
   xmlns:dc="http://purl.org/dc/elements/1.1/"
   xmlns:cc="http://creativecommons.org/ns#"
   xmlns:rdf="http://www.w3.org/1999/02/22-rdf-syntax-ns#"
   xmlns:svg="http://www.w3.org/2000/svg"
   xmlns="http://www.w3.org/2000/svg"
   xmlns:sodipodi="http://sodipodi.sourceforge.net/DTD/sodipodi-0.dtd"
   xmlns:inkscape="http://www.inkscape.org/namespaces/inkscape"
   id="svg6214"
   height="205"
   width="205"
   version="1.1"
   inkscape:version="0.48.5 r10040"
   sodipodi:docname="terrain_grass_2.svg">
  <defs
     id="defs107" />
  <sodipodi:namedview
     pagecolor="#ffffff"
     bordercolor="#666666"
     borderopacity="1"
     objecttolerance="10"
     gridtolerance="10"
     guidetolerance="10"
     inkscape:pageopacity="0"
     inkscape:pageshadow="2"
     inkscape:window-width="995"
     inkscape:window-height="1041"
     id="namedview105"
     showgrid="false"
     inkscape:zoom="1.7940591"
     inkscape:cx="37.258169"
     inkscape:cy="92.897916"
     inkscape:window-x="921"
     inkscape:window-y="18"
     inkscape:window-maximized="0"
     inkscape:current-layer="svg6214" />
  <metadata
     id="metadata6219">
    <rdf:RDF>
      <cc:Work
         rdf:about="">
        <dc:format>image/svg+xml</dc:format>
        <dc:type
           rdf:resource="http://purl.org/dc/dcmitype/StillImage" />
        <dc:title />
      </cc:Work>
    </rdf:RDF>
  </metadata>
  <g
     id="layer1"
     transform="translate(-277.25503,-450.49678)">
    <g
       id="g5874"
       transform="translate(324.89957,-707.9349)"
       style="fill-rule:nonzero">
      <path
         id="path5234"
         d="m -47.666,1291.1 0.009,12.609 102.58,59.311 0,-12.692 -102.58,-59.228"
         inkscape:connector-curvature="0"
         style="fill:#b16229" />
      <path
         id="path5236"
         d="m 157.5,1291.1 -0.01,12.609 -102.58,59.311 0,-12.692 102.59,-59.228"
         inkscape:connector-curvature="0"
         style="fill:#5f251f" />
      <path
         id="path5238"
         d="M 157.5,1291.1 54.83,1231.921 -47.67,1291.1 54.91,1350.328 157.5,1291.1"
         inkscape:connector-curvature="0"
         style="fill:#b2783e" />
      <path
         id="path5240"
         d="m -47.667,1278.4 0.01,12.609 102.58,59.311 0,-12.694 -102.58,-59.226"
         inkscape:connector-curvature="0"
         style="fill:#e6c971" />
      <path
         id="path5242"
         d="m 157.5,1278.4 -0.009,12.609 -102.58,59.311 0,-12.694 102.58,-59.226"
         inkscape:connector-curvature="0"
         style="fill:#bb8233" />
      <path
         id="path5244"
         d="M 157.5,1278.4 54.83,1219.221 -47.67,1278.4 54.91,1337.626 157.49,1278.4"
         inkscape:connector-curvature="0"
         style="fill:#a8a3d9" />
      <path
         id="path5246"
         d="m -47.667,1252 0.01,26.305 102.58,59.312 0,-26.392 L -47.657,1252"
         inkscape:connector-curvature="0"
         style="fill:#549f4a" />
      <path
         id="path5248"
         d="m 157.5,1252 -0.009,26.305 -102.58,59.312 0,-26.392 102.58,-59.225"
         inkscape:connector-curvature="0"
         style="fill:#32624a" />
      <path
         id="path5250"
         d="M 157.5,1252 54.83,1192.821 -47.67,1252 54.91,1311.225 157.49,1252"
         inkscape:connector-curvature="0"
         style="fill:#9ad536" />
      <path
         id="path5252"
         d="m 7.2765,1230.6 0,37.472 -3.6512,2.1125 0,-37.478 3.6512,-2.1075"
         inkscape:connector-curvature="0"
         style="fill:#2b3119" />
      <path
         id="path5254"
         d="m -0.025963,1230.6 0,37.472 3.6512,2.1125 0,-37.478 -3.6512,-2.1075"
         inkscape:connector-curvature="0"
         style="fill:#444c28" />
      <path
         id="path5256"
         d="m -0.025963,1230.6 3.6537,-2.1075 3.6488,2.1075 -3.6512,2.1075 -3.6512,-2.1075"
         inkscape:connector-curvature="0"
         style="fill:#4f5831" />
      <path
         id="path5258"
         d="m 16.199,1255.5 0,4.155 -3.6525,2.1113 0,-4.1575 3.6525,-2.1088"
         inkscape:connector-curvature="0"
         style="fill:#2b3119" />
      <path
         id="path5260"
         d="m 3.6253,1252.4 0,4.1538 8.9212,5.155 0,-4.1575 -8.9212,-5.1513"
         inkscape:connector-curvature="0"
         style="fill:#444c28" />
      <path
         id="path5262"
         d="m 3.6253,1252.4 3.655,-2.1062 8.9187,5.1487 -3.6525,2.1088 -8.9212,-5.1513"
         inkscape:connector-curvature="0"
         style="fill:#4f5831" />
      <path
         id="path5264"
         d="m 16.199,1244.8 0,10.865 -3.6525,2.11 0,-10.866 3.6525,-2.1088"
         inkscape:connector-curvature="0"
         style="fill:#2b3119" />
      <path
         id="path5266"
         d="m 8.8953,1244.8 0,10.865 3.6512,2.11 0,-10.866 -3.6512,-2.1088"
         inkscape:connector-curvature="0"
         style="fill:#444c28" />
      <path
         id="path5268"
         d="m 8.8953,1244.8 3.655,-2.1062 3.6488,2.1062 -3.6525,2.1088 -3.6512,-2.1088"
         inkscape:connector-curvature="0"
         style="fill:#4f5831" />
      <path
         id="path5270"
         d="m -8.9485,1248.7 0,4.155 3.6525,2.1112 0,-4.1575 -3.6525,-2.1087"
         inkscape:connector-curvature="0"
         style="fill:#444c28" />
      <path
         id="path5272"
         d="m 3.6253,1245.6 -0.001,4.1538 -8.92,5.1537 0,-4.1575 8.9212,-5.15"
         inkscape:connector-curvature="0"
         style="fill:#2b3119" />
      <path
         id="path5274"
         d="m 3.6253,1245.6 -3.655,-2.1075 -8.9188,5.1488 3.6525,2.1087 8.9212,-5.15"
         inkscape:connector-curvature="0"
         style="fill:#4f5831" />
      <path
         id="path5276"
         d="m -8.9485,1241 0,7.9125 3.6525,2.1125 0,-7.9162 L -8.9485,1241"
         inkscape:connector-curvature="0"
         style="fill:#444c28" />
      <path
         id="path5278"
         d="m -1.6447,1241 0,7.9125 -3.6512,2.1125 0,-7.9162 3.6512,-2.1088"
         inkscape:connector-curvature="0"
         style="fill:#2b3119" />
      <path
         id="path5280"
         d="m -1.6447,1241 -3.655,-2.1062 -3.6488,2.1062 3.6525,2.1088 3.6512,-2.1088"
         inkscape:connector-curvature="0"
         style="fill:#4f5831" />
      <path
         id="path5282"
         d="m -0.71471,1190.7 0.001,13.906 12.076,6.9825 0,-13.915 -12.077,-6.9737"
         inkscape:connector-curvature="0"
         style="fill:#56a534" />
      <path
         id="path5284"
         d="m 23.442,1190.7 -0.001,13.906 -12.078,6.9825 0,-13.915 12.079,-6.9737"
         inkscape:connector-curvature="0"
         style="fill:#45762d" />
      <path
         id="path5286"
         d="m 23.442,1190.7 -12.088,-6.9675 -12.069,6.9675 12.077,6.9737 12.079,-6.9737"
         inkscape:connector-curvature="0"
         style="fill:#72c837" />
      <path
         id="path5288"
         d="m -26.041,1200.8 0.002,31.11 27.019,15.624 0,-31.134 -27.021,-15.6"
         inkscape:connector-curvature="0"
         style="fill:#56a534" />
      <path
         id="path5290"
         d="m 28,1200.8 -0.002,31.11 -27.017,15.624 0,-31.134 27.02,-15.6"
         inkscape:connector-curvature="0"
         style="fill:#45762d" />
      <path
         id="path5292"
         d="M 28,1200.8 0.958,1185.212 -26.041,1200.8 0.98,1216.4 28,1200.8"
         inkscape:connector-curvature="0"
         style="fill:#72c837" />
      <path
         id="path5294"
         d="m -29.853,1226.1 0.001,17.058 14.815,8.5662 0,-17.07 -14.816,-8.5537"
         inkscape:connector-curvature="0"
         style="fill:#56a534" />
      <path
         id="path5296"
         d="m -0.22221,1226.1 -0.001,17.058 -14.814,8.5662 0,-17.07 14.815,-8.5537"
         inkscape:connector-curvature="0"
         style="fill:#45762d" />
      <path
         id="path5298"
         d="m -0.22221,1226.1 -14.828,-8.5475 -14.804,8.5475 14.816,8.5537 14.815,-8.5537"
         inkscape:connector-curvature="0"
         style="fill:#72c837" />
      <path
         id="path5300"
         d="m 3.5115,1222.7 0,19.34 16.795,9.7112 0,-19.354 -16.795,-9.6975"
         inkscape:connector-curvature="0"
         style="fill:#56a534" />
      <path
         id="path5302"
         d="m 37.104,1222.7 -0.002,19.34 -16.795,9.7112 0,-19.354 16.798,-9.6975"
         inkscape:connector-curvature="0"
         style="fill:#45762d" />
      <path
         id="path5304"
         d="m 37.104,1222.7 -16.811,-9.69 -16.782,9.69 16.796,9.6975 16.798,-9.6975"
         inkscape:connector-curvature="0"
         style="fill:#72c837" />
      <path
         id="path5306"
         d="m -3.0747,1233.4 10e-4,7.5825 6.585,3.8075 0,-7.5875 -6.5862,-3.8025"
         inkscape:connector-curvature="0"
         style="fill:#56a534" />
      <path
         id="path5308"
         d="m 10.097,1233.4 0,7.5825 -6.585,3.8075 0,-7.5875 6.585,-3.8025"
         inkscape:connector-curvature="0"
         style="fill:#45762d" />
      <path
         id="path5310"
         d="m 10.097,1233.4 -6.5912,-3.7988 -6.58,3.7988 6.5862,3.8025 6.585,-3.8025"
         inkscape:connector-curvature="0"
         style="fill:#72c837" />
      <path
         id="path5312"
         d="m 66.669,1269.8 0,26.984 -2.63,1.5212 0,-26.989 2.63,-1.5163"
         inkscape:connector-curvature="0"
         style="fill:#2b3119" />
      <path
         id="path5314"
         d="m 61.409,1269.8 0,26.984 2.63,1.5212 0,-26.989 -2.63,-1.5163"
         inkscape:connector-curvature="0"
         style="fill:#444c28" />
      <path
         id="path5316"
         d="m 61.409,1269.8 2.6312,-1.5175 2.6288,1.5175 -2.63,1.5163 -2.63,-1.5163"
         inkscape:connector-curvature="0"
         style="fill:#4f5831" />
      <path
         id="path5318"
         d="m 73.094,1287.7 0,2.9925 -2.63,1.5212 0,-2.995 2.63,-1.5187"
         inkscape:connector-curvature="0"
         style="fill:#2b3119" />
      <path
         id="path5320"
         d="m 64.039,1285.5 0.001,2.9925 6.4238,3.7125 0,-2.995 -6.425,-3.71"
         inkscape:connector-curvature="0"
         style="fill:#444c28" />
      <path
         id="path5322"
         d="m 64.039,1285.5 2.6312,-1.5162 6.4238,3.7075 -2.63,1.5187 -6.425,-3.71"
         inkscape:connector-curvature="0"
         style="fill:#4f5831" />
      <path
         id="path5324"
         d="m 73.094,1280.1 0,7.8237 -2.63,1.52 0,-7.825 2.63,-1.5187"
         inkscape:connector-curvature="0"
         style="fill:#2b3119" />
      <path
         id="path5326"
         d="m 67.834,1280.1 0,7.8237 2.63,1.52 0,-7.825 -2.63,-1.5187"
         inkscape:connector-curvature="0"
         style="fill:#444c28" />
      <path
         id="path5328"
         d="m 67.834,1280.1 2.6312,-1.5163 2.6288,1.5163 -2.63,1.5187 -2.63,-1.5187"
         inkscape:connector-curvature="0"
         style="fill:#4f5831" />
      <path
         id="path5330"
         d="m 54.984,1282.8 0,2.9925 2.63,1.52 0,-2.9938 -2.63,-1.5187"
         inkscape:connector-curvature="0"
         style="fill:#444c28" />
      <path
         id="path5332"
         d="m 64.039,1280.6 0,2.9925 -6.425,3.7113 0,-2.9938 6.425,-3.71"
         inkscape:connector-curvature="0"
         style="fill:#2b3119" />
      <path
         id="path5334"
         d="m 64.039,1280.6 -2.6325,-1.5162 -6.4225,3.7075 2.63,1.5187 6.425,-3.71"
         inkscape:connector-curvature="0"
         style="fill:#4f5831" />
      <path
         id="path5336"
         d="m 54.984,1277.3 0,5.6975 2.63,1.5212 0,-5.7 -2.63,-1.5187"
         inkscape:connector-curvature="0"
         style="fill:#444c28" />
      <path
         id="path5338"
         d="m 60.244,1277.3 -10e-4,5.6975 -2.6288,1.5212 0,-5.7 2.63,-1.5187"
         inkscape:connector-curvature="0"
         style="fill:#2b3119" />
      <path
         id="path5340"
         d="m 60.244,1277.3 -2.6325,-1.5163 -2.6275,1.5163 2.63,1.5187 2.63,-1.5187"
         inkscape:connector-curvature="0"
         style="fill:#4f5831" />
      <path
         id="path5342"
         d="m 60.914,1241.1 10e-4,10.014 8.6975,5.0287 0,-10.021 -8.6988,-5.0213"
         inkscape:connector-curvature="0"
         style="fill:#56a534" />
      <path
         id="path5344"
         d="m 78.309,1241.1 0,10.014 -8.6962,5.0287 0,-10.021 8.6962,-5.0213"
         inkscape:connector-curvature="0"
         style="fill:#45762d" />
      <path
         id="path5346"
         d="m 78.309,1241.1 -8.7038,-5.0187 -8.6912,5.0187 8.6988,5.0213 8.6962,-5.0213"
         inkscape:connector-curvature="0"
         style="fill:#72c837" />
      <path
         id="path5348"
         d="m 42.675,1248.3 0.001,22.404 19.458,11.25 0,-22.419 -19.459,-11.235"
         inkscape:connector-curvature="0"
         style="fill:#56a534" />
      <path
         id="path5350"
         d="m 81.593,1248.3 -0.001,22.404 -19.458,11.25 0,-22.419 19.459,-11.235"
         inkscape:connector-curvature="0"
         style="fill:#45762d" />
      <path
         id="path5352"
         d="M 81.593,1248.3 62.118,1237.075 42.676,1248.3 62.135,1259.535 81.594,1248.3"
         inkscape:connector-curvature="0"
         style="fill:#72c837" />
      <path
         id="path5354"
         d="m 39.93,1266.6 0,12.284 10.669,6.1688 0,-12.292 -10.669,-6.16"
         inkscape:connector-curvature="0"
         style="fill:#56a534" />
      <path
         id="path5356"
         d="m 61.269,1266.6 -10e-4,12.284 -10.669,6.1688 0,-12.292 10.67,-6.16"
         inkscape:connector-curvature="0"
         style="fill:#45762d" />
      <path
         id="path5358"
         d="m 61.269,1266.6 -10.679,-6.155 -10.66,6.155 10.669,6.16 10.67,-6.16"
         inkscape:connector-curvature="0"
         style="fill:#72c837" />
      <path
         id="path5360"
         d="m 63.957,1264.1 0,13.928 12.095,6.9938 0,-13.938 -12.095,-6.9838"
         inkscape:connector-curvature="0"
         style="fill:#56a534" />
      <path
         id="path5362"
         d="m 88.148,1264.1 0,13.928 -12.096,6.9938 0,-13.938 12.096,-6.9838"
         inkscape:connector-curvature="0"
         style="fill:#45762d" />
      <path
         id="path5364"
         d="m 88.148,1264.1 -12.106,-6.9775 -12.086,6.9775 12.096,6.9838 12.096,-6.9838"
         inkscape:connector-curvature="0"
         style="fill:#72c837" />
      <path
         id="path5366"
         d="m 59.214,1271.9 0,5.46 4.7425,2.7413 0,-5.4638 -4.7425,-2.7375"
         inkscape:connector-curvature="0"
         style="fill:#56a534" />
      <path
         id="path5368"
         d="m 68.699,1271.9 0,5.46 -4.7425,2.7413 0,-5.4638 4.7425,-2.7375"
         inkscape:connector-curvature="0"
         style="fill:#45762d" />
      <path
         id="path5370"
         d="m 68.699,1271.9 -4.7462,-2.7362 -4.7388,2.7362 4.7425,2.7375 4.7425,-2.7375"
         inkscape:connector-curvature="0"
         style="fill:#72c837" />
      <path
         id="path5372"
         d="m 65.753,1210.8 0,18.441 -1.7975,1.0388 0,-18.442 1.7975,-1.0375"
         inkscape:connector-curvature="0"
         style="fill:#2b3119" />
      <path
         id="path5374"
         d="m 62.159,1210.8 0,18.441 1.7962,1.0388 0,-18.442 -1.7962,-1.0375"
         inkscape:connector-curvature="0"
         style="fill:#444c28" />
      <path
         id="path5376"
         d="m 62.159,1210.8 1.7975,-1.0363 1.7962,1.0363 -1.7975,1.0375 -1.7962,-1.0375"
         inkscape:connector-curvature="0"
         style="fill:#4f5831" />
      <path
         id="path5378"
         d="m 70.143,1223.1 0,2.0437 -1.7962,1.04 0,-2.0462 1.7962,-1.0375"
         inkscape:connector-curvature="0"
         style="fill:#2b3119" />
      <path
         id="path5380"
         d="m 63.955,1221.6 0,2.0437 4.3912,2.5375 0,-2.0462 -4.3912,-2.535"
         inkscape:connector-curvature="0"
         style="fill:#444c28" />
      <path
         id="path5382"
         d="m 63.955,1221.6 1.8,-1.0363 4.3875,2.5338 -1.7962,1.0375 -4.3912,-2.535"
         inkscape:connector-curvature="0"
         style="fill:#4f5831" />
      <path
         id="path5384"
         d="m 70.143,1217.9 0,5.3462 -1.7962,1.0388 0,-5.3475 1.7962,-1.0375"
         inkscape:connector-curvature="0"
         style="fill:#2b3119" />
      <path
         id="path5386"
         d="m 66.549,1217.9 0,5.3462 1.7975,1.0388 0,-5.3475 -1.7975,-1.0375"
         inkscape:connector-curvature="0"
         style="fill:#444c28" />
      <path
         id="path5388"
         d="m 66.549,1217.9 1.7988,-1.0375 1.795,1.0375 -1.7962,1.0375 -1.7975,-1.0375"
         inkscape:connector-curvature="0"
         style="fill:#4f5831" />
      <path
         id="path5390"
         d="m 57.768,1219.8 0,2.045 1.7975,1.0388 0,-2.0463 -1.7975,-1.0375"
         inkscape:connector-curvature="0"
         style="fill:#444c28" />
      <path
         id="path5392"
         d="m 63.955,1218.3 0,2.045 -4.39,2.5363 0,-2.0463 4.39,-2.535"
         inkscape:connector-curvature="0"
         style="fill:#2b3119" />
      <path
         id="path5394"
         d="m 63.955,1218.3 -1.7975,-1.0362 -4.39,2.5337 1.7975,1.0375 4.39,-2.535"
         inkscape:connector-curvature="0"
         style="fill:#4f5831" />
      <path
         id="path5396"
         d="m 57.768,1216 0,3.8938 1.7975,1.0387 0,-3.895 L 57.768,1216"
         inkscape:connector-curvature="0"
         style="fill:#444c28" />
      <path
         id="path5398"
         d="m 61.363,1216 0,3.8938 -1.7975,1.0387 0,-3.895 L 61.363,1216"
         inkscape:connector-curvature="0"
         style="fill:#2b3119" />
      <path
         id="path5400"
         d="m 61.363,1216 -1.8,-1.0362 -1.795,1.0362 1.7975,1.0375 L 61.363,1216"
         inkscape:connector-curvature="0"
         style="fill:#4f5831" />
      <path
         id="path5402"
         d="m 61.82,1191.3 0,6.8437 5.9438,3.4363 0,-6.8475 L 61.82,1191.3"
         inkscape:connector-curvature="0"
         style="fill:#56a534" />
      <path
         id="path5404"
         d="m 73.708,1191.3 -0.001,6.8437 -5.9425,3.4363 0,-6.8475 5.9438,-3.4325"
         inkscape:connector-curvature="0"
         style="fill:#45762d" />
      <path
         id="path5406"
         d="m 73.708,1191.3 -5.9488,-3.4288 -5.9388,3.4288 5.9438,3.4325 5.9438,-3.4325"
         inkscape:connector-curvature="0"
         style="fill:#72c837" />
      <path
         id="path5408"
         d="m 49.357,1196.2 10e-4,15.31 13.296,7.6875 0,-15.321 -13.298,-7.6762"
         inkscape:connector-curvature="0"
         style="fill:#56a534" />
      <path
         id="path5410"
         d="m 75.952,1196.2 -0.001,15.31 -13.296,7.6875 0,-15.321 13.298,-7.6762"
         inkscape:connector-curvature="0"
         style="fill:#45762d" />
      <path
         id="path5412"
         d="m 75.952,1196.2 -13.309,-7.6713 -13.286,7.6713 13.298,7.6762 13.298,-7.6762"
         inkscape:connector-curvature="0"
         style="fill:#72c837" />
      <path
         id="path5414"
         d="m 47.48,1208.7 0.001,8.395 7.29,4.215 0,-8.4013 -7.2912,-4.2087"
         inkscape:connector-curvature="0"
         style="fill:#56a534" />
      <path
         id="path5416"
         d="m 62.062,1208.7 0,8.395 -7.29,4.215 0,-8.4013 7.29,-4.2087"
         inkscape:connector-curvature="0"
         style="fill:#45762d" />
      <path
         id="path5418"
         d="m 62.062,1208.7 -7.2962,-4.2063 -7.285,4.2063 7.2912,4.2087 7.29,-4.2087"
         inkscape:connector-curvature="0"
         style="fill:#72c837" />
      <path
         id="path5420"
         d="m 63.899,1207 0,9.5162 8.2662,4.78 0,-9.5237 L 63.899,1207"
         inkscape:connector-curvature="0"
         style="fill:#56a534" />
      <path
         id="path5422"
         d="m 80.432,1207 -0.001,9.5162 -8.265,4.78 0,-9.5237 8.2662,-4.7725"
         inkscape:connector-curvature="0"
         style="fill:#45762d" />
      <path
         id="path5424"
         d="m 80.432,1207 -8.2738,-4.7688 -8.2588,4.7688 8.2662,4.7725 8.2662,-4.7725"
         inkscape:connector-curvature="0"
         style="fill:#72c837" />
      <path
         id="path5426"
         d="m 60.658,1212.3 0,3.73 3.2412,1.875 0,-3.7338 -3.2412,-1.8712"
         inkscape:connector-curvature="0"
         style="fill:#56a534" />
      <path
         id="path5428"
         d="m 67.14,1212.3 0,3.73 -3.2412,1.875 0,-3.7338 3.2412,-1.8712"
         inkscape:connector-curvature="0"
         style="fill:#45762d" />
      <path
         id="path5430"
         d="m 67.14,1212.3 -3.2438,-1.87 -3.2388,1.87 3.2412,1.8712 3.2412,-1.8712"
         inkscape:connector-curvature="0"
         style="fill:#72c837" />
    </g>
  </g>
</svg>
