<?xml version="1.0" encoding="UTF-8" standalone="no"?>
<!-- Created with Inkscape (http://www.inkscape.org/) -->

<svg
   xmlns:dc="http://purl.org/dc/elements/1.1/"
   xmlns:cc="http://creativecommons.org/ns#"
   xmlns:rdf="http://www.w3.org/1999/02/22-rdf-syntax-ns#"
   xmlns:svg="http://www.w3.org/2000/svg"
   xmlns="http://www.w3.org/2000/svg"
   xmlns:sodipodi="http://sodipodi.sourceforge.net/DTD/sodipodi-0.dtd"
   xmlns:inkscape="http://www.inkscape.org/namespaces/inkscape"
   id="svg6214"
   height="205"
   width="205"
   version="1.1"
   inkscape:version="0.48.5 r10040"
   sodipodi:docname="terrain_grass_solo.svg">
  <defs
     id="defs107" />
  <sodipodi:namedview
     pagecolor="#ffffff"
     bordercolor="#666666"
     borderopacity="1"
     objecttolerance="10"
     gridtolerance="10"
     guidetolerance="10"
     inkscape:pageopacity="0"
     inkscape:pageshadow="2"
     inkscape:window-width="995"
     inkscape:window-height="1041"
     id="namedview105"
     showgrid="false"
     inkscape:zoom="2"
     inkscape:cx="117.05815"
     inkscape:cy="119.33958"
     inkscape:window-x="921"
     inkscape:window-y="18"
     inkscape:window-maximized="0"
     inkscape:current-layer="svg6214"
     showguides="true"
     inkscape:guide-bbox="true">
    <sodipodi:guide
       orientation="0,1"
       position="-0.21875,59.289062"
       id="guide3295" />
    <sodipodi:guide
       orientation="1,0"
       position="102.49105,-5.4346034"
       id="guide3297" />
  </sodipodi:namedview>
  <metadata
     id="metadata6219">
    <rdf:RDF>
      <cc:Work
         rdf:about="">
        <dc:format>image/svg+xml</dc:format>
        <dc:type
           rdf:resource="http://purl.org/dc/dcmitype/StillImage" />
        <dc:title></dc:title>
      </cc:Work>
    </rdf:RDF>
  </metadata>
  <g
     id="g6152"
     transform="translate(610.80237,-1262.9667)">
    <path
       inkscape:connector-curvature="0"
       d="m -611.03012,1396.0688 0.009,12.6088 102.575,59.3112 0,-12.6925 -102.58375,-59.2275"
       style="fill:#b16229;fill-opacity:1;fill-rule:nonzero;stroke:none"
       id="path3431" />
    <path
       inkscape:connector-curvature="0"
       d="m -405.86137,1396.0688 -0.01,12.6088 -102.575,59.3112 0,-12.6925 102.585,-59.2275"
       style="fill:#5f251f;fill-opacity:1;fill-rule:nonzero;stroke:none"
       id="path3433" />
    <path
       inkscape:connector-curvature="0"
       d="m -405.86137,1396.0688 -102.66875,-59.1787 -102.5,59.1787 102.58375,59.2275 102.585,-59.2275"
       style="fill:#b2783e;fill-opacity:1;fill-rule:nonzero;stroke:none"
       id="path3435" />
    <path
       inkscape:connector-curvature="0"
       d="m -611.03137,1383.3813 0.01,12.6088 102.575,59.3112 0,-12.6937 -102.585,-59.2263"
       style="fill:#e6c971;fill-opacity:1;fill-rule:nonzero;stroke:none"
       id="path3437" />
    <path
       inkscape:connector-curvature="0"
       d="m -405.86262,1383.3813 -0.009,12.6088 -102.575,59.3112 0,-12.6937 102.58375,-59.2263"
       style="fill:#bb8233;fill-opacity:1;fill-rule:nonzero;stroke:none"
       id="path3439" />
    <path
       inkscape:connector-curvature="0"
       d="m -405.86262,1383.3813 -102.66875,-59.1787 -102.5,59.1787 102.585,59.2263 102.58375,-59.2263"
       style="fill:#a8a3d9;fill-opacity:1;fill-rule:nonzero;stroke:none"
       id="path3441" />
    <path
       inkscape:connector-curvature="0"
       d="m -611.03137,1356.9851 0.01,26.305 102.575,59.3125 0,-26.3925 -102.585,-59.225"
       style="fill:#549f4a;fill-opacity:1;fill-rule:nonzero;stroke:none"
       id="path3443" />
    <path
       inkscape:connector-curvature="0"
       d="m -405.86262,1356.9851 -0.009,26.305 -102.575,59.3125 0,-26.3925 102.58375,-59.225"
       style="fill:#32624a;fill-opacity:1;fill-rule:nonzero;stroke:none"
       id="path3445" />
    <path
       inkscape:connector-curvature="0"
       d="m -405.86262,1356.9851 -102.66875,-59.1788 -102.5,59.1788 102.585,59.225 102.58375,-59.225"
       style="fill:#9ad536;fill-opacity:1;fill-rule:nonzero;stroke:none"
       id="path3447" />
    <g
       transform="translate(-466.69048,192.93913)"
       id="g5464">
      <path
         id="path3569"
         style="fill:#2b3119;fill-opacity:1;fill-rule:nonzero;stroke:none"
         d="m -34.961498,1150.135 0,18.4412 -1.7975,1.0388 0,-18.4425 1.7975,-1.0375"
         inkscape:connector-curvature="0" />
      <path
         id="path3571"
         style="fill:#444c28;fill-opacity:1;fill-rule:nonzero;stroke:none"
         d="m -38.555248,1150.135 0,18.4412 1.79625,1.0388 0,-18.4425 -1.79625,-1.0375"
         inkscape:connector-curvature="0" />
      <path
         id="path3573"
         style="fill:#4f5831;fill-opacity:1;fill-rule:nonzero;stroke:none"
         d="m -38.555248,1150.135 1.7975,-1.0363 1.79625,1.0363 -1.7975,1.0375 -1.79625,-1.0375"
         inkscape:connector-curvature="0" />
      <path
         id="path3575"
         style="fill:#2b3119;fill-opacity:1;fill-rule:nonzero;stroke:none"
         d="m -30.571498,1162.3925 0,2.0437 -1.79625,1.04 0,-2.0462 1.79625,-1.0375"
         inkscape:connector-curvature="0" />
      <path
         id="path3577"
         style="fill:#444c28;fill-opacity:1;fill-rule:nonzero;stroke:none"
         d="m -36.758998,1160.895 0,2.0437 4.39125,2.5375 0,-2.0462 -4.39125,-2.535"
         inkscape:connector-curvature="0" />
      <path
         id="path3579"
         style="fill:#4f5831;fill-opacity:1;fill-rule:nonzero;stroke:none"
         d="m -36.758998,1160.895 1.8,-1.0363 4.3875,2.5338 -1.79625,1.0375 -4.39125,-2.535"
         inkscape:connector-curvature="0" />
      <path
         id="path3581"
         style="fill:#2b3119;fill-opacity:1;fill-rule:nonzero;stroke:none"
         d="m -30.571498,1157.1525 0,5.3462 -1.79625,1.0388 0,-5.3475 1.79625,-1.0375"
         inkscape:connector-curvature="0" />
      <path
         id="path3583"
         style="fill:#444c28;fill-opacity:1;fill-rule:nonzero;stroke:none"
         d="m -34.165248,1157.1525 0,5.3462 1.7975,1.0388 0,-5.3475 -1.7975,-1.0375"
         inkscape:connector-curvature="0" />
      <path
         id="path3585"
         style="fill:#4f5831;fill-opacity:1;fill-rule:nonzero;stroke:none"
         d="m -34.165248,1157.1525 1.79875,-1.0375 1.795,1.0375 -1.79625,1.0375 -1.7975,-1.0375"
         inkscape:connector-curvature="0" />
      <path
         id="path3587"
         style="fill:#444c28;fill-opacity:1;fill-rule:nonzero;stroke:none"
         d="m -42.946498,1159.0412 0,2.045 1.7975,1.0388 0,-2.0463 -1.7975,-1.0375"
         inkscape:connector-curvature="0" />
      <path
         id="path3589"
         style="fill:#2b3119;fill-opacity:1;fill-rule:nonzero;stroke:none"
         d="m -36.758998,1157.5437 0,2.045 -4.39,2.5363 0,-2.0463 4.39,-2.535"
         inkscape:connector-curvature="0" />
      <path
         id="path3591"
         style="fill:#4f5831;fill-opacity:1;fill-rule:nonzero;stroke:none"
         d="m -36.758998,1157.5437 -1.7975,-1.0362 -4.39,2.5337 1.7975,1.0375 4.39,-2.535"
         inkscape:connector-curvature="0" />
      <path
         id="path3593"
         style="fill:#444c28;fill-opacity:1;fill-rule:nonzero;stroke:none"
         d="m -42.946498,1155.2537 0,3.8938 1.7975,1.0387 0,-3.895 -1.7975,-1.0375"
         inkscape:connector-curvature="0" />
      <path
         id="path3595"
         style="fill:#2b3119;fill-opacity:1;fill-rule:nonzero;stroke:none"
         d="m -39.351498,1155.2537 0,3.8938 -1.7975,1.0387 0,-3.895 1.7975,-1.0375"
         inkscape:connector-curvature="0" />
      <path
         id="path3597"
         style="fill:#4f5831;fill-opacity:1;fill-rule:nonzero;stroke:none"
         d="m -39.351498,1155.2537 -1.8,-1.0362 -1.795,1.0362 1.7975,1.0375 1.7975,-1.0375"
         inkscape:connector-curvature="0" />
      <path
         id="path3599"
         style="fill:#56a534;fill-opacity:1;fill-rule:nonzero;stroke:none"
         d="m -38.893998,1130.54 0,6.8437 5.94375,3.4363 0,-6.8475 -5.94375,-3.4325"
         inkscape:connector-curvature="0" />
      <path
         id="path3601"
         style="fill:#45762d;fill-opacity:1;fill-rule:nonzero;stroke:none"
         d="m -27.006498,1130.54 -10e-4,6.8437 -5.9425,3.4363 0,-6.8475 5.94375,-3.4325"
         inkscape:connector-curvature="0" />
      <path
         id="path3603"
         style="fill:#72c837;fill-opacity:1;fill-rule:nonzero;stroke:none"
         d="m -27.006498,1130.54 -5.94875,-3.4288 -5.93875,3.4288 5.94375,3.4325 5.94375,-3.4325"
         inkscape:connector-curvature="0" />
      <path
         id="path3605"
         style="fill:#56a534;fill-opacity:1;fill-rule:nonzero;stroke:none"
         d="m -51.357748,1135.4775 10e-4,15.31 13.29625,7.6875 0,-15.3213 -13.2975,-7.6762"
         inkscape:connector-curvature="0" />
      <path
         id="path3607"
         style="fill:#45762d;fill-opacity:1;fill-rule:nonzero;stroke:none"
         d="m -24.762748,1135.4775 -0.001,15.31 -13.29625,7.6875 0,-15.3213 13.2975,-7.6762"
         inkscape:connector-curvature="0" />
      <path
         id="path3609"
         style="fill:#72c837;fill-opacity:1;fill-rule:nonzero;stroke:none"
         d="m -24.762748,1135.4775 -13.30875,-7.6713 -13.28625,7.6713 13.2975,7.6762 13.2975,-7.6762"
         inkscape:connector-curvature="0" />
      <path
         id="path3611"
         style="fill:#56a534;fill-opacity:1;fill-rule:nonzero;stroke:none"
         d="m -53.233998,1147.945 10e-4,8.395 7.29,4.215 0,-8.4013 -7.29125,-4.2087"
         inkscape:connector-curvature="0" />
      <path
         id="path3613"
         style="fill:#45762d;fill-opacity:1;fill-rule:nonzero;stroke:none"
         d="m -38.652748,1147.945 0,8.395 -7.29,4.215 0,-8.4013 7.29,-4.2087"
         inkscape:connector-curvature="0" />
      <path
         id="path3615"
         style="fill:#72c837;fill-opacity:1;fill-rule:nonzero;stroke:none"
         d="m -38.652748,1147.945 -7.29625,-4.2063 -7.285,4.2063 7.29125,4.2087 7.29,-4.2087"
         inkscape:connector-curvature="0" />
      <path
         id="path3617"
         style="fill:#56a534;fill-opacity:1;fill-rule:nonzero;stroke:none"
         d="m -36.815248,1146.2675 0,9.5162 8.26625,4.78 0,-9.5237 -8.26625,-4.7725"
         inkscape:connector-curvature="0" />
      <path
         id="path3619"
         style="fill:#45762d;fill-opacity:1;fill-rule:nonzero;stroke:none"
         d="m -20.282748,1146.2675 -10e-4,9.5162 -8.265,4.78 0,-9.5237 8.26625,-4.7725"
         inkscape:connector-curvature="0" />
      <path
         id="path3621"
         style="fill:#72c837;fill-opacity:1;fill-rule:nonzero;stroke:none"
         d="m -20.282748,1146.2675 -8.27375,-4.7688 -8.25875,4.7688 8.26625,4.7725 8.26625,-4.7725"
         inkscape:connector-curvature="0" />
      <path
         id="path3623"
         style="fill:#56a534;fill-opacity:1;fill-rule:nonzero;stroke:none"
         d="m -40.056498,1151.5475 0,3.73 3.24125,1.875 0,-3.7338 -3.24125,-1.8712"
         inkscape:connector-curvature="0" />
      <path
         id="path3625"
         style="fill:#45762d;fill-opacity:1;fill-rule:nonzero;stroke:none"
         d="m -33.573998,1151.5475 0,3.73 -3.24125,1.875 0,-3.7338 3.24125,-1.8712"
         inkscape:connector-curvature="0" />
      <path
         id="path3627"
         style="fill:#72c837;fill-opacity:1;fill-rule:nonzero;stroke:none"
         d="m -33.573998,1151.5475 -3.24375,-1.87 -3.23875,1.87 3.24125,1.8712 3.24125,-1.8712"
         inkscape:connector-curvature="0" />
    </g>
  </g>
</svg>
